<?xml version="1.0" encoding="utf-8"?>
<!-- Generator: Adobe Illustrator 16.0.4, SVG Export Plug-In . SVG Version: 6.00 Build 0)  -->
<!DOCTYPE svg PUBLIC "-//W3C//DTD SVG 1.1//EN" "http://www.w3.org/Graphics/SVG/1.1/DTD/svg11.dtd">
<svg version="1.1" id="Layer_1" xmlns="http://www.w3.org/2000/svg" xmlns:xlink="http://www.w3.org/1999/xlink" x="0px" y="0px"
	 width="204px" height="353.8px" viewBox="0 0 204 353.8" enable-background="new 0 0 204 353.8" xml:space="preserve">
<g>
	
		<linearGradient id="SVGID_1_" gradientUnits="userSpaceOnUse" x1="9677.3008" y1="-16754.375" x2="11315.7012" y2="-16754.375" gradientTransform="matrix(0.0137 0 0 -0.0137 54.1934 -52.1636)">
		<stop  offset="0.0039" style="stop-color:#E6EDF1"/>
		<stop  offset="1" style="stop-color:#C1C2C2"/>
	</linearGradient>
	<path fill="url(#SVGID_1_)" d="M203.5,4.6v344.6c-0.2,2.5-1.55,3.866-4.05,4.1H4.6c-2.5-0.233-3.867-1.6-4.1-4.1V4.6
		c0.233-2.5,1.6-3.867,4.1-4.1h194.85C201.916,0.733,203.267,2.1,203.5,4.6"/>
	<path fill="none" stroke="#999999" stroke-linecap="round" stroke-linejoin="round" d="M203.5,4.6v344.6
		c-0.2,2.5-1.55,3.866-4.05,4.1H4.6c-2.5-0.233-3.867-1.6-4.1-4.1V4.6c0.233-2.5,1.6-3.867,4.1-4.1h194.85
		C201.916,0.733,203.267,2.1,203.5,4.6"/>
	<path fill="none" stroke="#CCCCCC" stroke-linecap="round" stroke-linejoin="round" d="M12.5,9.9h53.95"/>
	<path fill="none" stroke="#CCCCCC" stroke-linecap="round" stroke-linejoin="round" d="M12.5,13.9h53.95"/>
	<path fill="none" stroke="#CCCCCC" stroke-linecap="round" stroke-linejoin="round" d="M12.5,17.9h53.95"/>
	<path fill="none" stroke="#FFFFFF" stroke-linecap="round" stroke-linejoin="round" d="M12.5,8.9h53.95"/>
	<path fill="none" stroke="#FFFFFF" stroke-linecap="round" stroke-linejoin="round" d="M12.5,12.9h53.95"/>
	<path fill="none" stroke="#FFFFFF" stroke-linecap="round" stroke-linejoin="round" d="M12.5,16.9h53.95"/>
	<path fill="none" stroke="#CCCCCC" stroke-linecap="round" stroke-linejoin="round" d="M139,9.9h34.45"/>
	<path fill="none" stroke="#CCCCCC" stroke-linecap="round" stroke-linejoin="round" d="M139,13.9h34.45"/>
	<path fill="none" stroke="#CCCCCC" stroke-linecap="round" stroke-linejoin="round" d="M139,17.9h34.45"/>
	<path fill="none" stroke="#FFFFFF" stroke-linecap="round" stroke-linejoin="round" d="M139,8.9h34.45"/>
	<path fill="none" stroke="#FFFFFF" stroke-linecap="round" stroke-linejoin="round" d="M139,12.9h34.45"/>
	<path fill="none" stroke="#FFFFFF" stroke-linecap="round" stroke-linejoin="round" d="M139,16.9h34.45"/>
</g>
</svg>
