<?xml version="1.0" encoding="utf-8"?>
<!-- Generator: Adobe Illustrator 16.0.4, SVG Export Plug-In . SVG Version: 6.00 Build 0)  -->
<!DOCTYPE svg PUBLIC "-//W3C//DTD SVG 1.1//EN" "http://www.w3.org/Graphics/SVG/1.1/DTD/svg11.dtd">
<svg version="1.1" id="Layer_1" xmlns="http://www.w3.org/2000/svg" xmlns:xlink="http://www.w3.org/1999/xlink" x="0px" y="0px"
	 width="167px" height="34.85px" viewBox="0 0 167 34.85" enable-background="new 0 0 167 34.85" xml:space="preserve">
<g>
	
		<linearGradient id="SVGID_1_" gradientUnits="userSpaceOnUse" x1="7875.9873" y1="5667.9219" x2="9514.3877" y2="5667.9219" gradientTransform="matrix(0 0.0269 0.0269 0 -68.7146 -218.1633)">
		<stop  offset="0" style="stop-color:#EBF7F2"/>
		<stop  offset="0.7294" style="stop-color:#B9D1EE"/>
		<stop  offset="1" style="stop-color:#C0E6ED"/>
	</linearGradient>
	<path fill="url(#SVGID_1_)" d="M165.5,29.35c-0.2,2.466-1.533,3.8-4,4H5.5c-2.433-0.2-3.767-1.534-4-4V5.5
		c0.233-2.434,1.567-3.767,4-4h156c2.467,0.233,3.8,1.566,4,4V29.35"/>
	<path fill="none" stroke="#FFFFFF" stroke-width="3" stroke-linecap="round" stroke-linejoin="round" d="M165.5,29.35
		c-0.2,2.466-1.533,3.8-4,4H5.5c-2.433-0.2-3.767-1.534-4-4V5.5c0.233-2.434,1.567-3.767,4-4h156c2.467,0.233,3.8,1.566,4,4V29.35"
		/>
</g>
</svg>
