<?xml version="1.0" encoding="utf-8"?>
<!-- Generator: Adobe Illustrator 16.0.4, SVG Export Plug-In . SVG Version: 6.00 Build 0)  -->
<!DOCTYPE svg PUBLIC "-//W3C//DTD SVG 1.1//EN" "http://www.w3.org/Graphics/SVG/1.1/DTD/svg11.dtd">
<svg version="1.1" id="Layer_1" xmlns="http://www.w3.org/2000/svg" xmlns:xlink="http://www.w3.org/1999/xlink" x="0px" y="0px"
	 width="8.4px" height="13.2px" viewBox="0 0 8.4 13.2" enable-background="new 0 0 8.4 13.2" xml:space="preserve">
<g>
	<path d="M4.2,0c1.267,0,2.25,0.45,2.95,1.35C7.983,2.383,8.4,4.133,8.4,6.6c0,2.434-0.417,4.184-1.25,5.25
		c-0.7,0.9-1.684,1.35-2.95,1.35s-2.284-0.482-3.05-1.449C0.384,10.784,0,9.049,0,6.55C0,4.15,0.417,2.4,1.25,1.3
		C1.983,0.434,2.967,0,4.2,0 M4.2,2.05c-0.3,0-0.567,0.1-0.8,0.3c-0.233,0.2-0.417,0.533-0.55,1C2.683,4.017,2.6,5.1,2.6,6.6
		S2.666,9.133,2.8,9.7c0.167,0.566,0.367,0.95,0.601,1.15c0.232,0.167,0.5,0.268,0.8,0.3c0.3-0.032,0.566-0.133,0.8-0.3
		c0.233-0.2,0.417-0.551,0.55-1.051C5.717,9.167,5.8,8.1,5.8,6.6S5.733,4.066,5.6,3.5C5.433,2.934,5.233,2.55,5,2.35
		C4.767,2.15,4.5,2.05,4.2,2.05"/>
</g>
</svg>
