<?xml version="1.0" encoding="utf-8"?>
<!-- Generator: Adobe Illustrator 16.0.4, SVG Export Plug-In . SVG Version: 6.00 Build 0)  -->
<!DOCTYPE svg PUBLIC "-//W3C//DTD SVG 1.1//EN" "http://www.w3.org/Graphics/SVG/1.1/DTD/svg11.dtd">
<svg version="1.1" id="Layer_1" xmlns="http://www.w3.org/2000/svg" xmlns:xlink="http://www.w3.org/1999/xlink" x="0px" y="0px"
	 width="8.6px" height="13.2px" viewBox="0 0 8.6 13.2" enable-background="new 0 0 8.6 13.2" xml:space="preserve">
<g>
	<path d="M0.25,9.95l2.4-0.25c0.067,0.466,0.217,0.816,0.45,1.05c0.233,0.267,0.55,0.4,0.95,0.4c0.534-0.033,0.967-0.283,1.3-0.75
		c0.367-0.466,0.6-1.433,0.7-2.9C5.417,8.2,4.633,8.55,3.7,8.55c-1,0-1.867-0.383-2.6-1.15C0.367,6.6,0,5.583,0,4.35
		C0,3.05,0.383,2,1.15,1.2c0.8-0.8,1.8-1.2,3-1.2c1.3,0,2.367,0.5,3.2,1.5c0.833,1.033,1.25,2.7,1.25,5c0,2.367-0.434,4.066-1.3,5.1
		c-0.9,1.066-2.033,1.6-3.4,1.6c-1.033,0-1.85-0.267-2.45-0.8C0.817,11.833,0.417,11.017,0.25,9.95 M5.8,4.55
		c0-0.8-0.183-1.417-0.55-1.85C4.917,2.267,4.5,2.05,4,2.05c-0.433,0-0.8,0.184-1.1,0.55C2.6,2.967,2.45,3.55,2.45,4.35
		c0,0.833,0.15,1.433,0.45,1.8c0.333,0.4,0.75,0.6,1.25,0.6c0.467,0,0.867-0.184,1.2-0.55C5.65,5.833,5.8,5.283,5.8,4.55"/>
</g>
</svg>
