<?xml version="1.0" encoding="utf-8"?>
<!-- Generator: Adobe Illustrator 16.0.4, SVG Export Plug-In . SVG Version: 6.00 Build 0)  -->
<!DOCTYPE svg PUBLIC "-//W3C//DTD SVG 1.1//EN" "http://www.w3.org/Graphics/SVG/1.1/DTD/svg11.dtd">
<svg version="1.1" id="Layer_1" xmlns="http://www.w3.org/2000/svg" xmlns:xlink="http://www.w3.org/1999/xlink" x="0px" y="0px"
	 width="35.5px" height="37px" viewBox="0 0 35.5 37" enable-background="new 0 0 35.5 37" xml:space="preserve">
<g>
	
		<linearGradient id="SVGID_1_" gradientUnits="userSpaceOnUse" x1="-11902.8262" y1="-6206.3281" x2="-10264.4863" y2="-6206.3281" gradientTransform="matrix(0 -0.0211 -0.022 -1.525879e-05 -118.6199 -214.9844)">
		<stop  offset="0.0039" style="stop-color:#7B7B7B"/>
		<stop  offset="0.3059" style="stop-color:#1F1C20"/>
		<stop  offset="0.7333" style="stop-color:#0D0D0D"/>
		<stop  offset="0.9882" style="stop-color:#7B7B7B"/>
	</linearGradient>
	<path fill="url(#SVGID_1_)" d="M35,2.65v31.7c-0.133,1.3-0.85,2.017-2.15,2.15H2.65c-1.3-0.133-2.017-0.85-2.15-2.15V2.65
		c0.133-1.3,0.85-2.017,2.15-2.15h30.2C34.15,0.633,34.867,1.35,35,2.65"/>
	<path fill="none" stroke="#666666" stroke-linecap="round" stroke-linejoin="round" d="M35,2.65v31.7
		c-0.133,1.3-0.85,2.017-2.15,2.15H2.65c-1.3-0.133-2.017-0.85-2.15-2.15V2.65c0.133-1.3,0.85-2.017,2.15-2.15h30.2
		C34.15,0.633,34.867,1.35,35,2.65"/>
</g>
</svg>
