<?xml version="1.0" encoding="utf-8"?>
<!-- Generator: Adobe Illustrator 16.0.4, SVG Export Plug-In . SVG Version: 6.00 Build 0)  -->
<!DOCTYPE svg PUBLIC "-//W3C//DTD SVG 1.1//EN" "http://www.w3.org/Graphics/SVG/1.1/DTD/svg11.dtd">
<svg version="1.1" id="Layer_1" xmlns="http://www.w3.org/2000/svg" xmlns:xlink="http://www.w3.org/1999/xlink" x="0px" y="0px"
	 width="35.5px" height="37px" viewBox="0 0 35.5 37" enable-background="new 0 0 35.5 37" xml:space="preserve">
<g>
	
		<linearGradient id="SVGID_1_" gradientUnits="userSpaceOnUse" x1="10222.1758" y1="7109.7812" x2="11860.5762" y2="7109.7812" gradientTransform="matrix(0 0.0211 0.0211 0 -132.6129 -213.6603)">
		<stop  offset="0.0039" style="stop-color:#FFFFFF"/>
		<stop  offset="0.3059" style="stop-color:#E8E8ED"/>
		<stop  offset="0.7333" style="stop-color:#DEE3E3"/>
		<stop  offset="0.9882" style="stop-color:#FFFFFF"/>
	</linearGradient>
	<path fill="url(#SVGID_1_)" d="M35,34.35c-0.133,1.3-0.85,2.017-2.15,2.15H2.65c-1.3-0.133-2.017-0.85-2.15-2.15V2.65
		c0.133-1.3,0.85-2.017,2.15-2.15h30.2c1.3,0.133,2.017,0.85,2.15,2.15V34.35"/>
	<path fill="none" stroke="#666666" stroke-linecap="round" stroke-linejoin="round" d="M35,34.35c-0.133,1.3-0.85,2.017-2.15,2.15
		H2.65c-1.3-0.133-2.017-0.85-2.15-2.15V2.65c0.133-1.3,0.85-2.017,2.15-2.15h30.2c1.3,0.133,2.017,0.85,2.15,2.15V34.35"/>
</g>
</svg>
