<?xml version="1.0" encoding="utf-8"?>
<!-- Generator: Adobe Illustrator 16.0.4, SVG Export Plug-In . SVG Version: 6.00 Build 0)  -->
<!DOCTYPE svg PUBLIC "-//W3C//DTD SVG 1.1//EN" "http://www.w3.org/Graphics/SVG/1.1/DTD/svg11.dtd">
<svg version="1.1" id="Layer_1" xmlns="http://www.w3.org/2000/svg" xmlns:xlink="http://www.w3.org/1999/xlink" x="0px" y="0px"
	 width="8.65px" height="12.95px" viewBox="0 0 8.65 12.95" enable-background="new 0 0 8.65 12.95" xml:space="preserve">
<g>
	<path d="M8.65,10.65v2.3H0c0.1-0.867,0.383-1.684,0.85-2.45c0.467-0.8,1.4-1.833,2.8-3.1c1.1-1.033,1.783-1.733,2.05-2.1
		c0.333-0.533,0.5-1.05,0.5-1.55c0-0.533-0.15-0.95-0.45-1.25S5.033,2.05,4.5,2.05s-0.95,0.167-1.25,0.5
		c-0.3,0.3-0.483,0.8-0.55,1.5L0.25,3.8c0.133-1.333,0.6-2.3,1.4-2.9C2.417,0.3,3.383,0,4.55,0c1.267,0,2.267,0.35,3,1.05
		c0.733,0.667,1.1,1.517,1.1,2.55c0,0.566-0.1,1.117-0.3,1.65c-0.2,0.533-0.533,1.083-1,1.65c-0.3,0.367-0.833,0.917-1.6,1.65
		c-0.8,0.7-1.3,1.167-1.5,1.4c-0.2,0.267-0.367,0.5-0.5,0.7H8.65"/>
</g>
</svg>
