<?xml version="1.0" encoding="utf-8"?>
<!-- Generator: Adobe Illustrator 16.0.4, SVG Export Plug-In . SVG Version: 6.00 Build 0)  -->
<!DOCTYPE svg PUBLIC "-//W3C//DTD SVG 1.1//EN" "http://www.w3.org/Graphics/SVG/1.1/DTD/svg11.dtd">
<svg version="1.1" id="Layer_1" xmlns="http://www.w3.org/2000/svg" xmlns:xlink="http://www.w3.org/1999/xlink" x="0px" y="0px"
	 width="8.55px" height="13.2px" viewBox="0 0 8.55 13.2" enable-background="new 0 0 8.55 13.2" xml:space="preserve">
<g>
	<path d="M0,9.55l2.4-0.3c0.067,0.6,0.267,1.066,0.6,1.4c0.333,0.3,0.733,0.467,1.2,0.5c0.5-0.033,0.933-0.233,1.3-0.6
		C5.833,10.15,6,9.633,6,9S5.833,7.867,5.5,7.5S4.767,6.95,4.3,6.95c-0.3,0-0.667,0.066-1.1,0.2l0.25-2
		C4.117,5.184,4.633,5.033,5,4.7C5.333,4.4,5.5,4,5.5,3.5c0-0.434-0.133-0.783-0.4-1.05c-0.233-0.267-0.567-0.4-1-0.4
		C3.667,2.05,3.3,2.2,3,2.5S2.517,3.233,2.45,3.8L0.2,3.4c0.133-0.8,0.367-1.433,0.7-1.9c0.333-0.467,0.783-0.833,1.35-1.1
		S3.45,0,4.15,0c1.2,0,2.167,0.383,2.9,1.15c0.6,0.667,0.9,1.383,0.9,2.15c0,1.167-0.617,2.083-1.85,2.75
		C6.833,6.217,7.433,6.566,7.9,7.1c0.434,0.566,0.65,1.233,0.65,2c0,1.133-0.417,2.1-1.25,2.9c-0.833,0.8-1.867,1.2-3.1,1.2
		c-1.133,0-2.083-0.333-2.85-1C0.583,11.5,0.133,10.617,0,9.55"/>
</g>
</svg>
