<?xml version="1.0" encoding="utf-8"?>
<!-- Generator: Adobe Illustrator 16.0.4, SVG Export Plug-In . SVG Version: 6.00 Build 0)  -->
<!DOCTYPE svg PUBLIC "-//W3C//DTD SVG 1.1//EN" "http://www.w3.org/Graphics/SVG/1.1/DTD/svg11.dtd">
<svg version="1.1" id="Layer_1" xmlns="http://www.w3.org/2000/svg" xmlns:xlink="http://www.w3.org/1999/xlink" x="0px" y="0px"
	 width="10px" height="11.9px" viewBox="0 0 10 11.9" enable-background="new 0 0 10 11.9" xml:space="preserve">
<g>
	<path d="M7.75,7.45L10,8.15c-0.333,1.267-0.9,2.2-1.7,2.8c-0.833,0.633-1.85,0.95-3.05,0.95c-1.533-0.033-2.8-0.566-3.8-1.6
		C0.483,9.267,0,7.85,0,6.05C0,4.117,0.5,2.633,1.5,1.6C2.467,0.533,3.75,0,5.35,0C6.783,0,7.933,0.417,8.8,1.25
		c0.534,0.467,0.917,1.167,1.15,2.1L7.7,3.9C7.567,3.3,7.283,2.833,6.85,2.5c-0.434-0.367-0.967-0.55-1.6-0.55
		c-0.867,0-1.567,0.316-2.1,0.95C2.65,3.5,2.4,4.483,2.4,5.85C2.367,7.316,2.617,8.367,3.15,9C3.683,9.6,4.367,9.9,5.2,9.9
		c0.6,0,1.133-0.2,1.6-0.6C7.233,8.934,7.55,8.316,7.75,7.45"/>
</g>
</svg>
