<?xml version="1.0" encoding="utf-8"?>
<!-- Generator: Adobe Illustrator 16.0.4, SVG Export Plug-In . SVG Version: 6.00 Build 0)  -->
<!DOCTYPE svg PUBLIC "-//W3C//DTD SVG 1.1//EN" "http://www.w3.org/Graphics/SVG/1.1/DTD/svg11.dtd">
<svg version="1.1" id="Layer_1" xmlns="http://www.w3.org/2000/svg" xmlns:xlink="http://www.w3.org/1999/xlink" x="0px" y="0px"
	 width="23.707px" height="23.922px" viewBox="0 0 23.707 23.922" enable-background="new 0 0 23.707 23.922" xml:space="preserve">
<g enable-background="new    ">
	<path d="M11.971,11.657c-0.384,1.416-1.026,2.464-1.926,3.142s-2.04,1.017-3.42,1.017c-0.936,0-1.77-0.168-2.502-0.504
		s-1.347-0.798-1.845-1.386s-0.879-1.281-1.143-2.079c-0.264-0.798-0.396-1.659-0.396-2.583c0-0.972,0.128-1.872,0.387-2.7
		c0.258-0.828,0.642-1.542,1.152-2.142c0.51-0.601,1.14-1.071,1.89-1.413s1.617-0.513,2.601-0.513c1.584,0,2.868,0.468,3.852,1.403
		c0.588,0.553,1.026,1.339,1.314,2.358l-2.574,0.63C9.229,6.203,8.914,5.673,8.416,5.295S7.327,4.728,6.643,4.728
		c-0.6,0-1.107,0.111-1.521,0.333C4.708,5.283,4.375,5.592,4.123,5.987c-0.252,0.396-0.432,0.858-0.54,1.387
		c-0.108,0.527-0.162,1.098-0.162,1.71c0,0.624,0.051,1.209,0.153,1.755c0.102,0.546,0.272,1.022,0.513,1.431
		s0.564,0.732,0.972,0.972c0.408,0.24,0.918,0.36,1.53,0.36c0.696,0,1.293-0.219,1.791-0.657c0.498-0.438,0.855-1.131,1.071-2.079
		L11.971,11.657z"/>
	<path d="M13.267,2.712h9.558V4.89h-6.966v2.862h6.48V9.93h-6.48v3.492h7.199V15.6h-9.791V2.712z"/>
</g>
</svg>
