<?xml version="1.0" encoding="utf-8"?>
<!-- Generator: Adobe Illustrator 16.0.4, SVG Export Plug-In . SVG Version: 6.00 Build 0)  -->
<!DOCTYPE svg PUBLIC "-//W3C//DTD SVG 1.1//EN" "http://www.w3.org/Graphics/SVG/1.1/DTD/svg11.dtd">
<svg version="1.1" id="Layer_1" xmlns="http://www.w3.org/2000/svg" xmlns:xlink="http://www.w3.org/1999/xlink" x="0px" y="0px"
	 width="22.6px" height="11.85px" viewBox="0 0 22.6 11.85" enable-background="new 0 0 22.6 11.85" xml:space="preserve">
<g>
	<path d="M3.45,0.2L5.5,8l2.1-7.8h3.45v11.45H8.9v-9l-2.3,9H4.4l-2.25-9v9H0V0.2H3.45 M20.25,3.9c-0.133-0.6-0.417-1.066-0.85-1.4
		C18.967,2.167,18.45,2,17.85,2c-0.833,0-1.517,0.3-2.05,0.9C15.267,3.5,15,4.483,15,5.85c0,1.466,0.25,2.5,0.75,3.1
		c0.533,0.6,1.217,0.9,2.05,0.9c0.633,0,1.167-0.184,1.6-0.55c0.434-0.4,0.75-1.017,0.95-1.85l2.25,0.7
		c-0.367,1.267-0.95,2.2-1.75,2.8c-0.8,0.6-1.8,0.9-3,0.9c-1.533,0-2.783-0.517-3.75-1.55c-1-1.033-1.5-2.45-1.5-4.25
		c0-1.933,0.5-3.417,1.5-4.45C15.067,0.533,16.35,0,17.95,0c1.4,0,2.55,0.417,3.45,1.25c0.5,0.5,0.883,1.2,1.15,2.1L20.25,3.9"/>
</g>
</svg>
