<?xml version="1.0" encoding="utf-8"?>
<!-- Generator: Adobe Illustrator 16.0.4, SVG Export Plug-In . SVG Version: 6.00 Build 0)  -->
<!DOCTYPE svg PUBLIC "-//W3C//DTD SVG 1.1//EN" "http://www.w3.org/Graphics/SVG/1.1/DTD/svg11.dtd">
<svg version="1.1" id="Layer_1" xmlns="http://www.w3.org/2000/svg" xmlns:xlink="http://www.w3.org/1999/xlink" x="0px" y="0px"
	 width="12.55px" height="10.35px" viewBox="0 0 12.55 10.35" enable-background="new 0 0 12.55 10.35" xml:space="preserve">
<g>
	<path fill="#FFFFFF" d="M12.55,5.95H0v-1.6h12.55V5.95 M7.35,2.6L6.3,3.05c-0.433,0-0.8-0.15-1.1-0.45C4.9,2.3,4.75,1.934,4.75,1.5
		c0-0.4,0.15-0.75,0.45-1.05C5.5,0.15,5.867,0,6.3,0c0.4,0,0.75,0.15,1.05,0.45C7.65,0.75,7.8,1.1,7.8,1.5
		C7.8,1.934,7.65,2.3,7.35,2.6 M7.35,9.95c-0.3,0.267-0.65,0.4-1.05,0.4c-0.433,0-0.8-0.133-1.1-0.4c-0.267-0.3-0.4-0.667-0.4-1.1
		c0-0.4,0.133-0.75,0.4-1.05c0.3-0.3,0.667-0.45,1.1-0.45c0.4,0,0.75,0.15,1.05,0.45C7.65,8.1,7.8,8.45,7.8,8.85
		C7.8,9.283,7.65,9.65,7.35,9.95"/>
</g>
</svg>
