<?xml version="1.0" encoding="utf-8"?>
<!-- Generator: Adobe Illustrator 16.0.4, SVG Export Plug-In . SVG Version: 6.00 Build 0)  -->
<!DOCTYPE svg PUBLIC "-//W3C//DTD SVG 1.1//EN" "http://www.w3.org/Graphics/SVG/1.1/DTD/svg11.dtd">
<svg version="1.1" id="inchTickmarks" xmlns="http://www.w3.org/2000/svg" xmlns:xlink="http://www.w3.org/1999/xlink" x="0px"
	 y="0px" width="510px" height="74px" viewBox="-0.5 -0.5 510 74" enable-background="new -0.5 -0.5 510 74" xml:space="preserve">
<g>
	<path d="M492.55,17.3h4v0.55l-2.75,5.75H492.9l2.75-5.55V18h-3.101V17.3 M424.45,17.85l-0.65,0.05c-0.667,0.133-1.184,0.4-1.55,0.8
		c-0.333,0.433-0.55,0.917-0.65,1.45h0.051c0.3-0.466,0.8-0.716,1.5-0.75c0.566,0,1.033,0.184,1.399,0.55
		c0.333,0.367,0.5,0.867,0.5,1.5c0,0.6-0.184,1.116-0.55,1.55s-0.883,0.65-1.55,0.65s-1.2-0.233-1.601-0.7
		c-0.399-0.5-0.6-1.15-0.6-1.95c0.033-1.267,0.383-2.217,1.05-2.85c0.566-0.533,1.25-0.85,2.05-0.95l0.601-0.05V17.85 M422.9,20.05
		c-0.534,0.034-0.934,0.3-1.2,0.8L421.6,21.2c0,0.533,0.117,0.966,0.351,1.3S422.533,23,423,23c0.767-0.033,1.167-0.533,1.2-1.5
		C424.167,20.567,423.733,20.083,422.9,20.05 M352.5,18h-2.4l-0.25,1.6h0.5l1.351,0.3c0.566,0.3,0.866,0.85,0.899,1.65
		c0,0.634-0.217,1.15-0.649,1.55c-0.434,0.4-1,0.6-1.7,0.6c-0.7-0.034-1.217-0.167-1.55-0.4l0.2-0.65l1.35,0.35l1.05-0.35
		c0.3-0.233,0.45-0.566,0.45-1c0.033-0.9-0.566-1.367-1.8-1.4l-0.9,0.05l0.45-3h3V18 M279.45,17.3v3.95h0.85v0.65h-0.85v1.7h-0.8
		v-1.7h-2.95v-0.55l2.8-4.05H279.45 M276.55,21.2v0.05h2.101V19.1v-1l-0.551,0.95L276.55,21.2 M206.9,17.15
		c0.6,0,1.05,0.15,1.35,0.45c0.3,0.3,0.45,0.65,0.45,1.05c0,0.7-0.383,1.2-1.15,1.5c0.4,0.067,0.733,0.25,1,0.55l0.4,1.1
		c0,0.5-0.2,0.934-0.6,1.3s-0.967,0.55-1.7,0.55l-1.65-0.4l0.25-0.65c0.267,0.2,0.733,0.333,1.4,0.4c0.533-0.033,0.9-0.184,1.1-0.45
		l0.3-0.8c-0.033-0.433-0.2-0.75-0.5-0.95c-0.333-0.2-0.7-0.3-1.1-0.3h-0.5v-0.65h0.5l0.9-0.25c0.3-0.167,0.467-0.434,0.5-0.8
		l-0.25-0.65c-0.2-0.2-0.483-0.3-0.85-0.3c-0.567,0.033-1,0.167-1.3,0.4l-0.2-0.6C205.617,17.35,206.167,17.184,206.9,17.15
		 M135.35,17.15c0.667,0.034,1.15,0.233,1.45,0.6c0.333,0.367,0.483,0.783,0.45,1.25c0,0.567-0.183,1.117-0.55,1.65l-1.6,1.7
		l-0.5,0.5h2.8v0.7h-4v-0.5l0.65-0.65l1.8-1.9c0.367-0.467,0.55-0.934,0.55-1.4l-0.25-0.85c-0.2-0.267-0.533-0.4-1-0.4
		c-0.566,0.066-1,0.25-1.3,0.55l-0.3-0.6C134.017,17.4,134.617,17.184,135.35,17.15 M61.5,18.05l1.4-0.75h0.7v6.3h-0.8v-5.5h-0.05
		l-1.1,0.6L61.5,18.05"/>
	<path fill="none" stroke="#000000" stroke-linecap="round" stroke-linejoin="round" d="M494.75,0v13.25 M467.8,0v6.8 M449.8,0v6.8
		 M476.75,0v6.8 M485.75,0v6.8 M440.8,0v6.8 M431.8,0v6.8 M413.8,0v6.8 M422.8,0v13.25 M368.85,0v6.8 M377.8,0v6.8 M404.8,0v6.8
		 M395.8,0v6.8 M359.85,0v6.8 M350.85,0v13.25 M332.85,0v6.8 M341.85,0v6.8 M287.85,0v6.8 M296.85,0v6.8 M305.85,0v6.8 M323.85,0
		v6.8 M269.9,0v6.8 M278.85,0v13.25 M260.9,0v6.8 M251.9,0v6.8 M233.9,0v6.8 M224.9,0v6.8 M215.9,0v6.8 M206.9,0v13.25 M179.9,0v6.8
		 M188.9,0v6.8 M197.9,0v6.8 M161.95,0v6.8 M152.95,0v6.8 M143.95,0v6.8 M125.95,0v6.8 M134.95,0v13.25 M81,0v6.8 M107.95,0v6.8
		 M89.95,0v6.8 M116.95,0v6.8 M72,0v6.8 M63,0v13.25 M45,0v6.8 M54,0v6.8 M0,0v6.8 M9,0v6.8 M18,0v6.8 M36,0v6.8"/>
	<path fill="none" stroke="#000000" stroke-width="2" stroke-linecap="round" stroke-linejoin="round" d="M458.8,0v10.6 M386.8,0
		v10.6 M314.85,0v10.6 M242.9,0v10.6 M170.95,0v10.6 M98.95,0v10.6 M27,0v10.6"/>
</g>
</svg>
