<?xml version="1.0" encoding="utf-8"?>
<!-- Generator: Adobe Illustrator 16.0.4, SVG Export Plug-In . SVG Version: 6.00 Build 0)  -->
<!DOCTYPE svg PUBLIC "-//W3C//DTD SVG 1.1//EN" "http://www.w3.org/Graphics/SVG/1.1/DTD/svg11.dtd">
<svg version="1.1" id="cmTickmarks" xmlns="http://www.w3.org/2000/svg" xmlns:xlink="http://www.w3.org/1999/xlink" x="0px"
	 y="0px" width="510px" height="74px" viewBox="-0.5 -0.5 510 74" enable-background="new -0.5 -0.5 510 74" xml:space="preserve">
<g>
	<path d="M507.45,16.6c0.633,0,1.116,0.167,1.45,0.5c0.3,0.3,0.449,0.667,0.449,1.1c0.034,0.6-0.316,1.1-1.05,1.5v0.05
		c0.833,0.333,1.267,0.9,1.3,1.7c-0.033,0.567-0.25,1.017-0.649,1.35c-0.4,0.333-0.917,0.5-1.55,0.5c-0.7,0-1.233-0.167-1.601-0.5
		c-0.399-0.333-0.6-0.75-0.6-1.25c0.033-0.8,0.467-1.383,1.3-1.75c-0.733-0.4-1.083-0.883-1.05-1.45c0-0.534,0.184-0.95,0.55-1.25
		C506.4,16.767,506.884,16.6,507.45,16.6 M506.6,17.55c-0.199,0.2-0.3,0.434-0.3,0.7c0.033,0.633,0.45,1.033,1.25,1.2
		c0.601-0.167,0.934-0.55,1-1.15l-0.25-0.75c-0.2-0.2-0.483-0.3-0.85-0.3C507.083,17.25,506.8,17.35,506.6,17.55 M506.1,21.45
		c0,0.333,0.117,0.617,0.351,0.85s0.55,0.367,0.95,0.4c0.833-0.066,1.267-0.466,1.3-1.2c-0.033-0.733-0.5-1.2-1.4-1.4
		C506.5,20.333,506.1,20.783,506.1,21.45 M502.85,23.2H502v-5.7l-1.15,0.65l-0.149-0.7l1.399-0.75h0.75V23.2 M481.35,16.7h4.101v0.6
		l-2.851,5.9H481.7l2.85-5.75h-3.2V16.7 M476.85,18.15l-0.149-0.7l1.399-0.75h0.75v6.5H478v-5.7L476.85,18.15 M448.5,18.15
		l-0.15-0.7l1.4-0.75h0.75v6.5h-0.85v-5.7L448.5,18.15 M453.45,22.55c-0.434-0.466-0.65-1.133-0.65-2
		c0.033-1.3,0.4-2.283,1.101-2.95c0.566-0.534,1.267-0.85,2.1-0.95l0.6-0.05v0.7l-0.649,0.05c-0.7,0.133-1.233,0.417-1.601,0.85
		c-0.366,0.434-0.583,0.934-0.649,1.5c0.333-0.466,0.866-0.733,1.6-0.8c0.601,0.033,1.067,0.233,1.4,0.6
		c0.366,0.367,0.55,0.867,0.55,1.5s-0.184,1.167-0.55,1.6c-0.4,0.466-0.934,0.7-1.601,0.7C454.4,23.3,453.85,23.05,453.45,22.55
		 M453.75,20.4l-0.1,0.35c0,0.566,0.133,1.017,0.399,1.35c0.233,0.333,0.584,0.517,1.05,0.55c0.801-0.066,1.217-0.583,1.25-1.55
		c-0.033-0.967-0.467-1.467-1.3-1.5C454.45,19.633,454.017,19.9,453.75,20.4 M426.3,17.45l-0.25,1.65l0.5-0.05
		c0.533,0,1,0.117,1.4,0.35c0.566,0.267,0.883,0.833,0.95,1.7c-0.034,0.633-0.267,1.167-0.7,1.6c-0.434,0.4-1.017,0.6-1.75,0.6
		l-1.601-0.4l0.2-0.65l1.4,0.35c0.434,0,0.8-0.134,1.1-0.4l0.45-1c0.033-0.933-0.583-1.417-1.85-1.45l-0.9,0.05l0.4-3.1h3.1v0.75
		H426.3 M420.5,18.15l-0.15-0.7l1.4-0.75h0.75v6.5h-0.85v-5.7L420.5,18.15 M392.15,18.15l-0.15-0.7l1.4-0.75h0.75v6.5H393.3v-5.7
		L392.15,18.15 M399.25,17.55l-0.5,0.95l-1.6,2.25h2.1v-2.2l0.05-1H399.25 M396.25,20.85l2.9-4.15h0.949v4.05h0.9v0.7h-0.9v1.75
		h-0.85v-1.75h-3V20.85 M369.9,17.3c-0.566,0.067-1,0.217-1.301,0.45l-0.25-0.65c0.4-0.3,0.967-0.467,1.7-0.5
		c0.634,0,1.101,0.167,1.4,0.5c0.3,0.3,0.45,0.65,0.45,1.05c0,0.7-0.4,1.217-1.2,1.55c0.399,0.067,0.75,0.25,1.05,0.55
		c0.267,0.3,0.4,0.667,0.4,1.1c0,0.533-0.2,1-0.601,1.4c-0.399,0.367-0.983,0.55-1.75,0.55c-0.767-0.033-1.333-0.167-1.7-0.4
		l0.25-0.7c0.301,0.2,0.783,0.333,1.45,0.4c0.534,0,0.917-0.134,1.15-0.4l0.3-0.85c-0.033-0.467-0.217-0.8-0.55-1
		c-0.3-0.2-0.684-0.3-1.15-0.3h-0.45V19.4h0.45l1-0.25c0.3-0.2,0.45-0.483,0.45-0.85l-0.25-0.7C370.584,17.4,370.3,17.3,369.9,17.3
		 M365.75,16.7v6.5h-0.85v-5.7l-1.15,0.65l-0.15-0.7l1.4-0.75H365.75 M343.85,20.2L342.2,22l-0.5,0.45v0.05h2.899v0.7h-4.149v-0.55
		l0.7-0.65l1.8-1.95c0.399-0.5,0.6-0.983,0.6-1.45l-0.25-0.9c-0.2-0.233-0.533-0.35-1-0.35l-0.8,0.15l-0.6,0.4l-0.301-0.65
		c0.467-0.4,1.084-0.617,1.851-0.65c0.7,0.033,1.2,0.233,1.5,0.6c0.333,0.367,0.5,0.8,0.5,1.3
		C344.45,19.066,344.25,19.633,343.85,20.2 M336.05,18.15l-0.149-0.7l1.399-0.75h0.75v6.5h-0.85v-5.7L336.05,18.15 M307.4,18.15
		l-0.15-0.7l1.4-0.75h0.75v6.5h-0.851v-5.7L307.4,18.15 M312.35,17.45l1.4-0.75h0.75v6.5h-0.85v-5.7l-1.15,0.65L312.35,17.45
		 M285.2,17.3c-0.4,0-0.717,0.233-0.95,0.7c-0.233,0.466-0.35,1.117-0.35,1.95c0,0.833,0.116,1.483,0.35,1.95
		c0.2,0.5,0.517,0.75,0.95,0.75c0.433,0,0.767-0.25,1-0.75l0.3-1.95L286.2,18C286,17.533,285.666,17.3,285.2,17.3 M286.85,17.45
		c0.367,0.6,0.551,1.417,0.551,2.45c-0.033,2.233-0.783,3.367-2.25,3.4c-0.634,0-1.15-0.283-1.551-0.85
		c-0.366-0.566-0.566-1.383-0.6-2.45c0-1.1,0.217-1.95,0.65-2.55c0.399-0.566,0.934-0.85,1.6-0.85
		C285.95,16.6,286.483,16.883,286.85,17.45 M279.85,17.5l-1.149,0.65l-0.15-0.7l1.4-0.75h0.75v6.5h-0.851V17.5 M254.05,17.7
		c-0.233,0.3-0.35,0.684-0.35,1.15c0.033,0.867,0.45,1.333,1.25,1.4c0.6-0.034,1.017-0.267,1.25-0.7l0.1-0.3l-0.3-1.4
		c-0.233-0.367-0.584-0.567-1.05-0.6C254.584,17.283,254.283,17.433,254.05,17.7 M255.05,16.6c0.667,0,1.184,0.25,1.55,0.75
		c0.367,0.466,0.566,1.133,0.601,2c-0.067,1.4-0.45,2.417-1.15,3.05c-0.533,0.5-1.167,0.783-1.899,0.85l-0.801,0.05v-0.7l0.7-0.05
		c0.534-0.066,1-0.267,1.4-0.6c0.433-0.4,0.716-0.983,0.85-1.75h-0.05c-0.367,0.467-0.883,0.7-1.55,0.7c-0.567,0-1.034-0.2-1.4-0.6
		c-0.333-0.367-0.5-0.833-0.5-1.4c0-0.633,0.2-1.167,0.601-1.6C253.8,16.867,254.35,16.633,255.05,16.6 M228.3,18.2
		c0.034,0.6-0.316,1.1-1.05,1.5v0.05c0.834,0.333,1.267,0.9,1.3,1.7c-0.033,0.567-0.25,1.017-0.649,1.35
		c-0.4,0.333-0.917,0.5-1.551,0.5c-0.699,0-1.232-0.167-1.6-0.5c-0.4-0.333-0.6-0.75-0.6-1.25c0.033-0.8,0.467-1.383,1.3-1.75
		c-0.733-0.4-1.083-0.883-1.05-1.45c0-0.534,0.184-0.95,0.55-1.25c0.399-0.333,0.884-0.5,1.45-0.5c0.633,0,1.116,0.167,1.449,0.5
		L228.3,18.2 M225.25,18.25c0.033,0.633,0.45,1.033,1.25,1.2c0.6-0.167,0.934-0.55,1-1.15l-0.25-0.75c-0.2-0.2-0.483-0.3-0.85-0.3
		c-0.367,0-0.65,0.1-0.851,0.3C225.35,17.75,225.25,17.983,225.25,18.25 M226.35,22.7c0.834-0.066,1.268-0.466,1.301-1.2
		c-0.033-0.733-0.5-1.2-1.4-1.4c-0.8,0.233-1.2,0.683-1.2,1.35c0,0.333,0.116,0.617,0.351,0.85L226.35,22.7 M199.75,17.3l-2.85,5.9
		H196l2.85-5.75h-3.2V16.7h4.1V17.3 M171.55,17.3l-0.65,0.05c-0.7,0.133-1.233,0.417-1.6,0.85c-0.367,0.434-0.583,0.934-0.65,1.5
		c0.333-0.466,0.867-0.733,1.6-0.8c0.6,0.033,1.066,0.233,1.4,0.6c0.367,0.367,0.55,0.867,0.55,1.5s-0.184,1.167-0.55,1.6
		c-0.4,0.466-0.933,0.7-1.6,0.7c-0.7,0-1.25-0.25-1.65-0.75c-0.433-0.466-0.65-1.133-0.65-2c0.033-1.3,0.4-2.283,1.1-2.95
		c0.566-0.534,1.267-0.85,2.1-0.95l0.6-0.05V17.3 M170,19.6c-0.6,0.033-1.033,0.3-1.3,0.8l-0.1,0.35c0,0.566,0.133,1.017,0.4,1.35
		c0.233,0.333,0.583,0.517,1.05,0.55c0.8-0.066,1.217-0.583,1.25-1.55C171.267,20.133,170.833,19.633,170,19.6 M142,17.45h-2.45
		l-0.25,1.65l0.5-0.05c0.534,0,1,0.117,1.4,0.35c0.566,0.267,0.883,0.833,0.95,1.7c-0.033,0.633-0.267,1.167-0.7,1.6
		c-0.434,0.4-1.017,0.6-1.75,0.6l-1.6-0.4l0.2-0.65l1.4,0.35c0.433,0,0.8-0.134,1.1-0.4c0.3-0.233,0.45-0.566,0.45-1
		c0.033-0.933-0.583-1.417-1.85-1.45l-0.9,0.05l0.4-3.1h3.1V17.45 M110.15,20.85l2.9-4.15H114v4.05h0.9v0.7H114v1.75h-0.85v-1.75h-3
		V20.85 M113.15,17.55l-0.5,0.95l-1.6,2.25h2.1v-2.2l0.05-1H113.15 M86.55,18.15c0,0.7-0.4,1.217-1.2,1.55
		c0.4,0.067,0.75,0.25,1.05,0.55c0.267,0.3,0.4,0.667,0.4,1.1c0,0.533-0.2,1-0.6,1.4c-0.4,0.367-0.983,0.55-1.75,0.55l-1.7-0.4
		L83,22.2c0.3,0.2,0.783,0.333,1.45,0.4c0.533,0,0.917-0.134,1.15-0.4l0.3-0.85c-0.033-0.467-0.2-0.8-0.5-1l-1.2-0.3h-0.45V19.4
		h0.45l1-0.25l0.45-0.85l-0.25-0.7c-0.167-0.2-0.45-0.3-0.85-0.3c-0.566,0.067-1,0.217-1.3,0.45L83,17.1
		c0.4-0.3,0.967-0.467,1.7-0.5c0.633,0,1.1,0.167,1.4,0.5C86.4,17.4,86.55,17.75,86.55,18.15 M55.95,17.35l-0.8,0.15l-0.6,0.4
		l-0.3-0.65c0.467-0.4,1.083-0.617,1.85-0.65c0.7,0.033,1.2,0.233,1.5,0.6c0.333,0.367,0.5,0.8,0.5,1.3c0,0.566-0.2,1.133-0.6,1.7
		L55.85,22l-0.5,0.45v0.05h2.9v0.7H54.1v-0.55L54.8,22l1.8-1.95c0.4-0.5,0.6-0.983,0.6-1.45l-0.25-0.9
		C56.75,17.467,56.417,17.35,55.95,17.35 M26.15,18.15L26,17.45l1.4-0.75h0.75v6.5H27.3v-5.7L26.15,18.15"/>
	<path fill="none" stroke="#000000" stroke-linecap="round" stroke-linejoin="round" d="M507,0v13.7 M480.8,0.05V13.7 M452.45,0.05
		V13.7 M424.15,0.05V13.7 M395.8,0.05V13.7 M367.5,0.05V13.7 M339.15,0.05V13.7 M310.85,0.05V13.7 M282.5,0.05V13.7 M254.2,0.05
		V13.7 M225.9,0.05V13.7 M197.55,0.05V13.7 M169.25,0.05V13.7 M140.9,0.05V13.7 M112.6,0.05V13.7 M84.25,0.05V13.7 M55.95,0.05V13.7
		 M27.6,0.05V13.7"/>
</g>
</svg>
