<?xml version="1.0" encoding="utf-8"?>
<!-- Generator: Adobe Illustrator 16.0.4, SVG Export Plug-In . SVG Version: 6.00 Build 0)  -->
<!DOCTYPE svg PUBLIC "-//W3C//DTD SVG 1.1//EN" "http://www.w3.org/Graphics/SVG/1.1/DTD/svg11.dtd">
<svg version="1.1" xmlns="http://www.w3.org/2000/svg" xmlns:xlink="http://www.w3.org/1999/xlink" x="0px" y="0px" width="31px"
	 height="21px" viewBox="0 0 31 21" enable-background="new 0 0 31 21" xml:space="preserve">
<g id="bkd">
	<rect x="0.5" y="1" fill="#DCDED9" width="29.5" height="19"/>
	<path fill="#C4C4C4" d="M30.5,21h-30C0.224,21,0,20.776,0,20.5S0.224,20,0.5,20H30V1H0.5C0.224,1,0,0.776,0,0.5S0.224,0,0.5,0h30
		C30.776,0,31,0.224,31,0.5v20C31,20.776,30.776,21,30.5,21z"/>
</g>
<g id="folder">
	<g>
		<linearGradient id="SVGID_1_" gradientUnits="userSpaceOnUse" x1="15.5" y1="2.2876" x2="15.5" y2="18.7126">
			<stop  offset="0.1843" style="stop-color:#EBFFED"/>
			<stop  offset="0.4627" style="stop-color:#FFFFFF"/>
			<stop  offset="0.9686" style="stop-color:#AEDCFF"/>
		</linearGradient>
		<path fill="url(#SVGID_1_)" stroke="#666666" stroke-linecap="round" stroke-linejoin="round" d="M16,5.75v-2.5H7.5v14.5h16v-12
			H16"/>
	</g>
</g>
<g id="type">
	<g>
		<path d="M10.365,8.945h2.432c0.304,0,0.593,0.02,0.868,0.06c0.274,0.04,0.515,0.117,0.72,0.232
			c0.205,0.115,0.368,0.277,0.488,0.488c0.12,0.211,0.18,0.487,0.18,0.828c0,0.432-0.127,0.787-0.38,1.064
			c-0.253,0.277-0.63,0.454-1.132,0.528c0.256,0.149,0.461,0.309,0.616,0.48c0.042,0.042,0.09,0.1,0.144,0.172
			c0.053,0.072,0.129,0.183,0.228,0.332c0.099,0.149,0.227,0.347,0.384,0.592c0.157,0.246,0.358,0.563,0.604,0.952h-1.384
			c-0.283-0.421-0.512-0.763-0.688-1.024c-0.176-0.261-0.316-0.465-0.42-0.612c-0.104-0.146-0.18-0.252-0.228-0.316
			c-0.048-0.064-0.085-0.109-0.112-0.136c-0.069-0.075-0.135-0.132-0.196-0.172c-0.062-0.04-0.128-0.069-0.2-0.088
			c-0.072-0.019-0.151-0.03-0.236-0.036c-0.085-0.005-0.184-0.008-0.296-0.008h-0.232v2.392h-1.16V8.945z M12.381,11.369
			c0.56,0,0.907-0.024,1.04-0.072c0.149-0.053,0.26-0.139,0.332-0.256c0.072-0.117,0.108-0.256,0.108-0.416
			c0-0.192-0.052-0.347-0.156-0.464c-0.104-0.117-0.25-0.192-0.436-0.224c-0.096-0.016-0.376-0.024-0.84-0.024h-0.904v1.456H12.381z
			"/>
		<path d="M21.021,12.921c-0.17,0.629-0.456,1.095-0.856,1.396s-0.907,0.452-1.52,0.452c-0.416,0-0.787-0.075-1.112-0.224
			c-0.326-0.149-0.599-0.354-0.82-0.616c-0.222-0.261-0.391-0.569-0.508-0.924s-0.176-0.737-0.176-1.148
			c0-0.432,0.057-0.832,0.172-1.2c0.115-0.368,0.285-0.685,0.512-0.952c0.227-0.267,0.506-0.476,0.84-0.628
			c0.333-0.152,0.719-0.228,1.156-0.228c0.704,0,1.275,0.208,1.712,0.624c0.262,0.246,0.456,0.595,0.584,1.048l-1.144,0.28
			c-0.059-0.304-0.199-0.54-0.42-0.708c-0.221-0.168-0.484-0.252-0.788-0.252c-0.267,0-0.492,0.049-0.676,0.148
			s-0.332,0.236-0.444,0.412c-0.112,0.176-0.192,0.381-0.24,0.616c-0.048,0.234-0.072,0.488-0.072,0.76
			c0,0.277,0.022,0.538,0.068,0.78c0.045,0.243,0.121,0.455,0.228,0.636c0.106,0.181,0.25,0.325,0.432,0.432
			c0.181,0.106,0.408,0.16,0.68,0.16c0.31,0,0.575-0.097,0.796-0.292c0.221-0.194,0.38-0.502,0.476-0.924L21.021,12.921z"/>
	</g>
</g>
<g id="disabled">
	<rect x="0.5" y="1" opacity="0.55" fill="#AFAFAF" width="29.5" height="19"/>
	<path opacity="0.55" fill="#C4C4C4" d="M30.5,21h-30C0.224,21,0,20.776,0,20.5S0.224,20,0.5,20H30V1H0.5C0.224,1,0,0.776,0,0.5
		S0.224,0,0.5,0h30C30.776,0,31,0.224,31,0.5v20C31,20.776,30.776,21,30.5,21z"/>
</g>
</svg>
