<?xml version="1.0" encoding="utf-8"?>
<!-- Generator: Adobe Illustrator 16.0.4, SVG Export Plug-In . SVG Version: 6.00 Build 0)  -->
<!DOCTYPE svg PUBLIC "-//W3C//DTD SVG 1.1//EN" "http://www.w3.org/Graphics/SVG/1.1/DTD/svg11.dtd">
<svg version="1.1" id="Layer_1" xmlns="http://www.w3.org/2000/svg" xmlns:xlink="http://www.w3.org/1999/xlink" x="0px" y="0px"
	 width="31px" height="21px" viewBox="0 0 31 21" enable-background="new 0 0 31 21" xml:space="preserve">
<g id="bkd">
	<rect x="0.5" y="1" fill="#C1DBEE" width="29.5" height="19"/>
	<path fill="#C4C4C4" d="M30.5,21h-30C0.224,21,0,20.775,0,20.5S0.224,20,0.5,20H30V1H0.5C0.224,1,0,0.776,0,0.5S0.224,0,0.5,0h30
		C30.775,0,31,0.224,31,0.5v20C31,20.775,30.775,21,30.5,21z"/>
</g>
<g id="icon">
	
		<linearGradient id="calculatorBkd_1_" gradientUnits="userSpaceOnUse" x1="153.5" y1="-222.4941" x2="165.5" y2="-222.4941" gradientTransform="matrix(1 0 0 -1 -144 -212)">
		<stop  offset="0.1843" style="stop-color:#E8F2F2"/>
		<stop  offset="0.9686" style="stop-color:#AEB6BB"/>
	</linearGradient>
	<rect id="calculatorBkd" x="9.5" y="2.994" fill="url(#calculatorBkd_1_)" width="12" height="15"/>
	<g id="calculator">
		<g>
			<path fill="#666666" d="M13.55,11.25H11.9V9.6h1.65V11.25"/>
			<path fill="#99FFFF" d="M19.15,7.35H11.8V5h7.351V7.35"/>
			<path fill="#FFFFFF" d="M12.95,10.65H11.3V9h1.65V10.65"/>
			<path fill="#666666" d="M16.75,11.25H15.1V9.6h1.65V11.25"/>
			<path fill="#FFFFFF" d="M16.15,10.65H14.5V9h1.65V10.65"/>
			<path fill="#666666" d="M19.9,11.25h-1.65V9.6h1.65V11.25"/>
			<path fill="#FFFFFF" d="M19.3,10.65H17.65V9H19.3V10.65"/>
			<path fill="#666666" d="M13.55,14.05H11.9V12.4h1.65V14.05"/>
			<path fill="#FFFFFF" d="M12.95,13.45H11.3V11.8h1.65V13.45"/>
			<path fill="#666666" d="M16.75,14.05H15.1V12.4h1.65V14.05"/>
			<path fill="#FFFFFF" d="M16.15,13.45H14.5V11.8h1.65V13.45"/>
			<path fill="#666666" d="M19.9,14.05h-1.65V12.4h1.65V14.05"/>
			<path fill="#FFFFFF" d="M19.3,13.45H17.65V11.8H19.3V13.45"/>
			<path fill="#666666" d="M13.55,16.9H11.9v-1.65h1.65V16.9"/>
			<path fill="#FFFFFF" d="M12.95,16.3H11.3V14.65h1.65V16.3"/>
			<path fill="#666666" d="M16.75,16.9H15.1v-1.65h1.65V16.9"/>
			<path fill="#FFFFFF" d="M16.15,16.3H14.5V14.65h1.65V16.3"/>
			<path fill="#666666" d="M19.9,16.9h-1.65v-1.65h1.65V16.9"/>
			<path fill="#FFFFFF" d="M19.3,16.3H17.65V14.65H19.3V16.3"/>
			<path fill="none" stroke="#333333" stroke-width="0.5" stroke-linecap="round" stroke-linejoin="round" d="M21.5,18h-12V3h12V18"
				/>
			<path fill="none" stroke="#669999" stroke-linecap="round" stroke-linejoin="round" d="M11.8,7.35V5h7.351"/>
		</g>
	</g>
</g>
</svg>
