<?xml version="1.0" encoding="utf-8"?>
<!-- Generator: Adobe Illustrator 16.0.4, SVG Export Plug-In . SVG Version: 6.00 Build 0)  -->
<!DOCTYPE svg PUBLIC "-//W3C//DTD SVG 1.1//EN" "http://www.w3.org/Graphics/SVG/1.1/DTD/svg11.dtd">
<svg version="1.1" id="dragger_x5F_press" xmlns="http://www.w3.org/2000/svg" xmlns:xlink="http://www.w3.org/1999/xlink" x="0px"
	 y="0px" width="21px" height="24px" viewBox="0 0 21 24" enable-background="new 0 0 21 24" xml:space="preserve">
<path fill-rule="evenodd" clip-rule="evenodd" fill="#FFFFFF" stroke="#000000" stroke-width="0.75" stroke-linecap="round" stroke-linejoin="round" stroke-miterlimit="10" d="
	M14.569,21H7.171c0,0,0-2.125,0-2.5s-0.212-1.916-1.149-2.916s-2.006-2.792-2.062-3.503c-0.078-0.992,0.343-1.812,1.062-2.065
	c0.648-0.23,1.473,0.506,1.893,1.52c0.029,0.07,0.049-1.294-0.314-2.352c-0.701-2.04,1.595-3.167,2.466-1.285
	c0.063,0.137,0.119,0.257,0.168,0.36C9.257,8.309,9.49,8.235,9.487,8.186C9.485,8.131,9.483,8.075,9.483,8.017
	c0-0.75,0.53-1.705,1.405-1.705s1.407,0.701,1.407,1.58c0,0.104-0.002,0.236-0.005,0.373c-0.01,0.523,0.103,0.169,0.146,0.037
	c0.27-0.806,0.972-1.174,1.562-1.062c1.079,0.203,0.931,1.737,0.931,1.737s0.171-1.119,1.455-0.795
	c0.75,0.189,0.857,1.218,0.857,1.905s0.07,4.163-0.617,5.6S14.569,21,14.569,21z"/>
<g>
</g>
<g>
</g>
<g>
</g>
<g>
</g>
<g>
</g>
<g>
</g>
</svg>
