<?xml version="1.0" encoding="utf-8"?>
<!-- Generator: Adobe Illustrator 16.0.4, SVG Export Plug-In . SVG Version: 6.00 Build 0)  -->
<!DOCTYPE svg PUBLIC "-//W3C//DTD SVG 1.1//EN" "http://www.w3.org/Graphics/SVG/1.1/DTD/svg11.dtd">
<svg version="1.1" id="halfInchTickmarks" xmlns="http://www.w3.org/2000/svg" xmlns:xlink="http://www.w3.org/1999/xlink" x="0px"
	 y="0px" width="510px" height="74px" viewBox="0 0 510 74" enable-background="new 0 0 510 74" xml:space="preserve">
<g>
	<path d="M505.55,17.8l-2.75,5.75H501.9l2.75-5.55v-0.05h-3.101v-0.7h4V17.8 M433.45,17.85l-0.65,0.05
		c-0.667,0.133-1.184,0.4-1.55,0.8c-0.333,0.433-0.55,0.917-0.65,1.45h0.051c0.301-0.466,0.801-0.716,1.5-0.75
		c0.566,0,1.033,0.184,1.399,0.55c0.333,0.367,0.5,0.867,0.5,1.5c0,0.6-0.184,1.116-0.55,1.55c-0.367,0.434-0.884,0.65-1.55,0.65
		c-0.667,0-1.2-0.233-1.602-0.7c-0.398-0.5-0.6-1.15-0.6-1.95c0.033-1.267,0.383-2.217,1.05-2.85c0.566-0.533,1.25-0.85,2.05-0.95
		l0.602-0.05V17.85 M430.6,21.2c0,0.533,0.117,0.966,0.352,1.3c0.233,0.334,0.582,0.5,1.049,0.5c0.767-0.033,1.166-0.533,1.2-1.5
		c-0.034-0.933-0.467-1.417-1.301-1.45c-0.533,0.034-0.934,0.3-1.199,0.8L430.6,21.2 M361.5,17.95h-2.4l-0.25,1.6h0.5l1.352,0.3
		c0.565,0.3,0.866,0.85,0.898,1.65c0,0.633-0.216,1.15-0.648,1.55c-0.435,0.4-1,0.6-1.7,0.6c-0.7-0.033-1.217-0.167-1.55-0.4
		l0.199-0.65l1.351,0.35l1.05-0.35c0.3-0.233,0.45-0.567,0.45-1c0.033-0.9-0.567-1.367-1.8-1.4l-0.9,0.05l0.45-3h3L361.5,17.95
		 M285.55,21.2h2.101v-2.15v-1L287.1,19l-1.55,2.15V21.2 M284.7,21.3l2.8-4.05h0.95v3.95h0.85v0.65h-0.85v1.7h-0.802v-1.7H284.7
		V21.3 M215.899,17.15c0.601,0,1.051,0.15,1.351,0.45c0.3,0.3,0.45,0.65,0.45,1.05c0,0.7-0.384,1.2-1.15,1.5
		c0.4,0.067,0.733,0.25,1,0.55l0.4,1.1c0,0.5-0.2,0.934-0.601,1.3c-0.399,0.367-0.966,0.55-1.7,0.55l-1.65-0.4l0.25-0.65l1.4,0.4
		c0.533-0.033,0.9-0.184,1.1-0.45l0.3-0.8c-0.033-0.433-0.2-0.75-0.5-0.95c-0.334-0.2-0.7-0.3-1.1-0.3h-0.5v-0.65h0.5l0.9-0.25
		c0.3-0.167,0.467-0.434,0.5-0.8l-0.25-0.65c-0.2-0.2-0.483-0.3-0.85-0.3c-0.567,0.033-1,0.167-1.3,0.4l-0.2-0.6
		C214.617,17.35,215.167,17.184,215.899,17.15 M144.35,17.15c0.667,0.034,1.15,0.233,1.45,0.6c0.333,0.367,0.483,0.783,0.45,1.25
		c0,0.567-0.184,1.117-0.55,1.65l-1.6,1.7l-0.5,0.5h2.8v0.7h-4v-0.5l0.65-0.65l1.8-1.9c0.367-0.467,0.55-0.934,0.55-1.4l-0.25-0.85
		c-0.2-0.267-0.533-0.4-1-0.4c-0.567,0.066-1,0.25-1.3,0.55l-0.3-0.6C143.017,17.4,143.617,17.184,144.35,17.15 M71.75,18.05
		l-1.1,0.6L70.5,18l1.4-0.75h0.7v6.3h-0.8v-5.5H71.75"/>
	<path fill="none" stroke="#000000" stroke-width="2" stroke-linecap="round" stroke-linejoin="round" d="M467.8,0v10.6 M395.8,0
		v10.6 M323.85,0v10.6 M251.899,0v10.6 M179.95,0v10.6 M107.95,0v10.6 M36,0v10.6"/>
	<path fill="none" stroke="#000000" stroke-linecap="round" stroke-linejoin="round" d="M503.75,0v13.25 M431.8,0v13.25 M359.85,0
		v13.25 M287.85,0v13.25 M215.899,0v13.25 M143.95,0v13.25 M72,0v13.25"/>
</g>
</svg>
