<?xml version="1.0" encoding="utf-8"?>
<!-- Generator: Adobe Illustrator 16.0.4, SVG Export Plug-In . SVG Version: 6.00 Build 0)  -->
<!DOCTYPE svg PUBLIC "-//W3C//DTD SVG 1.1//EN" "http://www.w3.org/Graphics/SVG/1.1/DTD/svg11.dtd">
<svg version="1.1" id="mmTickmarks" xmlns="http://www.w3.org/2000/svg" xmlns:xlink="http://www.w3.org/1999/xlink" x="0px"
	 y="0px" width="510px" height="74px" viewBox="0 0 510 74" enable-background="new 0 0 510 74" xml:space="preserve">
<g>
	<path d="M508.9,17.5l0.199,0.75l-0.199,0.8l-0.851,0.7v0.05l0.851,0.55c0.267,0.301,0.416,0.684,0.449,1.15l-0.449,1.15l-0.2,0.199
		c-0.4,0.334-0.917,0.5-1.55,0.5c-0.7,0-1.233-0.166-1.601-0.5c-0.399-0.333-0.6-0.75-0.6-1.25c0.033-0.8,0.467-1.383,1.3-1.75
		c-0.733-0.399-1.083-0.883-1.05-1.449c0-0.533,0.184-0.95,0.55-1.25c0.4-0.334,0.884-0.5,1.45-0.5c0.633,0,1.116,0.166,1.45,0.5
		L508.9,17.5 M507.2,17.3c-0.367,0-0.65,0.101-0.851,0.3c-0.199,0.2-0.3,0.434-0.3,0.7c0.033,0.634,0.45,1.034,1.25,1.2
		c0.601-0.166,0.934-0.55,1-1.15l-0.25-0.75C507.85,17.4,507.566,17.3,507.2,17.3 M507.05,20.15c-0.8,0.232-1.2,0.684-1.2,1.35
		c0,0.334,0.117,0.617,0.351,0.85c0.233,0.234,0.55,0.367,0.95,0.4c0.833-0.066,1.267-0.467,1.3-1.2
		C508.417,20.816,507.95,20.35,507.05,20.15 M502.6,16.8v6.5h-0.85v-5.7l-1.15,0.65l-0.149-0.7l1.399-0.75H502.6 M486.2,17.4
		L483.35,23.3h-0.899l2.85-5.75h-3.2V16.8h4.101V17.4 M479.6,16.8v6.5h-0.85v-5.7l-1.15,0.65l-0.149-0.7l1.399-0.75H479.6
		 M449.25,18.25l-0.15-0.7l1.4-0.75h0.75v6.5h-0.85v-5.7L449.25,18.25 M454.2,22.6c-0.434-0.467-0.65-1.133-0.65-2
		c0.033-1.3,0.4-2.283,1.101-2.949c0.566-0.533,1.267-0.851,2.1-0.95l0.6-0.05v0.699L456.7,17.4c-0.7,0.133-1.233,0.416-1.601,0.85
		c-0.366,0.434-0.583,0.934-0.649,1.5c0.333-0.467,0.866-0.733,1.6-0.8c0.601,0.033,1.067,0.233,1.4,0.6
		c0.366,0.366,0.55,0.866,0.55,1.5s-0.184,1.167-0.55,1.601c-0.4,0.467-0.934,0.699-1.601,0.699C455.15,23.35,454.6,23.1,454.2,22.6
		 M454.5,20.45l-0.1,0.35c0,0.567,0.133,1.017,0.399,1.351c0.233,0.333,0.584,0.516,1.05,0.55c0.801-0.067,1.217-0.583,1.25-1.55
		c-0.033-0.967-0.467-1.467-1.3-1.5C455.2,19.684,454.767,19.95,454.5,20.45 M427.05,17.55l-0.25,1.65l0.5-0.05
		c0.533,0,1,0.116,1.4,0.35c0.566,0.267,0.883,0.834,0.95,1.7c-0.034,0.634-0.267,1.167-0.7,1.6c-0.434,0.4-1.017,0.601-1.75,0.601
		L425.6,23l0.2-0.65l1.4,0.351c0.434,0,0.8-0.134,1.1-0.4l0.45-1c0.033-0.933-0.583-1.417-1.85-1.45L426,19.9l0.4-3.101h3.1v0.75
		H427.05 M422.4,17.6l-1.15,0.65l-0.15-0.7l1.4-0.75h0.75v6.5h-0.85V17.6 M394.9,16.8v6.5h-0.851v-5.7l-1.149,0.65l-0.15-0.7
		l1.4-0.75H394.9 M400,17.65l-0.5,0.949l-1.6,2.25h2.1V18.65l0.05-1H400 M397,20.95l2.9-4.15h0.949v4.05h0.9v0.7h-0.9v1.75H400
		v-1.75h-3V20.95 M372.2,17.15c0.3,0.3,0.45,0.649,0.45,1.05c0,0.7-0.4,1.216-1.2,1.55c0.399,0.066,0.75,0.25,1.05,0.55
		c0.267,0.3,0.4,0.667,0.4,1.101c0,0.533-0.2,1-0.601,1.399c-0.399,0.366-0.983,0.55-1.75,0.55c-0.767-0.033-1.333-0.166-1.7-0.399
		l0.25-0.7c0.301,0.2,0.783,0.334,1.45,0.4c0.534,0,0.917-0.134,1.15-0.4l0.3-0.85c-0.033-0.467-0.217-0.801-0.55-1
		c-0.3-0.2-0.684-0.301-1.15-0.301h-0.45V19.45h0.45l1-0.25c0.3-0.2,0.45-0.483,0.45-0.851l-0.25-0.699
		c-0.166-0.2-0.45-0.301-0.85-0.301c-0.566,0.066-1,0.217-1.301,0.45l-0.25-0.649c0.4-0.301,0.967-0.467,1.7-0.5
		C371.434,16.65,371.9,16.816,372.2,17.15 M366.5,16.8v6.5h-0.85v-5.7l-1.15,0.65l-0.15-0.7l1.4-0.75H366.5 M344.6,20.25l-1.649,1.8
		l-0.5,0.45v0.05h2.899v0.7H341.2V22.7l0.7-0.65l1.8-1.95c0.399-0.5,0.6-0.982,0.6-1.449l-0.25-0.9c-0.2-0.233-0.533-0.35-1-0.35
		l-0.8,0.149l-0.6,0.4l-0.301-0.65c0.467-0.399,1.084-0.616,1.851-0.649c0.7,0.033,1.2,0.232,1.5,0.6c0.333,0.367,0.5,0.8,0.5,1.3
		C345.2,19.117,345,19.684,344.6,20.25 M338.8,16.8v6.5h-0.85v-5.7l-1.15,0.65l-0.149-0.7l1.399-0.75H338.8 M308,17.55l1.4-0.75
		h0.75v6.5H309.3v-5.7l-1.149,0.65L308,17.55 M313.1,17.55l1.4-0.75h0.75v6.5h-0.85v-5.7l-1.15,0.65L313.1,17.55 M285,18.05
		c-0.233,0.467-0.35,1.116-0.35,1.95s0.116,1.483,0.35,1.95c0.2,0.5,0.517,0.75,0.95,0.75c0.433,0,0.767-0.25,1-0.75l0.3-1.95
		l-0.3-1.95c-0.2-0.466-0.534-0.7-1-0.7C285.55,17.35,285.233,17.584,285,18.05 M286,16.65c0.7,0,1.233,0.283,1.6,0.85
		c0.367,0.6,0.551,1.416,0.551,2.45c-0.033,2.233-0.783,3.366-2.25,3.399c-0.634,0-1.15-0.283-1.551-0.85
		c-0.366-0.566-0.566-1.383-0.6-2.45c0-1.1,0.217-1.95,0.65-2.55C284.8,16.934,285.334,16.65,286,16.65 M280.6,23.3v-5.7
		l-1.149,0.65l-0.15-0.7l1.4-0.75h0.75v6.5H280.6 M257.4,17.4c0.366,0.467,0.566,1.133,0.6,2c-0.1,1.399-0.483,2.416-1.15,3.05
		c-0.566,0.5-1.199,0.783-1.899,0.85l-0.8,0.05V22.65l0.699-0.051c0.5-0.066,0.967-0.266,1.4-0.6c0.434-0.4,0.717-0.983,0.85-1.75
		h-0.05c-0.366,0.467-0.884,0.7-1.55,0.7c-0.566,0-1.033-0.2-1.4-0.601c-0.333-0.366-0.5-0.833-0.5-1.399
		c0-0.634,0.2-1.167,0.601-1.601c0.399-0.434,0.95-0.666,1.649-0.699C256.517,16.65,257.033,16.9,257.4,17.4 M255.75,17.3
		c-0.4,0.034-0.7,0.184-0.9,0.45c-0.232,0.3-0.35,0.684-0.35,1.15c0.033,0.866,0.45,1.333,1.25,1.399
		c0.6-0.033,1.017-0.267,1.25-0.7l0.1-0.3l-0.3-1.399C256.566,17.533,256.217,17.334,255.75,17.3 M229.05,18.25
		c0.034,0.6-0.316,1.1-1.05,1.5v0.05c0.834,0.333,1.267,0.9,1.3,1.7c-0.033,0.566-0.25,1.017-0.649,1.35
		c-0.4,0.334-0.917,0.5-1.551,0.5c-0.699,0-1.232-0.166-1.6-0.5c-0.4-0.333-0.6-0.75-0.6-1.25c0.033-0.8,0.467-1.383,1.3-1.75
		c-0.733-0.399-1.083-0.883-1.05-1.449c0-0.533,0.184-0.95,0.55-1.25c0.399-0.334,0.884-0.5,1.45-0.5c0.633,0,1.116,0.166,1.449,0.5
		L229.05,18.25 M227.15,17.3c-0.367,0-0.65,0.101-0.851,0.3c-0.2,0.2-0.3,0.434-0.3,0.7c0.033,0.634,0.45,1.034,1.25,1.2
		c0.6-0.166,0.934-0.55,1-1.15L228,17.6C227.8,17.4,227.517,17.3,227.15,17.3 M225.8,21.5c0,0.334,0.116,0.617,0.351,0.85l0.949,0.4
		c0.834-0.066,1.268-0.467,1.301-1.2c-0.033-0.733-0.5-1.2-1.4-1.399C226.2,20.383,225.8,20.834,225.8,21.5 M196.4,17.55V16.8h4.1
		V17.4l-2.85,5.899h-0.9l2.85-5.75H196.4 M171.65,17.4c-0.7,0.133-1.233,0.416-1.6,0.85s-0.583,0.934-0.65,1.5
		c0.333-0.467,0.867-0.733,1.6-0.8c0.6,0.033,1.066,0.233,1.4,0.6c0.367,0.366,0.55,0.866,0.55,1.5s-0.184,1.167-0.55,1.601
		c-0.4,0.467-0.933,0.699-1.6,0.699c-0.7,0-1.25-0.25-1.65-0.75c-0.433-0.467-0.65-1.133-0.65-2c0.033-1.3,0.4-2.283,1.1-2.949
		c0.566-0.533,1.267-0.851,2.1-0.95l0.6-0.05v0.699L171.65,17.4 M170.75,19.65c-0.6,0.033-1.033,0.3-1.3,0.8l-0.1,0.35
		c0,0.567,0.133,1.017,0.4,1.351c0.233,0.333,0.583,0.516,1.05,0.55c0.8-0.067,1.217-0.583,1.25-1.55
		C172.017,20.184,171.583,19.684,170.75,19.65 M142.2,22.8c-0.434,0.4-1.017,0.601-1.75,0.601l-1.6-0.4l0.2-0.65l1.4,0.351
		c0.433,0,0.8-0.134,1.1-0.4c0.3-0.233,0.45-0.566,0.45-1c0.033-0.933-0.583-1.417-1.85-1.45l-0.9,0.051l0.4-3.101h3.1v0.75h-2.45
		l-0.25,1.65l0.5-0.05c0.534,0,1,0.116,1.4,0.35c0.566,0.267,0.883,0.834,0.95,1.7C142.867,21.834,142.633,22.367,142.2,22.8
		 M110.9,20.95l2.9-4.15h0.95v4.05h0.9v0.7h-0.9v1.75h-0.85v-1.75h-3V20.95 M113.9,17.65l-0.5,0.949l-1.6,2.25h2.1V18.65l0.05-1
		H113.9 M87.3,18.2c0,0.7-0.4,1.216-1.2,1.55c0.4,0.066,0.75,0.25,1.05,0.55c0.267,0.3,0.4,0.667,0.4,1.101c0,0.533-0.2,1-0.6,1.399
		c-0.4,0.366-0.983,0.55-1.75,0.55l-1.7-0.399l0.25-0.7c0.3,0.2,0.783,0.334,1.45,0.4c0.533,0,0.917-0.134,1.15-0.4l0.3-0.85
		c-0.033-0.467-0.2-0.801-0.5-1l-1.2-0.301H84.5V19.45h0.45l1-0.25l0.45-0.851l-0.25-0.699c-0.167-0.2-0.45-0.301-0.85-0.301
		c-0.566,0.066-1,0.217-1.3,0.45l-0.25-0.649c0.4-0.301,0.967-0.467,1.7-0.5c0.633,0,1.1,0.166,1.4,0.5
		C87.15,17.45,87.3,17.8,87.3,18.2 M58.85,18.55c0,0.567-0.2,1.134-0.6,1.7l-1.65,1.8l-0.5,0.45v0.05H59v0.7h-4.15V22.7l0.7-0.65
		l1.8-1.95c0.4-0.5,0.6-0.982,0.6-1.449l-0.25-0.9c-0.2-0.233-0.534-0.35-1-0.35l-0.8,0.149l-0.6,0.4L55,17.3
		c0.467-0.399,1.083-0.616,1.85-0.649c0.7,0.033,1.2,0.232,1.5,0.6C58.683,17.617,58.85,18.05,58.85,18.55 M26.9,18.25l-0.15-0.7
		l1.4-0.75h0.75v6.5h-0.85v-5.7L26.9,18.25"/>
	<path fill="none" stroke="#666666" stroke-linecap="round" stroke-linejoin="round" d="M0.25,0h2.6H5.7h2.8h2.85h2.85H17h2.85h2.85
		h2.8h2.85h2.85H34h2.85h2.85h2.8h2.85h2.85H51h2.85h2.85h2.8h2.85h2.85H68h2.85h2.8h2.85h2.85h2.8H85h2.85h2.8h2.85h2.85h2.8H102
		h2.85h2.8h2.85h2.85h2.8H119h2.85h2.8h2.85h2.85h2.8H136h2.85h2.8h2.85h2.85h2.8H153h2.85h2.8h2.85h2.85h2.8H170h2.8h2.85h2.85h2.8
		h2.85H187h2.8h2.85h2.85h2.8h2.85H204h2.8h2.85h2.85h2.8h2.851H221h2.8h2.851h2.85h2.8h2.851h2.8h2.8h2.85h2.851h2.8h2.85h2.851
		h2.8h2.85h2.801h2.85h2.85h2.801h2.85h2.85h2.801h2.85h2.85h2.801h2.85h2.85h2.801h2.85h2.85h2.801h2.85h2.85h2.801h2.85h2.85
		h2.801h2.85h2.85h2.801h2.85h2.85h2.801h2.85h2.85h2.801h2.85h2.85h2.801h2.85h2.8h2.851h2.85h2.8h2.851h2.85h2.8h2.851h2.85h2.8
		h2.851h2.85h2.8h2.851h2.85h2.8h2.851h2.85h2.8h2.851h2.85h2.8h2.851h2.85h2.8h2.851h2.85h2.8h2.851h2.85h2.8h2.851h2.8h2.85h2.851
		h2.8h2.85h2.851h2.8h2.85h2.851h2.8h2.85h2.851h2.8h2.85h2.851h2.8h2.85h2.851h2.8h2.85h1.851v17.5 M508.9,19.05v1.3"/>
	<path fill="none" stroke="#000000" stroke-width="0.5" stroke-linecap="round" stroke-linejoin="round" d="M507.05,0v7.1 M498.55,0
		v7.1 M504.2,0v7.1 M501.4,0v7.1 M490.05,0v7.1 M487.2,0v7.1 M492.9,0v7.1 M495.7,0v10.3 M478.7,0v7.1 M484.4,0v7.1 M473.05,0v7.1
		 M467.4,0v10.3 M475.9,0v7.1 M470.2,0v7.1 M456.05,0v7.1 M461.7,0v7.1 M458.9,0v7.1 M464.55,0v7.1 M447.55,0v7.1 M450.4,0v7.1
		 M441.9,0v7.1 M436.25,0v7.1 M439.05,0v10.3 M444.75,0v7.1 M427.75,0v7.1 M433.4,0v7.1 M430.55,0v7.1 M419.25,0v7.1 M416.4,0v7.1
		 M422.05,0v7.1 M413.55,0v7.1 M407.9,0v7.1 M410.75,0v10.3 M402.25,0v7.1 M405.05,0v7.1 M399.4,0v7.1 M393.75,0v7.1 M388.05,0v7.1
		 M390.9,0v7.1 M385.25,0v7.1 M376.75,0v7.1 M379.55,0v7.1 M382.4,0v10.3 M365.4,0v7.1 M371.05,0v7.1 M373.9,0v7.1 M362.55,0v7.1
		 M356.9,0v7.1 M359.75,0v7.1 M354.1,0v10.3 M351.25,0v7.1 M345.6,0v7.1 M348.4,0v7.1 M337.1,0v7.1 M342.75,0v7.1 M328.6,0v7.1
		 M334.25,0v7.1 M325.75,0v10.3 M331.4,0v7.1 M314.4,0v7.1 M320.1,0v7.1 M317.25,0v7.1 M322.9,0v7.1 M308.75,0v7.1 M305.9,0v7.1
		 M300.25,0v7.1 M294.6,0v7.1 M297.4,0v10.3 M303.1,0v7.1 M286.1,0v7.1 M291.75,0v7.1 M288.9,0v7.1 M280.4,0v7.1 M274.75,0v7.1
		 M277.6,0v7.1 M269.1,0v10.3 M266.25,0v7.1 M271.9,0v7.1 M257.75,0v7.1 M263.4,0v7.1 M260.6,0v7.1 M243.6,0v7.1 M249.25,0v7.1
		 M246.45,0v7.1 M252.1,0v7.1 M235.15,0v7.1 M237.95,0v7.1 M240.75,0v10.3 M223.8,0v7.1 M229.5,0v7.1 M232.3,0v7.1 M221,0v7.1
		 M215.3,0v7.1 M218.15,0v7.1 M204,0v7.1 M206.8,0v7.1 M209.65,0v7.1 M212.5,0v10.3 M195.5,0v7.1 M192.65,0v7.1 M201.15,0v7.1
		 M189.8,0v7.1 M184.15,0v10.3 M187,0v7.1 M172.8,0v7.1 M178.5,0v7.1 M175.65,0v7.1 M181.3,0v7.1 M164.35,0v7.1 M167.15,0v7.1
		 M161.5,0v7.1 M155.85,0v10.3 M153,0v7.1 M158.65,0v7.1 M147.35,0v7.1 M150.15,0v7.1 M144.5,0v7.1 M136,0v7.1 M133.15,0v7.1
		 M138.85,0v7.1 M121.85,0v7.1 M130.35,0v7.1 M124.65,0v7.1 M127.5,0v10.3 M119,0v7.1 M116.15,0v7.1 M102,0v7.1 M107.65,0v7.1
		 M104.85,0v7.1 M110.5,0v7.1 M99.15,0v10.3 M96.35,0v7.1 M93.5,0v7.1 M90.65,0v7.1 M87.85,0v7.1 M82.15,0v7.1 M76.5,0v7.1 M73.65,0
		v7.1 M79.35,0v7.1 M70.85,0v10.3 M68,0v7.1 M65.2,0v7.1 M62.35,0v7.1 M59.5,0v7.1 M53.85,0v7.1 M51,0v7.1 M48.2,0v7.1 M42.5,0v10.3
		 M45.35,0v7.1 M39.7,0v7.1 M34,0v7.1 M36.85,0v7.1 M31.2,0v7.1 M22.7,0v7.1 M25.5,0v7.1 M19.85,0v7.1 M14.2,0v10.3 M11.35,0v7.1
		 M17,0v7.1 M5.7,0v7.1 M8.5,0v7.1 M2.85,0v7.1"/>
	<path fill="none" stroke="#000000" stroke-linecap="round" stroke-linejoin="round" d="M481.55,0v13.75 M453.2,0v13.75 M424.9,0
		v13.75 M396.55,0v13.75 M368.25,0v13.75 M339.9,0v13.75 M311.6,0v13.75 M283.25,0v13.75 M254.95,0v13.75 M226.65,0v13.75 M198.3,0
		v13.75 M170,0v13.75 M141.65,0v13.75 M113.35,0v13.75 M85,0v13.75 M56.7,0v13.75 M28.35,0v13.75"/>
</g>
</svg>
