<?xml version="1.0" encoding="utf-8"?>
<!-- Generator: Adobe Illustrator 16.0.4, SVG Export Plug-In . SVG Version: 6.00 Build 0)  -->
<!DOCTYPE svg PUBLIC "-//W3C//DTD SVG 1.1//EN" "http://www.w3.org/Graphics/SVG/1.1/DTD/svg11.dtd">
<svg version="1.1" id="Layer_1" xmlns="http://www.w3.org/2000/svg" xmlns:xlink="http://www.w3.org/1999/xlink" x="0px" y="0px"
	 width="68.9px" height="19.2px" viewBox="0 0 68.9 19.2" enable-background="new 0 0 68.9 19.2" xml:space="preserve">
<g>
	<path d="M62,6.8c0.767-0.7,1.85-1.066,3.25-1.1c1.367,0.033,2.417,0.3,3.15,0.8l-0.55,1.7L66.8,7.7l-1.6-0.25
		c-0.7,0-1.233,0.167-1.6,0.5c-0.367,0.333-0.55,0.75-0.55,1.25c0,0.533,0.2,0.966,0.6,1.3c0.4,0.3,1.017,0.6,1.85,0.9
		c1.1,0.4,1.95,0.917,2.55,1.55c0.567,0.6,0.85,1.383,0.85,2.35c0,1.167-0.433,2.117-1.3,2.85c-0.833,0.7-2,1.05-3.5,1.05
		c-1.467-0.034-2.684-0.333-3.65-0.9L61,16.55l1.4,0.6l1.75,0.3c0.833,0,1.45-0.184,1.85-0.55s0.6-0.816,0.6-1.35
		c0.033-0.566-0.15-1.033-0.55-1.4c-0.367-0.367-0.966-0.7-1.8-1c-2.333-0.867-3.483-2.083-3.45-3.65C60.8,8.433,61.2,7.533,62,6.8
		 M56.35,6.75c0.767,0.667,1.3,1.467,1.6,2.4c0.333,0.934,0.483,1.817,0.45,2.65l-0.05,1.1h-9.1c0.067,1.567,0.517,2.7,1.35,3.4
		c0.833,0.733,1.867,1.083,3.1,1.05l2.1-0.15l1.45-0.45l0.45,1.65L56,18.95l-2.65,0.25c-2-0.034-3.55-0.634-4.65-1.8
		c-1.1-1.167-1.667-2.733-1.7-4.7c0.033-2,0.583-3.65,1.65-4.95c1.067-1.333,2.55-2.017,4.45-2.05
		C54.5,5.733,55.583,6.083,56.35,6.75 M52.9,7.4c-1.2,0.033-2.083,0.467-2.65,1.3c-0.567,0.8-0.883,1.633-0.95,2.5h6.85L55.9,9.55
		c-0.2-0.566-0.533-1.066-1-1.5C54.433,7.617,53.767,7.4,52.9,7.4 M43.3,7.85c0.5,0.8,0.767,1.933,0.8,3.4v7.7h-2.35v-7.4
		c0-1.1-0.217-2-0.65-2.7c-0.467-0.733-1.25-1.117-2.35-1.15c-0.767,0-1.417,0.233-1.95,0.7c-0.566,0.434-0.966,0.983-1.2,1.65
		c-0.1,0.3-0.15,0.667-0.15,1.1v7.8H33.1V0h2.35v8.05h0.05c0.4-0.7,0.967-1.25,1.7-1.65c0.7-0.433,1.5-0.65,2.4-0.65l1.95,0.45
		C42.217,6.5,42.8,7.05,43.3,7.85 M29.85,8.2c-0.533-0.367-1.434-0.583-2.7-0.65c-1.5,0.034-2.633,0.517-3.4,1.45
		s-1.15,2.1-1.15,3.5c0,1.5,0.417,2.683,1.25,3.55c0.833,0.833,1.9,1.25,3.2,1.25l1.7-0.2l1.2-0.4l0.4,1.75
		c-0.3,0.167-0.783,0.333-1.45,0.5l-2.25,0.25c-1.967-0.034-3.533-0.634-4.7-1.8c-1.133-1.2-1.717-2.8-1.75-4.8
		c0.033-2.033,0.667-3.684,1.9-4.95s2.917-1.917,5.05-1.95l1.9,0.2c0.567,0.133,1.017,0.3,1.35,0.5L29.85,8.2 M16.55,7.8
		c0.5,0.8,0.75,1.934,0.75,3.4v7.7h-2.35v-7.45c0.033-1.067-0.184-1.967-0.65-2.7c-0.466-0.733-1.25-1.117-2.35-1.15
		C11.183,7.633,10.533,7.883,10,8.35c-0.567,0.433-0.967,1-1.2,1.7c-0.1,0.3-0.15,0.65-0.15,1.05v7.8H6.3V9.5L6.2,6h2.1l0.1,2.1
		h0.05c0.333-0.633,0.867-1.184,1.6-1.65c0.733-0.467,1.633-0.717,2.7-0.75c0.633,0,1.3,0.15,2,0.45C15.417,6.45,16.017,7,16.55,7.8
		 M2.35,0.95v18H0v-18H2.35"/>
</g>
</svg>
