<?xml version="1.0" encoding="utf-8"?>
<!-- Generator: Adobe Illustrator 16.0.4, SVG Export Plug-In . SVG Version: 6.00 Build 0)  -->
<!DOCTYPE svg PUBLIC "-//W3C//DTD SVG 1.1//EN" "http://www.w3.org/Graphics/SVG/1.1/DTD/svg11.dtd">
<svg version="1.1" id="Layer_1" xmlns="http://www.w3.org/2000/svg" xmlns:xlink="http://www.w3.org/1999/xlink" x="0px" y="0px"
	 width="130.3px" height="20.65px" viewBox="0 0 130.3 20.65" enable-background="new 0 0 130.3 20.65" xml:space="preserve">
<g>
	<path d="M125.15,5.9c-0.9,0-1.65,0.3-2.25,0.9c-0.6,0.6-0.933,1.4-1,2.4h6.4c-0.1-0.967-0.35-1.684-0.75-2.15
		C126.95,6.283,126.15,5.9,125.15,5.9 M128.85,5.9c0.967,1.033,1.45,2.483,1.45,4.35v0.55h-8.5c0.067,1.233,0.417,2.184,1.05,2.85
		s1.433,1,2.4,1c0.7,0,1.3-0.183,1.8-0.55s0.9-0.95,1.2-1.75l2,0.2c-0.3,1.167-0.883,2.083-1.75,2.75
		c-0.833,0.633-1.917,0.95-3.25,0.95c-1.667,0-2.983-0.517-3.95-1.55c-1-1.034-1.5-2.467-1.5-4.3c0-1.933,0.5-3.433,1.5-4.5
		c0.967-1.033,2.25-1.55,3.85-1.55C126.65,4.35,127.883,4.867,128.85,5.9 M117.75,4.6v9.85c0,1.767-0.167,3.033-0.5,3.8
		c-0.367,0.733-0.95,1.317-1.75,1.75c-0.767,0.433-1.733,0.65-2.9,0.65c-1.367,0-2.467-0.316-3.3-0.95
		c-0.833-0.6-1.233-1.517-1.2-2.75l1.9,0.25c0.067,0.6,0.283,1.033,0.65,1.3c0.467,0.367,1.117,0.55,1.95,0.55
		c0.9,0,1.583-0.183,2.05-0.55c0.5-0.367,0.833-0.867,1-1.5l0.15-2.5c-0.833,1-1.883,1.5-3.15,1.5c-1.566,0-2.783-0.567-3.65-1.7
		s-1.3-2.483-1.3-4.05c0-1.1,0.2-2.117,0.6-3.05c0.4-0.9,0.967-1.6,1.7-2.1c0.767-0.5,1.65-0.75,2.65-0.75
		c1.333,0,2.45,0.533,3.35,1.6V4.6H117.75 M115.95,10.15c0-1.4-0.3-2.45-0.9-3.15c-0.633-0.7-1.383-1.05-2.25-1.05
		S111.2,6.3,110.6,7s-0.9,1.733-0.9,3.1c0,1.5,0.3,2.583,0.9,3.25c0.6,0.7,1.333,1.05,2.2,1.05c0.9,0,1.65-0.333,2.25-1
		C115.65,12.7,115.95,11.617,115.95,10.15 M1.25,2.1c0.467-0.7,1.133-1.233,2-1.6C4.117,0.167,5.083,0,6.15,0
		c1.167,0,2.2,0.183,3.1,0.55c0.867,0.367,1.55,0.917,2.05,1.65c0.467,0.733,0.717,1.566,0.75,2.5l-2,0.15
		c-0.1-1-0.466-1.75-1.1-2.25C8.35,2.067,7.433,1.8,6.2,1.8c-1.233,0-2.15,0.233-2.75,0.7C2.883,2.967,2.6,3.533,2.6,4.2
		c0,0.566,0.2,1.033,0.6,1.4c0.4,0.367,1.45,0.733,3.15,1.1l3.5,1c0.9,0.433,1.566,0.966,2,1.6c0.433,0.667,0.65,1.417,0.65,2.25
		c0,0.833-0.233,1.633-0.7,2.4c-0.466,0.733-1.15,1.3-2.05,1.7s-1.917,0.6-3.05,0.6c-1.434,0-2.617-0.2-3.55-0.6
		c-1-0.433-1.767-1.05-2.3-1.85C0.317,12.933,0.033,11.983,0,10.95l1.95-0.2c0.1,0.8,0.316,1.45,0.65,1.95l1.6,1.25l2.4,0.45
		l2.1-0.35l1.4-0.95c0.267-0.434,0.4-0.9,0.4-1.4c0-0.467-0.133-0.883-0.4-1.25C9.8,10.083,9.317,9.767,8.65,9.5
		c-0.4-0.167-1.333-0.417-2.8-0.75l-3.05-1C2.067,7.35,1.517,6.867,1.15,6.3C0.783,5.7,0.6,5.033,0.6,4.3
		C0.6,3.533,0.817,2.8,1.25,2.1 M15.8,1.75l1.95-1.15v4h1.9v1.5h-1.9v6.65l0.1,1.1l0.3,0.35l0.65,0.15l0.85-0.1l0.3,1.75l-1.45,0.15
		l-1.65-0.35l-0.8-0.85c-0.167-0.367-0.25-1.134-0.25-2.3V6.1h-1.4V4.6h1.4V1.75 M23.15,6.3c0.467-0.8,0.883-1.333,1.25-1.6
		c0.367-0.233,0.783-0.35,1.25-0.35c0.633,0,1.3,0.2,2,0.6l-0.7,1.8l-1.4-0.4c-0.433,0-0.816,0.117-1.15,0.35
		c-0.333,0.267-0.566,0.617-0.7,1.05c-0.233,0.7-0.35,1.467-0.35,2.3V16h-1.9V4.6h1.7V6.3 M30.7,4.75l2.55-0.4l2.4,0.35L37,5.55
		c0.267,0.333,0.467,0.767,0.6,1.3l0.1,1.8v2.55l0.1,3.45L38.3,16h-2l-0.4-1.4l-2.05,1.3l-2.15,0.35c-1.267,0-2.233-0.3-2.9-0.9
		c-0.667-0.633-1-1.417-1-2.35c0-0.567,0.133-1.083,0.4-1.55c0.233-0.467,0.566-0.833,1-1.1c0.4-0.267,0.85-0.483,1.35-0.65
		l1.75-0.25l3.45-0.7v-0.5c0-0.8-0.183-1.35-0.55-1.65c-0.5-0.434-1.233-0.65-2.2-0.65c-0.9,0-1.567,0.15-2,0.45
		c-0.433,0.333-0.767,0.9-1,1.7l-1.85-0.25C28.317,7.05,28.6,6.4,29,5.9C29.367,5.4,29.933,5.017,30.7,4.75 M42.4,0.25V2.5h-1.95
		V0.25H42.4 M42.4,4.6V16h-1.95V4.6H42.4 M47.6,7c-0.6,0.7-0.9,1.733-0.9,3.1c0,1.5,0.3,2.583,0.9,3.25c0.6,0.7,1.333,1.05,2.2,1.05
		c0.9,0,1.65-0.333,2.25-1c0.6-0.7,0.9-1.783,0.9-3.25c0-1.4-0.3-2.45-0.9-3.15c-0.633-0.7-1.383-1.05-2.25-1.05S48.2,6.3,47.6,7
		 M49.65,4.35c1.333,0,2.45,0.533,3.35,1.6V4.6h1.75v9.85c0,1.767-0.167,3.033-0.5,3.8c-0.367,0.733-0.95,1.317-1.75,1.75
		c-0.767,0.433-1.733,0.65-2.9,0.65c-1.367,0-2.467-0.316-3.3-0.95c-0.833-0.6-1.233-1.517-1.2-2.75L47,17.2
		c0.067,0.6,0.283,1.033,0.65,1.3c0.467,0.367,1.117,0.55,1.95,0.55c0.9,0,1.583-0.183,2.05-0.55c0.5-0.367,0.833-0.867,1-1.5
		l0.15-2.5c-0.833,1-1.883,1.5-3.15,1.5c-1.566,0-2.783-0.567-3.65-1.7s-1.3-2.483-1.3-4.05c0-1.1,0.2-2.117,0.6-3.05
		c0.4-0.9,0.967-1.6,1.7-2.1C47.767,4.6,48.65,4.35,49.65,4.35 M59.7,7.65c-0.2,0.5-0.3,1.2-0.3,2.1V16h-1.95V0.25h1.95V5.9
		c0.9-1.033,2.033-1.55,3.4-1.55c0.833,0,1.567,0.167,2.2,0.5c0.633,0.333,1.083,0.783,1.35,1.35c0.267,0.6,0.4,1.45,0.4,2.55V16
		H64.8V8.75c0-0.967-0.2-1.667-0.6-2.1C63.767,6.217,63.167,6,62.4,6c-0.566,0-1.1,0.15-1.6,0.45C60.3,6.75,59.933,7.15,59.7,7.65
		 M68.4,6.1V4.6h1.4V1.75l1.95-1.15v4h1.9v1.5h-1.9v6.65l0.1,1.1l0.3,0.35l0.65,0.15l0.85-0.1l0.3,1.75l-1.45,0.15l-1.65-0.35
		l-0.8-0.85c-0.167-0.367-0.25-1.134-0.25-2.3V6.1H68.4 M83.8,6.95h8.75V8.8H83.8v5.35h9.7V16H81.75V0.25h11.4V2.1H83.8V6.95
		 M102.4,4.75l1.3,1.15V0.25h1.95V16h-1.8v-1.45c-0.733,1.133-1.8,1.7-3.2,1.7c-0.9,0-1.733-0.25-2.5-0.75s-1.35-1.2-1.75-2.1
		c-0.433-0.9-0.65-1.933-0.65-3.1c0-1.133,0.183-2.167,0.55-3.1c0.4-0.934,0.983-1.633,1.75-2.1c0.733-0.5,1.583-0.75,2.55-0.75
		L102.4,4.75 M100.75,5.95c-0.867,0-1.583,0.35-2.15,1.05c-0.567,0.7-0.85,1.8-0.85,3.3c0,1.467,0.3,2.567,0.9,3.3
		c0.633,0.7,1.367,1.05,2.2,1.05c0.833,0,1.55-0.333,2.15-1c0.6-0.7,0.9-1.767,0.9-3.2c0-1.534-0.3-2.667-0.9-3.4
		C102.4,6.317,101.65,5.95,100.75,5.95 M35.75,10.25L32.6,11l-1.7,0.4c-0.333,0.133-0.583,0.35-0.75,0.65
		c-0.2,0.267-0.3,0.567-0.3,0.9c0,0.5,0.2,0.933,0.6,1.3c0.4,0.333,0.966,0.5,1.7,0.5l2-0.5c0.567-0.333,0.983-0.783,1.25-1.35
		c0.233-0.433,0.35-1.066,0.35-1.9V10.25"/>
</g>
</svg>
