<?xml version="1.0" encoding="utf-8"?>
<!-- Generator: Adobe Illustrator 16.0.4, SVG Export Plug-In . SVG Version: 6.00 Build 0)  -->
<!DOCTYPE svg PUBLIC "-//W3C//DTD SVG 1.1//EN" "http://www.w3.org/Graphics/SVG/1.1/DTD/svg11.dtd">
<svg version="1.1" id="Layer_1" xmlns="http://www.w3.org/2000/svg" xmlns:xlink="http://www.w3.org/1999/xlink" x="0px" y="0px"
	 width="31px" height="21px" viewBox="0 0 31 21" enable-background="new 0 0 31 21" xml:space="preserve">
<g id="bkd">
	<rect x="0.5" y="1" fill="#DCDED9" width="29.5" height="19"/>
	<path fill="#C4C4C4" d="M30.5,21h-30C0.22,21,0,20.78,0,20.5S0.22,20,0.5,20H30V1H0.5C0.22,1,0,0.78,0,0.5S0.22,0,0.5,0h30
		C30.78,0,31,0.22,31,0.5v20C31,20.78,30.78,21,30.5,21z"/>
</g>
<g id="folder">
	<g>
		
			<linearGradient id="SVGID_1_" gradientUnits="userSpaceOnUse" x1="229" y1="-284.7881" x2="229" y2="-301.2137" gradientTransform="matrix(1 0 0 -1 -213.5 -282.5)">
			<stop  offset="0.1843" style="stop-color:#EBFFED"/>
			<stop  offset="0.4627" style="stop-color:#FFFFFF"/>
			<stop  offset="0.9686" style="stop-color:#AEDCFF"/>
		</linearGradient>
		<path fill="url(#SVGID_1_)" stroke="#666666" stroke-linecap="round" stroke-linejoin="round" d="M16,5.75v-2.5H7.5v14.5h16v-12
			H16"/>
	</g>
</g>
<g>
	<path d="M12.96,12.66c-0.13,0.47-0.34,0.82-0.64,1.05c-0.3,0.23-0.68,0.34-1.14,0.34c-0.31,0-0.59-0.06-0.83-0.17
		s-0.45-0.27-0.62-0.46s-0.29-0.43-0.38-0.69c-0.09-0.27-0.13-0.55-0.13-0.86c0-0.32,0.04-0.62,0.13-0.9
		c0.09-0.28,0.21-0.51,0.38-0.71c0.17-0.2,0.38-0.36,0.63-0.47c0.25-0.11,0.54-0.17,0.87-0.17c0.53,0,0.96,0.16,1.28,0.47
		c0.2,0.18,0.34,0.45,0.44,0.79l-0.86,0.21c-0.04-0.23-0.15-0.41-0.32-0.53s-0.36-0.19-0.59-0.19c-0.2,0-0.37,0.04-0.51,0.11
		c-0.14,0.07-0.25,0.18-0.33,0.31c-0.08,0.13-0.14,0.29-0.18,0.46c-0.04,0.18-0.05,0.37-0.05,0.57c0,0.21,0.02,0.4,0.05,0.58
		c0.03,0.18,0.09,0.34,0.17,0.48c0.08,0.14,0.19,0.24,0.32,0.32c0.14,0.08,0.31,0.12,0.51,0.12c0.23,0,0.43-0.07,0.6-0.22
		c0.17-0.15,0.29-0.38,0.36-0.69L12.96,12.66z"/>
	<path d="M13.42,9.68h1.82c0.23,0,0.45,0.02,0.65,0.04s0.39,0.09,0.54,0.17c0.15,0.09,0.28,0.21,0.37,0.37s0.13,0.37,0.13,0.62
		c0,0.32-0.09,0.59-0.29,0.8c-0.19,0.21-0.47,0.34-0.85,0.4c0.19,0.11,0.35,0.23,0.46,0.36c0.03,0.03,0.07,0.08,0.11,0.13
		c0.04,0.05,0.1,0.14,0.17,0.25c0.07,0.11,0.17,0.26,0.29,0.44c0.12,0.18,0.27,0.42,0.45,0.71h-1.04c-0.21-0.32-0.38-0.57-0.52-0.77
		s-0.24-0.35-0.31-0.46c-0.08-0.11-0.14-0.19-0.17-0.24c-0.04-0.05-0.06-0.08-0.08-0.1c-0.05-0.06-0.1-0.1-0.15-0.13
		c-0.05-0.03-0.1-0.05-0.15-0.07c-0.05-0.01-0.11-0.02-0.18-0.03c-0.06,0-0.14-0.01-0.22-0.01h-0.17v1.79h-0.87V9.68z M14.93,11.5
		c0.42,0,0.68-0.02,0.78-0.05c0.11-0.04,0.19-0.1,0.25-0.19c0.05-0.09,0.08-0.19,0.08-0.31c0-0.14-0.04-0.26-0.12-0.35
		c-0.08-0.09-0.19-0.14-0.33-0.17c-0.07-0.01-0.28-0.02-0.63-0.02h-0.68v1.09H14.93z"/>
	<path d="M21.41,12.66c-0.13,0.47-0.34,0.82-0.64,1.05c-0.3,0.23-0.68,0.34-1.14,0.34c-0.31,0-0.59-0.06-0.83-0.17
		s-0.45-0.27-0.62-0.46s-0.29-0.43-0.38-0.69c-0.09-0.27-0.13-0.55-0.13-0.86c0-0.32,0.04-0.62,0.13-0.9
		c0.09-0.28,0.21-0.51,0.38-0.71c0.17-0.2,0.38-0.36,0.63-0.47c0.25-0.11,0.54-0.17,0.87-0.17c0.53,0,0.96,0.16,1.28,0.47
		c0.2,0.18,0.34,0.45,0.44,0.79l-0.86,0.21c-0.04-0.23-0.15-0.41-0.32-0.53s-0.36-0.19-0.59-0.19c-0.2,0-0.37,0.04-0.51,0.11
		c-0.14,0.07-0.25,0.18-0.33,0.31c-0.08,0.13-0.14,0.29-0.18,0.46c-0.04,0.18-0.05,0.37-0.05,0.57c0,0.21,0.02,0.4,0.05,0.58
		c0.03,0.18,0.09,0.34,0.17,0.48c0.08,0.14,0.19,0.24,0.32,0.32c0.14,0.08,0.31,0.12,0.51,0.12c0.23,0,0.43-0.07,0.6-0.22
		c0.17-0.15,0.29-0.38,0.36-0.69L21.41,12.66z"/>
</g>
<g id="disabled">
	<rect x="0.5" y="1" opacity="0.55" fill="#AFAFAF" enable-background="new    " width="29.5" height="19"/>
	<path opacity="0.55" fill="#C4C4C4" enable-background="new    " d="M30.5,21h-30C0.22,21,0,20.78,0,20.5S0.22,20,0.5,20H30V1H0.5
		C0.22,1,0,0.78,0,0.5S0.22,0,0.5,0h30C30.78,0,31,0.22,31,0.5v20C31,20.78,30.78,21,30.5,21z"/>
</g>
</svg>
