<?xml version="1.0" encoding="utf-8"?>
<!-- Generator: Adobe Illustrator 16.0.4, SVG Export Plug-In . SVG Version: 6.00 Build 0)  -->
<!DOCTYPE svg PUBLIC "-//W3C//DTD SVG 1.1//EN" "http://www.w3.org/Graphics/SVG/1.1/DTD/svg11.dtd">
<svg version="1.1" id="Layer_1" xmlns="http://www.w3.org/2000/svg" xmlns:xlink="http://www.w3.org/1999/xlink" x="0px" y="0px"
	 width="133.4px" height="18.6px" viewBox="0 0 133.4 18.6" enable-background="new 0 0 133.4 18.6" xml:space="preserve">
<g>
	<path d="M13.1,2.75C12.2,2.283,11,2.033,9.5,2C7.367,2,5.667,2.65,4.4,3.95C3.133,5.217,2.483,7.033,2.45,9.4
		c0.033,2.233,0.633,3.983,1.8,5.25c1.2,1.3,2.9,1.95,5.1,1.95l2.1-0.2l1.7-0.55l0.45,1.9l-1.85,0.6l-2.9,0.25
		c-2.567,0-4.667-0.783-6.3-2.35S0.067,12.417,0,9.45c0.033-2.833,0.9-5.1,2.6-6.8c1.7-1.7,3.967-2.566,6.8-2.6l2.75,0.3l1.55,0.5
		L13.1,2.75"/>
	<path d="M26.6,12.3h-9.1c0.067,1.534,0.517,2.65,1.35,3.35c0.833,0.733,1.867,1.083,3.1,1.05l2.1-0.15l1.45-0.45l0.45,1.65
		l-1.7,0.55l-2.65,0.25c-2-0.033-3.55-0.633-4.65-1.8c-1.1-1.167-1.667-2.717-1.7-4.65c0.033-2,0.583-3.65,1.65-4.95
		c1.067-1.333,2.55-2.017,4.45-2.05c1.4,0.033,2.483,0.383,3.25,1.05c0.767,0.667,1.3,1.467,1.6,2.4
		c0.333,0.934,0.483,1.817,0.45,2.65L26.6,12.3 M21.15,6.8c-1.2,0.034-2.083,0.467-2.65,1.3c-0.567,0.8-0.883,1.633-0.95,2.5h6.85
		l-0.25-1.65l-1-1.5C22.683,7.017,22.017,6.8,21.15,6.8"/>
	<path d="M40.55,10.6v7.65H38.2v-7.4c0.033-1.067-0.184-1.967-0.65-2.7C37.083,7.417,36.3,7.033,35.2,7
		c-0.767,0.033-1.417,0.283-1.95,0.75c-0.567,0.433-0.967,1-1.2,1.7c-0.1,0.3-0.15,0.65-0.15,1.05v7.75h-2.35V8.9l-0.1-3.5h2.1
		l0.1,2.1h0.05c0.333-0.633,0.867-1.183,1.6-1.65c0.733-0.467,1.633-0.717,2.7-0.75c0.633,0,1.3,0.15,2,0.45
		c0.667,0.3,1.267,0.85,1.8,1.65C40.3,8,40.55,9.133,40.55,10.6"/>
	<path d="M50.45,7.2H47.1v6.9c0,0.8,0.133,1.417,0.4,1.85c0.267,0.433,0.717,0.65,1.35,0.65l1.4-0.15l0.1,1.8l-2.1,0.3
		c-1.1,0-1.95-0.316-2.55-0.95c-0.6-0.733-0.9-1.867-0.9-3.4v-7h-2V5.4h2V3l2.3-0.7v3.1h3.35V7.2"/>
	<path d="M55.35,2.55L54.25,3H54.2c-0.434,0-0.784-0.15-1.05-0.45c-0.267-0.267-0.4-0.617-0.4-1.05s0.133-0.783,0.4-1.05
		c0.3-0.3,0.667-0.45,1.1-0.45c0.467,0,0.833,0.15,1.1,0.45c0.267,0.267,0.4,0.617,0.4,1.05S55.617,2.283,55.35,2.55 M55.45,5.4
		v12.9H53.1V5.4H55.45"/>
	<path d="M77.1,7.25c0.467,0.833,0.717,1.983,0.75,3.45v7.55h-2.3V11c0-1.267-0.233-2.25-0.7-2.95
		c-0.467-0.667-1.167-1.017-2.1-1.05c-0.7,0.033-1.283,0.25-1.75,0.65c-0.5,0.4-0.85,0.9-1.05,1.5l-0.2,1.15v7.95h-2.3V10.6
		c0-1.067-0.233-1.934-0.7-2.6c-0.433-0.633-1.1-0.967-2-1c-0.733,0.033-1.35,0.283-1.85,0.75s-0.85,1-1.05,1.6l-0.2,1.15v7.75h-2.3
		V8.9l-0.1-3.5h2.05l0.1,2.1h0.1c0.333-0.633,0.833-1.183,1.5-1.65c0.633-0.467,1.5-0.717,2.6-0.75c0.867,0,1.617,0.233,2.25,0.7
		c0.633,0.5,1.083,1.133,1.35,1.9h0.05c0.433-0.733,0.933-1.3,1.5-1.7c0.7-0.6,1.633-0.9,2.8-0.9c0.6,0,1.233,0.15,1.9,0.45
		C76.117,5.883,76.667,6.45,77.1,7.25"/>
	<path d="M86.6,6.75c-1.2,0.033-2.083,0.467-2.65,1.3c-0.567,0.8-0.883,1.633-0.95,2.5h6.85L89.6,8.9c-0.2-0.566-0.533-1.066-1-1.5
		C88.133,6.967,87.467,6.75,86.6,6.75 M90.05,6.1c0.767,0.667,1.3,1.467,1.6,2.4c0.333,0.933,0.483,1.817,0.45,2.65l-0.05,1.1h-9.1
		c0.066,1.567,0.517,2.7,1.35,3.4c0.833,0.733,1.867,1.083,3.1,1.05l2.1-0.15l1.45-0.45l0.45,1.65l-1.7,0.55l-2.65,0.25
		c-2-0.033-3.55-0.633-4.65-1.8s-1.667-2.733-1.7-4.7c0.033-2,0.583-3.65,1.65-4.95c1.066-1.333,2.55-2.017,4.45-2.05
		C88.2,5.083,89.283,5.433,90.05,6.1"/>
	<path d="M101.2,7.2h-3.35v6.9c0,0.8,0.133,1.417,0.4,1.85c0.267,0.433,0.717,0.65,1.35,0.65l1.4-0.15l0.1,1.8l-2.1,0.3
		c-1.1,0-1.95-0.316-2.55-0.95c-0.6-0.733-0.9-1.867-0.9-3.4v-7h-2V5.4h2V3l2.3-0.7v3.1h3.35V7.2"/>
	<path d="M114.15,12.3h-9.1c0.067,1.534,0.517,2.65,1.35,3.35c0.833,0.733,1.867,1.083,3.1,1.05l2.1-0.15l1.45-0.45l0.45,1.65
		l-1.7,0.55l-2.65,0.25c-2-0.033-3.55-0.633-4.65-1.8s-1.667-2.717-1.7-4.65c0.034-2,0.583-3.65,1.65-4.95
		c1.066-1.333,2.55-2.017,4.45-2.05c1.4,0.033,2.483,0.383,3.25,1.05c0.767,0.667,1.3,1.467,1.6,2.4
		c0.333,0.934,0.483,1.817,0.45,2.65L114.15,12.3 M108.7,6.8c-1.2,0.034-2.083,0.467-2.65,1.3c-0.566,0.8-0.883,1.633-0.95,2.5h6.85
		l-0.25-1.65c-0.2-0.567-0.534-1.067-1-1.5C110.233,7.017,109.567,6.8,108.7,6.8"/>
	<path d="M123.5,5.2v2.15l-0.85-0.05c-0.833,0.034-1.517,0.317-2.05,0.85c-0.567,0.567-0.934,1.283-1.1,2.15l-0.05,1.15v6.8h-2.35
		v-8.8L117,5.4h2.05l0.1,2.55h0.1c0.3-0.9,0.783-1.6,1.45-2.1c0.633-0.5,1.35-0.75,2.15-0.75L123.5,5.2"/>
	<path d="M131.3,7.1l-1.6-0.25c-0.7,0-1.233,0.167-1.6,0.5c-0.367,0.333-0.55,0.75-0.55,1.25c0,0.533,0.2,0.967,0.6,1.3
		c0.4,0.3,1.017,0.6,1.85,0.9c1.1,0.4,1.95,0.917,2.55,1.55c0.567,0.6,0.85,1.367,0.85,2.3c0,1.167-0.433,2.117-1.3,2.85
		c-0.833,0.7-2,1.05-3.5,1.05c-1.467-0.033-2.684-0.333-3.65-0.9l0.55-1.75c0.367,0.233,0.833,0.434,1.4,0.6l1.75,0.3
		c0.833,0,1.45-0.183,1.85-0.55s0.6-0.817,0.6-1.35c0.033-0.533-0.15-0.983-0.55-1.35c-0.367-0.367-0.966-0.7-1.8-1
		c-2.333-0.867-3.483-2.083-3.45-3.65c0-1.066,0.4-1.967,1.2-2.7c0.767-0.7,1.85-1.067,3.25-1.1c1.367,0.033,2.417,0.3,3.15,0.8
		l-0.55,1.7L131.3,7.1"/>
</g>
</svg>
