<?xml version="1.0" encoding="utf-8"?>
<!-- Generator: Adobe Illustrator 16.0.4, SVG Export Plug-In . SVG Version: 6.00 Build 0)  -->
<!DOCTYPE svg PUBLIC "-//W3C//DTD SVG 1.1//EN" "http://www.w3.org/Graphics/SVG/1.1/DTD/svg11.dtd">
<svg version="1.1" id="Layer_1" xmlns="http://www.w3.org/2000/svg" xmlns:xlink="http://www.w3.org/1999/xlink" x="0px" y="0px"
	 width="60px" height="24px" viewBox="0 0 60 24" enable-background="new 0 0 60 24" xml:space="preserve">
<g id="rectangle">
	<path fill="#B4C9DC" stroke="#263074" stroke-width="0.625" stroke-miterlimit="10" d="M55.105,16.051
		c0,1.789-1.444,3.232-3.227,3.232H4.522c-1.78,0-3.224-1.444-3.224-3.232v-5.83C1.298,8.444,2.742,7,4.522,7H51.88
		c1.782,0,3.226,1.444,3.226,3.221V16.051L55.105,16.051z"/>
</g>
<g id="glass">
	<path fill="#9B9B9B" stroke="#9B9B9B" stroke-width="0.2375" stroke-miterlimit="10" d="M48.445,16.557
		c-0.379-0.393,0.097-1.469,1.062-2.404c0.967-0.934,2.059-1.372,2.438-0.979l5.643,5.825c0.57,0.59,0.578,2.167-0.389,3.102
		s-2.542,0.871-3.112,0.282L48.445,16.557z"/>
	
		<linearGradient id="SVGID_1_" gradientUnits="userSpaceOnUse" x1="-128.4004" y1="-330.418" x2="-129.2547" y2="-328.0711" gradientTransform="matrix(0.719 -0.695 -0.695 -0.719 -86.0031 -311.3977)">
		<stop  offset="0" style="stop-color:#DCDCDC"/>
		<stop  offset="0.1716" style="stop-color:#D8D8D8"/>
		<stop  offset="0.3258" style="stop-color:#CECECE"/>
		<stop  offset="0.4733" style="stop-color:#BBBBBB"/>
		<stop  offset="0.6166" style="stop-color:#A1A1A1"/>
		<stop  offset="0.757" style="stop-color:#808080"/>
		<stop  offset="0.8933" style="stop-color:#585858"/>
		<stop  offset="1" style="stop-color:#333333"/>
	</linearGradient>
	<path fill="url(#SVGID_1_)" d="M51.947,13.173c0.379,0.394-0.096,1.47-1.063,2.403c-0.967,0.934-2.059,1.373-2.438,0.98
		c-0.379-0.394,0.097-1.47,1.062-2.404C50.475,13.219,51.566,12.78,51.947,13.173z"/>
	<path fill="#323232" d="M57.589,18.999c0.57,0.59,0.578,2.167-0.389,3.101c-0.966,0.936-2.542,0.873-3.112,0.283
		c-0.568-0.589-0.248-1.824,0.719-2.759S57.02,18.41,57.589,18.999z"/>
	
		<ellipse transform="matrix(-0.6952 -0.7188 0.7188 -0.6952 74.235 60.8404)" fill="#5A5A5A" stroke="#5A5A5A" stroke-width="0.1187" stroke-miterlimit="10" cx="50.017" cy="14.681" rx="0.64" ry="1.577"/>
	
		<linearGradient id="SVGID_2_" gradientUnits="userSpaceOnUse" x1="-130.4033" y1="-328.0986" x2="-127.251" y2="-328.0986" gradientTransform="matrix(0.719 -0.695 -0.695 -0.719 -86.0031 -311.3977)">
		<stop  offset="0" style="stop-color:#5A5A5A"/>
		<stop  offset="0.2044" style="stop-color:#5D5D5D"/>
		<stop  offset="0.3286" style="stop-color:#656565"/>
		<stop  offset="0.4313" style="stop-color:#737373"/>
		<stop  offset="0.5224" style="stop-color:#888888"/>
		<stop  offset="0.6057" style="stop-color:#A2A2A2"/>
		<stop  offset="0.6823" style="stop-color:#C2C2C2"/>
		<stop  offset="0.7335" style="stop-color:#DCDCDC"/>
		<stop  offset="0.7862" style="stop-color:#D9D9D9"/>
		<stop  offset="0.8324" style="stop-color:#CECECE"/>
		<stop  offset="0.8762" style="stop-color:#BCBCBC"/>
		<stop  offset="0.9185" style="stop-color:#A2A2A2"/>
		<stop  offset="0.9593" style="stop-color:#828282"/>
		<stop  offset="0.9993" style="stop-color:#5B5B5B"/>
		<stop  offset="1" style="stop-color:#5A5A5A"/>
	</linearGradient>
	<path fill="url(#SVGID_2_)" d="M51.15,13.584c0.246,0.254-0.062,0.951-0.688,1.557c-0.626,0.604-1.333,0.889-1.579,0.635
		l-1.511-1.906c0.245,0.254,0.781,0.135,1.408-0.471c0.626-0.604,0.763-1.136,0.517-1.391L51.15,13.584z"/>
	
		<linearGradient id="SVGID_3_" gradientUnits="userSpaceOnUse" x1="-131.2617" y1="-333.9146" x2="-126.3843" y2="-333.9146" gradientTransform="matrix(0.719 -0.695 -0.695 -0.719 -86.0031 -311.3977)">
		<stop  offset="0" style="stop-color:#5A5A5A"/>
		<stop  offset="0.2044" style="stop-color:#5D5D5D"/>
		<stop  offset="0.3286" style="stop-color:#656565"/>
		<stop  offset="0.4313" style="stop-color:#737373"/>
		<stop  offset="0.5224" style="stop-color:#888888"/>
		<stop  offset="0.6057" style="stop-color:#A2A2A2"/>
		<stop  offset="0.6823" style="stop-color:#C2C2C2"/>
		<stop  offset="0.7335" style="stop-color:#DCDCDC"/>
		<stop  offset="0.7862" style="stop-color:#D9D9D9"/>
		<stop  offset="0.8324" style="stop-color:#CECECE"/>
		<stop  offset="0.8762" style="stop-color:#BCBCBC"/>
		<stop  offset="0.9185" style="stop-color:#A2A2A2"/>
		<stop  offset="0.9593" style="stop-color:#828282"/>
		<stop  offset="0.9993" style="stop-color:#5B5B5B"/>
		<stop  offset="1" style="stop-color:#5A5A5A"/>
	</linearGradient>
	<path fill="url(#SVGID_3_)" d="M51.947,13.173c0.379,0.394-0.096,1.47-1.063,2.403c-0.967,0.934-2.059,1.373-2.438,0.98
		l5.643,5.825c0.379,0.392,1.637,0.124,2.604-0.81s1.277-2.182,0.897-2.574L51.947,13.173z"/>
	<g>
		<path fill="#FFFFFF" d="M50.809,15.648c-0.271,0.262-0.312,0.187-0.037-0.082c1.01-0.975,1.277-2.012,0.975-2.324
			c-0.034-0.036-0.033-0.092,0.002-0.125c0.035-0.034,0.091-0.033,0.125,0.002C52.294,13.555,51.827,14.665,50.809,15.648z"/>
	</g>
</g>
<g id="lense">
	<g opacity="0.67">
		<path fill="#FFFFFF" d="M39.346,3.64c-2.482,2.399-2.55,6.355-0.15,8.837c2.398,2.482,6.354,2.548,8.837,0.15
			c2.481-2.399,2.549-6.355,0.149-8.837C45.783,1.308,41.827,1.241,39.346,3.64z"/>
	</g>
	<g opacity="0.67">
		
			<linearGradient id="SVGID_4_" gradientUnits="userSpaceOnUse" x1="217.1592" y1="-235.0088" x2="225.6451" y2="-226.5228" gradientTransform="matrix(0.9999 0.017 0.017 -0.9999 -173.7668 -226.3737)">
			<stop  offset="0" style="stop-color:#92C1FF"/>
			<stop  offset="0.0706" style="stop-color:#A2CAFF"/>
			<stop  offset="0.2446" style="stop-color:#C3DDFF"/>
			<stop  offset="0.4231" style="stop-color:#DEECFF"/>
			<stop  offset="0.6056" style="stop-color:#F0F7FF"/>
			<stop  offset="0.7945" style="stop-color:#FBFDFF"/>
			<stop  offset="1" style="stop-color:#FFFFFF"/>
			<stop  offset="1" style="stop-color:#FDFEFF"/>
			<stop  offset="1" style="stop-color:#F5FAFF"/>
			<stop  offset="1" style="stop-color:#E8F2FF"/>
			<stop  offset="1" style="stop-color:#D5E8FF"/>
			<stop  offset="1" style="stop-color:#BDDBFF"/>
			<stop  offset="1" style="stop-color:#9FCAFF"/>
			<stop  offset="1" style="stop-color:#7CB7FF"/>
			<stop  offset="1" style="stop-color:#54A1FF"/>
			<stop  offset="1" style="stop-color:#2889FF"/>
		</linearGradient>
		<path fill="url(#SVGID_4_)" d="M43.791,2.135c-3.312-0.057-6.045,2.584-6.102,5.897c-0.056,3.312,2.584,6.045,5.897,6.1
			c3.313,0.058,6.045-2.584,6.101-5.896C49.745,4.921,47.104,2.19,43.791,2.135z"/>
	</g>
	
		<linearGradient id="SVGID_5_" gradientUnits="userSpaceOnUse" x1="225.2578" y1="-226.1709" x2="220.6189" y2="-231.6993" gradientTransform="matrix(0.9999 0.017 0.017 -0.9999 -173.7668 -226.3737)">
		<stop  offset="0" style="stop-color:#92C1FF"/>
		<stop  offset="0.0706" style="stop-color:#A2CAFF"/>
		<stop  offset="0.2446" style="stop-color:#C3DDFF"/>
		<stop  offset="0.4231" style="stop-color:#DEECFF"/>
		<stop  offset="0.6056" style="stop-color:#F0F7FF"/>
		<stop  offset="0.7945" style="stop-color:#FBFDFF"/>
		<stop  offset="1" style="stop-color:#FFFFFF"/>
		<stop  offset="1" style="stop-color:#FDFEFF"/>
		<stop  offset="1" style="stop-color:#F5FAFF"/>
		<stop  offset="1" style="stop-color:#E8F2FF"/>
		<stop  offset="1" style="stop-color:#D5E8FF"/>
		<stop  offset="1" style="stop-color:#BDDBFF"/>
		<stop  offset="1" style="stop-color:#9FCAFF"/>
		<stop  offset="1" style="stop-color:#7CB7FF"/>
		<stop  offset="1" style="stop-color:#54A1FF"/>
		<stop  offset="1" style="stop-color:#2889FF"/>
	</linearGradient>
	<path opacity="0.75" fill="url(#SVGID_5_)" enable-background="new    " d="M43.791,2.135c-1.909-0.033-3.622,0.833-4.744,2.204
		c1.036-0.791,2.333-1.256,3.737-1.232c3.313,0.057,5.952,2.787,5.897,6.102c-0.023,1.404-0.531,2.685-1.357,3.693
		c1.408-1.076,2.332-2.758,2.363-4.667C49.745,4.921,47.104,2.19,43.791,2.135z"/>
</g>
<g id="lensHolder">
	<g>
		<path fill="#323232" d="M37.439,8.028c-0.059,3.452,2.69,6.297,6.144,6.355c3.452,0.059,6.296-2.691,6.354-6.143
			c0.06-3.452-2.691-6.296-6.144-6.355C40.343,1.826,37.498,4.577,37.439,8.028z M43.818,0.51c4.211,0.072,7.565,3.542,7.494,7.754
			c-0.07,4.21-3.541,7.566-7.754,7.494c-4.211-0.07-7.564-3.542-7.494-7.753C36.137,3.794,39.607,0.438,43.818,0.51z"/>
		<path fill="#333333" d="M37.438,8.025c-0.059,3.454,2.693,6.301,6.146,6.359c3.454,0.06,6.301-2.693,6.359-6.146
			c0.058-3.454-2.694-6.3-6.147-6.359C40.344,1.821,37.497,4.572,37.438,8.025z M51.312,8.262c-0.071,4.208-3.541,7.562-7.75,7.491
			s-7.562-3.541-7.49-7.75c0.07-4.208,3.539-7.562,7.748-7.49C48.029,0.585,51.383,4.052,51.312,8.262z"/>
		<path fill="#343434" d="M37.438,8.024c-0.059,3.456,2.694,6.304,6.15,6.362c3.455,0.06,6.303-2.695,6.361-6.15
			c0.06-3.456-2.693-6.304-6.15-6.362C40.344,1.814,37.496,4.568,37.438,8.024z M51.311,8.259c-0.072,4.207-3.539,7.558-7.746,7.487
			c-4.207-0.072-7.559-3.539-7.487-7.746s3.539-7.559,7.746-7.487C48.029,0.585,51.381,4.052,51.311,8.259z"/>
		<path fill="#363636" d="M37.436,8.021c-0.059,3.458,2.696,6.308,6.154,6.366c3.458,0.059,6.307-2.697,6.365-6.154
			c0.061-3.458-2.695-6.308-6.154-6.366C40.344,1.81,37.494,4.563,37.436,8.021z M51.309,8.257
			c-0.072,4.205-3.537,7.556-7.742,7.483s-7.555-3.537-7.483-7.742s3.538-7.555,7.742-7.484C48.029,0.586,51.379,4.051,51.309,8.257
			z"/>
		<path fill="#373737" d="M37.434,8.019c-0.059,3.46,2.699,6.312,6.158,6.37c3.46,0.061,6.311-2.697,6.37-6.157
			s-2.698-6.311-6.157-6.37C40.344,1.803,37.492,4.559,37.434,8.019z M51.307,8.255c-0.07,4.202-3.535,7.552-7.738,7.479
			c-4.201-0.071-7.551-3.535-7.479-7.738c0.071-4.203,3.535-7.551,7.737-7.48C48.029,0.588,51.378,4.052,51.307,8.255z"/>
		<path fill="#383838" d="M37.434,8.017c-0.059,3.462,2.699,6.315,6.16,6.374c3.461,0.06,6.315-2.7,6.374-6.161
			c0.06-3.462-2.7-6.315-6.161-6.374C40.344,1.797,37.491,4.556,37.434,8.017z M51.307,8.252c-0.072,4.2-3.535,7.548-7.734,7.477
			c-4.2-0.07-7.549-3.534-7.477-7.733c0.07-4.2,3.533-7.547,7.732-7.477C48.029,0.589,51.377,4.052,51.307,8.252z"/>
		<path fill="#393939" d="M37.432,8.015c-0.059,3.463,2.701,6.319,6.164,6.377c3.465,0.06,6.318-2.702,6.377-6.165
			c0.06-3.464-2.701-6.319-6.164-6.378S37.49,4.551,37.432,8.015z M51.305,8.25c-0.072,4.198-3.533,7.544-7.731,7.473
			c-4.197-0.072-7.544-3.533-7.474-7.73c0.072-4.198,3.533-7.544,7.731-7.472C48.029,0.591,51.375,4.052,51.305,8.25z"/>
		<path fill="#3B3B3B" d="M37.43,8.013c-0.059,3.465,2.703,6.322,6.17,6.381c3.465,0.059,6.321-2.704,6.381-6.168
			c0.06-3.466-2.703-6.322-6.168-6.38C40.346,1.785,37.488,4.547,37.43,8.013z M51.303,8.248c-0.07,4.196-3.529,7.54-7.727,7.469
			c-4.197-0.07-7.541-3.53-7.469-7.727c0.069-4.196,3.529-7.54,7.727-7.469C48.029,0.592,51.375,4.051,51.303,8.248z"/>
		<path fill="#3C3C3C" d="M37.428,8.01c-0.058,3.467,2.705,6.327,6.174,6.385c3.467,0.06,6.325-2.705,6.385-6.171
			c0.06-3.468-2.704-6.327-6.172-6.385C40.346,1.78,37.486,4.543,37.428,8.01z M51.303,8.246c-0.072,4.194-3.529,7.537-7.725,7.466
			c-4.194-0.071-7.537-3.53-7.465-7.724c0.07-4.194,3.527-7.537,7.723-7.466C48.029,0.594,51.373,4.051,51.303,8.246z"/>
		<path fill="#3D3D3D" d="M37.428,8.007c-0.059,3.471,2.706,6.331,6.174,6.39c3.472,0.06,6.332-2.707,6.392-6.175
			c0.059-3.47-2.707-6.33-6.177-6.389C40.346,1.774,37.486,4.539,37.428,8.007z M51.3,8.243c-0.071,4.192-3.526,7.532-7.72,7.462
			c-4.191-0.071-7.533-3.527-7.461-7.72c0.07-4.191,3.527-7.533,7.719-7.462C48.029,0.595,51.371,4.051,51.3,8.243z"/>
		<path fill="#3E3E3E" d="M37.426,8.006c-0.059,3.471,2.707,6.333,6.18,6.393c3.472,0.06,6.334-2.708,6.393-6.18
			c0.061-3.472-2.707-6.333-6.18-6.392C40.346,1.768,37.484,4.534,37.426,8.006z M51.299,8.241c-0.07,4.19-3.525,7.53-7.717,7.458
			c-4.189-0.072-7.529-3.525-7.457-7.716c0.07-4.191,3.525-7.529,7.715-7.459C48.029,0.596,51.369,4.05,51.299,8.241z"/>
		<path fill="#404040" d="M37.424,8.003c-0.059,3.474,2.71,6.337,6.184,6.396c3.475,0.06,6.336-2.709,6.396-6.183
			c0.059-3.474-2.709-6.337-6.184-6.396C40.346,1.762,37.482,4.53,37.424,8.003z M51.297,8.239c-0.07,4.188-3.523,7.524-7.713,7.454
			c-4.188-0.07-7.525-3.523-7.453-7.712c0.07-4.187,3.523-7.525,7.711-7.454C48.029,0.598,51.368,4.051,51.297,8.239z"/>
		<path fill="#414141" d="M37.422,8.001c-0.059,3.476,2.712,6.341,6.188,6.399c3.476,0.06,6.342-2.71,6.4-6.187
			s-2.712-6.34-6.188-6.399C40.348,1.756,37.48,4.525,37.422,8.001z M51.295,8.237c-0.07,4.186-3.521,7.522-7.707,7.451
			c-4.186-0.07-7.523-3.521-7.451-7.708c0.07-4.186,3.521-7.522,7.707-7.452C48.029,0.599,51.367,4.05,51.295,8.237z"/>
		<path fill="#424242" d="M37.422,8c-0.061,3.477,2.711,6.345,6.189,6.402c3.478,0.061,6.344-2.711,6.402-6.188
			c0.061-3.478-2.713-6.345-6.189-6.404S37.48,4.522,37.422,8z M51.293,8.235c-0.07,4.183-3.52,7.518-7.703,7.447
			c-4.184-0.07-7.52-3.521-7.447-7.705c0.07-4.184,3.521-7.519,7.705-7.448C48.029,0.601,51.365,4.05,51.293,8.235z"/>
		<path fill="#434343" d="M37.421,7.997c-0.06,3.479,2.714,6.349,6.192,6.407c3.479,0.058,6.35-2.714,6.408-6.193
			c0.059-3.48-2.715-6.349-6.193-6.408C40.348,1.744,37.479,4.518,37.421,7.997z M51.293,8.233c-0.07,4.181-3.52,7.514-7.701,7.443
			c-4.182-0.07-7.515-3.519-7.443-7.701c0.07-4.182,3.521-7.515,7.701-7.444C48.029,0.603,51.365,4.05,51.293,8.233z"/>
		<path fill="#454545" d="M37.419,7.994c-0.06,3.482,2.716,6.354,6.196,6.412c3.482,0.059,6.353-2.716,6.412-6.197
			c0.059-3.481-2.717-6.353-6.197-6.411C40.348,1.738,37.477,4.513,37.419,7.994z M51.291,8.23c-0.07,4.179-3.518,7.511-7.697,7.44
			c-4.18-0.07-7.51-3.518-7.439-7.698c0.072-4.179,3.518-7.511,7.697-7.44C48.029,0.604,51.361,4.05,51.291,8.23z"/>
		<path fill="#464646" d="M37.417,7.992c-0.06,3.483,2.718,6.355,6.201,6.415c3.483,0.059,6.356-2.717,6.415-6.201
			s-2.719-6.356-6.201-6.415C40.348,1.732,37.477,4.509,37.417,7.992z M51.29,8.229c-0.071,4.176-3.517,7.507-7.692,7.437
			c-4.179-0.071-7.508-3.516-7.438-7.694c0.07-4.177,3.516-7.507,7.693-7.437C48.031,0.605,51.361,4.05,51.29,8.229z"/>
		<path fill="#474747" d="M37.416,7.991c-0.061,3.485,2.719,6.358,6.204,6.417c3.485,0.06,6.358-2.719,6.419-6.204
			c0.059-3.486-2.719-6.36-6.205-6.419C40.35,1.727,37.475,4.505,37.416,7.991z M51.289,8.226c-0.07,4.175-3.514,7.502-7.689,7.433
			c-4.176-0.071-7.504-3.514-7.434-7.69c0.07-4.175,3.514-7.504,7.689-7.434C48.031,0.606,51.359,4.05,51.289,8.226z"/>
		<path fill="#484848" d="M37.414,7.988c-0.059,3.487,2.721,6.364,6.208,6.422s6.362-2.721,6.422-6.208
			c0.06-3.488-2.721-6.363-6.208-6.422C40.35,1.721,37.473,4.5,37.414,7.988z M51.287,8.223c-0.071,4.173-3.514,7.5-7.686,7.429
			c-4.175-0.07-7.502-3.511-7.431-7.686c0.07-4.173,3.513-7.5,7.687-7.43C48.031,0.608,51.357,4.049,51.287,8.223z"/>
		<path fill="#4A4A4A" d="M37.412,7.986c-0.059,3.489,2.723,6.368,6.212,6.426c3.489,0.061,6.368-2.723,6.427-6.211
			c0.059-3.49-2.723-6.368-6.213-6.427C40.35,1.715,37.473,4.497,37.412,7.986z M51.285,8.221c-0.07,4.171-3.51,7.497-7.682,7.425
			c-4.172-0.07-7.496-3.511-7.427-7.683c0.071-4.171,3.511-7.497,7.683-7.426C48.031,0.61,51.355,4.05,51.285,8.221z"/>
		<path fill="#4B4B4B" d="M37.411,7.983c-0.06,3.492,2.726,6.371,6.216,6.429c3.492,0.061,6.37-2.723,6.43-6.215
			c0.06-3.491-2.724-6.371-6.215-6.43C40.35,1.708,37.471,4.493,37.411,7.983z M51.284,8.219c-0.071,4.169-3.509,7.494-7.679,7.422
			c-4.17-0.07-7.492-3.509-7.422-7.679c0.069-4.169,3.51-7.492,7.678-7.422C48.031,0.611,51.355,4.049,51.284,8.219z"/>
		<path fill="#4C4C4C" d="M37.41,7.981c-0.061,3.494,2.725,6.375,6.219,6.434s6.374-2.725,6.434-6.218
			c0.06-3.494-2.727-6.375-6.219-6.434C40.35,1.703,37.469,4.488,37.41,7.981z M51.282,8.217c-0.069,4.167-3.507,7.489-7.675,7.418
			c-4.166-0.07-7.488-3.507-7.418-7.675c0.069-4.166,3.508-7.489,7.674-7.418C48.031,0.612,51.354,4.049,51.282,8.217z"/>
		<path fill="#4D4D4D" d="M37.408,7.979c-0.059,3.496,2.729,6.378,6.223,6.438c3.496,0.06,6.378-2.728,6.438-6.223
			c0.06-3.496-2.727-6.378-6.223-6.438S37.468,4.483,37.408,7.979z M51.281,8.214c-0.07,4.165-3.506,7.486-7.672,7.415
			c-4.164-0.07-7.484-3.505-7.414-7.67s3.506-7.486,7.67-7.415C48.031,0.614,51.352,4.049,51.281,8.214z"/>
		<path fill="#4F4F4F" d="M37.406,7.977c-0.059,3.497,2.73,6.382,6.227,6.441c3.498,0.061,6.383-2.729,6.441-6.226
			c0.059-3.498-2.729-6.382-6.227-6.441C40.352,1.691,37.467,4.479,37.406,7.977z M51.279,8.212
			c-0.07,4.163-3.504,7.481-7.666,7.411c-4.164-0.071-7.482-3.504-7.412-7.667s3.504-7.482,7.667-7.413
			C48.031,0.615,51.352,4.049,51.279,8.212z"/>
		<path fill="#505050" d="M37.406,7.975c-0.061,3.499,2.729,6.384,6.229,6.444s6.387-2.73,6.445-6.23
			c0.061-3.499-2.73-6.386-6.23-6.445C40.352,1.686,37.465,4.476,37.406,7.975z M51.277,8.21c-0.069,4.161-3.502,7.478-7.662,7.407
			c-4.161-0.07-7.479-3.501-7.408-7.663c0.07-4.161,3.503-7.479,7.663-7.408C48.031,0.617,51.35,4.049,51.277,8.21z"/>
		<path fill="#515151" d="M37.404,7.973c-0.061,3.501,2.732,6.388,6.232,6.448c3.502,0.06,6.391-2.732,6.448-6.233
			c0.06-3.502-2.731-6.389-6.233-6.448C40.352,1.68,37.463,4.472,37.404,7.973z M51.277,8.208c-0.071,4.158-3.502,7.476-7.66,7.403
			c-4.158-0.07-7.475-3.5-7.404-7.66c0.07-4.158,3.502-7.475,7.66-7.404C48.031,0.618,51.348,4.048,51.277,8.208z"/>
		<path fill="#525252" d="M37.402,7.97c-0.06,3.504,2.734,6.394,6.236,6.453c3.504,0.06,6.395-2.734,6.452-6.237
			c0.06-3.504-2.733-6.393-6.235-6.453C40.352,1.674,37.462,4.467,37.402,7.97z M51.275,8.206c-0.07,4.157-3.498,7.471-7.656,7.401
			c-4.156-0.07-7.471-3.5-7.4-7.657c0.07-4.156,3.499-7.471,7.656-7.4C48.031,0.62,51.346,4.048,51.275,8.206z"/>
		<path fill="#545454" d="M37.4,7.968c-0.06,3.505,2.736,6.396,6.24,6.456c3.508,0.061,6.396-2.735,6.457-6.24
			c0.06-3.506-2.734-6.397-6.24-6.456C40.352,1.667,37.461,4.463,37.4,7.968z M51.273,8.203c-0.07,4.155-3.498,7.468-7.652,7.396
			c-4.154-0.069-7.467-3.498-7.396-7.651c0.07-4.154,3.498-7.467,7.652-7.397C48.031,0.622,51.346,4.049,51.273,8.203z"/>
		<path fill="#555555" d="M37.4,7.966c-0.062,3.507,2.736,6.4,6.244,6.459c3.506,0.06,6.399-2.737,6.459-6.244
			c0.06-3.507-2.736-6.4-6.244-6.459C40.352,1.662,37.459,4.458,37.4,7.966z M51.271,8.201c-0.069,4.152-3.494,7.464-7.647,7.394
			c-4.153-0.071-7.464-3.496-7.394-7.649c0.069-4.152,3.496-7.464,7.647-7.394C48.032,0.623,51.344,4.048,51.271,8.201z"/>
		<path fill="#565656" d="M37.398,7.963c-0.06,3.51,2.738,6.404,6.248,6.463c3.51,0.061,6.403-2.739,6.463-6.248
			c0.06-3.509-2.738-6.404-6.248-6.463C40.354,1.656,37.457,4.455,37.398,7.963z M51.271,8.198c-0.07,4.151-3.494,7.46-7.646,7.39
			s-7.461-3.494-7.392-7.645c0.07-4.151,3.494-7.46,7.646-7.39C48.032,0.624,51.342,4.048,51.271,8.198z"/>
		<path fill="#575757" d="M37.396,7.961c-0.061,3.512,2.74,6.408,6.252,6.467c3.512,0.062,6.406-2.739,6.467-6.25
			c0.061-3.512-2.74-6.408-6.252-6.467C40.354,1.65,37.456,4.45,37.396,7.961z M51.27,8.196c-0.069,4.148-3.492,7.457-7.641,7.386
			s-7.457-3.493-7.386-7.641c0.069-4.148,3.491-7.457,7.64-7.386C48.032,0.626,51.34,4.048,51.27,8.196z"/>
		<path fill="#595959" d="M37.396,7.959c-0.061,3.514,2.742,6.411,6.254,6.471c3.515,0.061,6.412-2.742,6.472-6.255
			c0.06-3.514-2.742-6.412-6.254-6.471C40.354,1.644,37.455,4.446,37.396,7.959z M51.27,8.194c-0.07,4.146-3.49,7.453-7.639,7.382
			c-4.146-0.07-7.453-3.491-7.383-7.638c0.07-4.146,3.492-7.452,7.639-7.383C48.032,0.628,51.339,4.048,51.27,8.194z"/>
		<path fill="#5A5A5A" d="M37.395,7.958c-0.061,3.515,2.742,6.414,6.258,6.474c3.517,0.062,6.416-2.743,6.477-6.258
			c0.059-3.516-2.745-6.416-6.259-6.475C40.354,1.639,37.453,4.442,37.395,7.958z M51.268,8.192c-0.069,4.145-3.49,7.449-7.635,7.38
			c-4.143-0.071-7.449-3.49-7.378-7.634c0.07-4.145,3.489-7.45,7.634-7.379C48.032,0.629,51.337,4.048,51.268,8.192z"/>
		<path fill="#5B5B5B" d="M37.393,7.955c-0.059,3.516,2.746,6.418,6.262,6.479c3.519,0.06,6.421-2.746,6.479-6.263
			c0.062-3.517-2.745-6.419-6.262-6.479C40.354,1.632,37.452,4.438,37.393,7.955z M51.266,8.19c-0.07,4.142-3.486,7.445-7.629,7.375
			s-7.445-3.486-7.377-7.629c0.07-4.142,3.488-7.445,7.631-7.375C48.032,0.63,51.336,4.047,51.266,8.19z"/>
		<path fill="#5C5C5C" d="M37.391,7.952c-0.059,3.52,2.748,6.423,6.268,6.481c3.52,0.06,6.423-2.747,6.48-6.266
			c0.062-3.519-2.746-6.423-6.266-6.482C40.354,1.626,37.451,4.433,37.391,7.952z M51.264,8.187
			c-0.07,4.141-3.484,7.443-7.625,7.374c-4.141-0.07-7.441-3.486-7.373-7.626c0.071-4.14,3.486-7.442,7.627-7.372
			C48.033,0.631,51.334,4.047,51.264,8.187z"/>
		<path fill="#5E5E5E" d="M37.391,7.95c-0.061,3.521,2.748,6.426,6.271,6.485c3.521,0.061,6.426-2.748,6.483-6.27
			c0.062-3.521-2.748-6.427-6.269-6.486C40.354,1.621,37.449,4.429,37.391,7.95z M51.264,8.186c-0.07,4.138-3.484,7.438-7.623,7.369
			c-4.139-0.072-7.438-3.486-7.367-7.624c0.068-4.139,3.482-7.439,7.621-7.368C48.033,0.633,51.334,4.047,51.264,8.186z"/>
		<path fill="#5F5F5F" d="M37.389,7.948c-0.061,3.523,2.75,6.43,6.273,6.489c3.523,0.061,6.43-2.75,6.488-6.272
			c0.061-3.523-2.75-6.43-6.272-6.49C40.354,1.614,37.447,4.425,37.389,7.948z M51.262,8.183c-0.07,4.137-3.482,7.435-7.619,7.365
			c-4.136-0.069-7.435-3.482-7.365-7.62c0.072-4.135,3.484-7.434,7.619-7.364C48.033,0.634,51.331,4.047,51.262,8.183z"/>
		<path fill="#606060" d="M37.387,7.945c-0.06,3.525,2.752,6.434,6.277,6.495s6.434-2.751,6.493-6.277
			c0.06-3.525-2.751-6.434-6.277-6.493C40.355,1.609,37.447,4.42,37.387,7.945z M51.26,8.181c-0.07,4.133-3.48,7.43-7.615,7.36
			c-4.133-0.07-7.431-3.48-7.359-7.615c0.07-4.134,3.48-7.431,7.615-7.361C48.033,0.636,51.33,4.047,51.26,8.181z"/>
		<path fill="#616161" d="M37.385,7.944c-0.059,3.527,2.754,6.437,6.281,6.498c3.527,0.06,6.438-2.754,6.497-6.281
			c0.06-3.527-2.753-6.438-6.28-6.497C40.354,1.604,37.445,4.416,37.385,7.944z M51.258,8.178c-0.068,4.132-3.479,7.428-7.611,7.357
			c-4.131-0.07-7.426-3.479-7.354-7.611c0.067-4.131,3.478-7.426,7.608-7.357C48.033,0.637,51.328,4.047,51.258,8.178z"/>
		<path fill="#636363" d="M37.385,7.941c-0.061,3.529,2.754,6.441,6.283,6.5c3.529,0.061,6.441-2.755,6.5-6.284
			c0.061-3.529-2.754-6.44-6.283-6.5C40.355,1.597,37.443,4.412,37.385,7.941z M51.257,8.177c-0.069,4.129-3.478,7.423-7.606,7.354
			c-4.131-0.07-7.424-3.479-7.354-7.607c0.07-4.129,3.479-7.424,7.606-7.354C48.033,0.64,51.327,4.047,51.257,8.177z"/>
		<path fill="#646464" d="M37.383,7.939c-0.061,3.531,2.758,6.445,6.287,6.504c3.531,0.061,6.445-2.756,6.505-6.287
			c0.06-3.532-2.757-6.445-6.288-6.505S37.441,4.408,37.383,7.939z M51.256,8.174c-0.07,4.127-3.477,7.42-7.604,7.35
			c-4.129-0.069-7.42-3.476-7.352-7.603c0.07-4.128,3.477-7.42,7.604-7.351C48.033,0.641,51.325,4.046,51.256,8.174z"/>
		<path fill="#656565" d="M37.381,7.937c-0.059,3.533,2.758,6.448,6.292,6.508c3.533,0.06,6.448-2.758,6.509-6.292
			c0.06-3.532-2.759-6.448-6.291-6.508C40.355,1.585,37.439,4.404,37.381,7.937z M51.254,8.172c-0.068,4.126-3.475,7.417-7.6,7.348
			c-4.127-0.07-7.416-3.475-7.346-7.601c0.068-4.125,3.473-7.416,7.6-7.347C48.033,0.642,51.324,4.046,51.254,8.172z"/>
		<path fill="#666666" d="M37.379,7.935c-0.059,3.534,2.76,6.451,6.295,6.512c3.537,0.06,6.453-2.76,6.514-6.295
			c0.061-3.536-2.761-6.453-6.295-6.512C40.355,1.579,37.439,4.399,37.379,7.935z M51.253,8.17
			c-0.069,4.123-3.474,7.413-7.597,7.342c-4.123-0.07-7.412-3.472-7.342-7.596c0.068-4.124,3.472-7.413,7.596-7.343
			C48.033,0.644,51.322,4.046,51.253,8.17z"/>
		<path fill="#686868" d="M37.377,7.932c-0.059,3.537,2.764,6.457,6.3,6.516c3.538,0.06,6.456-2.762,6.517-6.299
			s-2.762-6.456-6.299-6.516C40.357,1.574,37.438,4.395,37.377,7.932z M51.252,8.167c-0.07,4.122-3.473,7.409-7.594,7.339
			c-4.121-0.068-7.408-3.471-7.338-7.592c0.068-4.121,3.47-7.409,7.592-7.339C48.033,0.646,51.32,4.046,51.252,8.167z"/>
		<path fill="#696969" d="M37.377,7.93c-0.061,3.54,2.764,6.46,6.303,6.521c3.539,0.06,6.459-2.764,6.52-6.303
			c0.06-3.539-2.764-6.46-6.303-6.52S37.438,4.391,37.377,7.93z M51.25,8.165c-0.07,4.119-3.471,7.405-7.59,7.335
			c-4.118-0.068-7.404-3.469-7.335-7.588c0.071-4.119,3.47-7.405,7.589-7.336C48.033,0.646,51.32,4.045,51.25,8.165z"/>
		<path fill="#6A6A6A" d="M37.375,7.928c-0.059,3.542,2.766,6.463,6.307,6.523c3.541,0.06,6.463-2.765,6.522-6.306
			c0.062-3.542-2.765-6.463-6.306-6.523S37.436,4.387,37.375,7.928z M51.248,8.164c-0.07,4.117-3.467,7.4-7.585,7.332
			c-4.116-0.07-7.401-3.468-7.332-7.585c0.069-4.117,3.468-7.402,7.585-7.332C48.033,0.648,51.318,4.045,51.248,8.164z"/>
		<path fill="#6B6B6B" d="M37.374,7.926c-0.06,3.543,2.767,6.467,6.31,6.526c3.543,0.062,6.467-2.766,6.527-6.309
			S47.443,1.676,43.9,1.616C40.357,1.557,37.434,4.383,37.374,7.926z M51.247,8.161c-0.07,4.115-3.466,7.397-7.581,7.328
			c-4.115-0.071-7.398-3.466-7.328-7.582c0.069-4.115,3.465-7.398,7.58-7.328C48.033,0.649,51.316,4.045,51.247,8.161z"/>
		<path fill="#6D6D6D" d="M37.373,7.923c-0.061,3.545,2.768,6.472,6.312,6.531c3.543,0.06,6.471-2.768,6.529-6.313
			c0.061-3.545-2.767-6.47-6.312-6.53C40.357,1.551,37.434,4.378,37.373,7.923z M51.246,8.159c-0.07,4.113-3.465,7.394-7.578,7.325
			c-4.113-0.07-7.395-3.464-7.324-7.578c0.071-4.114,3.463-7.396,7.576-7.324C48.034,0.651,51.314,4.045,51.246,8.159z"/>
		<path fill="#6E6E6E" d="M37.371,7.921c-0.061,3.547,2.77,6.476,6.316,6.534c3.547,0.061,6.475-2.77,6.535-6.316
			c0.059-3.547-2.771-6.475-6.318-6.535C40.359,1.544,37.432,4.374,37.371,7.921z M51.244,8.156
			c-0.069,4.111-3.463,7.391-7.574,7.32c-4.109-0.069-7.391-3.461-7.32-7.573c0.068-4.111,3.463-7.391,7.574-7.321
			C48.034,0.652,51.312,4.045,51.244,8.156z"/>
		<path fill="#6F6F6F" d="M37.369,7.919c-0.061,3.549,2.771,6.478,6.32,6.538s6.479-2.771,6.539-6.32
			c0.061-3.549-2.771-6.478-6.321-6.539C40.359,1.539,37.43,4.37,37.369,7.919z M51.242,8.154c-0.069,4.109-3.461,7.388-7.569,7.319
			c-4.108-0.07-7.388-3.462-7.317-7.571c0.069-4.108,3.461-7.387,7.57-7.318C48.034,0.654,51.312,4.045,51.242,8.154z"/>
		<path fill="#707070" d="M37.367,7.917c-0.059,3.551,2.773,6.481,6.324,6.542c3.552,0.061,6.481-2.773,6.543-6.323
			c0.061-3.552-2.773-6.482-6.324-6.542C40.359,1.534,37.428,4.366,37.367,7.917z M51.24,8.152
			c-0.068,4.106-3.459,7.384-7.565,7.314c-4.106-0.069-7.384-3.459-7.313-7.566s3.459-7.384,7.566-7.314
			C48.034,0.655,51.311,4.045,51.24,8.152z"/>
		<path fill="#727272" d="M37.367,7.914c-0.061,3.553,2.773,6.484,6.326,6.546c3.555,0.062,6.486-2.774,6.547-6.328
			c0.061-3.553-2.775-6.485-6.328-6.545S37.427,4.361,37.367,7.914z M51.24,8.15c-0.07,4.104-3.459,7.38-7.562,7.311
			c-4.104-0.07-7.381-3.458-7.311-7.563s3.457-7.38,7.562-7.311C48.034,0.656,51.311,4.045,51.24,8.15z"/>
		<path fill="#737373" d="M37.365,7.912c-0.061,3.555,2.775,6.488,6.33,6.55c3.557,0.06,6.49-2.777,6.551-6.332
			c0.061-3.555-2.777-6.489-6.331-6.549C40.359,1.521,37.426,4.357,37.365,7.912z M51.238,8.147
			c-0.069,4.103-3.456,7.376-7.561,7.307c-4.103-0.07-7.375-3.456-7.306-7.559c0.069-4.102,3.455-7.376,7.56-7.307
			C48.034,0.658,51.309,4.045,51.238,8.147z"/>
		<path fill="#747474" d="M37.363,7.91c-0.061,3.557,2.779,6.492,6.336,6.552c3.557,0.062,6.492-2.777,6.553-6.333
			c0.061-3.557-2.777-6.493-6.335-6.554C40.359,1.514,37.424,4.353,37.363,7.91z M51.236,8.146
			c-0.069,4.101-3.453,7.374-7.555,7.303c-4.102-0.069-7.373-3.455-7.304-7.555s3.455-7.372,7.556-7.303
			C48.034,0.659,51.307,4.044,51.236,8.146z"/>
		<path fill="#757575" d="M37.361,7.907c-0.06,3.559,2.781,6.498,6.34,6.557c3.559,0.062,6.496-2.779,6.557-6.338
			c0.061-3.56-2.779-6.497-6.338-6.557C40.359,1.51,37.423,4.349,37.361,7.907z M51.234,8.144c-0.068,4.098-3.451,7.368-7.551,7.299
			c-4.099-0.07-7.369-3.453-7.3-7.551s3.452-7.369,7.552-7.3C48.034,0.661,51.305,4.044,51.234,8.144z"/>
		<path fill="#777777" d="M37.361,7.906c-0.062,3.561,2.781,6.5,6.342,6.56c3.561,0.062,6.5-2.78,6.561-6.342
			c0.062-3.561-2.781-6.5-6.342-6.56C40.361,1.503,37.422,4.345,37.361,7.906z M51.234,8.141c-0.07,4.096-3.451,7.365-7.549,7.296
			c-4.097-0.069-7.365-3.452-7.295-7.547c0.069-4.097,3.45-7.365,7.547-7.296C48.035,0.663,51.305,4.044,51.234,8.141z"/>
		<path fill="#787878" d="M37.359,7.903c-0.062,3.563,2.783,6.505,6.346,6.565c3.562,0.062,6.504-2.783,6.564-6.346
			s-2.783-6.504-6.347-6.564C40.361,1.498,37.42,4.341,37.359,7.903z M51.232,8.139c-0.068,4.094-3.449,7.362-7.545,7.292
			c-4.095-0.07-7.36-3.45-7.291-7.543c0.068-4.094,3.449-7.362,7.543-7.292C48.035,0.666,51.303,4.044,51.232,8.139z"/>
		<path fill="#797979" d="M37.357,7.901c-0.062,3.565,2.785,6.508,6.35,6.568c3.564,0.061,6.508-2.784,6.568-6.349
			c0.06-3.565-2.785-6.507-6.351-6.568C40.361,1.492,37.418,4.336,37.357,7.901z M51.23,8.136c-0.069,4.092-3.447,7.358-7.539,7.289
			c-4.094-0.069-7.357-3.447-7.289-7.541c0.07-4.092,3.447-7.357,7.539-7.289C48.035,0.666,51.301,4.043,51.23,8.136z"/>
		<path fill="#7A7A7A" d="M37.355,7.899c-0.06,3.567,2.787,6.511,6.354,6.571c3.566,0.062,6.512-2.786,6.572-6.353
			c0.061-3.567-2.785-6.511-6.354-6.572C40.361,1.485,37.418,4.333,37.355,7.899z M51.229,8.134
			c-0.068,4.09-3.445,7.355-7.535,7.285c-4.09-0.069-7.354-3.446-7.285-7.537c0.07-4.09,3.445-7.354,7.535-7.285
			C48.035,0.667,51.299,4.044,51.229,8.134z"/>
		<path fill="#7C7C7C" d="M37.355,7.897c-0.062,3.568,2.787,6.515,6.354,6.576c3.569,0.061,6.517-2.789,6.576-6.356
			c0.06-3.568-2.786-6.515-6.354-6.575C40.361,1.48,37.416,4.328,37.355,7.897z M51.229,8.131c-0.068,4.088-3.443,7.352-7.533,7.281
			c-4.088-0.069-7.35-3.444-7.28-7.532s3.444-7.351,7.533-7.281C48.035,0.669,51.297,4.043,51.229,8.131z"/>
		<path fill="#7D7D7D" d="M37.354,7.894c-0.061,3.571,2.789,6.52,6.36,6.581s6.519-2.791,6.579-6.36
			c0.061-3.571-2.789-6.518-6.359-6.579C40.361,1.474,37.414,4.324,37.354,7.894z M51.227,8.13
			c-0.067,4.085-3.441,7.347-7.528,7.277c-4.087-0.068-7.347-3.442-7.277-7.528C36.49,3.792,39.863,0.532,43.95,0.6
			C48.035,0.67,51.296,4.043,51.227,8.13z"/>
		<path fill="#7E7E7E" d="M37.352,7.892c-0.06,3.573,2.793,6.522,6.364,6.583c3.573,0.062,6.522-2.791,6.583-6.364
			c0.061-3.573-2.791-6.522-6.363-6.583C40.363,1.468,37.412,4.319,37.352,7.892z M51.225,8.127
			c-0.067,4.084-3.438,7.343-7.523,7.273c-4.084-0.068-7.344-3.439-7.274-7.524c0.07-4.084,3.441-7.343,7.525-7.274
			C48.035,0.672,51.295,4.043,51.225,8.127z"/>
		<path fill="#7F7F7F" d="M37.352,7.89c-0.061,3.575,2.791,6.525,6.367,6.586c3.574,0.061,6.525-2.792,6.586-6.367
			c0.062-3.575-2.793-6.526-6.367-6.587S37.411,4.315,37.352,7.89z M51.225,8.125c-0.07,4.082-3.438,7.34-7.521,7.271
			c-4.082-0.069-7.341-3.439-7.271-7.522c0.069-4.082,3.438-7.339,7.521-7.27C48.035,0.673,51.294,4.043,51.225,8.125z"/>
		<path fill="#818181" d="M37.35,7.888c-0.061,3.577,2.795,6.53,6.371,6.59c3.576,0.062,6.529-2.794,6.59-6.372
			c0.062-3.577-2.793-6.53-6.369-6.59C40.363,1.457,37.41,4.311,37.35,7.888z M51.223,8.123c-0.068,4.081-3.438,7.336-7.518,7.268
			c-4.08-0.07-7.336-3.438-7.268-7.519c0.069-4.08,3.438-7.336,7.518-7.267S51.292,4.043,51.223,8.123z"/>
		<path fill="#828282" d="M37.348,7.886c-0.061,3.579,2.797,6.533,6.375,6.595c3.578,0.061,6.533-2.796,6.594-6.375
			c0.062-3.579-2.795-6.534-6.373-6.595C40.363,1.45,37.408,4.307,37.348,7.886z M51.221,8.121
			c-0.068,4.078-3.436,7.333-7.514,7.263c-4.078-0.067-7.332-3.436-7.264-7.514s3.438-7.332,7.514-7.263
			C48.035,0.676,51.291,4.042,51.221,8.121z"/>
		<path fill="#838383" d="M37.348,7.883c-0.062,3.581,2.797,6.538,6.377,6.598c3.58,0.062,6.537-2.796,6.599-6.377
			c0.061-3.581-2.798-6.537-6.378-6.599C40.363,1.445,37.407,4.303,37.348,7.883z M51.221,8.118c-0.07,4.076-3.436,7.329-7.512,7.26
			c-4.074-0.069-7.328-3.434-7.26-7.511c0.07-4.076,3.436-7.329,7.51-7.26C48.035,0.677,51.289,4.043,51.221,8.118z"/>
		<path fill="#848484" d="M37.346,7.88c-0.061,3.583,2.799,6.542,6.381,6.603c3.584,0.062,6.541-2.798,6.603-6.381
			s-2.8-6.541-6.382-6.601C40.363,1.438,37.406,4.298,37.346,7.88z M51.219,8.117c-0.07,4.073-3.434,7.324-7.507,7.255
			c-4.073-0.067-7.325-3.433-7.256-7.506c0.067-4.074,3.433-7.325,7.507-7.257C48.035,0.679,51.287,4.042,51.219,8.117z"/>
		<path fill="#868686" d="M37.344,7.879c-0.061,3.585,2.801,6.545,6.385,6.605c3.586,0.062,6.545-2.801,6.605-6.385
			c0.062-3.584-2.8-6.544-6.385-6.605C40.363,1.433,37.404,4.294,37.344,7.879z M51.217,8.114c-0.068,4.071-3.432,7.321-7.502,7.252
			c-4.072-0.069-7.322-3.432-7.254-7.503c0.07-4.071,3.432-7.322,7.504-7.253C48.035,0.68,51.285,4.042,51.217,8.114z"/>
		<path fill="#878787" d="M37.342,7.876c-0.061,3.587,2.803,6.549,6.391,6.61c3.586,0.061,6.547-2.803,6.607-6.389
			c0.062-3.587-2.802-6.548-6.389-6.609C40.365,1.427,37.402,4.29,37.342,7.876z M51.215,8.112
			c-0.068,4.069-3.429,7.318-7.498,7.248c-4.07-0.067-7.318-3.427-7.249-7.499c0.068-4.069,3.429-7.318,7.499-7.249
			C48.036,0.682,51.285,4.042,51.215,8.112z"/>
		<path fill="#888888" d="M37.341,7.874c-0.062,3.589,2.804,6.552,6.394,6.612c3.589,0.062,6.552-2.803,6.611-6.392
			c0.062-3.589-2.803-6.553-6.393-6.613C40.365,1.421,37.402,4.286,37.341,7.874z M51.214,8.109
			c-0.069,4.068-3.428,7.314-7.495,7.245c-4.066-0.068-7.314-3.427-7.244-7.495c0.068-4.067,3.428-7.314,7.494-7.246
			C48.035,0.683,51.283,4.042,51.214,8.109z"/>
		<path fill="#898989" d="M37.34,7.873c-0.061,3.591,2.805,6.557,6.396,6.616c3.59,0.061,6.555-2.805,6.615-6.396
			c0.062-3.59-2.806-6.556-6.396-6.616C40.365,1.415,37.4,4.282,37.34,7.873z M51.213,8.107c-0.068,4.065-3.427,7.311-7.492,7.241
			c-4.063-0.067-7.311-3.425-7.24-7.492c0.067-4.064,3.427-7.31,7.49-7.241C48.037,0.685,51.281,4.042,51.213,8.107z"/>
		<path fill="#8B8B8B" d="M37.338,7.87c-0.061,3.593,2.807,6.56,6.4,6.621c3.592,0.061,6.559-2.807,6.619-6.399
			c0.062-3.593-2.808-6.56-6.398-6.621C40.365,1.41,37.398,4.278,37.338,7.87z M51.211,8.105c-0.068,4.063-3.424,7.307-7.488,7.238
			c-4.062-0.069-7.307-3.424-7.236-7.488s3.425-7.308,7.486-7.238C48.036,0.687,51.279,4.042,51.211,8.105z"/>
		<path fill="#8C8C8C" d="M37.337,7.867c-0.062,3.595,2.81,6.564,6.403,6.625c3.595,0.061,6.562-2.809,6.625-6.403
			c0.061-3.594-2.811-6.563-6.404-6.625C40.366,1.403,37.398,4.273,37.337,7.867z M51.209,8.103
			c-0.068,4.061-3.422,7.303-7.482,7.234c-4.062-0.069-7.305-3.422-7.234-7.483c0.068-4.062,3.423-7.304,7.482-7.234
			C48.036,0.688,51.279,4.042,51.209,8.103z"/>
		<path fill="#8D8D8D" d="M37.336,7.866c-0.062,3.596,2.811,6.565,6.406,6.627c3.597,0.062,6.566-2.81,6.628-6.407
			c0.062-3.596-2.81-6.566-6.407-6.627C40.366,1.397,37.396,4.269,37.336,7.866z M51.208,8.101c-0.069,4.059-3.421,7.299-7.479,7.23
			c-4.06-0.067-7.299-3.421-7.23-7.48s3.421-7.299,7.48-7.23C48.037,0.69,51.277,4.041,51.208,8.101z"/>
		<path fill="#8E8E8E" d="M37.334,7.863c-0.061,3.6,2.812,6.571,6.41,6.632c3.599,0.062,6.57-2.812,6.632-6.41
			c0.062-3.6-2.812-6.572-6.411-6.632C40.367,1.392,37.396,4.265,37.334,7.863z M51.207,8.098c-0.068,4.057-3.42,7.296-7.477,7.228
			c-4.058-0.069-7.297-3.419-7.229-7.477c0.068-4.057,3.42-7.296,7.477-7.227C48.036,0.69,51.275,4.042,51.207,8.098z"/>
		<path fill="#909090" d="M37.332,7.86c-0.061,3.602,2.814,6.576,6.415,6.637s6.573-2.814,6.635-6.415s-2.813-6.574-6.413-6.635
			C40.367,1.385,37.395,4.261,37.332,7.86z M51.205,8.096c-0.068,4.055-3.418,7.292-7.473,7.224
			c-4.056-0.069-7.293-3.418-7.225-7.473c0.069-4.054,3.419-7.292,7.473-7.224C48.037,0.692,51.273,4.041,51.205,8.096z"/>
		<path fill="#919191" d="M37.33,7.859c-0.061,3.603,2.816,6.577,6.418,6.639c3.604,0.062,6.578-2.814,6.641-6.417
			c0.062-3.603-2.814-6.578-6.418-6.639C40.367,1.38,37.393,4.256,37.33,7.859z M51.204,8.094c-0.069,4.053-3.417,7.289-7.47,7.221
			c-4.053-0.069-7.289-3.417-7.219-7.471c0.066-4.052,3.416-7.288,7.469-7.22C48.037,0.694,51.271,4.041,51.204,8.094z"/>
		<path fill="#929292" d="M37.33,7.856c-0.062,3.605,2.816,6.582,6.421,6.644c3.604,0.061,6.581-2.817,6.644-6.422
			c0.062-3.605-2.816-6.582-6.422-6.643S37.391,4.252,37.33,7.856z M51.202,8.092c-0.068,4.051-3.415,7.285-7.466,7.217
			c-4.051-0.069-7.284-3.415-7.215-7.465c0.067-4.051,3.414-7.286,7.465-7.217C48.037,0.695,51.271,4.041,51.202,8.092z"/>
		<path fill="#939393" d="M37.328,7.854c-0.061,3.607,2.818,6.585,6.425,6.647s6.585-2.819,6.646-6.425
			c0.062-3.607-2.817-6.586-6.424-6.646C40.367,1.368,37.389,4.248,37.328,7.854z M51.201,8.09
			c-0.068,4.048-3.412,7.281-7.463,7.212c-4.047-0.067-7.28-3.413-7.211-7.461c0.068-4.048,3.412-7.281,7.461-7.212
			C48.037,0.698,51.27,4.041,51.201,8.09z"/>
		<path fill="#959595" d="M37.326,7.852c-0.061,3.608,2.82,6.589,6.429,6.651c3.608,0.06,6.589-2.821,6.651-6.429
			c0.061-3.608-2.82-6.589-6.43-6.65C40.368,1.362,37.389,4.243,37.326,7.852z M51.199,8.086c-0.068,4.048-3.41,7.278-7.457,7.21
			c-4.047-0.067-7.278-3.412-7.209-7.458c0.068-4.046,3.41-7.277,7.457-7.209C48.037,0.698,51.268,4.041,51.199,8.086z"/>
		<path fill="#969696" d="M37.325,7.85c-0.062,3.61,2.821,6.593,6.433,6.654c3.61,0.062,6.592-2.822,6.654-6.432
			c0.061-3.611-2.822-6.593-6.434-6.654C40.369,1.356,37.387,4.239,37.325,7.85z M51.198,8.085
			c-0.069,4.044-3.409,7.272-7.454,7.206c-4.044-0.068-7.273-3.41-7.205-7.455s3.409-7.274,7.453-7.205
			C48.037,0.699,51.266,4.041,51.198,8.085z"/>
		<path fill="#979797" d="M37.324,7.847c-0.062,3.613,2.822,6.596,6.436,6.658c3.612,0.062,6.596-2.824,6.657-6.436
			c0.062-3.612-2.823-6.597-6.435-6.658C40.369,1.351,37.385,4.235,37.324,7.847z M51.197,8.083
			c-0.069,4.042-3.408,7.271-7.451,7.203c-4.043-0.069-7.271-3.408-7.201-7.451c0.068-4.042,3.408-7.27,7.449-7.202
			C48.037,0.701,51.266,4.04,51.197,8.083z"/>
		<path fill="#989898" d="M37.322,7.846c-0.061,3.615,2.826,6.599,6.439,6.661c3.614,0.062,6.6-2.825,6.661-6.439
			c0.062-3.614-2.825-6.6-6.438-6.662C40.369,1.345,37.383,4.231,37.322,7.846z M51.195,8.08c-0.068,4.041-3.406,7.268-7.447,7.199
			s-7.268-3.407-7.198-7.447s3.406-7.267,7.447-7.198C48.037,0.703,51.264,4.04,51.195,8.08z"/>
		<path fill="#9A9A9A" d="M37.32,7.843c-0.062,3.616,2.826,6.604,6.443,6.665c3.616,0.062,6.604-2.826,6.664-6.443
			c0.061-3.617-2.826-6.604-6.441-6.666C40.369,1.339,37.382,4.227,37.32,7.843z M51.193,8.078
			c-0.068,4.039-3.404,7.263-7.442,7.195c-4.038-0.069-7.263-3.406-7.194-7.444C36.626,3.791,39.961,0.567,44,0.635
			C48.037,0.705,51.262,4.04,51.193,8.078z"/>
		<path fill="#9B9B9B" d="M37.318,7.841c-0.062,3.618,2.83,6.608,6.447,6.669c3.618,0.062,6.607-2.828,6.67-6.447
			c0.061-3.618-2.828-6.607-6.447-6.669S37.381,4.223,37.318,7.841z M51.193,8.076c-0.068,4.036-3.404,7.259-7.44,7.191
			c-4.036-0.068-7.259-3.402-7.19-7.438c0.069-4.036,3.402-7.26,7.439-7.191C48.037,0.706,51.262,4.04,51.193,8.076z"/>
		<path fill="#9C9C9C" d="M37.316,7.839c-0.061,3.62,2.83,6.611,6.451,6.672c3.621,0.062,6.61-2.83,6.674-6.45
			c0.061-3.621-2.83-6.612-6.451-6.673C40.37,1.327,37.379,4.218,37.316,7.839z M51.191,8.074c-0.068,4.034-3.401,7.255-7.437,7.188
			c-4.034-0.068-7.256-3.401-7.188-7.436c0.068-4.035,3.4-7.256,7.437-7.188C48.038,0.707,51.26,4.04,51.191,8.074z"/>
		<path fill="#9D9D9D" d="M37.316,7.836c-0.062,3.623,2.832,6.616,6.455,6.678c3.621,0.061,6.613-2.833,6.676-6.455
			c0.061-3.622-2.832-6.615-6.454-6.676C40.371,1.321,37.378,4.214,37.316,7.836z M51.189,8.072
			c-0.068,4.032-3.399,7.252-7.433,7.183c-4.032-0.067-7.252-3.399-7.184-7.432c0.067-4.031,3.399-7.252,7.431-7.184
			C48.037,0.708,51.258,4.04,51.189,8.072z"/>
		<path fill="#9F9F9F" d="M37.314,7.834c-0.062,3.624,2.834,6.619,6.457,6.68c3.625,0.062,6.619-2.833,6.682-6.458
			c0.062-3.624-2.833-6.618-6.458-6.68C40.371,1.315,37.377,4.21,37.314,7.834z M51.188,8.07c-0.067,4.029-3.396,7.249-7.428,7.18
			c-4.029-0.068-7.248-3.398-7.18-7.428c0.068-4.03,3.396-7.249,7.428-7.18C48.037,0.709,51.257,4.039,51.188,8.07z"/>
		<path fill="#A0A0A0" d="M37.312,7.832c-0.062,3.626,2.836,6.623,6.463,6.684c3.625,0.062,6.621-2.833,6.684-6.46
			c0.061-3.627-2.835-6.623-6.461-6.684C40.371,1.31,37.375,4.206,37.312,7.832z M51.188,8.066
			c-0.067,4.029-3.396,7.247-7.424,7.177c-4.029-0.068-7.246-3.396-7.178-7.424c0.068-4.027,3.396-7.245,7.424-7.177
			C48.038,0.712,51.255,4.039,51.188,8.066z"/>
		<path fill="#A1A1A1" d="M37.312,7.83c-0.062,3.628,2.836,6.626,6.465,6.688c3.627,0.062,6.625-2.836,6.688-6.465
			C50.525,4.424,47.629,1.426,44,1.365C40.371,1.303,37.374,4.201,37.312,7.83z M51.186,8.065c-0.067,4.025-3.395,7.242-7.42,7.171
			c-4.025-0.067-7.242-3.394-7.174-7.419s3.395-7.241,7.42-7.173C48.038,0.713,51.254,4.039,51.186,8.065z"/>
		<path fill="#A2A2A2" d="M37.311,7.827c-0.062,3.631,2.838,6.63,6.469,6.692c3.632,0.062,6.63-2.838,6.691-6.469
			c0.062-3.631-2.838-6.63-6.469-6.692C40.372,1.298,37.372,4.197,37.311,7.827z M51.184,8.062
			c-0.067,4.024-3.393,7.238-7.416,7.168c-4.023-0.066-7.238-3.393-7.17-7.416c0.068-4.024,3.394-7.238,7.416-7.17
			C48.038,0.715,51.252,4.039,51.184,8.062z"/>
		<path fill="#A4A4A4" d="M37.311,7.825c-0.062,3.633,2.84,6.634,6.472,6.694c3.633,0.062,6.634-2.839,6.694-6.472
			c0.062-3.632-2.84-6.633-6.472-6.695C40.372,1.292,37.371,4.193,37.311,7.825z M51.184,8.061
			c-0.068,4.021-3.393,7.234-7.414,7.166c-4.021-0.068-7.233-3.392-7.166-7.414c0.068-4.021,3.393-7.234,7.414-7.166
			C48.038,0.716,51.251,4.039,51.184,8.061z"/>
		<path fill="#A5A5A5" d="M37.309,7.823c-0.062,3.635,2.842,6.637,6.476,6.698c3.635,0.062,6.638-2.84,6.698-6.476
			c0.062-3.634-2.842-6.638-6.475-6.699C40.373,1.286,37.369,4.188,37.309,7.823z M51.182,8.059c-0.068,4.019-3.391,7.23-7.41,7.161
			c-4.02-0.067-7.229-3.389-7.162-7.408c0.068-4.02,3.392-7.231,7.41-7.163C48.039,0.717,51.249,4.038,51.182,8.059z"/>
		<path fill="#A6A6A6" d="M37.307,7.821c-0.062,3.637,2.844,6.641,6.479,6.703c3.637,0.062,6.644-2.841,6.702-6.479
			c0.062-3.637-2.842-6.641-6.479-6.703C40.373,1.28,37.367,4.185,37.307,7.821z M51.18,8.056c-0.068,4.018-3.389,7.227-7.406,7.159
			c-4.017-0.068-7.226-3.387-7.157-7.405c0.067-4.018,3.388-7.227,7.405-7.159C48.038,0.719,51.247,4.038,51.18,8.056z"/>
		<path fill="#A7A7A7" d="M37.307,7.818c-0.062,3.639,2.844,6.645,6.481,6.706c3.638,0.062,6.646-2.843,6.706-6.481
			c0.062-3.638-2.844-6.645-6.482-6.707C40.373,1.274,37.367,4.18,37.307,7.818z M51.178,8.054c-0.066,4.016-3.387,7.223-7.4,7.155
			c-4.016-0.068-7.225-3.386-7.155-7.402c0.067-4.016,3.387-7.223,7.401-7.155C48.039,0.72,51.246,4.038,51.178,8.054z"/>
		<path fill="#A9A9A9" d="M37.303,7.816c-0.061,3.642,2.848,6.648,6.487,6.709c3.64,0.062,6.649-2.845,6.71-6.485
			c0.062-3.641-2.846-6.649-6.486-6.711C40.373,1.269,37.365,4.176,37.303,7.816z M51.177,8.052
			c-0.067,4.013-3.385,7.22-7.397,7.151c-4.014-0.068-7.219-3.385-7.151-7.398c0.067-4.013,3.386-7.219,7.397-7.151
			C48.039,0.722,51.244,4.038,51.177,8.052z"/>
		<path fill="#AAAAAA" d="M37.303,7.814c-0.062,3.642,2.848,6.653,6.49,6.713c3.643,0.062,6.65-2.848,6.713-6.489
			c0.062-3.642-2.848-6.652-6.488-6.714C40.374,1.263,37.363,4.171,37.303,7.814z M51.175,8.05c-0.067,4.01-3.383,7.216-7.394,7.147
			c-4.012-0.068-7.217-3.382-7.148-7.396c0.068-4.011,3.385-7.215,7.395-7.146C48.039,0.723,51.243,4.038,51.175,8.05z"/>
		<path fill="#ABABAB" d="M37.301,7.812c-0.062,3.645,2.85,6.656,6.494,6.718c3.645,0.062,6.655-2.85,6.717-6.494
			c0.062-3.644-2.849-6.656-6.492-6.717C40.375,1.258,37.363,4.167,37.301,7.812z M51.174,8.047
			c-0.068,4.009-3.382,7.212-7.391,7.145c-4.01-0.067-7.213-3.38-7.145-7.391c0.067-4.01,3.381-7.213,7.391-7.145
			C48.039,0.725,51.242,4.039,51.174,8.047z"/>
		<path fill="#ACACAC" d="M37.3,7.81c-0.062,3.646,2.851,6.66,6.497,6.722c3.646,0.061,6.659-2.852,6.721-6.498
			c0.062-3.646-2.85-6.659-6.496-6.721C40.375,1.25,37.359,4.164,37.3,7.81z M51.173,8.045c-0.067,4.007-3.38,7.208-7.388,7.141
			s-7.208-3.379-7.141-7.387c0.067-4.007,3.381-7.208,7.387-7.141C48.039,0.727,51.24,4.038,51.173,8.045z"/>
		<path fill="#AEAEAE" d="M37.298,7.808c-0.062,3.648,2.853,6.663,6.501,6.725c3.648,0.062,6.663-2.853,6.725-6.501
			c0.062-3.648-2.852-6.663-6.5-6.725S37.359,4.159,37.298,7.808z M51.17,8.042c-0.066,4.005-3.377,7.205-7.382,7.138
			c-4.005-0.068-7.205-3.38-7.138-7.384c0.067-4.005,3.379-7.205,7.385-7.137C48.039,0.728,51.238,4.038,51.17,8.042z"/>
		<path fill="#AFAFAF" d="M37.297,7.805c-0.062,3.65,2.854,6.667,6.504,6.729s6.667-2.854,6.729-6.504
			c0.062-3.65-2.854-6.667-6.504-6.729C40.376,1.239,37.359,4.155,37.297,7.805z M51.17,8.041c-0.068,4.003-3.377,7.201-7.381,7.133
			c-4.002-0.066-7.199-3.376-7.132-7.379c0.067-4.002,3.376-7.2,7.379-7.133C48.039,0.729,51.236,4.038,51.17,8.041z"/>
		<path fill="#B0B0B0" d="M37.295,7.803c-0.062,3.652,2.855,6.672,6.508,6.733c3.653,0.062,6.672-2.856,6.732-6.508
			c0.062-3.653-2.854-6.671-6.508-6.733C40.375,1.233,37.357,4.151,37.295,7.803z M51.168,8.039
			c-0.068,4.001-3.375,7.197-7.375,7.13c-4.002-0.067-7.197-3.375-7.131-7.376c0.068-4.001,3.375-7.198,7.377-7.13
			C48.039,0.73,51.236,4.038,51.168,8.039z"/>
		<path fill="#B1B1B1" d="M37.294,7.801c-0.062,3.654,2.858,6.674,6.513,6.736s6.674-2.857,6.734-6.512
			c0.062-3.653-2.857-6.674-6.512-6.736C40.376,1.228,37.355,4.146,37.294,7.801z M51.166,8.036
			c-0.066,3.999-3.373,7.192-7.371,7.126c-3.998-0.068-7.193-3.374-7.125-7.373c0.066-3.998,3.372-7.193,7.371-7.126
			C48.039,0.732,51.234,4.037,51.166,8.036z"/>
		<path fill="#B3B3B3" d="M37.293,7.798c-0.062,3.657,2.859,6.679,6.516,6.741c3.655,0.062,6.678-2.859,6.739-6.516
			c0.062-3.656-2.86-6.678-6.516-6.74C40.375,1.221,37.354,4.142,37.293,7.798z M51.164,8.034c-0.066,3.996-3.371,7.19-7.367,7.122
			c-3.996-0.067-7.189-3.371-7.122-7.368s3.372-7.19,7.368-7.122C48.04,0.733,51.232,4.037,51.164,8.034z"/>
		<path fill="#B4B4B4" d="M37.291,7.796c-0.062,3.658,2.861,6.683,6.52,6.744c3.657,0.062,6.683-2.861,6.744-6.52
			c0.062-3.658-2.861-6.681-6.52-6.743S37.352,4.138,37.291,7.796z M51.164,8.032c-0.068,3.995-3.369,7.187-7.365,7.118
			c-3.994-0.067-7.186-3.369-7.117-7.363c0.066-3.995,3.368-7.188,7.363-7.119C48.039,0.735,51.232,4.037,51.164,8.032z"/>
		<path fill="#B5B5B5" d="M37.289,7.794c-0.062,3.66,2.863,6.687,6.523,6.748s6.686-2.862,6.746-6.522
			c0.062-3.66-2.861-6.686-6.521-6.748C40.377,1.209,37.352,4.134,37.289,7.794z M51.162,8.029
			c-0.068,3.993-3.368,7.183-7.361,7.116c-3.992-0.067-7.182-3.368-7.113-7.36c0.066-3.993,3.367-7.183,7.359-7.115
			S51.23,4.036,51.162,8.029z"/>
		<path fill="#B6B6B6" d="M37.287,7.792c-0.061,3.662,2.865,6.69,6.527,6.751c3.662,0.062,6.688-2.864,6.75-6.525
			c0.062-3.663-2.863-6.689-6.525-6.752C40.377,1.204,37.35,4.129,37.287,7.792z M51.161,8.027c-0.067,3.99-3.366,7.179-7.356,7.112
			c-3.992-0.068-7.18-3.368-7.113-7.357c0.068-3.99,3.367-7.179,7.357-7.112C48.04,0.738,51.229,4.036,51.161,8.027z"/>
		<path fill="#B8B8B8" d="M37.287,7.79c-0.062,3.665,2.865,6.692,6.529,6.755s6.692-2.866,6.754-6.53
			c0.062-3.664-2.865-6.693-6.528-6.755C40.377,1.198,37.348,4.125,37.287,7.79z M51.16,8.025c-0.068,3.988-3.365,7.175-7.354,7.108
			c-3.988-0.068-7.177-3.365-7.107-7.354c0.066-3.988,3.363-7.175,7.352-7.107C48.04,0.739,51.229,4.036,51.16,8.025z"/>
		<path fill="#B9B9B9" d="M37.285,7.788c-0.062,3.666,2.867,6.696,6.533,6.758c3.666,0.063,6.695-2.867,6.759-6.533
			s-2.866-6.697-6.533-6.759C40.378,1.192,37.348,4.121,37.285,7.788z M51.157,8.022c-0.067,3.987-3.362,7.171-7.349,7.104
			s-7.172-3.363-7.104-7.349c0.067-3.986,3.362-7.172,7.351-7.104C48.04,0.74,51.227,4.036,51.157,8.022z"/>
		<path fill="#BABABA" d="M37.283,7.786c-0.062,3.668,2.869,6.7,6.537,6.763s6.701-2.87,6.764-6.538
			c0.062-3.667-2.869-6.7-6.537-6.762C40.378,1.186,37.346,4.117,37.283,7.786z M51.156,8.02c-0.067,3.985-3.361,7.167-7.346,7.101
			s-7.168-3.361-7.101-7.346c0.065-3.984,3.36-7.167,7.345-7.1C48.04,0.742,51.225,4.037,51.156,8.02z"/>
		<path fill="#BBBBBB" d="M37.282,7.783c-0.062,3.67,2.87,6.703,6.54,6.766c3.671,0.062,6.703-2.871,6.767-6.541
			s-2.87-6.704-6.54-6.767C40.379,1.18,37.344,4.113,37.282,7.783z M51.154,8.018c-0.066,3.982-3.359,7.166-7.342,7.097
			c-3.981-0.067-7.164-3.36-7.097-7.342c0.066-3.982,3.359-7.164,7.343-7.097C48.039,0.744,51.223,4.036,51.154,8.018z"/>
		<path fill="#BDBDBD" d="M37.281,7.781c-0.062,3.672,2.871,6.708,6.544,6.77c3.672,0.062,6.708-2.873,6.771-6.544
			c0.062-3.673-2.873-6.708-6.545-6.77C40.379,1.174,37.344,4.109,37.281,7.781z M51.154,8.016c-0.068,3.98-3.358,7.161-7.34,7.093
			c-3.979-0.068-7.16-3.358-7.094-7.338c0.067-3.981,3.358-7.161,7.34-7.094C48.04,0.745,51.221,4.036,51.154,8.016z"/>
		<path fill="#BEBEBE" d="M37.279,7.778c-0.062,3.674,2.873,6.712,6.548,6.774c3.675,0.062,6.712-2.875,6.774-6.548
			c0.062-3.674-2.875-6.711-6.549-6.774C40.379,1.168,37.342,4.104,37.279,7.778z M51.152,8.014
			c-0.068,3.978-3.356,7.157-7.334,7.089c-3.979-0.067-7.157-3.356-7.092-7.334c0.068-3.978,3.356-7.157,7.336-7.09
			C48.041,0.747,51.221,4.035,51.152,8.014z"/>
		<path fill="#BFBFBF" d="M37.277,7.777c-0.062,3.675,2.877,6.715,6.553,6.776c3.676,0.063,6.715-2.875,6.777-6.551
			c0.062-3.676-2.877-6.715-6.553-6.778C40.379,1.163,37.34,4.101,37.277,7.777z M51.15,8.012c-0.067,3.976-3.354,7.153-7.33,7.085
			c-3.978-0.066-7.154-3.354-7.086-7.331c0.065-3.977,3.354-7.154,7.33-7.086C48.04,0.749,51.219,4.036,51.15,8.012z"/>
		<path fill="#C0C0C0" d="M37.275,7.774c-0.062,3.678,2.879,6.718,6.557,6.781c3.678,0.063,6.719-2.877,6.781-6.555
			c0.062-3.678-2.879-6.719-6.557-6.781S37.338,4.096,37.275,7.774z M51.148,8.009c-0.066,3.975-3.353,7.15-7.326,7.083
			c-3.975-0.068-7.15-3.353-7.082-7.327c0.066-3.974,3.354-7.15,7.326-7.083C48.041,0.75,51.217,4.035,51.148,8.009z"/>
		<path fill="#C2C2C2" d="M37.275,7.772c-0.062,3.68,2.879,6.723,6.559,6.785c3.68,0.063,6.723-2.879,6.785-6.559
			c0.062-3.679-2.879-6.722-6.561-6.785C40.38,1.15,37.337,4.092,37.275,7.772z M51.148,8.007c-0.068,3.971-3.353,7.146-7.324,7.079
			c-3.973-0.068-7.146-3.352-7.078-7.324c0.066-3.972,3.352-7.146,7.322-7.078C48.041,0.751,51.215,4.035,51.148,8.007z"/>
		<path fill="#C3C3C3" d="M37.273,7.77c-0.062,3.682,2.881,6.727,6.562,6.789c3.683,0.062,6.728-2.879,6.789-6.562
			c0.062-3.683-2.881-6.727-6.562-6.789C40.381,1.145,37.336,4.088,37.273,7.77z M51.146,8.005c-0.067,3.97-3.351,7.144-7.32,7.075
			c-3.969-0.066-7.143-3.349-7.074-7.319c0.068-3.97,3.35-7.143,7.318-7.076C48.041,0.752,51.214,4.035,51.146,8.005z"/>
		<path fill="#C4C4C4" d="M37.271,7.767c-0.062,3.684,2.883,6.73,6.565,6.792c3.685,0.063,6.729-2.882,6.793-6.565
			c0.062-3.684-2.883-6.729-6.565-6.792C40.381,1.139,37.334,4.083,37.271,7.767z M51.145,8.002
			c-0.065,3.968-3.348,7.139-7.314,7.072c-3.969-0.068-7.141-3.348-7.071-7.316c0.067-3.967,3.349-7.14,7.316-7.071
			C48.04,0.754,51.213,4.035,51.145,8.002z"/>
		<path fill="#C5C5C5" d="M37.27,7.765c-0.062,3.686,2.885,6.733,6.57,6.795c3.688,0.063,6.734-2.883,6.797-6.568
			c0.062-3.686-2.883-6.733-6.568-6.796C40.381,1.133,37.333,4.08,37.27,7.765z M51.145,8c-0.067,3.965-3.348,7.136-7.312,7.068
			c-3.966-0.067-7.137-3.347-7.068-7.312c0.067-3.965,3.348-7.135,7.312-7.069C48.041,0.756,51.211,4.035,51.145,8z"/>
		<path fill="#C7C7C7" d="M37.27,7.763c-0.062,3.688,2.885,6.738,6.573,6.799c3.688,0.063,6.737-2.885,6.8-6.571
			c0.062-3.688-2.885-6.738-6.572-6.801C40.381,1.127,37.332,4.075,37.27,7.763z M51.143,7.999
			c-0.065,3.963-3.346,7.131-7.309,7.063s-7.131-3.345-7.064-7.309c0.067-3.964,3.344-7.131,7.31-7.064
			C48.041,0.757,51.209,4.035,51.143,7.999z"/>
		<path fill="#C8C8C8" d="M37.268,7.761c-0.062,3.69,2.887,6.741,6.578,6.804c3.689,0.063,6.74-2.887,6.803-6.577
			s-2.887-6.741-6.575-6.804C40.381,1.121,37.33,4.07,37.268,7.761z M51.141,7.996c-0.065,3.96-3.344,7.128-7.305,7.061
			c-3.961-0.066-7.128-3.343-7.061-7.305c0.065-3.961,3.344-7.127,7.305-7.061C48.041,0.758,51.207,4.035,51.141,7.996z"/>
		<path fill="#C9C9C9" d="M37.266,7.758c-0.062,3.692,2.891,6.745,6.58,6.809c3.693,0.062,6.746-2.89,6.809-6.581
			c0.062-3.692-2.889-6.745-6.579-6.808C40.381,1.116,37.329,4.066,37.266,7.758z M51.139,7.994c-0.065,3.959-3.342,7.124-7.3,7.057
			c-3.96-0.066-7.125-3.342-7.058-7.301c0.066-3.959,3.342-7.125,7.301-7.057S51.207,4.035,51.139,7.994z"/>
		<path fill="#CBCBCB" d="M37.266,7.756c-0.062,3.695,2.891,6.749,6.584,6.812c3.693,0.062,6.748-2.891,6.812-6.584
			s-2.89-6.749-6.584-6.812S37.327,4.062,37.266,7.756z M51.139,7.991c-0.068,3.958-3.341,7.12-7.298,7.054s-7.12-3.34-7.054-7.297
			c0.066-3.958,3.34-7.121,7.297-7.054C48.041,0.762,51.205,4.034,51.139,7.991z"/>
		<path fill="#CCCCCC" d="M37.264,7.754c-0.062,3.696,2.894,6.752,6.588,6.814c3.695,0.062,6.752-2.892,6.814-6.587
			s-2.891-6.752-6.588-6.814C40.383,1.104,37.326,4.059,37.264,7.754z M51.137,7.989c-0.066,3.955-3.338,7.116-7.293,7.05
			s-7.117-3.338-7.051-7.293s3.338-7.118,7.293-7.05C48.042,0.763,51.203,4.034,51.137,7.989z"/>
		<path fill="#CDCDCD" d="M37.262,7.751c-0.062,3.699,2.896,6.756,6.592,6.817c3.698,0.063,6.756-2.893,6.818-6.589
			c0.062-3.698-2.893-6.756-6.592-6.819C40.383,1.098,37.324,4.054,37.262,7.751z M51.135,7.987
			c-0.066,3.953-3.336,7.113-7.289,7.046s-7.113-3.335-7.047-7.289c0.066-3.953,3.338-7.113,7.289-7.046
			C48.042,0.765,51.201,4.034,51.135,7.987z"/>
		<path fill="#CECECE" d="M37.26,7.75c-0.061,3.7,2.896,6.759,6.596,6.823c3.701,0.062,6.761-2.896,6.822-6.595
			c0.062-3.7-2.895-6.76-6.595-6.823C40.383,1.092,37.323,4.05,37.26,7.75z M51.133,7.985c-0.066,3.95-3.334,7.109-7.285,7.042
			c-3.951-0.067-7.109-3.334-7.043-7.286c0.067-3.95,3.336-7.109,7.286-7.042C48.042,0.766,51.201,4.034,51.133,7.985z"/>
		<path fill="#CFCFCF" d="M37.259,7.747c-0.062,3.702,2.897,6.764,6.599,6.827c3.703,0.062,6.765-2.897,6.826-6.599
			c0.062-3.702-2.896-6.764-6.598-6.826C40.383,1.086,37.322,4.045,37.259,7.747z M51.132,7.982
			c-0.065,3.949-3.333,7.106-7.282,7.04c-3.947-0.067-7.104-3.333-7.039-7.281c0.066-3.949,3.334-7.106,7.283-7.04
			C48.042,0.768,51.199,4.033,51.132,7.982z"/>
		<path fill="#D1D1D1" d="M37.258,7.745c-0.062,3.705,2.898,6.769,6.602,6.83c3.705,0.063,6.769-2.898,6.83-6.602
			c0.062-3.705-2.897-6.768-6.602-6.83C40.383,1.081,37.32,4.041,37.258,7.745z M51.131,7.98c-0.066,3.946-3.332,7.102-7.277,7.036
			c-3.947-0.067-7.104-3.333-7.037-7.279c0.067-3.947,3.332-7.103,7.279-7.036C48.042,0.769,51.197,4.033,51.131,7.98z"/>
		<path fill="#D2D2D2" d="M37.256,7.743c-0.062,3.706,2.9,6.771,6.605,6.834c3.707,0.062,6.771-2.9,6.834-6.606
			c0.062-3.706-2.9-6.771-6.605-6.833C40.384,1.074,37.318,4.037,37.256,7.743z M51.129,7.978c-0.066,3.945-3.329,7.099-7.273,7.032
			c-3.944-0.066-7.1-3.33-7.032-7.274c0.067-3.944,3.329-7.1,7.274-7.032C48.042,0.771,51.195,4.033,51.129,7.978z"/>
		<path fill="#D3D3D3" d="M37.254,7.741c-0.062,3.708,2.902,6.774,6.611,6.837c3.707,0.062,6.773-2.902,6.836-6.609
			c0.062-3.707-2.9-6.774-6.609-6.837C40.385,1.069,37.316,4.033,37.254,7.741z M51.129,7.976c-0.068,3.942-3.33,7.094-7.271,7.028
			c-3.942-0.066-7.096-3.329-7.027-7.271c0.064-3.943,3.328-7.096,7.271-7.028C48.042,0.771,51.193,4.033,51.129,7.976z"/>
		<path fill="#D5D5D5" d="M37.253,7.738c-0.062,3.71,2.904,6.778,6.614,6.841c3.709,0.063,6.777-2.903,6.84-6.612
			s-2.902-6.778-6.611-6.842C40.385,1.062,37.316,4.029,37.253,7.738z M51.127,7.973c-0.066,3.941-3.328,7.091-7.268,7.025
			c-3.941-0.066-7.092-3.326-7.025-7.268c0.066-3.94,3.327-7.092,7.268-7.024C48.043,0.774,51.193,4.033,51.127,7.973z"/>
		<path fill="#D6D6D6" d="M37.252,7.736c-0.062,3.712,2.904,6.782,6.617,6.845c3.711,0.063,6.781-2.904,6.844-6.616
			s-2.904-6.782-6.615-6.845C40.385,1.057,37.314,4.024,37.252,7.736z M51.125,7.972c-0.066,3.938-3.324,7.086-7.264,7.021
			c-3.938-0.067-7.088-3.326-7.021-7.264c0.067-3.938,3.326-7.088,7.264-7.021C48.043,0.775,51.191,4.033,51.125,7.972z"/>
		<path fill="#D7D7D7" d="M37.25,7.734c-0.062,3.714,2.907,6.786,6.621,6.849s6.785-2.907,6.848-6.62
			c0.063-3.714-2.904-6.786-6.619-6.849C40.387,1.051,37.312,4.021,37.25,7.734z M51.124,7.969
			c-0.067,3.938-3.324,7.084-7.261,7.018s-7.084-3.322-7.018-7.259s3.323-7.085,7.26-7.018C48.043,0.776,51.191,4.033,51.124,7.969z
			"/>
		<path fill="#D8D8D8" d="M37.249,7.731c-0.063,3.716,2.908,6.791,6.624,6.853c3.715,0.062,6.789-2.908,6.852-6.624
			s-2.906-6.79-6.623-6.853C40.387,1.044,37.312,4.016,37.249,7.731z M51.122,7.967c-0.065,3.935-3.321,7.081-7.257,7.014
			c-3.934-0.066-7.08-3.321-7.014-7.255s3.321-7.08,7.256-7.014C48.043,0.778,51.189,4.033,51.122,7.967z"/>
		<path fill="#DADADA" d="M37.248,7.73c-0.062,3.717,2.91,6.792,6.627,6.855c3.719,0.063,6.793-2.91,6.855-6.627
			c0.063-3.717-2.908-6.792-6.627-6.856C40.387,1.039,37.311,4.012,37.248,7.73z M51.121,7.964c-0.066,3.932-3.32,7.078-7.252,7.011
			c-3.934-0.066-7.078-3.319-7.012-7.251c0.066-3.933,3.319-7.077,7.252-7.011C48.043,0.78,51.188,4.032,51.121,7.964z"/>
		<path fill="#DBDBDB" d="M37.246,7.727c-0.062,3.72,2.912,6.796,6.631,6.86c3.721,0.063,6.797-2.912,6.859-6.63
			c0.062-3.72-2.91-6.797-6.631-6.86C40.387,1.034,37.309,4.007,37.246,7.727z M51.119,7.963c-0.066,3.93-3.318,7.072-7.248,7.006
			c-3.932-0.066-7.074-3.318-7.008-7.249c0.066-3.93,3.318-7.073,7.248-7.006C48.043,0.78,51.186,4.032,51.119,7.963z"/>
		<path fill="#DCDCDC" d="M37.244,7.725c-0.062,3.722,2.914,6.8,6.635,6.863c3.723,0.062,6.801-2.913,6.863-6.635
			c0.064-3.722-2.912-6.8-6.633-6.863C40.387,1.027,37.309,4.003,37.244,7.725z M51.117,7.96c-0.066,3.928-3.316,7.069-7.244,7.002
			c-3.928-0.065-7.068-3.316-7.004-7.245c0.066-3.928,3.316-7.07,7.246-7.003C48.043,0.782,51.186,4.032,51.117,7.96z"/>
	</g>
</g>
<g id="type">
	<g enable-background="new    ">
		<path fill="#344A9F" d="M5.067,15.004l2.182-2.509c0.18-0.21,0.338-0.388,0.473-0.534c0.135-0.146,0.244-0.261,0.326-0.343H8.026
			c-0.052,0-0.122,0.002-0.208,0.006c-0.086,0.004-0.227,0.007-0.422,0.011c-0.195,0.004-0.461,0.008-0.799,0.012
			s-0.776,0.005-1.316,0.005v-1.282h4.815v1.103l-3.015,3.42c0.217-0.015,0.392-0.026,0.523-0.033
			c0.131-0.008,0.223-0.012,0.276-0.012h2.385v1.361H5.067V15.004z"/>
		<path fill="#344A9F" d="M11.097,13.204c0-0.428,0.077-0.821,0.231-1.181c0.153-0.36,0.365-0.672,0.635-0.935
			c0.27-0.262,0.589-0.468,0.957-0.618c0.367-0.15,0.761-0.226,1.181-0.226c0.442,0,0.848,0.075,1.215,0.226
			c0.368,0.15,0.685,0.359,0.951,0.63c0.266,0.27,0.474,0.591,0.625,0.962c0.15,0.371,0.225,0.774,0.225,1.209
			c0,0.436-0.075,0.839-0.225,1.21c-0.15,0.371-0.356,0.695-0.619,0.973c-0.263,0.277-0.578,0.495-0.945,0.652
			c-0.367,0.158-0.772,0.236-1.215,0.236c-0.465,0-0.883-0.078-1.254-0.236c-0.371-0.157-0.688-0.375-0.951-0.652
			s-0.463-0.607-0.602-0.99C11.167,14.082,11.097,13.662,11.097,13.204z M12.684,13.294c0,0.24,0.028,0.469,0.084,0.687
			s0.144,0.407,0.264,0.568s0.268,0.291,0.444,0.388c0.176,0.098,0.388,0.146,0.636,0.146c0.24,0,0.45-0.049,0.63-0.146
			c0.18-0.097,0.328-0.229,0.444-0.394s0.203-0.356,0.259-0.573c0.056-0.218,0.084-0.446,0.084-0.687s-0.028-0.467-0.084-0.681
			s-0.145-0.401-0.264-0.562c-0.12-0.161-0.269-0.291-0.444-0.389c-0.176-0.097-0.385-0.146-0.625-0.146
			c-0.24,0-0.45,0.047-0.63,0.141c-0.18,0.094-0.328,0.223-0.444,0.388c-0.117,0.165-0.205,0.356-0.265,0.574
			C12.713,12.825,12.684,13.055,12.684,13.294z"/>
		<path fill="#344A9F" d="M17.836,13.204c0-0.428,0.077-0.821,0.231-1.181c0.153-0.36,0.365-0.672,0.635-0.935
			c0.27-0.262,0.589-0.468,0.957-0.618c0.367-0.15,0.761-0.226,1.181-0.226c0.442,0,0.848,0.075,1.215,0.226
			c0.368,0.15,0.685,0.359,0.951,0.63c0.266,0.27,0.474,0.591,0.625,0.962c0.15,0.371,0.225,0.774,0.225,1.209
			c0,0.436-0.075,0.839-0.225,1.21c-0.15,0.371-0.356,0.695-0.619,0.973c-0.263,0.277-0.578,0.495-0.945,0.652
			c-0.367,0.158-0.772,0.236-1.215,0.236c-0.465,0-0.883-0.078-1.254-0.236c-0.371-0.157-0.688-0.375-0.951-0.652
			s-0.463-0.607-0.602-0.99C17.905,14.082,17.836,13.662,17.836,13.204z M19.422,13.294c0,0.24,0.028,0.469,0.084,0.687
			s0.144,0.407,0.264,0.568s0.268,0.291,0.444,0.388c0.176,0.098,0.388,0.146,0.636,0.146c0.24,0,0.45-0.049,0.63-0.146
			c0.18-0.097,0.328-0.229,0.444-0.394s0.203-0.356,0.259-0.573c0.056-0.218,0.084-0.446,0.084-0.687s-0.028-0.467-0.084-0.681
			s-0.145-0.401-0.264-0.562c-0.12-0.161-0.269-0.291-0.444-0.389c-0.176-0.097-0.385-0.146-0.625-0.146
			c-0.24,0-0.45,0.047-0.63,0.141c-0.18,0.094-0.328,0.223-0.444,0.388c-0.117,0.165-0.205,0.356-0.265,0.574
			C19.452,12.825,19.422,13.055,19.422,13.294z"/>
		<path fill="#344A9F" d="M26.139,10.369v0.799c0.502-0.615,1.11-0.923,1.822-0.923c0.75,0,1.298,0.308,1.643,0.923
			c0.518-0.615,1.109-0.923,1.777-0.923c0.367,0,0.674,0.055,0.917,0.163c0.243,0.109,0.438,0.261,0.585,0.456
			s0.252,0.43,0.314,0.703c0.064,0.273,0.096,0.576,0.096,0.905v3.735h-1.541v-3.33c0-0.218-0.006-0.414-0.017-0.591
			c-0.011-0.176-0.043-0.328-0.096-0.455c-0.052-0.128-0.133-0.227-0.241-0.299c-0.109-0.07-0.265-0.106-0.467-0.106
			c-0.256,0-0.458,0.061-0.608,0.18c-0.15,0.12-0.265,0.276-0.343,0.467c-0.079,0.191-0.131,0.403-0.158,0.636
			s-0.039,0.466-0.039,0.698v2.801h-1.542v-3.195c0-0.577-0.026-0.944-0.079-1.103c-0.06-0.172-0.148-0.296-0.264-0.371
			c-0.117-0.074-0.272-0.112-0.467-0.112c-0.27,0-0.482,0.057-0.635,0.169c-0.154,0.112-0.27,0.261-0.349,0.444
			c-0.079,0.184-0.129,0.392-0.152,0.624c-0.022,0.232-0.034,0.469-0.034,0.709v2.835h-1.541v-5.839H26.139z"/>
	</g>
	<g id="Layer_1_1_">
		<g>
			<path fill="#344A9F" d="M40.562,8.753c-0.138,0-0.25-0.112-0.25-0.25v-1.1c0-0.138,0.112-0.25,0.25-0.25h6.25
				c0.139,0,0.25,0.112,0.25,0.25v1.1c0,0.138-0.111,0.25-0.25,0.25H40.562z"/>
		</g>
	</g>
</g>
</svg>
