<?xml version="1.0" encoding="utf-8"?>
<!-- Generator: Adobe Illustrator 13.0.0, SVG Export Plug-In  -->
<!DOCTYPE svg PUBLIC "-//W3C//DTD SVG 1.1//EN" "http://www.w3.org/Graphics/SVG/1.1/DTD/svg11.dtd" [
	<!ENTITY ns_flows "http://ns.adobe.com/Flows/1.0/">
]>
<svg version="1.1"
	 xmlns="http://www.w3.org/2000/svg" xmlns:xlink="http://www.w3.org/1999/xlink" xmlns:a="http://ns.adobe.com/AdobeSVGViewerExtensions/3.0/"
	 x="0px" y="0px" width="99px" height="37px" viewBox="0.3203125 0 99 37" enable-background="new 0.3203125 0 99 37"
	 xml:space="preserve">
<defs>
</defs>
<rect fill="#698FB1" width="99.3203125" height="37.0605469"/>
<path fill="none" d="M0.3203125,0v37h96V0H0.3203125z M49.7407227,18.1030273v0.1279297
	c0.0009766,1.5756836,0.0009766,2.8208008-1.0249023,3.8266602c-0.7509766,0.7382813-1.6479492,1.0957031-2.7431641,1.0957031
	c-1.1020508,0-2.0029297-0.3574219-2.7539063-1.0957031c-1.0126953-0.9960938-1.0126953-2.2167969-1.0126953-3.765625v-0.2509766
	c0-1.546875,0-2.7700195,1.0126953-3.7661133c0.7519531-0.7368164,1.6518555-1.0957031,2.7539063-1.0957031
	c1.0952148,0,1.9921875,0.3588867,2.7431641,1.0957031C49.7416992,15.2822266,49.7416992,16.5268555,49.7407227,18.1030273z
	 M18.8920898,36.4023438c-9.8867188,0-17.9018555-8.0146484-17.9018555-17.9033203
	c0-9.887207,8.0151367-17.9018555,17.9018555-17.9018555c9.8881836,0,17.9023438,8.0146484,17.9023438,17.9018555
	C36.7944336,28.3876953,28.7802734,36.4023438,18.8920898,36.4023438z M60.1269531,22.7792969
	c0,0.1640625-0.1328125,0.2978516-0.2978516,0.2978516h-1.6357422c-0.1005859,0-0.1933594-0.0507813-0.2470703-0.1347656
	l-3.1767578-4.831543v4.668457c0,0.1640625-0.1328125,0.2978516-0.2978516,0.2978516h-1.8330078
	c-0.1640625,0-0.2978516-0.1337891-0.2978516-0.2978516v-9.2241211c0-0.1640625,0.1337891-0.2993164,0.2978516-0.2993164h1.6347656
	c0.1005859,0,0.1943359,0.0522461,0.2490234,0.1362305l3.1757813,4.8188477v-4.6557617
	c0-0.1640625,0.1328125-0.2993164,0.296875-0.2993164h1.8339844c0.1650391,0,0.2978516,0.1352539,0.2978516,0.2993164V22.7792969z
	 M69.7333984,22.7792969c0,0.1640625-0.1328125,0.2978516-0.2978516,0.2978516h-6.0957031
	c-0.1640625,0-0.296875-0.1337891-0.296875-0.2978516v-9.2241211c0-0.1640625,0.1328125-0.2993164,0.296875-0.2993164h1.8339844
	c0.1650391,0,0.296875,0.1352539,0.296875,0.2993164V20.875h3.9648438c0.1650391,0,0.2978516,0.1328125,0.2978516,0.2978516
	V22.7792969z M74.3779297,22.7792969c0,0.1640625-0.1328125,0.2978516-0.2978516,0.2978516h-1.8330078
	c-0.1660156,0-0.296875-0.1337891-0.296875-0.2978516v-9.2241211c0-0.1640625,0.1308594-0.2993164,0.296875-0.2993164h1.8330078
	c0.1650391,0,0.2978516,0.1352539,0.2978516,0.2993164V22.7792969z M85.0791016,22.7792969
	c0,0.1640625-0.1328125,0.2978516-0.296875,0.2978516h-1.6367188c-0.0996094,0-0.1923828-0.0507813-0.2470703-0.1347656
	l-3.1757813-4.831543v4.668457c0,0.1640625-0.1337891,0.2978516-0.2978516,0.2978516h-1.8339844
	c-0.1650391,0-0.296875-0.1337891-0.296875-0.2978516v-9.2241211c0-0.1640625,0.1318359-0.2993164,0.296875-0.2993164h1.6367188
	c0.0996094,0,0.1923828,0.0522461,0.2470703,0.1362305l3.1767578,4.8188477v-4.6557617
	c0-0.1640625,0.1337891-0.2993164,0.296875-0.2993164h1.8339844c0.1640625,0,0.296875,0.1352539,0.296875,0.2993164V22.7792969z
	 M94.7773438,15.1611328c0,0.1650391-0.1328125,0.296875-0.296875,0.296875h-4.0566406v1.5698242h3.4111328
	c0.1630859,0,0.296875,0.1333008,0.296875,0.2963867v1.6069336c0,0.1635742-0.1337891,0.2973633-0.296875,0.2973633h-3.4111328
	V20.875h4.0566406c0.1640625,0,0.296875,0.1328125,0.296875,0.2978516v1.6064453
	c0,0.1640625-0.1328125,0.2978516-0.296875,0.2978516h-6.1884766c-0.1630859,0-0.296875-0.1337891-0.296875-0.2978516v-9.2241211
	c0-0.1640625,0.1337891-0.2993164,0.296875-0.2993164h6.1884766c0.1640625,0,0.296875,0.1352539,0.296875,0.2993164V15.1611328z"/>
<path fill="none" d="M45.0087891,15.7719727c0,0.0009766-0.0019531,0.0029297-0.0029297,0.0048828
	c-0.2832031,0.3071289-0.3710938,0.6782227-0.3710938,2.3891602c0,1.7119141,0.0878906,2.0830078,0.3710938,2.390625
	c0.0009766,0.0029297,0.0029297,0.0029297,0.0029297,0.0048828c0.2211914,0.2480469,0.5732422,0.390625,0.9638672,0.390625
	c0.3911133,0,0.7290039-0.1376953,0.953125-0.390625c0-0.0019531,0.0019531-0.0019531,0.0029297-0.0048828
	c0.2670898-0.2910156,0.3842773-0.6044922,0.3842773-2.390625c0-1.7851563-0.1171875-2.0981445-0.3842773-2.3891602
	c-0.0009766-0.0019531-0.0029297-0.0039063-0.0029297-0.0048828c-0.2241211-0.2519531-0.5620117-0.3920898-0.953125-0.3920898
	C45.5820313,15.3798828,45.2299805,15.5229492,45.0087891,15.7719727z"/>
<radialGradient id="SVGID_1_" cx="3.215332" cy="36.9394531" r="0.9992807" gradientTransform="matrix(22.1462002 18.6651993 18.6651993 -22.1460991 -750.300293 769.3809814)" gradientUnits="userSpaceOnUse">
	<stop  offset="0" style="stop-color:#ED3424"/>
	<stop  offset="0.1012387" style="stop-color:#DF2E20"/>
	<stop  offset="0.2910573" style="stop-color:#BC1F16"/>
	<stop  offset="0.5471435" style="stop-color:#820705"/>
	<stop  offset="0.613724" style="stop-color:#720000"/>
	<stop  offset="0.6777616" style="stop-color:#770201"/>
	<stop  offset="0.7489667" style="stop-color:#840805"/>
	<stop  offset="0.8236328" style="stop-color:#9A110C"/>
	<stop  offset="0.9006949" style="stop-color:#B91E15"/>
	<stop  offset="0.9788479" style="stop-color:#E12F20"/>
	<stop  offset="1" style="stop-color:#ED3424"/>
</radialGradient>
<path fill="url(#SVGID_1_)" d="M18.8920898,0.597168c-9.8867188,0-17.9018555,8.0146484-17.9018555,17.9018555
	c0,9.8886719,8.0151367,17.9033203,17.9018555,17.9033203c9.8881836,0,17.9023438-8.0146484,17.9023438-17.9033203
	C36.7944336,8.6118164,28.7802734,0.597168,18.8920898,0.597168z M21.3623047,4.4082031
	c1.512207-0.0541992,3.0839844,0.1640625,4.3461914,0.5620117C26.5273438,5.2280273,26.840332,5.578125,26.6875,6.1542969
	c-0.105957,0.3979492-0.5307617,0.7006836-1.2861328,0.4438477c-1.1650391-0.3969727-2.8818359-0.7719727-4.4848633-0.7719727
	c-4.0249023,0-7.6298828,1.7841797-10.0727539,4.6040039c-0.0253906,0.0297852-0.0751953,0.0849609-0.1201172,0.0522461
	c-0.0449219-0.0332031-0.0039063-0.090332,0.0136719-0.1181641C13.0317383,6.9072266,16.9013672,4.5703125,21.3623047,4.4082031z
	 M22.0986328,13.4799805c0-1.2207031,1.0058594-2.09375,2.2480469-2.09375c1.5200195,0,2.0336914,0.972168,2.1738281,1.3598633
	c0.0151367,0.0429688-0.0229492,0.0703125-0.0688477,0.0922852l-1.0029297,0.4956055
	c-0.0234375,0.012207-0.0473633,0.0141602-0.0571289,0.012207c-0.1430664-0.0322266-0.3588867-0.7080078-1.0478516-0.7080078
	c-0.5112305,0-0.9111328,0.3178711-0.8793945,0.7890625c0.0810547,1.1098633,3.2460938,1.0537109,3.1992188,3.3891602
	c-0.0292969,1.3408203-1.1030273,2.0620117-2.3701172,2.0620117c-1.5737305,0-2.2158203-1.0244141-2.315918-1.3842773
	c-0.0039063-0.0229492,0.0249023-0.0581055,0.0708008-0.0810547l1.0019531-0.4951172
	c0.0244141-0.0107422,0.0361328-0.0107422,0.059082-0.0107422c0.0800781,0,0.3671875,0.7260742,1.1860352,0.7260742
	c0.4379883,0,1.0019531-0.2270508,1.0019531-0.7949219C25.2973633,15.6552734,22.0986328,15.7163086,22.0986328,13.4799805z
	 M23.6806641,22.7578125c-0.0800781-0.6972656,0.5639648-1.2236328,1.421875-1.2236328
	c1.065918,0,1.4291992,0.8212891,1.4321289,0.8925781c0.0009766,0.0214844-0.0151367,0.0458984-0.0473633,0.0605469
	l-0.6289063,0.3105469c-0.0161133,0.0068359-0.0517578,0.0166016-0.0678711-0.0117188
	c-0.0717773-0.1347656-0.1782227-0.4570313-0.6801758-0.4980469c-0.2958984-0.0244141-0.5766602,0.1181641-0.5258789,0.3554688
	c0.0908203,0.4189453,1.8520508,0.2714844,1.972168,1.3095703c0.0839844,0.7236328-0.5141602,1.2578125-1.4370117,1.2578125
	c-1.1811523,0-1.4770508-0.8378906-1.4770508-0.90625c0-0.0244141,0.0141602-0.0380859,0.0449219-0.0546875l0.6318359-0.3076172
	c0.0244141-0.0126953,0.0463867-0.015625,0.059082,0.0087891c0.0439453,0.0791016,0.184082,0.4277344,0.6811523,0.4755859
	c0.434082,0.0410156,0.6669922-0.1806641,0.6201172-0.3662109C25.5727539,23.6318359,23.7963867,23.7636719,23.6806641,22.7578125z
	 M22.2207031,21.6337891l0.0537109-0.0224609h0.9150391c0.0551758,0,0.0849609,0.0224609,0.0849609,0.0605469
	c0,0.0244141-0.0078125,0.046875-0.0297852,0.0683594l-1.0620117,1.0849609
	c-0.0151367,0.0253906-0.0302734,0.0390625-0.0302734,0.0546875c0,0.0146484,0.0083008,0.0244141,0.0151367,0.0380859
	l1.2998047,2.1015625c0.0073242,0.015625,0.0151367,0.0390625,0.0151367,0.0537109c0,0.0292969-0.0307617,0.0625-0.0849609,0.0625
	h-0.8999023l-0.0678711-0.0380859l-0.8862305-1.4560547c-0.0141602-0.03125-0.0371094-0.046875-0.0610352-0.046875
	c-0.0151367,0-0.0390625,0.0087891-0.0610352,0.0302734l-0.125,0.125l-0.0209961,0.0546875v1.2539063
	c0,0.0517578-0.0249023,0.0771484-0.0776367,0.0771484h-0.7231445c-0.0541992,0-0.0771484-0.0253906-0.0771484-0.0771484v-4.6953125
	c0-0.0527344,0.0229492-0.0761719,0.0771484-0.0761719h0.7231445c0.046875,0,0.0776367,0.0234375,0.0776367,0.0761719v2.109375
	c0,0.0556641,0.0292969,0.0839844,0.0703125,0.0839844c0.0219727,0,0.0375977-0.0068359,0.0585938-0.0283203L22.2207031,21.6337891z
	 M21.4287109,18.7631836h-1.1650391c-0.0693359,0-0.1040039-0.0239258-0.1162109-0.0830078l-0.3447266-1.2089844
	c-0.0112305-0.0581055-0.0454102-0.0688477-0.1152344-0.0688477h-1.6479492c-0.0688477,0-0.1040039,0.0107422-0.1162109,0.0688477
	l-0.3447266,1.2089844c-0.012207,0.059082-0.0581055,0.0830078-0.1152344,0.0830078h-1.152832
	c-0.0820313,0-0.1269531-0.0297852-0.1269531-0.1000977c0-0.0107422,0.0019531-0.0209961,0.0107422-0.0507813l2.144043-7.0302734
	c0.0229492-0.0576172,0.0458984-0.0810547,0.1162109-0.0810547h0.8300781c0.0566406,0,0.0917969,0.0234375,0.1157227,0.0810547
	l2.1420898,7.0302734c0,0.0249023,0.0131836,0.0336914,0.0131836,0.0449219
	C21.5556641,18.7280273,21.5083008,18.7631836,21.4287109,18.7631836z M18.2163086,22.4169922
	c-0.3217773,0-0.5527344,0.3291016-0.5527344,0.6347656v2.0068359c0,0.0517578-0.0239258,0.0771484-0.078125,0.0771484h-0.722168
	c-0.0527344,0-0.0766602-0.0253906-0.0766602-0.0771484v-3.3701172c0-0.0546875,0.0239258-0.0771484,0.0766602-0.0771484h0.6542969
	c0.1157227,0,0.0527344,0.2431641,0.1289063,0.2431641c0.0688477,0,0.3081055-0.2568359,0.7519531-0.2568359
	c0.8203125,0,1.2490234,0.5664063,1.2490234,1.3681641v2.0927734c0,0.0517578-0.0229492,0.0771484-0.0761719,0.0771484h-0.730957
	c-0.0527344,0-0.0776367-0.0253906-0.0776367-0.0771484v-2.0927734
	C18.7626953,22.6572266,18.5327148,22.4169922,18.2163086,22.4169922z M15.4907227,21.1816406
	c-0.2841797,0-0.5151367-0.2314453-0.5151367-0.5146484c0-0.2851563,0.230957-0.5166016,0.5151367-0.5166016
	c0.2768555,0,0.515625,0.2392578,0.515625,0.5166016C16.0063477,20.9423828,15.7675781,21.1816406,15.4907227,21.1816406z
	 M15.9287109,21.6884766v3.3701172c0,0.0517578-0.0219727,0.0771484-0.0761719,0.0771484h-0.7231445
	c-0.0527344,0-0.0766602-0.0253906-0.0766602-0.0771484v-3.3701172c0-0.0546875,0.0239258-0.0771484,0.0766602-0.0771484h0.7231445
	C15.8984375,21.6113281,15.9287109,21.6337891,15.9287109,21.6884766z M12.590332,24.3261719h1.8320313
	c0.0463867,0,0.0761719,0.0234375,0.0761719,0.0761719v0.65625c0,0.0517578-0.0219727,0.0771484-0.0761719,0.0771484H11.706543
	c-0.0541992,0-0.078125-0.0253906-0.078125-0.0771484v-4.6953125c0-0.0527344,0.0239258-0.0761719,0.078125-0.0761719H12.4375
	c0.0458984,0,0.0771484,0.0234375,0.0771484,0.0761719V24.25C12.5146484,24.3046875,12.5375977,24.3261719,12.590332,24.3261719z
	 M11.6914063,18.7631836c-0.0800781,0-0.1147461-0.0351563-0.1147461-0.1171875v-7.0297852
	c0-0.0810547,0.034668-0.1152344,0.1147461-0.1152344h1.1313477c0.0678711,0,0.1147461,0.0341797,0.1147461,0.1152344v5.7988281
	c0,0.0810547,0.0351563,0.1162109,0.1162109,0.1162109h2.6005859c0.0693359,0,0.1181641,0.0341797,0.1181641,0.1147461l-0.0019531,1
	c0,0.0820313-0.0351563,0.1171875-0.1162109,0.1171875H11.6914063z M7.9536133,9.3222656
	c0.7080078-1.3359375,1.6831055-2.5888672,2.6577148-3.4829102c0.6323242-0.5791016,1.0922852-0.6762695,1.5141602-0.2563477
	C12.4174805,5.875,12.4672852,6.3950195,11.8676758,6.9204102c-0.925293,0.8095703-2.109375,2.1088867-2.9111328,3.4990234
	c-2.0112305,3.4829102-2.2700195,7.4975586-1.0488281,11.0229492c0.0126953,0.0371094,0.0366211,0.1083984-0.0151367,0.1337891
	c-0.0512695,0.0214844-0.0820313-0.0429688-0.0952148-0.0751953C5.949707,17.7871094,5.8613281,13.2670898,7.9536133,9.3222656z
	 M5.5024414,23.3935547c-0.8037109-1.2822266-1.4008789-2.7529297-1.6870117-4.0439453
	c-0.1860352-0.8383789-0.0380859-1.2856445,0.5371094-1.4394531c0.3969727-0.1079102,0.8720703,0.1098633,1.0268555,0.8920898
	c0.2382813,1.206543,0.7709961,2.8803711,1.5742188,4.2709961c2.0107422,3.4824219,5.3598633,5.7128906,9.0229492,6.4199219
	c0.0380859,0.0058594,0.112793,0.0224609,0.1049805,0.078125c-0.0058594,0.0566406-0.0751953,0.0488281-0.1098633,0.046875
	C11.831543,29.3583984,7.8735352,27.1757813,5.5024414,23.3935547z M16.4633789,32.5507813
	c-1.5117188,0.0537109-3.0839844-0.1621094-4.3457031-0.5605469c-0.8183594-0.2578125-1.1313477-0.6103516-0.9790039-1.1835938
	c0.1049805-0.4013672,0.5317383-0.7021484,1.2856445-0.4443359c1.1650391,0.3935547,2.8813477,0.7695313,4.4853516,0.7695313
	c4.0229492,0,7.6298828-1.7832031,10.0717773-4.6035156c0.0258789-0.0283203,0.0771484-0.0859375,0.1220703-0.0517578
	c0.0439453,0.0332031,0.0029297,0.0888672-0.0161133,0.1181641C24.7944336,30.0498047,20.925293,32.390625,16.4633789,32.5507813z
	 M29.8725586,27.6367188c-0.7080078,1.3359375-1.6821289,2.5888672-2.6582031,3.484375
	c-0.6328125,0.5791016-1.0917969,0.6748047-1.5146484,0.2558594c-0.2919922-0.2910156-0.3413086-0.8144531,0.2578125-1.3378906
	c0.9257813-0.8095703,2.1098633-2.109375,2.9121094-3.5c2.0107422-3.4824219,2.2700195-7.4970703,1.0488281-11.0229492
	c-0.0131836-0.0371094-0.0371094-0.1088867,0.0161133-0.1308594c0.0498047-0.0209961,0.0800781,0.0419922,0.0947266,0.0717773
	C31.8754883,19.1738281,31.9643555,23.6923828,29.8725586,27.6367188z M33.4755859,19.0498047
	c-0.3989258,0.1083984-0.8740234-0.1108398-1.0292969-0.8925781c-0.2387695-1.2060547-0.7729492-2.8808594-1.574707-4.269043
	c-2.0112305-3.4848633-5.3588867-5.7158203-9.0209961-6.4199219c-0.0390625-0.0092773-0.1132813-0.0239258-0.1069336-0.0800781
	c0.0078125-0.0551758,0.0756836-0.0478516,0.1108398-0.0458984c4.1391602,0.2578125,8.0991211,2.4399414,10.4692383,6.2241211
	c0.8027344,1.2817383,1.402832,2.7519531,1.6879883,4.0429688C34.1977539,18.4482422,34.0493164,18.8930664,33.4755859,19.0498047z"
	/>
<radialGradient id="SVGID_2_" cx="3.215332" cy="36.9394531" r="0.9987506" gradientTransform="matrix(22.1462002 18.6651993 18.6651993 -22.1460991 -750.300293 769.3809814)" gradientUnits="userSpaceOnUse">
	<stop  offset="0" style="stop-color:#ED3424"/>
	<stop  offset="0.1012387" style="stop-color:#DF2E20"/>
	<stop  offset="0.2910573" style="stop-color:#BC1F16"/>
	<stop  offset="0.5471435" style="stop-color:#820705"/>
	<stop  offset="0.613724" style="stop-color:#720000"/>
	<stop  offset="0.6777616" style="stop-color:#770201"/>
	<stop  offset="0.7489667" style="stop-color:#840805"/>
	<stop  offset="0.8236328" style="stop-color:#9A110C"/>
	<stop  offset="0.9006949" style="stop-color:#B91E15"/>
	<stop  offset="0.9788479" style="stop-color:#E12F20"/>
	<stop  offset="1" style="stop-color:#ED3424"/>
</radialGradient>
<path fill="url(#SVGID_2_)" d="M18.8925781,13.887207h-0.0351563c-0.0800781,0.3569336-0.5297852,2.1557617-0.5297852,2.1557617
	c0,0.0112305-0.0112305,0.0332031-0.0112305,0.0454102c0,0.0688477,0.0449219,0.1040039,0.1259766,0.1040039h0.8422852
	c0.0786133,0,0.1269531-0.0351563,0.1269531-0.1040039c0-0.012207-0.0112305-0.0341797-0.0112305-0.0454102
	C19.4003906,16.0429688,18.9604492,14.2441406,18.8925781,13.887207z"/>
<path fill="#FFFFFF" d="M19.4003906,11.5820313c-0.0239258-0.0576172-0.059082-0.0810547-0.1157227-0.0810547h-0.8300781
	c-0.0703125,0-0.0932617,0.0234375-0.1162109,0.0810547l-2.144043,7.0302734
	c-0.0087891,0.0297852-0.0107422,0.0400391-0.0107422,0.0507813c0,0.0703125,0.0449219,0.1000977,0.1269531,0.1000977h1.152832
	c0.0571289,0,0.1030273-0.0239258,0.1152344-0.0830078l0.3447266-1.2089844
	c0.012207-0.0581055,0.0473633-0.0688477,0.1162109-0.0688477H19.6875c0.0698242,0,0.1040039,0.0107422,0.1152344,0.0688477
	l0.3447266,1.2089844c0.012207,0.059082,0.046875,0.0830078,0.1162109,0.0830078h1.1650391
	c0.0795898,0,0.1269531-0.0351563,0.1269531-0.105957c0-0.0112305-0.0131836-0.0200195-0.0131836-0.0449219L19.4003906,11.5820313z
	 M19.284668,16.1923828h-0.8422852c-0.0810547,0-0.1259766-0.0351563-0.1259766-0.1040039
	c0-0.012207,0.0112305-0.0341797,0.0112305-0.0454102c0,0,0.449707-1.7988281,0.5297852-2.1557617h0.0351563
	c0.0678711,0.3569336,0.5078125,2.1557617,0.5078125,2.1557617c0,0.0112305,0.0112305,0.0332031,0.0112305,0.0454102
	C19.4116211,16.1572266,19.3632813,16.1923828,19.284668,16.1923828z"/>
<path fill="#FFFFFF" d="M18.840332,25.1357422h0.730957c0.0532227,0,0.0761719-0.0253906,0.0761719-0.0771484v-2.0927734
	c0-0.8017578-0.4287109-1.3681641-1.2490234-1.3681641c-0.4438477,0-0.6831055,0.2568359-0.7519531,0.2568359
	c-0.0761719,0-0.0131836-0.2431641-0.1289063-0.2431641h-0.6542969c-0.0527344,0-0.0766602,0.0224609-0.0766602,0.0771484v3.3701172
	c0,0.0517578,0.0239258,0.0771484,0.0766602,0.0771484h0.722168c0.0541992,0,0.078125-0.0253906,0.078125-0.0771484v-2.0068359
	c0-0.3056641,0.230957-0.6347656,0.5527344-0.6347656c0.3164063,0,0.5463867,0.2402344,0.5463867,0.5488281v2.0927734
	C18.7626953,25.1103516,18.7875977,25.1357422,18.840332,25.1357422z"/>
<path fill="#FFFFFF" d="M15.4907227,20.1503906c-0.2841797,0-0.5151367,0.2314453-0.5151367,0.5166016
	c0,0.2832031,0.230957,0.5146484,0.5151367,0.5146484c0.2768555,0,0.515625-0.2392578,0.515625-0.5146484
	C16.0063477,20.3896484,15.7675781,20.1503906,15.4907227,20.1503906z"/>
<path fill="#FFFFFF" d="M10.7236328,10.4824219c0.0449219,0.0327148,0.0947266-0.0224609,0.1201172-0.0522461
	c2.4428711-2.8198242,6.0478516-4.6040039,10.0727539-4.6040039c1.6030273,0,3.3198242,0.375,4.4848633,0.7719727
	C26.1567383,6.8549805,26.581543,6.5522461,26.6875,6.1542969c0.152832-0.5761719-0.1601563-0.9262695-0.9790039-1.184082
	c-1.262207-0.3979492-2.8339844-0.6162109-4.3461914-0.5620117c-4.4609375,0.1621094-8.3305664,2.4990234-10.625,5.9560547
	C10.7197266,10.3920898,10.6787109,10.4492188,10.7236328,10.4824219z"/>
<path fill="#FFFFFF" d="M12.4375,20.2871094h-0.730957c-0.0541992,0-0.078125,0.0234375-0.078125,0.0761719v4.6953125
	c0,0.0517578,0.0239258,0.0771484,0.078125,0.0771484h2.7158203c0.0541992,0,0.0761719-0.0253906,0.0761719-0.0771484v-0.65625
	c0-0.0527344-0.0297852-0.0761719-0.0761719-0.0761719H12.590332c-0.0527344,0-0.0756836-0.0214844-0.0756836-0.0761719v-3.8867188
	C12.5146484,20.3105469,12.4833984,20.2871094,12.4375,20.2871094z"/>
<path fill="#FFFFFF" d="M24.2954102,17.6333008c-0.8188477,0-1.105957-0.7260742-1.1860352-0.7260742
	c-0.0229492,0-0.034668,0-0.059082,0.0107422l-1.0019531,0.4951172c-0.0458984,0.0229492-0.074707,0.0581055-0.0708008,0.0810547
	c0.1000977,0.3598633,0.7421875,1.3842773,2.315918,1.3842773c1.2670898,0,2.3408203-0.7211914,2.3701172-2.0620117
	c0.046875-2.3354492-3.1181641-2.2792969-3.1992188-3.3891602c-0.0317383-0.4711914,0.3681641-0.7890625,0.8793945-0.7890625
	c0.6889648,0,0.9047852,0.6757813,1.0478516,0.7080078c0.0097656,0.0019531,0.0336914,0,0.0571289-0.012207l1.0029297-0.4956055
	c0.0458984-0.0219727,0.0839844-0.0493164,0.0688477-0.0922852c-0.1401367-0.3876953-0.6538086-1.3598633-2.1738281-1.3598633
	c-1.2421875,0-2.2480469,0.8730469-2.2480469,2.09375c0,2.2363281,3.1987305,2.175293,3.1987305,3.3583984
	C25.2973633,17.40625,24.7333984,17.6333008,24.2954102,17.6333008z"/>
<path fill="#FFFFFF" d="M21.3457031,22.5566406c-0.0410156,0-0.0703125-0.0283203-0.0703125-0.0839844v-2.109375
	c0-0.0527344-0.0307617-0.0761719-0.0776367-0.0761719h-0.7231445c-0.0541992,0-0.0771484,0.0234375-0.0771484,0.0761719v4.6953125
	c0,0.0517578,0.0229492,0.0771484,0.0771484,0.0771484h0.7231445c0.0527344,0,0.0776367-0.0253906,0.0776367-0.0771484v-1.2539063
	L21.2963867,23.75l0.125-0.125c0.0219727-0.0214844,0.0458984-0.0302734,0.0610352-0.0302734
	c0.0239258,0,0.046875,0.015625,0.0610352,0.046875l0.8862305,1.4560547l0.0678711,0.0380859h0.8999023
	c0.0541992,0,0.0849609-0.0332031,0.0849609-0.0625c0-0.0146484-0.0078125-0.0380859-0.0151367-0.0537109l-1.2998047-2.1015625
	c-0.0068359-0.0136719-0.0151367-0.0234375-0.0151367-0.0380859c0-0.015625,0.0151367-0.0292969,0.0302734-0.0546875
	l1.0620117-1.0849609c0.0219727-0.0214844,0.0297852-0.0439453,0.0297852-0.0683594
	c0-0.0380859-0.0297852-0.0605469-0.0849609-0.0605469h-0.9150391l-0.0537109,0.0224609l-0.8164063,0.8945313
	C21.3833008,22.5498047,21.3676758,22.5566406,21.3457031,22.5566406z"/>
<path fill="#FFFFFF" d="M25.0595703,24.4267578c-0.4970703-0.0478516-0.637207-0.3964844-0.6811523-0.4755859
	c-0.0126953-0.0244141-0.034668-0.0214844-0.059082-0.0087891L23.6875,24.25
	c-0.0307617,0.0166016-0.0449219,0.0302734-0.0449219,0.0546875c0,0.0683594,0.2958984,0.90625,1.4770508,0.90625
	c0.9228516,0,1.5209961-0.5341797,1.4370117-1.2578125c-0.1201172-1.0380859-1.8813477-0.890625-1.972168-1.3095703
	c-0.0507813-0.2373047,0.2299805-0.3798828,0.5258789-0.3554688c0.5019531,0.0410156,0.6083984,0.3632813,0.6801758,0.4980469
	c0.0161133,0.0283203,0.0517578,0.0185547,0.0678711,0.0117188l0.6289063-0.3105469
	c0.0322266-0.0146484,0.0483398-0.0390625,0.0473633-0.0605469c-0.0029297-0.0712891-0.3662109-0.8925781-1.4321289-0.8925781
	c-0.8579102,0-1.5019531,0.5263672-1.421875,1.2236328c0.1157227,1.0058594,1.8920898,0.8740234,1.9990234,1.3027344
	C25.7265625,24.2460938,25.4936523,24.4677734,25.0595703,24.4267578z"/>
<path fill="#FFFFFF" d="M15.0527344,21.6884766v3.3701172c0,0.0517578,0.0239258,0.0771484,0.0766602,0.0771484h0.7231445
	c0.0541992,0,0.0761719-0.0253906,0.0761719-0.0771484v-3.3701172c0-0.0546875-0.0302734-0.0771484-0.0761719-0.0771484h-0.7231445
	C15.0766602,21.6113281,15.0527344,21.6337891,15.0527344,21.6884766z"/>
<path fill="#FFFFFF" d="M29.9345703,15.3852539c-0.0532227,0.0219727-0.0292969,0.09375-0.0161133,0.1308594
	c1.2211914,3.5258789,0.9619141,7.5405273-1.0488281,11.0229492c-0.8022461,1.390625-1.9863281,2.6904297-2.9121094,3.5
	c-0.5991211,0.5234375-0.5498047,1.046875-0.2578125,1.3378906c0.4228516,0.4189453,0.8818359,0.3232422,1.5146484-0.2558594
	c0.9760742-0.8955078,1.9501953-2.1484375,2.6582031-3.484375c2.0917969-3.9443359,2.0029297-8.4628906,0.1567383-12.1796875
	C30.0146484,15.4272461,29.984375,15.3642578,29.9345703,15.3852539z"/>
<path fill="#FFFFFF" d="M34.0117188,17.609375c-0.2851563-1.2910156-0.8852539-2.7612305-1.6879883-4.0429688
	c-2.3701172-3.7841797-6.3300781-5.9663086-10.4692383-6.2241211c-0.0351563-0.0019531-0.1030273-0.0092773-0.1108398,0.0458984
	c-0.0063477,0.0561523,0.0678711,0.0708008,0.1069336,0.0800781c3.6621094,0.7041016,7.0097656,2.9350586,9.0209961,6.4199219
	c0.8017578,1.3881836,1.3359375,3.0629883,1.574707,4.269043c0.1552734,0.7817383,0.6303711,1.0009766,1.0292969,0.8925781
	C34.0493164,18.8930664,34.1977539,18.4482422,34.0117188,17.609375z"/>
<path fill="#FFFFFF" d="M15.7705078,18.6459961l0.0019531-1c0-0.0805664-0.0488281-0.1147461-0.1181641-0.1147461h-2.6005859
	c-0.0810547,0-0.1162109-0.0351563-0.1162109-0.1162109v-5.7988281c0-0.0810547-0.046875-0.1152344-0.1147461-0.1152344h-1.1313477
	c-0.0800781,0-0.1147461,0.0341797-0.1147461,0.1152344v7.0297852c0,0.0820313,0.034668,0.1171875,0.1147461,0.1171875h3.9628906
	C15.7353516,18.7631836,15.7705078,18.7280273,15.7705078,18.6459961z"/>
<path fill="#FFFFFF" d="M27.1035156,26.4765625C27.0585938,26.4423828,27.0073242,26.5,26.9814453,26.5283203
	c-2.4418945,2.8203125-6.0488281,4.6035156-10.0717773,4.6035156c-1.6040039,0-3.3203125-0.3759766-4.4853516-0.7695313
	c-0.7539063-0.2578125-1.1806641,0.0429688-1.2856445,0.4443359c-0.1523438,0.5732422,0.1606445,0.9257813,0.9790039,1.1835938
	c1.2617188,0.3984375,2.8339844,0.6142578,4.3457031,0.5605469c4.4619141-0.1601563,8.3310547-2.5009766,10.6240234-5.9560547
	C27.1064453,26.5654297,27.1474609,26.5097656,27.1035156,26.4765625z"/>
<path fill="#FFFFFF" d="M7.8925781,21.5761719c0.0517578-0.0253906,0.027832-0.0966797,0.0151367-0.1337891
	c-1.2211914-3.5253906-0.9624023-7.5400391,1.0488281-11.0229492c0.8017578-1.3901367,1.9858398-2.6894531,2.9111328-3.4990234
	C12.4672852,6.3950195,12.4174805,5.875,12.1254883,5.5830078c-0.421875-0.4199219-0.8818359-0.3227539-1.5141602,0.2563477
	c-0.9746094,0.894043-1.949707,2.1469727-2.6577148,3.4829102c-2.0922852,3.9448242-2.0039063,8.4648438-0.15625,12.1787109
	C7.8105469,21.5332031,7.8413086,21.5976563,7.8925781,21.5761719z"/>
<path fill="#FFFFFF" d="M16.081543,29.5712891c0.0078125-0.0556641-0.0668945-0.0722656-0.1049805-0.078125
	c-3.6630859-0.7070313-7.012207-2.9375-9.0229492-6.4199219c-0.8032227-1.390625-1.3359375-3.0644531-1.5742188-4.2709961
	c-0.1547852-0.7822266-0.6298828-1-1.0268555-0.8920898c-0.5751953,0.1538086-0.7231445,0.6010742-0.5371094,1.4394531
	c0.2861328,1.2910156,0.8833008,2.7617188,1.6870117,4.0439453c2.3710938,3.7822266,6.3291016,5.9648438,10.4692383,6.2246094
	C16.0063477,29.6201172,16.0756836,29.6279297,16.081543,29.5712891z"/>
<path fill="#FFFFFF" d="M89.3251953,13.2558594h-1.8339844c-0.1630859,0-0.296875,0.1352539-0.296875,0.2993164v4.6557617
	l-3.1767578-4.8188477c-0.0546875-0.0839844-0.1474609-0.1362305-0.2470703-0.1362305h-1.6367188
	c-0.1650391,0-0.296875,0.1352539-0.296875,0.2993164v9.2241211c0,0.1640625,0.1318359,0.2978516,0.296875,0.2978516h1.8339844
	c0.1640625,0,0.2978516-0.1337891,0.2978516-0.2978516v-4.668457l3.1757813,4.831543
	c0.0546875,0.0839844,0.1474609,0.1347656,0.2470703,0.1347656h1.6367188c0.1640625,0,0.296875-0.1337891,0.296875-0.2978516
	v-9.2241211C89.6220703,13.3911133,89.4892578,13.2558594,89.3251953,13.2558594z"/>
<path fill="#FFFFFF" d="M99.0234375,13.2558594h-6.1884766c-0.1630859,0-0.296875,0.1352539-0.296875,0.2993164v9.2241211
	c0,0.1640625,0.1337891,0.2978516,0.296875,0.2978516h6.1884766c0.1640625,0,0.296875-0.1337891,0.296875-0.2978516v-1.6064453
	c0-0.1650391-0.1328125-0.2978516-0.296875-0.2978516h-4.0566406v-1.6464844h3.4111328
	c0.1630859,0,0.296875-0.1337891,0.296875-0.2973633v-1.6069336c0-0.1630859-0.1337891-0.2963867-0.296875-0.2963867h-3.4111328
	v-1.5698242h4.0566406c0.1640625,0,0.296875-0.1318359,0.296875-0.296875v-1.605957
	C99.3203125,13.3911133,99.1875,13.2558594,99.0234375,13.2558594z"/>
<path fill="#FFFFFF" d="M47.7617188,14.2749023c-1.0126953,0.9960938-1.0126953,2.2192383-1.0126953,3.7661133v0.2509766
	c0,1.5488281,0,2.7695313,1.0126953,3.765625c0.7509766,0.7382813,1.6518555,1.0957031,2.7539063,1.0957031
	c1.0957031,0,1.9921875-0.3574219,2.7431641-1.0957031c1.0263672-1.0058594,1.0263672-2.2509766,1.0244141-3.8266602v-0.1279297
	c0.0019531-1.5761719,0.0019531-2.8208008-1.0244141-3.828125c-0.7509766-0.7368164-1.6474609-1.0957031-2.7431641-1.0957031
	C49.4135742,13.1791992,48.5136719,13.5380859,47.7617188,14.2749023z M51.4716797,15.7768555
	c0.2666016,0.2910156,0.3837891,0.6040039,0.3837891,2.3891602c0,1.7861328-0.1171875,2.0996094-0.3837891,2.390625
	c-0.0009766,0.0029297-0.0029297,0.0029297-0.0029297,0.0048828c-0.2246094,0.2529297-0.5625,0.390625-0.953125,0.390625
	s-0.7426758-0.1425781-0.9638672-0.390625c0-0.0019531-0.0019531-0.0019531-0.0029297-0.0048828
	c-0.2832031-0.3076172-0.3710938-0.6787109-0.3710938-2.390625c0-1.7109375,0.0878906-2.0820313,0.3710938-2.3891602
	c0.0009766-0.0019531,0.0029297-0.0039063,0.0029297-0.0048828c0.2211914-0.2490234,0.5732422-0.3920898,0.9638672-0.3920898
	s0.7285156,0.1401367,0.953125,0.3920898C51.46875,15.7729492,51.4707031,15.7749023,51.4716797,15.7768555z"/>
<path fill="#FFFFFF" d="M78.6230469,13.2558594h-1.8330078c-0.1660156,0-0.296875,0.1352539-0.296875,0.2993164v9.2241211
	c0,0.1640625,0.1308594,0.2978516,0.296875,0.2978516h1.8330078c0.1650391,0,0.2978516-0.1337891,0.2978516-0.2978516v-9.2241211
	C78.9208984,13.3911133,78.7880859,13.2558594,78.6230469,13.2558594z"/>
<path fill="#FFFFFF" d="M64.3720703,13.2558594h-1.8339844c-0.1640625,0-0.296875,0.1352539-0.296875,0.2993164v4.6557617
	l-3.1757813-4.8188477c-0.0546875-0.0839844-0.1484375-0.1362305-0.2490234-0.1362305h-1.6347656
	c-0.1640625,0-0.2978516,0.1352539-0.2978516,0.2993164v9.2241211c0,0.1640625,0.1337891,0.2978516,0.2978516,0.2978516h1.8330078
	c0.1650391,0,0.2978516-0.1337891,0.2978516-0.2978516v-4.668457l3.1767578,4.831543
	c0.0537109,0.0839844,0.1464844,0.1347656,0.2470703,0.1347656h1.6357422c0.1650391,0,0.2978516-0.1337891,0.2978516-0.2978516
	v-9.2241211C64.6699219,13.3911133,64.5371094,13.2558594,64.3720703,13.2558594z"/>
<path fill="#FFFFFF" d="M73.9785156,20.875h-3.9648438v-7.3198242c0-0.1640625-0.1318359-0.2993164-0.296875-0.2993164h-1.8339844
	c-0.1640625,0-0.296875,0.1352539-0.296875,0.2993164v9.2241211c0,0.1640625,0.1328125,0.2978516,0.296875,0.2978516h6.0957031
	c0.1650391,0,0.2978516-0.1337891,0.2978516-0.2978516v-1.6064453C74.2763672,21.0078125,74.1435547,20.875,73.9785156,20.875z"/>
</svg>
