<?xml version="1.0" encoding="utf-8"?>
<!-- Generator: Adobe Illustrator 15.1.0, SVG Export Plug-In . SVG Version: 6.00 Build 0)  -->
<!DOCTYPE svg PUBLIC "-//W3C//DTD SVG 1.1//EN" "http://www.w3.org/Graphics/SVG/1.1/DTD/svg11.dtd">
<svg version="1.1" id="Layer_1" xmlns="http://www.w3.org/2000/svg" xmlns:xlink="http://www.w3.org/1999/xlink" x="0px" y="0px"
	 width="348.156px" height="22.589px" viewBox="0 0 348.156 22.589" enable-background="new 0 0 348.156 22.589"
	 xml:space="preserve">
<g>
	<path d="M10.182,16.669v-5.36H4.641v5.36H1.2V3.327h3.441v4.981h5.541V3.327h3.441v13.342H10.182z"/>
	<path d="M15.3,11.83c0-2.722,1.98-5.062,5.261-5.062c3.321,0,5.281,2.341,5.281,5.062c0,2.719-1.96,5.08-5.281,5.08
		C17.28,16.91,15.3,14.548,15.3,11.83z M22.682,11.83c0-1.281-0.76-2.342-2.121-2.342c-1.34,0-2.081,1.061-2.081,2.342
		c0,1.299,0.74,2.359,2.081,2.359C21.921,14.189,22.682,13.128,22.682,11.83z"/>
	<path d="M24.259,19.912l0.78-2.262c0.38,0.301,0.66,0.42,1.24,0.42c0.72,0,1.18-0.479,1.18-1.48V7.008h3.081v9.582
		c0,2.341-1.16,4.002-3.741,4.002C25.459,20.591,25,20.39,24.259,19.912z M27.24,4.367c0-0.98,0.78-1.76,1.76-1.76
		s1.76,0.78,1.76,1.76s-0.78,1.78-1.76,1.78S27.24,5.348,27.24,4.367z"/>
	<path d="M38.481,16.669V15.71c-0.6,0.72-1.76,1.199-3,1.199c-1.48,0-3.321-1-3.321-3.181c0-2.341,1.84-3.101,3.321-3.101
		c1.28,0,2.42,0.4,3,1.121v-1.16c0-0.84-0.72-1.4-1.96-1.4c-0.96,0-1.96,0.36-2.74,1.02l-1.101-1.94c1.24-1.06,2.901-1.5,4.381-1.5
		c2.32,0,4.501,0.86,4.501,3.861v6.042h-3.081V16.669z M38.481,14.189V13.33c-0.32-0.44-1.04-0.681-1.72-0.681
		c-0.82,0-1.541,0.36-1.541,1.121s0.72,1.12,1.541,1.12C37.441,14.89,38.161,14.649,38.481,14.189z"/>
	<path d="M55.421,16.669V15.55c-0.8,0.92-1.78,1.359-2.86,1.359c-2.381,0-4.281-1.801-4.281-5.08c0-3.162,1.86-5.062,4.281-5.062
		c1.06,0,2.08,0.42,2.86,1.38v-4.82h3.061v13.342H55.421z M55.421,13.309v-2.96c-0.4-0.52-1.2-0.86-1.86-0.86
		c-1.22,0-2.121,0.9-2.121,2.34s0.9,2.36,2.121,2.36C54.221,14.189,55.021,13.83,55.421,13.309z"/>
	<path d="M60.1,11.83c0-2.802,2.121-5.062,5.141-5.062c2.861,0,4.941,2.101,4.941,5.381v0.66H63.3c0.18,0.9,1.021,1.72,2.42,1.72
		c0.68,0,1.861-0.3,2.401-0.819l1.3,1.92c-0.96,0.859-2.561,1.279-4.041,1.279C62.4,16.91,60.1,14.97,60.1,11.83z M65.241,9.148
		c-1.34,0-1.86,0.96-1.98,1.66h3.981C67.161,10.128,66.661,9.148,65.241,9.148z"/>
	<path d="M76.82,16.669V7.008h3.08v1.18c0.64-0.78,1.861-1.44,3.021-1.44v2.96c-0.18-0.04-0.44-0.08-0.76-0.08
		c-0.8,0-1.86,0.34-2.261,0.88v6.162H76.82L76.82,16.669z"/>
	<path d="M83.68,11.83c0-2.802,2.121-5.062,5.141-5.062c2.861,0,4.941,2.101,4.941,5.381v0.66H86.88c0.18,0.9,1.021,1.72,2.42,1.72
		c0.68,0,1.861-0.3,2.401-0.819l1.3,1.92c-0.96,0.859-2.561,1.279-4.041,1.279C85.98,16.91,83.68,14.97,83.68,11.83z M88.821,9.148
		c-1.34,0-1.86,0.96-1.98,1.66h3.981C90.741,10.128,90.241,9.148,88.821,9.148z"/>
	<path d="M95.939,16.669V9.688h-1.6v-2.68h1.6v-0.48c0-2.041,1.441-3.401,3.461-3.401c1.041,0,2.121,0.28,2.781,0.96l-1.141,1.76
		c-0.24-0.26-0.52-0.38-0.96-0.38c-0.58,0-1.061,0.38-1.061,1.06v0.48h1.96v2.681h-1.96v6.981H95.939L95.939,16.669z"/>
	<path d="M101.619,11.83c0-2.802,2.121-5.062,5.142-5.062c2.86,0,4.941,2.101,4.941,5.381v0.66h-6.882
		c0.18,0.9,1.021,1.72,2.42,1.72c0.681,0,1.861-0.3,2.401-0.819l1.3,1.92c-0.96,0.859-2.561,1.279-4.041,1.279
		C103.92,16.91,101.619,14.97,101.619,11.83z M106.761,9.148c-1.341,0-1.86,0.96-1.98,1.66h3.981
		C108.682,10.128,108.182,9.148,106.761,9.148z"/>
	<path d="M113.22,16.669V7.008h3.081v1.18c0.64-0.78,1.86-1.44,3.021-1.44v2.96c-0.181-0.04-0.44-0.08-0.761-0.08
		c-0.8,0-1.859,0.34-2.26,0.88v6.162H113.22L113.22,16.669z"/>
	<path d="M120.08,11.83c0-2.802,2.12-5.062,5.141-5.062c2.861,0,4.941,2.101,4.941,5.381v0.66h-6.882
		c0.181,0.9,1.021,1.72,2.421,1.72c0.68,0,1.86-0.3,2.4-0.819l1.301,1.92c-0.961,0.859-2.561,1.279-4.041,1.279
		C122.381,16.91,120.08,14.97,120.08,11.83z M125.221,9.148c-1.34,0-1.86,0.96-1.98,1.66h3.98
		C127.141,10.128,126.641,9.148,125.221,9.148z"/>
	<path d="M138.221,16.669v-5.581c0-1.18-0.619-1.601-1.58-1.601c-0.92,0-1.52,0.5-1.881,0.94v6.242h-3.08V7.008h3.08v1.18
		c0.581-0.68,1.721-1.42,3.342-1.42c2.2,0,3.2,1.28,3.2,3.061v6.84H138.221z"/>
	<path d="M142.899,11.83c0-3.021,2.261-5.062,5.281-5.062c2.081,0,3.381,0.92,3.961,1.781l-2.001,1.86c-0.379-0.56-1-0.92-1.82-0.92
		c-1.279,0-2.26,0.88-2.26,2.342c0,1.459,0.98,2.359,2.26,2.359c0.82,0,1.441-0.4,1.82-0.939l2.001,1.879
		c-0.58,0.84-1.88,1.781-3.961,1.781C145.16,16.91,142.899,14.871,142.899,11.83z"/>
	<path d="M153.32,4.367c0-0.98,0.779-1.76,1.76-1.76s1.761,0.78,1.761,1.76s-0.78,1.78-1.761,1.78S153.32,5.348,153.32,4.367z
		 M153.539,16.669V7.008h3.081v9.662H153.539z"/>
	<path d="M164.561,16.669V15.71c-0.6,0.72-1.76,1.199-3,1.199c-1.48,0-3.321-1-3.321-3.181c0-2.341,1.841-3.101,3.321-3.101
		c1.28,0,2.42,0.4,3,1.121v-1.16c0-0.84-0.72-1.4-1.96-1.4c-0.961,0-1.961,0.36-2.741,1.02l-1.1-1.94c1.24-1.06,2.9-1.5,4.381-1.5
		c2.32,0,4.501,0.86,4.501,3.861v6.042h-3.081V16.669z M164.561,14.189V13.33c-0.32-0.44-1.04-0.681-1.72-0.681
		c-0.82,0-1.541,0.36-1.541,1.121s0.721,1.12,1.541,1.12C163.521,14.89,164.24,14.649,164.561,14.189z"/>
	<path d="M178.08,15.531v4.82H175V7.008h3.08v1.12c0.76-0.92,1.76-1.36,2.86-1.36c2.421,0,4.241,1.801,4.241,5.062
		c0,3.28-1.82,5.082-4.241,5.082C179.86,16.91,178.88,16.49,178.08,15.531z M182.041,11.83c0-1.44-0.92-2.342-2.121-2.342
		c-0.66,0-1.459,0.36-1.84,0.88v2.94c0.381,0.5,1.18,0.88,1.84,0.88C181.121,14.189,182.041,13.289,182.041,11.83z"/>
	<path d="M192.479,16.669V15.71c-0.601,0.72-1.76,1.199-3,1.199c-1.479,0-3.321-1-3.321-3.181c0-2.341,1.842-3.101,3.321-3.101
		c1.28,0,2.42,0.4,3,1.121v-1.16c0-0.84-0.72-1.4-1.96-1.4c-0.961,0-1.961,0.36-2.741,1.02l-1.1-1.94
		c1.239-1.06,2.899-1.5,4.381-1.5c2.319,0,4.501,0.86,4.501,3.861v6.042h-3.081V16.669z M192.479,14.189V13.33
		c-0.319-0.44-1.04-0.681-1.72-0.681c-0.82,0-1.541,0.36-1.541,1.121s0.721,1.12,1.541,1.12
		C191.439,14.89,192.16,14.649,192.479,14.189z"/>
	<path d="M197.798,16.669V7.008h3.08v1.18c0.641-0.78,1.86-1.44,3.021-1.44v2.96c-0.182-0.04-0.439-0.08-0.761-0.08
		c-0.8,0-1.86,0.34-2.261,0.88v6.162H197.798L197.798,16.669z"/>
	<path d="M211,16.669V15.71c-0.601,0.72-1.761,1.199-3,1.199c-1.48,0-3.321-1-3.321-3.181c0-2.341,1.841-3.101,3.321-3.101
		c1.279,0,2.42,0.4,3,1.121v-1.16c0-0.84-0.721-1.4-1.961-1.4c-0.961,0-1.961,0.36-2.74,1.02l-1.101-1.94
		c1.24-1.06,2.9-1.5,4.382-1.5c2.319,0,4.5,0.86,4.5,3.861v6.042H211V16.669z M211,14.189V13.33c-0.32-0.44-1.041-0.681-1.721-0.681
		c-0.82,0-1.541,0.36-1.541,1.121s0.721,1.12,1.541,1.12C209.958,14.89,210.679,14.649,211,14.189z"/>
	<path d="M221.438,16.669V3.327h3.081v13.342H221.438z"/>
	<path d="M232.458,16.669V15.71c-0.601,0.72-1.76,1.199-3,1.199c-1.48,0-3.321-1-3.321-3.181c0-2.341,1.841-3.101,3.321-3.101
		c1.279,0,2.42,0.4,3,1.121v-1.16c0-0.84-0.721-1.4-1.961-1.4c-0.961,0-1.961,0.36-2.74,1.02l-1.1-1.94
		c1.239-1.06,2.899-1.5,4.381-1.5c2.319,0,4.5,0.86,4.5,3.861v6.042h-3.08V16.669z M232.458,14.189V13.33
		c-0.32-0.44-1.041-0.681-1.721-0.681c-0.82,0-1.541,0.36-1.541,1.121s0.721,1.12,1.541,1.12
		C231.417,14.89,232.138,14.649,232.458,14.189z"/>
	<path d="M242.257,11.83c0-3.021,2.26-5.062,5.279-5.062c2.082,0,3.381,0.92,3.961,1.781l-2,1.86c-0.379-0.56-1-0.92-1.819-0.92
		c-1.28,0-2.261,0.88-2.261,2.342c0,1.459,0.979,2.359,2.261,2.359c0.819,0,1.44-0.4,1.819-0.939l2,1.879
		c-0.58,0.84-1.879,1.781-3.961,1.781C244.517,16.91,242.257,14.871,242.257,11.83z"/>
	<path d="M258.598,16.669V15.71c-0.601,0.72-1.761,1.199-3,1.199c-1.479,0-3.321-1-3.321-3.181c0-2.341,1.842-3.101,3.321-3.101
		c1.28,0,2.42,0.4,3,1.121v-1.16c0-0.84-0.72-1.4-1.96-1.4c-0.961,0-1.961,0.36-2.741,1.02l-1.101-1.94c1.24-1.06,2.9-1.5,4.382-1.5
		c2.319,0,4.501,0.86,4.501,3.861v6.042h-3.081V16.669z M258.598,14.189V13.33c-0.32-0.44-1.04-0.681-1.72-0.681
		c-0.82,0-1.541,0.36-1.541,1.121s0.721,1.12,1.541,1.12C257.558,14.89,258.277,14.649,258.598,14.189z"/>
	<path d="M263.916,16.669V3.327h3.082v13.342H263.916z"/>
	<path d="M268.596,11.83c0-3.021,2.26-5.062,5.28-5.062c2.08,0,3.381,0.92,3.961,1.781l-2,1.86c-0.381-0.56-1-0.92-1.82-0.92
		c-1.28,0-2.262,0.88-2.262,2.342c0,1.459,0.98,2.359,2.262,2.359c0.82,0,1.439-0.4,1.82-0.939l2,1.879
		c-0.58,0.84-1.881,1.781-3.961,1.781C270.855,16.91,268.596,14.871,268.596,11.83z"/>
	<path d="M285.757,16.669v-1.16c-0.602,0.681-1.721,1.4-3.342,1.4c-2.199,0-3.181-1.24-3.181-3.021V7.008h3.081v5.621
		c0,1.16,0.6,1.562,1.6,1.562c0.881,0,1.48-0.479,1.842-0.94V7.008h3.08v9.662H285.757z"/>
	<path d="M291.076,16.669V3.327h3.08v13.342H291.076z"/>
	<path d="M302.097,16.669V15.71c-0.6,0.72-1.76,1.199-3,1.199c-1.48,0-3.321-1-3.321-3.181c0-2.341,1.841-3.101,3.321-3.101
		c1.279,0,2.42,0.4,3,1.121v-1.16c0-0.84-0.721-1.4-1.96-1.4c-0.962,0-1.962,0.36-2.741,1.02l-1.1-1.94
		c1.24-1.06,2.899-1.5,4.381-1.5c2.32,0,4.501,0.86,4.501,3.861v6.042h-3.081V16.669z M302.097,14.189V13.33
		c-0.32-0.44-1.04-0.681-1.721-0.681c-0.819,0-1.541,0.36-1.541,1.121s0.722,1.12,1.541,1.12
		C301.057,14.89,301.776,14.649,302.097,14.189z"/>
	<path d="M313.917,16.669V15.55c-0.801,0.92-1.781,1.359-2.861,1.359c-2.381,0-4.279-1.801-4.279-5.08
		c0-3.162,1.859-5.062,4.279-5.062c1.061,0,2.08,0.42,2.861,1.38v-4.82h3.061v13.342H313.917z M313.917,13.309v-2.96
		c-0.4-0.52-1.201-0.86-1.861-0.86c-1.221,0-2.121,0.9-2.121,2.34s0.9,2.36,2.121,2.36C312.716,14.189,313.517,13.83,313.917,13.309
		z"/>
	<path d="M318.595,11.83c0-2.722,1.98-5.062,5.262-5.062c3.318,0,5.279,2.341,5.279,5.062c0,2.719-1.961,5.08-5.279,5.08
		C320.576,16.91,318.595,14.548,318.595,11.83z M325.976,11.83c0-1.281-0.76-2.342-2.119-2.342c-1.342,0-2.08,1.061-2.08,2.342
		c0,1.299,0.738,2.359,2.08,2.359C325.216,14.189,325.976,13.128,325.976,11.83z"/>
	<path d="M330.753,16.669V7.008h3.082v1.18c0.639-0.78,1.859-1.44,3.021-1.44v2.96c-0.182-0.04-0.441-0.08-0.762-0.08
		c-0.801,0-1.859,0.34-2.26,0.88v6.162H330.753L330.753,16.669z"/>
	<path d="M343.955,16.669V15.71c-0.6,0.72-1.76,1.199-3,1.199c-1.48,0-3.32-1-3.32-3.181c0-2.341,1.84-3.101,3.32-3.101
		c1.281,0,2.42,0.4,3,1.121v-1.16c0-0.84-0.719-1.4-1.959-1.4c-0.961,0-1.961,0.36-2.742,1.02l-1.1-1.94
		c1.24-1.06,2.9-1.5,4.381-1.5c2.32,0,4.502,0.86,4.502,3.861v6.042h-3.082V16.669z M343.955,14.189V13.33
		c-0.32-0.44-1.039-0.681-1.719-0.681c-0.82,0-1.541,0.36-1.541,1.121s0.721,1.12,1.541,1.12
		C342.916,14.89,343.634,14.649,343.955,14.189z"/>
</g>
</svg>
