<?xml version="1.0" encoding="utf-8"?>
<!-- Generator: Adobe Illustrator 15.1.0, SVG Export Plug-In . SVG Version: 6.00 Build 0)  -->
<!DOCTYPE svg PUBLIC "-//W3C//DTD SVG 1.1//EN" "http://www.w3.org/Graphics/SVG/1.1/DTD/svg11.dtd">
<svg version="1.1" id="Layer_1" xmlns="http://www.w3.org/2000/svg" xmlns:xlink="http://www.w3.org/1999/xlink" x="0px" y="0px"
	 width="243.709px" height="15.813px" viewBox="0 0 243.709 15.813" enable-background="new 0 0 243.709 15.813"
	 xml:space="preserve">
<g>
	<path d="M7.13,11.669V7.915H3.25v3.754H0.84V2.326h2.41v3.488h3.88V2.326h2.409v9.343H7.13z"/>
	<path d="M10.71,8.279c0-1.905,1.387-3.544,3.684-3.544c2.325,0,3.698,1.639,3.698,3.544c0,1.905-1.373,3.558-3.698,3.558
		C12.097,11.837,10.71,10.184,10.71,8.279z M15.879,8.279c0-0.896-0.532-1.639-1.485-1.639c-0.938,0-1.457,0.743-1.457,1.639
		c0,0.91,0.518,1.653,1.457,1.653C15.347,9.932,15.879,9.189,15.879,8.279z"/>
	<path d="M16.981,13.938l0.546-1.583c0.266,0.21,0.462,0.294,0.869,0.294c0.504,0,0.827-0.336,0.827-1.037V4.903h2.157v6.709
		c0,1.64-0.812,2.802-2.619,2.802C17.822,14.415,17.5,14.274,16.981,13.938z M19.068,3.054c0-0.686,0.546-1.232,1.232-1.232
		c0.687,0,1.233,0.546,1.233,1.232c0,0.687-0.546,1.247-1.233,1.247C19.615,4.301,19.068,3.741,19.068,3.054z"/>
	<path d="M26.938,11.669v-0.672c-0.42,0.504-1.232,0.84-2.101,0.84c-1.037,0-2.325-0.7-2.325-2.227c0-1.639,1.289-2.171,2.325-2.171
		c0.896,0,1.695,0.28,2.101,0.785V7.411c0-0.588-0.504-0.98-1.373-0.98c-0.672,0-1.373,0.252-1.919,0.714l-0.771-1.359
		c0.869-0.742,2.031-1.05,3.068-1.05c1.625,0,3.151,0.602,3.151,2.703v4.23H26.938z M26.938,9.932V9.33
		c-0.224-0.308-0.728-0.476-1.205-0.476c-0.574,0-1.079,0.252-1.079,0.784s0.504,0.785,1.079,0.785
		C26.21,10.422,26.714,10.254,26.938,9.932z"/>
	<path d="M38.797,11.669v-0.784c-0.561,0.644-1.247,0.952-2.003,0.952c-1.667,0-2.998-1.261-2.998-3.558
		c0-2.213,1.303-3.544,2.998-3.544c0.742,0,1.457,0.294,2.003,0.966V2.326h2.143v9.343H38.797z M38.797,9.315V7.243
		c-0.28-0.364-0.84-0.603-1.303-0.603c-0.854,0-1.485,0.63-1.485,1.639c0,1.008,0.63,1.653,1.485,1.653
		C37.957,9.932,38.517,9.68,38.797,9.315z"/>
	<path d="M42.07,8.279c0-1.961,1.484-3.544,3.6-3.544c2.003,0,3.46,1.471,3.46,3.768v0.462h-4.818
		c0.126,0.63,0.714,1.205,1.695,1.205c0.476,0,1.303-0.21,1.681-0.574l0.911,1.345c-0.672,0.603-1.793,0.896-2.83,0.896
		C43.681,11.837,42.07,10.479,42.07,8.279z M45.67,6.402c-0.938,0-1.303,0.672-1.387,1.163h2.788
		C47.015,7.088,46.665,6.402,45.67,6.402z"/>
	<path d="M53.774,11.669V4.903h2.157v0.826c0.448-0.546,1.303-1.008,2.115-1.008v2.073c-0.126-0.028-0.308-0.056-0.532-0.056
		c-0.56,0-1.303,0.238-1.583,0.616v4.314H53.774z"/>
	<path d="M58.576,8.279c0-1.961,1.484-3.544,3.6-3.544c2.003,0,3.46,1.471,3.46,3.768v0.462h-4.818
		c0.126,0.63,0.714,1.205,1.695,1.205c0.476,0,1.303-0.21,1.681-0.574l0.911,1.345c-0.672,0.603-1.793,0.896-2.83,0.896
		C60.187,11.837,58.576,10.479,58.576,8.279z M62.176,6.402c-0.938,0-1.303,0.672-1.387,1.163h2.788
		C63.521,7.088,63.17,6.402,62.176,6.402z"/>
	<path d="M67.158,11.669V6.78h-1.121V4.903h1.121V4.567c0-1.429,1.009-2.381,2.423-2.381c0.729,0,1.485,0.196,1.947,0.672
		L70.73,4.091c-0.168-0.182-0.364-0.266-0.673-0.266c-0.406,0-0.742,0.266-0.742,0.742v0.336h1.373V6.78h-1.373v4.889H67.158z"/>
	<path d="M71.134,8.279c0-1.961,1.485-3.544,3.6-3.544c2.003,0,3.46,1.471,3.46,3.768v0.462h-4.819
		c0.126,0.63,0.715,1.205,1.695,1.205c0.476,0,1.303-0.21,1.681-0.574l0.911,1.345c-0.672,0.603-1.793,0.896-2.83,0.896
		C72.745,11.837,71.134,10.479,71.134,8.279z M74.734,6.402c-0.938,0-1.303,0.672-1.387,1.163h2.788
		C76.079,7.088,75.729,6.402,74.734,6.402z"/>
	<path d="M79.254,11.669V4.903h2.157v0.826c0.448-0.546,1.303-1.008,2.115-1.008v2.073c-0.126-0.028-0.308-0.056-0.532-0.056
		c-0.56,0-1.303,0.238-1.583,0.616v4.314H79.254z"/>
	<path d="M84.056,8.279c0-1.961,1.485-3.544,3.6-3.544c2.003,0,3.46,1.471,3.46,3.768v0.462h-4.819
		c0.126,0.63,0.715,1.205,1.695,1.205c0.476,0,1.303-0.21,1.681-0.574l0.911,1.345c-0.672,0.603-1.793,0.896-2.83,0.896
		C85.667,11.837,84.056,10.479,84.056,8.279z M87.656,6.402c-0.938,0-1.303,0.672-1.387,1.163h2.788
		C89,7.088,88.65,6.402,87.656,6.402z"/>
	<path d="M96.756,11.669V7.761c0-0.826-0.434-1.121-1.105-1.121c-0.645,0-1.064,0.35-1.317,0.659v4.37h-2.157V4.903h2.157v0.826
		c0.406-0.476,1.205-0.994,2.339-0.994c1.541,0,2.242,0.896,2.242,2.143v4.791H96.756z"/>
	<path d="M100.029,8.279c0-2.115,1.583-3.544,3.698-3.544c1.457,0,2.367,0.644,2.773,1.247L105.1,7.285
		c-0.266-0.392-0.699-0.645-1.273-0.645c-0.896,0-1.584,0.616-1.584,1.639c0,1.022,0.688,1.653,1.584,1.653
		c0.574,0,1.008-0.28,1.273-0.659l1.401,1.317c-0.406,0.588-1.316,1.247-2.773,1.247C101.612,11.837,100.029,10.408,100.029,8.279z"
		/>
	<path d="M107.324,3.054c0-0.686,0.546-1.232,1.232-1.232c0.686,0,1.232,0.546,1.232,1.232c0,0.687-0.547,1.247-1.232,1.247
		C107.87,4.301,107.324,3.741,107.324,3.054z M107.478,11.669V4.903h2.157v6.766H107.478z"/>
	<path d="M115.193,11.669v-0.672c-0.42,0.504-1.232,0.84-2.102,0.84c-1.036,0-2.324-0.7-2.324-2.227
		c0-1.639,1.288-2.171,2.324-2.171c0.896,0,1.695,0.28,2.102,0.785V7.411c0-0.588-0.504-0.98-1.373-0.98
		c-0.672,0-1.372,0.252-1.918,0.714l-0.771-1.359c0.869-0.742,2.031-1.05,3.068-1.05c1.625,0,3.151,0.602,3.151,2.703v4.23H115.193z
		 M115.193,9.932V9.33c-0.225-0.308-0.729-0.476-1.205-0.476c-0.574,0-1.078,0.252-1.078,0.784s0.504,0.785,1.078,0.785
		C114.465,10.422,114.969,10.254,115.193,9.932z"/>
	<path d="M124.656,10.871v3.376h-2.157V4.903h2.157v0.784c0.532-0.644,1.232-0.952,2.004-0.952c1.694,0,2.969,1.261,2.969,3.544
		c0,2.297-1.274,3.558-2.969,3.558C125.903,11.837,125.217,11.543,124.656,10.871z M127.43,8.279c0-1.009-0.645-1.639-1.484-1.639
		c-0.463,0-1.023,0.252-1.289,0.616v2.059c0.266,0.351,0.826,0.617,1.289,0.617C126.785,9.932,127.43,9.302,127.43,8.279z"/>
	<path d="M134.737,11.669v-0.672c-0.42,0.504-1.232,0.84-2.101,0.84c-1.037,0-2.326-0.7-2.326-2.227
		c0-1.639,1.289-2.171,2.326-2.171c0.896,0,1.694,0.28,2.101,0.785V7.411c0-0.588-0.504-0.98-1.372-0.98
		c-0.673,0-1.373,0.252-1.92,0.714l-0.77-1.359c0.868-0.742,2.031-1.05,3.067-1.05c1.624,0,3.151,0.602,3.151,2.703v4.23H134.737z
		 M134.737,9.932V9.33c-0.224-0.308-0.728-0.476-1.204-0.476c-0.574,0-1.079,0.252-1.079,0.784s0.505,0.785,1.079,0.785
		C134.01,10.422,134.514,10.254,134.737,9.932z"/>
	<path d="M138.459,11.669V4.903h2.157v0.826c0.448-0.546,1.303-1.008,2.115-1.008v2.073c-0.126-0.028-0.308-0.056-0.532-0.056
		c-0.561,0-1.303,0.238-1.583,0.616v4.314H138.459z"/>
	<path d="M147.701,11.669v-0.672c-0.42,0.504-1.232,0.84-2.102,0.84c-1.036,0-2.324-0.7-2.324-2.227
		c0-1.639,1.288-2.171,2.324-2.171c0.896,0,1.695,0.28,2.102,0.785V7.411c0-0.588-0.504-0.98-1.373-0.98
		c-0.672,0-1.372,0.252-1.918,0.714l-0.771-1.359c0.869-0.742,2.031-1.05,3.068-1.05c1.625,0,3.151,0.602,3.151,2.703v4.23H147.701z
		 M147.701,9.932V9.33c-0.225-0.308-0.729-0.476-1.205-0.476c-0.574,0-1.078,0.252-1.078,0.784s0.504,0.785,1.078,0.785
		C146.973,10.422,147.477,10.254,147.701,9.932z"/>
	<path d="M155.007,11.669V2.326h2.157v9.343H155.007z"/>
	<path d="M162.723,11.669v-0.672c-0.42,0.504-1.232,0.84-2.101,0.84c-1.037,0-2.325-0.7-2.325-2.227
		c0-1.639,1.288-2.171,2.325-2.171c0.896,0,1.694,0.28,2.101,0.785V7.411c0-0.588-0.504-0.98-1.372-0.98
		c-0.673,0-1.373,0.252-1.92,0.714l-0.77-1.359c0.868-0.742,2.03-1.05,3.067-1.05c1.625,0,3.151,0.602,3.151,2.703v4.23H162.723z
		 M162.723,9.932V9.33c-0.224-0.308-0.729-0.476-1.204-0.476c-0.574,0-1.079,0.252-1.079,0.784s0.505,0.785,1.079,0.785
		C161.994,10.422,162.499,10.254,162.723,9.932z"/>
	<path d="M169.58,8.279c0-2.115,1.583-3.544,3.698-3.544c1.457,0,2.367,0.644,2.773,1.247l-1.4,1.303
		c-0.267-0.392-0.7-0.645-1.275-0.645c-0.896,0-1.582,0.616-1.582,1.639c0,1.022,0.686,1.653,1.582,1.653
		c0.575,0,1.009-0.28,1.275-0.659l1.4,1.317c-0.406,0.588-1.316,1.247-2.773,1.247C171.163,11.837,169.58,10.408,169.58,8.279z"/>
	<path d="M181.021,11.669v-0.672c-0.42,0.504-1.232,0.84-2.101,0.84c-1.037,0-2.325-0.7-2.325-2.227
		c0-1.639,1.288-2.171,2.325-2.171c0.896,0,1.694,0.28,2.101,0.785V7.411c0-0.588-0.504-0.98-1.372-0.98
		c-0.673,0-1.373,0.252-1.92,0.714l-0.77-1.359c0.868-0.742,2.03-1.05,3.067-1.05c1.625,0,3.151,0.602,3.151,2.703v4.23H181.021z
		 M181.021,9.932V9.33c-0.224-0.308-0.729-0.476-1.204-0.476c-0.574,0-1.079,0.252-1.079,0.784s0.505,0.785,1.079,0.785
		C180.292,10.422,180.797,10.254,181.021,9.932z"/>
	<path d="M184.742,11.669V2.326h2.157v9.343H184.742z"/>
	<path d="M188.018,8.279c0-2.115,1.583-3.544,3.698-3.544c1.457,0,2.367,0.644,2.773,1.247l-1.4,1.303
		c-0.267-0.392-0.7-0.645-1.275-0.645c-0.896,0-1.582,0.616-1.582,1.639c0,1.022,0.686,1.653,1.582,1.653
		c0.575,0,1.009-0.28,1.275-0.659l1.4,1.317c-0.406,0.588-1.316,1.247-2.773,1.247C189.601,11.837,188.018,10.408,188.018,8.279z"/>
	<path d="M200.032,11.669v-0.812c-0.42,0.477-1.204,0.98-2.339,0.98c-1.541,0-2.228-0.868-2.228-2.115V4.903h2.157v3.936
		c0,0.812,0.42,1.093,1.121,1.093c0.616,0,1.036-0.336,1.288-0.659v-4.37h2.157v6.766H200.032z"/>
	<path d="M203.754,11.669V2.326h2.157v9.343H203.754z"/>
	<path d="M211.47,11.669v-0.672c-0.42,0.504-1.232,0.84-2.101,0.84c-1.037,0-2.325-0.7-2.325-2.227c0-1.639,1.288-2.171,2.325-2.171
		c0.896,0,1.694,0.28,2.101,0.785V7.411c0-0.588-0.504-0.98-1.372-0.98c-0.673,0-1.373,0.252-1.92,0.714l-0.77-1.359
		c0.868-0.742,2.03-1.05,3.067-1.05c1.625,0,3.151,0.602,3.151,2.703v4.23H211.47z M211.47,9.932V9.33
		c-0.224-0.308-0.729-0.476-1.204-0.476c-0.574,0-1.079,0.252-1.079,0.784s0.505,0.785,1.079,0.785
		C210.741,10.422,211.246,10.254,211.47,9.932z"/>
	<path d="M219.744,11.669v-0.784c-0.561,0.644-1.247,0.952-2.003,0.952c-1.667,0-2.998-1.261-2.998-3.558
		c0-2.213,1.303-3.544,2.998-3.544c0.742,0,1.457,0.294,2.003,0.966V2.326h2.144v9.343H219.744z M219.744,9.315V7.243
		c-0.28-0.364-0.841-0.603-1.303-0.603c-0.854,0-1.484,0.63-1.484,1.639c0,1.008,0.63,1.653,1.484,1.653
		C218.903,9.932,219.464,9.68,219.744,9.315z"/>
	<path d="M223.017,8.279c0-1.905,1.387-3.544,3.685-3.544c2.325,0,3.697,1.639,3.697,3.544c0,1.905-1.372,3.558-3.697,3.558
		C224.403,11.837,223.017,10.184,223.017,8.279z M228.186,8.279c0-0.896-0.532-1.639-1.484-1.639c-0.938,0-1.457,0.743-1.457,1.639
		c0,0.91,0.519,1.653,1.457,1.653C227.653,9.932,228.186,9.189,228.186,8.279z"/>
	<path d="M231.528,11.669V4.903h2.157v0.826c0.448-0.546,1.303-1.008,2.115-1.008v2.073c-0.126-0.028-0.308-0.056-0.532-0.056
		c-0.561,0-1.303,0.238-1.583,0.616v4.314H231.528z"/>
	<path d="M240.771,11.669v-0.672c-0.42,0.504-1.232,0.84-2.101,0.84c-1.037,0-2.325-0.7-2.325-2.227
		c0-1.639,1.288-2.171,2.325-2.171c0.896,0,1.694,0.28,2.101,0.785V7.411c0-0.588-0.504-0.98-1.372-0.98
		c-0.673,0-1.373,0.252-1.92,0.714l-0.77-1.359c0.868-0.742,2.03-1.05,3.067-1.05c1.625,0,3.151,0.602,3.151,2.703v4.23H240.771z
		 M240.771,9.932V9.33c-0.224-0.308-0.729-0.476-1.204-0.476c-0.574,0-1.079,0.252-1.079,0.784s0.505,0.785,1.079,0.785
		C240.042,10.422,240.547,10.254,240.771,9.932z"/>
</g>
</svg>
