<?xml version="1.0" encoding="utf-8"?>
<!-- Generator: Adobe Illustrator 16.0.4, SVG Export Plug-In . SVG Version: 6.00 Build 0)  -->
<!DOCTYPE svg PUBLIC "-//W3C//DTD SVG 1.1//EN" "http://www.w3.org/Graphics/SVG/1.1/DTD/svg11.dtd">
<svg version="1.1" xmlns="http://www.w3.org/2000/svg" xmlns:xlink="http://www.w3.org/1999/xlink" x="0px" y="0px"
	 width="186.825px" height="18px" viewBox="2.125 4 186.825 18" enable-background="new 2.125 4 186.825 18" xml:space="preserve">
<g id="bkd">
	<path fill="#E89701" d="M188.45,21.5H2.125v-17H188.45V21.5"/>
	<path fill="#E89701" stroke="#673300" stroke-linecap="round" stroke-linejoin="round" d="M188.45,4.5v17H4.125"/>
</g>
<g id="button">
	<g>
		<path fill="#FFE800" d="M20.45,18.25H7.5v-11h12.95V18.25"/>
		<path fill="none" stroke="#CC9900" stroke-linecap="round" stroke-linejoin="round" d="M20.45,7.25v11H7.5"/>
		<path fill="none" stroke="#FFFF00" stroke-linecap="round" stroke-linejoin="round" d="M7.5,18.25v-11h12.95"/>
		<path fill="none" stroke="#663300" stroke-linecap="round" stroke-linejoin="round" d="M10.95,9.2l5.95,5.95"/>
		<path fill="none" stroke="#663300" stroke-linecap="round" stroke-linejoin="round" d="M16.9,9.2l-5.95,5.95"/>
	</g>
</g>
<g id="type">
	<g>
		<path fill="#FFFFFF" d="M30.219,8.464v4.656c0,0.728,0.024,1.208,0.072,1.44c0.072,0.352,0.248,0.634,0.528,0.846
			c0.28,0.212,0.66,0.318,1.14,0.318c0.408,0,0.724-0.064,0.948-0.192s0.388-0.306,0.492-0.534s0.164-0.494,0.18-0.798
			s0.024-0.632,0.024-0.984V8.464h1.74v4.512c0,0.648-0.04,1.232-0.12,1.752s-0.24,0.964-0.48,1.332
			c-0.24,0.368-0.578,0.65-1.014,0.846c-0.437,0.196-1.006,0.294-1.71,0.294c-0.729,0-1.32-0.09-1.776-0.27
			s-0.814-0.444-1.074-0.792c-0.26-0.348-0.438-0.782-0.534-1.302c-0.096-0.52-0.144-1.116-0.144-1.788V8.464H30.219z"/>
		<path fill="#FFFFFF" d="M41.259,17.056v-3.18c0-0.672-0.036-1.104-0.108-1.296c-0.064-0.208-0.18-0.364-0.348-0.468
			s-0.356-0.156-0.564-0.156c-0.328,0-0.584,0.064-0.768,0.192c-0.184,0.128-0.32,0.298-0.408,0.51s-0.14,0.456-0.156,0.732
			c-0.016,0.276-0.024,0.558-0.024,0.846v2.82h-1.644v-6.228h1.524v0.924c0.552-0.704,1.236-1.056,2.052-1.056
			c0.424,0,0.77,0.064,1.038,0.192s0.48,0.304,0.636,0.528c0.156,0.224,0.264,0.488,0.324,0.792c0.06,0.304,0.09,0.632,0.09,0.984
			v3.864H41.259z"/>
		<path fill="#FFFFFF" d="M46.251,10.828v0.852c0.536-0.656,1.184-0.984,1.944-0.984c0.8,0,1.384,0.328,1.752,0.984
			c0.552-0.656,1.184-0.984,1.896-0.984c0.392,0,0.718,0.058,0.978,0.174c0.26,0.116,0.468,0.278,0.624,0.486
			c0.156,0.208,0.268,0.458,0.336,0.75c0.068,0.292,0.102,0.614,0.102,0.966v3.984h-1.644v-3.552c0-0.232-0.006-0.442-0.018-0.63
			c-0.012-0.188-0.046-0.35-0.102-0.486c-0.056-0.136-0.142-0.242-0.258-0.318c-0.116-0.076-0.282-0.114-0.498-0.114
			c-0.272,0-0.488,0.064-0.648,0.192c-0.16,0.128-0.282,0.294-0.366,0.498c-0.084,0.204-0.14,0.43-0.168,0.678
			c-0.028,0.248-0.042,0.496-0.042,0.744v2.988h-1.644v-3.408c0-0.616-0.028-1.008-0.084-1.176
			c-0.064-0.184-0.158-0.316-0.282-0.396s-0.29-0.12-0.498-0.12c-0.288,0-0.514,0.06-0.678,0.18
			c-0.164,0.12-0.288,0.278-0.372,0.474c-0.084,0.196-0.138,0.418-0.162,0.666s-0.036,0.5-0.036,0.756v3.024h-1.644v-6.228H46.251z"
			/>
		<path fill="#FFFFFF" d="M55.827,12.46c0.104-0.336,0.234-0.616,0.39-0.84c0.156-0.224,0.342-0.406,0.558-0.546
			c0.216-0.14,0.468-0.238,0.756-0.294s0.616-0.084,0.984-0.084c0.264,0,0.516,0.01,0.756,0.03c0.24,0.02,0.466,0.062,0.678,0.126
			c0.212,0.064,0.402,0.156,0.57,0.276c0.168,0.12,0.304,0.284,0.408,0.492c0.032,0.056,0.06,0.132,0.084,0.228
			s0.044,0.238,0.06,0.426c0.016,0.188,0.028,0.437,0.036,0.744c0.008,0.308,0.012,0.702,0.012,1.182c0,0.136,0,0.3,0,0.492
			c0,0.192,0.004,0.384,0.012,0.576c0.008,0.192,0.016,0.376,0.024,0.552c0.008,0.176,0.024,0.312,0.048,0.408
			c0.048,0.248,0.144,0.524,0.288,0.828h-1.62c-0.04-0.096-0.092-0.26-0.156-0.492c-0.016-0.048-0.028-0.088-0.036-0.12
			c-0.008-0.032-0.016-0.056-0.024-0.072c-0.56,0.552-1.204,0.828-1.932,0.828c-0.64,0-1.144-0.176-1.512-0.528
			c-0.368-0.344-0.552-0.784-0.552-1.32c0-0.352,0.082-0.666,0.246-0.942c0.164-0.276,0.398-0.482,0.702-0.618
			c0.16-0.08,0.348-0.15,0.564-0.21c0.216-0.06,0.468-0.122,0.756-0.186c0.76-0.144,1.292-0.276,1.596-0.396v-0.168
			c0-0.36-0.092-0.596-0.276-0.708c-0.184-0.112-0.464-0.168-0.84-0.168c-0.296,0-0.526,0.056-0.69,0.168
			c-0.164,0.112-0.298,0.316-0.402,0.612L55.827,12.46z M59.109,14.188c-0.164,0.041-0.362,0.084-0.594,0.132
			c-0.168,0.032-0.324,0.068-0.468,0.108s-0.272,0.09-0.384,0.15s-0.2,0.138-0.264,0.234c-0.064,0.096-0.096,0.22-0.096,0.372
			c0,0.256,0.09,0.462,0.27,0.618c0.18,0.156,0.394,0.234,0.642,0.234c0.248,0,0.456-0.042,0.624-0.126s0.302-0.202,0.402-0.354
			s0.172-0.328,0.216-0.528c0.044-0.2,0.066-0.412,0.066-0.636v-0.324C59.411,14.108,59.273,14.148,59.109,14.188z"/>
		<path fill="#FFFFFF" d="M63.315,17.056v-6.228h1.524v0.888c0.264-0.4,0.5-0.676,0.708-0.828c0.208-0.128,0.448-0.192,0.72-0.192
			c0.368,0,0.728,0.104,1.08,0.312l-0.516,1.428c-0.272-0.176-0.528-0.264-0.768-0.264c-0.248,0-0.446,0.068-0.594,0.204
			c-0.148,0.136-0.26,0.342-0.336,0.618c-0.076,0.276-0.124,0.62-0.144,1.032s-0.03,0.894-0.03,1.446v1.584H63.315z"/>
		<path fill="#FFFFFF" d="M68.847,8.464h1.644v4.56l1.932-2.196h2.028l-2.136,2.28l2.28,3.948h-1.776l-1.56-2.796l-0.768,0.804
			v1.992h-1.644V8.464z"/>
	</g>
</g>
<g id="Layer_1">
</g>
</svg>
