<?xml version="1.0" encoding="utf-8"?>
<!-- Generator: Adobe Illustrator 16.0.4, SVG Export Plug-In . SVG Version: 6.00 Build 0)  -->
<!DOCTYPE svg PUBLIC "-//W3C//DTD SVG 1.1//EN" "http://www.w3.org/Graphics/SVG/1.1/DTD/svg11.dtd">
<svg version="1.1" xmlns="http://www.w3.org/2000/svg" xmlns:xlink="http://www.w3.org/1999/xlink" x="0px" y="0px" width="31px"
	 height="21px" viewBox="0 0 31 21" enable-background="new 0 0 31 21" xml:space="preserve">
<g id="bkd">
	<rect id="on" x="0.5" y="1" fill="#C1DBEE" width="29.5" height="19"/>
	<rect id="off" x="0.5" y="1" fill="#DCDED9" width="29.5" height="19"/>
	<path id="border" fill="#C4C4C4" d="M30.5,21h-30C0.224,21,0,20.776,0,20.5S0.224,20,0.5,20H30V1H0.5C0.224,1,0,0.776,0,0.5
		S0.224,0,0.5,0h30C30.776,0,31,0.224,31,0.5v20C31,20.776,30.776,21,30.5,21z"/>
</g>
<g id="ruler">
	<linearGradient id="SVGID_1_" gradientUnits="userSpaceOnUse" x1="15.4341" y1="10.2373" x2="15.4341" y2="18.1582">
		<stop  offset="0" style="stop-color:#F4F49A"/>
		<stop  offset="0.1806" style="stop-color:#F3F095"/>
		<stop  offset="0.3883" style="stop-color:#F0E687"/>
		<stop  offset="0.6094" style="stop-color:#ECD570"/>
		<stop  offset="0.8384" style="stop-color:#E6BD50"/>
		<stop  offset="1" style="stop-color:#E1A935"/>
	</linearGradient>
	<rect x="3.915" y="10.237" fill-rule="evenodd" clip-rule="evenodd" fill="url(#SVGID_1_)" width="23.039" height="7.921"/>
	<g id="tickmarks_x5F_inches_x5F_half" display="none">
		
			<line display="inline" fill-rule="evenodd" clip-rule="evenodd" fill="none" stroke="#996600" stroke-width="0.875" stroke-linecap="round" stroke-miterlimit="10" x1="12.555" y1="10.237" x2="12.555" y2="14.558"/>
		
			<line display="inline" fill-rule="evenodd" clip-rule="evenodd" fill="none" stroke="#996600" stroke-width="0.875" stroke-linecap="round" stroke-miterlimit="10" x1="21.194" y1="10.237" x2="21.194" y2="14.558"/>
	</g>
	<g id="tickmarks_x5F_inches_x5F_eighth" display="none">
		
			<line display="inline" fill-rule="evenodd" clip-rule="evenodd" fill="none" stroke="#996600" stroke-width="0.875" stroke-linecap="round" stroke-miterlimit="10" x1="8.234" y1="10.362" x2="8.234" y2="14.683"/>
		
			<line display="inline" fill-rule="evenodd" clip-rule="evenodd" fill="none" stroke="#996600" stroke-width="0.875" stroke-linecap="round" stroke-miterlimit="10" x1="12.555" y1="10.362" x2="12.555" y2="14.683"/>
		
			<line display="inline" fill-rule="evenodd" clip-rule="evenodd" fill="none" stroke="#996600" stroke-width="0.875" stroke-linecap="round" stroke-miterlimit="10" x1="16.874" y1="10.362" x2="16.874" y2="14.683"/>
		
			<line display="inline" fill-rule="evenodd" clip-rule="evenodd" fill="none" stroke="#996600" stroke-width="0.875" stroke-linecap="round" stroke-miterlimit="10" x1="21.194" y1="10.362" x2="21.194" y2="14.683"/>
		
			<line display="inline" fill-rule="evenodd" clip-rule="evenodd" fill="none" stroke="#996600" stroke-width="0.875" stroke-linecap="round" stroke-miterlimit="10" x1="25.515" y1="10.362" x2="25.515" y2="14.683"/>
	</g>
	<g id="tickmarks_x5F_cm_1_" display="none">
		
			<line display="inline" fill-rule="evenodd" clip-rule="evenodd" fill="none" stroke="#996600" stroke-width="0.875" stroke-linecap="round" stroke-miterlimit="10" x1="15.435" y1="10.237" x2="15.435" y2="14.558"/>
		
			<line display="inline" fill-rule="evenodd" clip-rule="evenodd" fill="none" stroke="#996600" stroke-width="0.875" stroke-linecap="round" stroke-miterlimit="10" x1="21.194" y1="10.237" x2="21.194" y2="14.558"/>
		
			<line display="inline" fill-rule="evenodd" clip-rule="evenodd" fill="none" stroke="#996600" stroke-width="0.875" stroke-linecap="round" stroke-miterlimit="10" x1="9.675" y1="10.237" x2="9.675" y2="14.558"/>
	</g>
	<g id="tickmarks_x5F_mm_1_" display="none">
		
			<line display="inline" fill-rule="evenodd" clip-rule="evenodd" fill="none" stroke="#996600" stroke-width="0.875" stroke-linecap="round" stroke-miterlimit="10" x1="15.435" y1="10.237" x2="15.435" y2="14.558"/>
		
			<line display="inline" fill-rule="evenodd" clip-rule="evenodd" fill="none" stroke="#996600" stroke-width="0.875" stroke-linecap="round" stroke-miterlimit="10" x1="21.194" y1="10.237" x2="21.194" y2="14.558"/>
		
			<line display="inline" fill-rule="evenodd" clip-rule="evenodd" fill="none" stroke="#996600" stroke-width="0.875" stroke-linecap="round" stroke-miterlimit="10" x1="24.075" y1="10.237" x2="24.075" y2="14.558"/>
		
			<line display="inline" fill-rule="evenodd" clip-rule="evenodd" fill="none" stroke="#996600" stroke-width="0.875" stroke-linecap="round" stroke-miterlimit="10" x1="9.675" y1="10.237" x2="9.675" y2="14.558"/>
		<g id="tickmark_x5F_eighth_1_" display="inline">
			
				<line fill-rule="evenodd" clip-rule="evenodd" fill="none" stroke="#996600" stroke-width="0.875" stroke-linecap="round" stroke-miterlimit="10" x1="12.555" y1="10.237" x2="12.555" y2="14.558"/>
			
				<line fill-rule="evenodd" clip-rule="evenodd" fill="none" stroke="#996600" stroke-width="0.875" stroke-linecap="round" stroke-miterlimit="10" x1="18.314" y1="10.237" x2="18.314" y2="14.558"/>
			
				<line fill-rule="evenodd" clip-rule="evenodd" fill="none" stroke="#996600" stroke-width="0.875" stroke-linecap="round" stroke-miterlimit="10" x1="6.795" y1="10.237" x2="6.795" y2="14.558"/>
		</g>
	</g>
	
		<polyline id="border_1_" fill-rule="evenodd" clip-rule="evenodd" fill="none" stroke="#C69200" stroke-linecap="round" stroke-linejoin="round" stroke-miterlimit="10" points="
		26.954,10.237 3.915,10.237 3.915,18.158 26.954,18.158 	"/>
</g>
<g id="type_x5F_inches_x5F_half" display="none">
	<g display="inline">
		<path d="M10.729,3.049c-0.166,0.16-0.389,0.32-0.672,0.48c-0.139,0.084-0.27,0.156-0.392,0.215S9.428,3.854,9.321,3.896v-0.68
			c0.395-0.188,0.739-0.41,1.032-0.672c0.144-0.133,0.269-0.264,0.376-0.393c0.106-0.127,0.189-0.252,0.248-0.375h0.456v5.752
			h-0.704V3.049z"/>
		<path d="M17.598,0.873h0.77l-5.38,7.561h-0.76L17.598,0.873z"/>
		<path d="M18.38,2.305c0.08-0.068,0.184-0.137,0.312-0.199c0.128-0.064,0.267-0.121,0.416-0.172s0.303-0.092,0.46-0.121
			s0.306-0.043,0.444-0.043c0.314,0,0.6,0.035,0.856,0.107c0.256,0.072,0.473,0.178,0.651,0.316s0.316,0.307,0.412,0.504
			s0.144,0.422,0.144,0.672c0,0.213-0.041,0.418-0.123,0.615c-0.083,0.197-0.192,0.387-0.328,0.568
			c-0.137,0.182-0.292,0.355-0.469,0.523c-0.176,0.168-0.357,0.332-0.544,0.488c-0.187,0.158-0.369,0.311-0.548,0.461
			c-0.179,0.148-0.343,0.299-0.492,0.447C19.513,6.537,19.46,6.6,19.412,6.66c-0.049,0.062-0.094,0.127-0.137,0.197h2.809v0.672
			H18.3c0-0.182,0.026-0.344,0.08-0.488c0.101-0.262,0.256-0.516,0.464-0.76c0.128-0.15,0.277-0.301,0.448-0.453
			c0.17-0.15,0.349-0.307,0.536-0.463c0.187-0.158,0.37-0.318,0.552-0.48c0.181-0.162,0.345-0.328,0.492-0.496
			c0.146-0.168,0.264-0.338,0.352-0.512s0.132-0.348,0.132-0.523c0-0.299-0.107-0.541-0.324-0.725
			c-0.216-0.184-0.561-0.275-1.035-0.275c-0.075,0-0.163,0.01-0.265,0.031s-0.204,0.049-0.308,0.084
			c-0.104,0.035-0.2,0.072-0.288,0.111c-0.088,0.041-0.156,0.082-0.204,0.125L18.38,2.305z"/>
	</g>
</g>
<g id="type_x5F_inches_x5F_eighth" display="none">
	<g display="inline">
		<path d="M10.743,3.049c-0.166,0.16-0.389,0.32-0.672,0.48c-0.139,0.084-0.27,0.156-0.392,0.215S9.442,3.854,9.335,3.896v-0.68
			c0.395-0.188,0.739-0.41,1.032-0.672c0.144-0.133,0.269-0.264,0.376-0.393c0.106-0.127,0.189-0.252,0.248-0.375h0.456v5.752
			h-0.704V3.049z"/>
		<path d="M17.611,0.873h0.77l-5.38,7.561h-0.76L17.611,0.873z"/>
		<path d="M19.202,4.426c-0.576-0.219-0.864-0.609-0.864-1.17c0-0.416,0.149-0.768,0.448-1.055c0.314-0.283,0.715-0.424,1.2-0.424
			c0.512,0,0.915,0.146,1.208,0.439c0.304,0.287,0.456,0.641,0.456,1.057c0,0.555-0.283,0.938-0.848,1.152
			c0.352,0.117,0.619,0.303,0.804,0.555c0.184,0.254,0.275,0.557,0.275,0.908c0,0.496-0.173,0.91-0.52,1.24
			s-0.803,0.496-1.368,0.496c-0.549,0-1.005-0.166-1.368-0.496c-0.341-0.336-0.512-0.754-0.512-1.256
			c0-0.373,0.094-0.686,0.28-0.936C18.581,4.686,18.851,4.516,19.202,4.426z M18.834,5.873c0,0.191,0.046,0.387,0.137,0.584
			c0.101,0.188,0.245,0.334,0.432,0.439c0.182,0.102,0.381,0.152,0.6,0.152c0.336,0,0.613-0.109,0.832-0.328
			c0.219-0.203,0.328-0.477,0.328-0.824c0-0.336-0.111-0.615-0.336-0.84c-0.234-0.219-0.518-0.328-0.848-0.328
			c-0.315,0-0.59,0.109-0.824,0.328C18.941,5.275,18.834,5.547,18.834,5.873z M19.059,3.232c0,0.268,0.088,0.488,0.264,0.664
			c0.187,0.172,0.413,0.256,0.68,0.256c0.257,0,0.478-0.084,0.664-0.256c0.177-0.17,0.265-0.379,0.265-0.623
			c0-0.252-0.091-0.467-0.272-0.648c-0.176-0.176-0.397-0.264-0.664-0.264c-0.277,0-0.501,0.084-0.672,0.256
			C19.146,2.781,19.059,2.988,19.059,3.232z"/>
	</g>
</g>
<g id="type_x5F_cm" display="none">
	<g display="inline">
		<path d="M13.243,6.635c-0.111,0.213-0.251,0.395-0.419,0.543c-0.168,0.15-0.362,0.266-0.585,0.348
			c-0.222,0.08-0.462,0.121-0.72,0.121c-0.348,0-0.655-0.061-0.922-0.18c-0.267-0.121-0.489-0.289-0.666-0.504
			c-0.177-0.217-0.311-0.473-0.4-0.77C9.44,5.896,9.396,5.574,9.396,5.225c0-0.371,0.045-0.709,0.135-1.012
			c0.09-0.303,0.225-0.561,0.405-0.773c0.18-0.213,0.402-0.379,0.666-0.496s0.57-0.174,0.918-0.174c0.51,0,0.926,0.127,1.247,0.381
			c0.32,0.256,0.526,0.621,0.616,1.094l-0.766,0.117c-0.071-0.324-0.199-0.562-0.382-0.715c-0.184-0.154-0.41-0.23-0.68-0.23
			c-0.246,0-0.455,0.047-0.625,0.141c-0.171,0.092-0.311,0.221-0.418,0.383c-0.108,0.16-0.186,0.35-0.234,0.566
			c-0.048,0.215-0.072,0.447-0.072,0.693s0.021,0.477,0.063,0.691c0.042,0.217,0.114,0.406,0.216,0.568
			c0.102,0.162,0.237,0.291,0.405,0.387s0.375,0.145,0.621,0.145c0.312,0,0.571-0.096,0.778-0.283
			c0.207-0.189,0.338-0.482,0.392-0.879l0.783,0.1C13.428,6.186,13.354,6.422,13.243,6.635z"/>
		<path d="M15.345,2.867v0.658c0.144-0.229,0.337-0.412,0.58-0.551c0.243-0.137,0.521-0.205,0.833-0.205
			c0.689,0,1.128,0.271,1.313,0.818c0.366-0.547,0.846-0.818,1.44-0.818c0.468,0,0.826,0.123,1.075,0.373
			c0.249,0.248,0.373,0.646,0.373,1.191v3.205h-0.792V4.596c0-0.156-0.01-0.305-0.031-0.445c-0.021-0.141-0.062-0.264-0.121-0.365
			c-0.061-0.102-0.145-0.182-0.252-0.242c-0.108-0.061-0.249-0.09-0.423-0.09c-0.396,0-0.686,0.125-0.869,0.377
			c-0.183,0.252-0.274,0.586-0.274,1v2.709h-0.792V4.506c0-0.359-0.064-0.625-0.193-0.797s-0.341-0.256-0.635-0.256
			c-0.233,0-0.426,0.047-0.576,0.143c-0.149,0.098-0.269,0.223-0.355,0.379S15.5,4.307,15.471,4.506
			c-0.03,0.197-0.045,0.402-0.045,0.611v2.422h-0.792V2.867H15.345z"/>
	</g>
</g>
<g id="type_x5F_mm" display="none">
	<g display="inline">
		<path d="M8.671,2.867v0.658c0.144-0.229,0.338-0.412,0.581-0.551C9.495,2.838,9.772,2.77,10.084,2.77
			c0.69,0,1.128,0.271,1.314,0.818c0.366-0.547,0.846-0.818,1.441-0.818c0.467,0,0.826,0.123,1.074,0.373
			c0.25,0.248,0.373,0.646,0.373,1.191v3.205h-0.791V4.596c0-0.156-0.01-0.305-0.031-0.445s-0.062-0.264-0.121-0.365
			c-0.061-0.102-0.145-0.182-0.252-0.242c-0.109-0.061-0.25-0.09-0.424-0.09c-0.396,0-0.686,0.125-0.868,0.377
			c-0.183,0.252-0.275,0.586-0.275,1v2.709h-0.792V4.506c0-0.359-0.064-0.625-0.193-0.797s-0.34-0.256-0.634-0.256
			c-0.234,0-0.426,0.047-0.576,0.143C9.178,3.693,9.06,3.818,8.973,3.975S8.827,4.307,8.797,4.506
			c-0.03,0.197-0.045,0.402-0.045,0.611v2.422H7.96V2.867H8.671z"/>
		<path d="M16.843,2.867v0.658c0.144-0.229,0.337-0.412,0.58-0.551c0.243-0.137,0.521-0.205,0.833-0.205
			c0.689,0,1.128,0.271,1.313,0.818c0.366-0.547,0.846-0.818,1.44-0.818c0.468,0,0.826,0.123,1.075,0.373
			c0.249,0.248,0.373,0.646,0.373,1.191v3.205h-0.792V4.596c0-0.156-0.01-0.305-0.031-0.445c-0.021-0.141-0.062-0.264-0.121-0.365
			c-0.061-0.102-0.145-0.182-0.252-0.242c-0.108-0.061-0.249-0.09-0.423-0.09c-0.396,0-0.686,0.125-0.869,0.377
			c-0.183,0.252-0.274,0.586-0.274,1v2.709h-0.792V4.506c0-0.359-0.064-0.625-0.193-0.797s-0.341-0.256-0.635-0.256
			c-0.233,0-0.426,0.047-0.576,0.143c-0.149,0.098-0.269,0.223-0.355,0.379s-0.146,0.332-0.175,0.531
			c-0.03,0.197-0.045,0.402-0.045,0.611v2.422h-0.792V2.867H16.843z"/>
	</g>
</g>
<g id="type_x5F_straight">
	<g>
		<path d="M2.886,6.83c0.179,0.146,0.428,0.221,0.748,0.221c0.123,0,0.24-0.012,0.352-0.037C4.099,6.99,4.2,6.953,4.291,6.902
			c0.09-0.051,0.163-0.119,0.216-0.203c0.053-0.086,0.08-0.188,0.08-0.305c0-0.102-0.02-0.186-0.06-0.252s-0.095-0.119-0.164-0.16
			C4.293,5.943,4.209,5.91,4.11,5.883S3.906,5.832,3.794,5.811c-0.219-0.043-0.436-0.09-0.652-0.145
			C2.926,5.613,2.732,5.539,2.559,5.443C2.385,5.346,2.245,5.223,2.139,5.07c-0.107-0.152-0.16-0.346-0.16-0.58
			c0-0.203,0.042-0.379,0.128-0.527c0.085-0.15,0.197-0.273,0.336-0.373c0.139-0.098,0.301-0.172,0.488-0.219
			c0.187-0.049,0.378-0.072,0.576-0.072c0.336,0,0.624,0.047,0.864,0.141c0.24,0.092,0.421,0.219,0.544,0.379
			c0.117,0.16,0.197,0.373,0.24,0.641L4.466,4.555c-0.032-0.213-0.123-0.381-0.272-0.5s-0.36-0.18-0.632-0.18
			c-0.112,0-0.221,0.008-0.328,0.023C3.128,3.914,3.032,3.943,2.946,3.982C2.861,4.023,2.792,4.078,2.738,4.146
			c-0.053,0.07-0.08,0.158-0.08,0.264c0,0.113,0.029,0.201,0.088,0.268c0.059,0.068,0.134,0.121,0.228,0.16
			c0.093,0.041,0.197,0.074,0.312,0.102c0.114,0.025,0.23,0.055,0.348,0.088c0.176,0.047,0.337,0.088,0.484,0.119
			c0.146,0.031,0.282,0.07,0.408,0.115c0.125,0.047,0.239,0.104,0.34,0.174c0.101,0.068,0.192,0.162,0.272,0.279
			C5.25,5.863,5.307,6.066,5.307,6.322c0,0.225-0.049,0.42-0.148,0.584C5.06,7.072,4.932,7.209,4.774,7.318s-0.336,0.189-0.536,0.24
			c-0.2,0.051-0.401,0.076-0.604,0.076c-0.544,0-0.956-0.111-1.236-0.332S1.941,6.746,1.867,6.299l0.696-0.104
			C2.6,6.473,2.708,6.684,2.886,6.83z"/>
		<path d="M7.659,7.578C7.571,7.59,7.487,7.594,7.407,7.594c-0.256,0-0.454-0.039-0.592-0.119s-0.237-0.188-0.296-0.32
			C6.46,7.027,6.431,6.75,6.431,6.322V3.939H5.919V3.387h0.512V2.363l0.696-0.424v1.447h0.712v0.553H7.127v2.424
			c0,0.186,0.013,0.314,0.04,0.383c0.032,0.076,0.079,0.125,0.14,0.152c0.061,0.027,0.135,0.041,0.22,0.041
			c0.042,0,0.089-0.004,0.14-0.01c0.051-0.004,0.108-0.012,0.172-0.023l0.104,0.625C7.842,7.553,7.747,7.568,7.659,7.578z"/>
		<path d="M8.695,3.387h0.632V4.02C9.482,3.73,9.631,3.535,9.775,3.436c0.139-0.092,0.288-0.137,0.448-0.137
			c0.24,0,0.482,0.074,0.728,0.225l-0.248,0.654c-0.166-0.1-0.336-0.15-0.512-0.15c-0.155,0-0.292,0.045-0.412,0.135
			C9.66,4.254,9.57,4.381,9.511,4.547C9.437,4.803,9.399,5.078,9.399,5.371v2.168H8.695V3.387z"/>
		<path d="M14.369,7.027c-0.245,0.219-0.496,0.375-0.752,0.471c-0.256,0.092-0.515,0.137-0.776,0.137
			c-0.448,0-0.797-0.111-1.048-0.336c-0.246-0.225-0.368-0.51-0.368-0.855c0-0.156,0.027-0.299,0.08-0.43
			c0.053-0.129,0.125-0.246,0.216-0.348c0.091-0.102,0.197-0.188,0.32-0.26c0.122-0.072,0.253-0.123,0.392-0.156
			c0.117-0.025,0.269-0.053,0.452-0.08c0.185-0.025,0.369-0.053,0.557-0.08c0.187-0.025,0.36-0.055,0.523-0.084
			s0.278-0.062,0.348-0.1V4.723c0-0.287-0.063-0.49-0.191-0.607c-0.182-0.16-0.451-0.24-0.809-0.24
			c-0.319,0-0.562,0.059-0.728,0.176c-0.16,0.117-0.277,0.322-0.352,0.615L11.545,4.57c0.064-0.293,0.167-0.531,0.308-0.711
			c0.141-0.182,0.348-0.32,0.62-0.416c0.272-0.098,0.587-0.145,0.944-0.145s0.646,0.041,0.864,0.123
			c0.219,0.084,0.381,0.189,0.487,0.316c0.102,0.129,0.174,0.285,0.217,0.473c0.01,0.064,0.02,0.148,0.027,0.256
			s0.013,0.24,0.013,0.4v0.936c0,0.326,0.004,0.59,0.012,0.795c0.008,0.207,0.017,0.354,0.028,0.445
			c0.016,0.086,0.038,0.17,0.067,0.252s0.068,0.164,0.116,0.244h-0.736C14.438,7.395,14.391,7.225,14.369,7.027z M13.161,5.723
			c-0.288,0.043-0.491,0.09-0.608,0.145c-0.117,0.047-0.211,0.123-0.28,0.223c-0.063,0.102-0.096,0.215-0.096,0.336
			c0,0.188,0.071,0.344,0.212,0.469c0.142,0.125,0.349,0.188,0.62,0.188c0.448,0,0.777-0.127,0.988-0.379
			c0.211-0.254,0.315-0.584,0.315-0.988V5.459C14.057,5.561,13.673,5.648,13.161,5.723z"/>
		<path d="M16.209,2.203c0-0.113,0.039-0.207,0.116-0.285c0.077-0.076,0.172-0.115,0.284-0.115s0.206,0.039,0.284,0.115
			c0.077,0.078,0.115,0.172,0.115,0.285c0,0.111-0.038,0.207-0.115,0.283c-0.078,0.078-0.172,0.117-0.284,0.117
			s-0.207-0.039-0.284-0.117C16.248,2.41,16.209,2.314,16.209,2.203z M16.969,7.539h-0.703V3.387c0.031,0.01,0.078,0.025,0.14,0.043
			c0.062,0.02,0.132,0.029,0.212,0.029s0.156-0.012,0.228-0.033c0.072-0.02,0.113-0.033,0.124-0.039V7.539z"/>
		<path d="M18.703,9.219l0.16-0.576h0.944c0.336,0,0.591-0.064,0.764-0.191c0.174-0.129,0.292-0.312,0.356-0.553
			c0.031-0.145,0.048-0.445,0.048-0.904c-0.315,0.363-0.699,0.545-1.152,0.545c-0.293,0-0.552-0.059-0.775-0.176
			c-0.225-0.117-0.411-0.273-0.561-0.465s-0.263-0.414-0.34-0.668s-0.116-0.516-0.116-0.787c0-0.277,0.037-0.545,0.112-0.801
			c0.074-0.256,0.187-0.484,0.336-0.684c0.149-0.201,0.337-0.361,0.563-0.48s0.489-0.18,0.788-0.18c0.491,0,0.894,0.197,1.208,0.592
			V3.387h0.648v3.592c0,0.348-0.029,0.658-0.088,0.936s-0.16,0.512-0.305,0.705c-0.144,0.191-0.336,0.34-0.575,0.443
			c-0.24,0.104-0.542,0.156-0.904,0.156H18.703z M18.76,5.387c0,0.213,0.02,0.414,0.06,0.604s0.104,0.355,0.192,0.5
			s0.204,0.258,0.348,0.34c0.144,0.084,0.322,0.125,0.536,0.125c0.208,0,0.384-0.041,0.528-0.125
			c0.144-0.082,0.261-0.193,0.352-0.332s0.156-0.301,0.196-0.488c0.04-0.186,0.06-0.387,0.06-0.6c0-0.203-0.022-0.396-0.067-0.58
			c-0.046-0.184-0.115-0.346-0.208-0.488c-0.094-0.141-0.213-0.254-0.356-0.34c-0.144-0.084-0.317-0.127-0.521-0.127
			c-0.197,0-0.366,0.041-0.508,0.123c-0.141,0.084-0.257,0.195-0.348,0.336c-0.091,0.143-0.157,0.303-0.2,0.484
			S18.76,5.189,18.76,5.387z"/>
		<path d="M23.563,1.811v2.057c0.33-0.379,0.743-0.568,1.239-0.568c0.277,0,0.508,0.039,0.692,0.115
			c0.184,0.078,0.33,0.188,0.439,0.328c0.109,0.143,0.188,0.311,0.232,0.508s0.068,0.416,0.068,0.656v2.633h-0.704V4.906
			c0-0.352-0.073-0.607-0.221-0.768c-0.146-0.16-0.363-0.24-0.651-0.24c-0.203,0-0.373,0.037-0.512,0.111
			c-0.14,0.076-0.252,0.174-0.341,0.297c-0.088,0.123-0.15,0.268-0.188,0.432c-0.037,0.166-0.056,0.342-0.056,0.527v2.273h-0.704
			V1.811H23.563z"/>
		<path d="M28.871,7.578c-0.088,0.012-0.172,0.016-0.252,0.016c-0.256,0-0.453-0.039-0.592-0.119s-0.237-0.188-0.296-0.32
			c-0.059-0.127-0.088-0.404-0.088-0.832V3.939h-0.512V3.387h0.512V2.363l0.696-0.424v1.447h0.712v0.553H28.34v2.424
			c0,0.186,0.013,0.314,0.04,0.383c0.031,0.076,0.078,0.125,0.14,0.152s0.135,0.041,0.22,0.041c0.043,0,0.09-0.004,0.141-0.01
			c0.05-0.004,0.107-0.012,0.172-0.023l0.104,0.625C29.054,7.553,28.96,7.568,28.871,7.578z"/>
	</g>
</g>
<g id="disabled" display="none">
	<rect x="0.5" y="1" display="inline" opacity="0.55" fill="#AFAFAF" width="29.5" height="19"/>
	<path display="inline" opacity="0.55" fill="#C4C4C4" d="M30.5,21h-30C0.224,21,0,20.776,0,20.5S0.224,20,0.5,20H30V1H0.5
		C0.224,1,0,0.776,0,0.5S0.224,0,0.5,0h30C30.776,0,31,0.224,31,0.5v20C31,20.776,30.776,21,30.5,21z"/>
</g>
</svg>
