<?xml version="1.0" encoding="utf-8"?>
<!-- Generator: Adobe Illustrator 16.0.4, SVG Export Plug-In . SVG Version: 6.00 Build 0)  -->
<!DOCTYPE svg PUBLIC "-//W3C//DTD SVG 1.1//EN" "http://www.w3.org/Graphics/SVG/1.1/DTD/svg11.dtd">
<svg version="1.1" id="dragger_x5F_over" xmlns="http://www.w3.org/2000/svg" xmlns:xlink="http://www.w3.org/1999/xlink" x="0px"
	 y="0px" width="21px" height="24px" viewBox="0 0 21 24" enable-background="new 0 0 21 24" xml:space="preserve">
<path fill-rule="evenodd" clip-rule="evenodd" fill="#FFFFFF" stroke="#000000" stroke-width="0.75" stroke-linecap="round" stroke-linejoin="round" stroke-miterlimit="10" d="
	M14.632,21H7.233c0,0,0-2.125,0-2.5s-0.212-1.915-1.15-2.915s-2.266-2.328-2.509-2.998c-0.34-0.936-0.154-1.837,0.471-2.274
	s1.774,0.211,2.438,1.25c0.232,0.363,0.644,0.584,0.875,0c0.234-0.591-1.04-3.594-1.403-4.651C5.254,4.871,7.549,3.744,8.42,5.625
	c0.703,1.52,1.125,4.5,1.125,4.5s0-4.5,0-5.25s0.53-1.705,1.405-1.705c0.875,0,1.408,0.701,1.408,1.58c0,0.5,0,5.25,0,5.25
	s-0.051-3.594,0.047-4.41c0.132-1.102,0.969-1.618,1.656-1.493s1.105,1.145,1.07,1.966c-0.044,1.04-0.312,4.688-0.312,4.688
	s0.07-2.08,0.272-2.93s0.801-1.288,1.551-1.101S17.5,7.938,17.5,8.625s-0.125,5.625-0.812,7.062S14.632,21,14.632,21z"/>
<g>
</g>
<g>
</g>
<g>
</g>
<g>
</g>
<g>
</g>
<g>
</g>
</svg>
