<?xml version="1.0" encoding="utf-8"?>
<!-- Generator: Adobe Illustrator 16.0.4, SVG Export Plug-In . SVG Version: 6.00 Build 0)  -->
<!DOCTYPE svg PUBLIC "-//W3C//DTD SVG 1.1//EN" "http://www.w3.org/Graphics/SVG/1.1/DTD/svg11.dtd">
<svg version="1.1" xmlns="http://www.w3.org/2000/svg" xmlns:xlink="http://www.w3.org/1999/xlink" x="0px" y="0px" width="84px"
	 height="24px" viewBox="0 0 84 24" enable-background="new 0 0 84 24" xml:space="preserve">
<g id="body">
	<g>
		<polygon fill="#7384EA" points="75.413,5.409 73.9,3.9 10.099,3.9 10.582,5.431 75.432,5.431 		"/>
	</g>
	<g>
		<polygon fill="#3949AA" points="10.099,20.1 2,11.999 4.168,11.999 10.957,18.566 		"/>
	</g>
	<g>
		<polygon fill="#161699" points="73.268,18.564 79.83,11.999 82,11.999 73.9,20.098 10.099,20.098 10.957,18.557 		"/>
	</g>
	<g>
		<polygon fill="#A5A5F2" points="10.099,3.9 2,11.999 4.168,11.999 10.582,5.431 		"/>
	</g>
	<g>
		<polygon fill="#7384EA" points="73.903,3.9 82,11.999 79.833,11.999 73.268,5.431 		"/>
	</g>
	<polygon fill="#4343FF" points="10.734,18.939 3.637,12 10.469,5.166 73.268,5.056 80.361,11.997 73.423,18.939 	"/>
</g>
<g id="indents">
	<g>
		
			<line fill="none" stroke="#7384EA" stroke-width="1.666" stroke-linecap="round" stroke-miterlimit="10" x1="12.038" y1="17.014" x2="12.038" y2="7.324"/>
		
			<line fill="none" stroke="#161699" stroke-width="1.3333" stroke-linecap="round" stroke-miterlimit="10" x1="11.782" y1="16.857" x2="11.782" y2="7.046"/>
	</g>
	<g>
		
			<line fill="none" stroke="#7384EA" stroke-width="1.666" stroke-linecap="round" stroke-miterlimit="10" x1="9.038" y1="15.264" x2="9.038" y2="9.574"/>
		
			<line fill="none" stroke="#161699" stroke-width="1.3333" stroke-linecap="round" stroke-miterlimit="10" x1="8.782" y1="15.107" x2="8.782" y2="9.296"/>
	</g>
	<g>
		
			<line fill="none" stroke="#7384EA" stroke-width="1.666" stroke-linecap="round" stroke-miterlimit="10" x1="15.038" y1="17.014" x2="15.038" y2="7.324"/>
		
			<line fill="none" stroke="#161699" stroke-width="1.3333" stroke-linecap="round" stroke-miterlimit="10" x1="14.782" y1="16.857" x2="14.782" y2="7.046"/>
	</g>
	<g>
		
			<line fill="none" stroke="#7384EA" stroke-width="1.666" stroke-linecap="round" stroke-miterlimit="10" x1="18.038" y1="17.014" x2="18.038" y2="7.324"/>
		
			<line fill="none" stroke="#161699" stroke-width="1.3333" stroke-linecap="round" stroke-miterlimit="10" x1="17.782" y1="16.857" x2="17.782" y2="7.046"/>
	</g>
	<g>
		
			<line fill="none" stroke="#7384EA" stroke-width="1.666" stroke-linecap="round" stroke-miterlimit="10" x1="21.038" y1="17.014" x2="21.038" y2="7.324"/>
		
			<line fill="none" stroke="#161699" stroke-width="1.3333" stroke-linecap="round" stroke-miterlimit="10" x1="20.782" y1="16.857" x2="20.782" y2="7.046"/>
	</g>
	<g>
		
			<line fill="none" stroke="#7384EA" stroke-width="1.666" stroke-linecap="round" stroke-miterlimit="10" x1="24.038" y1="17.014" x2="24.038" y2="7.324"/>
		
			<line fill="none" stroke="#161699" stroke-width="1.3333" stroke-linecap="round" stroke-miterlimit="10" x1="23.782" y1="16.857" x2="23.782" y2="7.046"/>
	</g>
	<g>
		
			<line fill="none" stroke="#7384EA" stroke-width="1.666" stroke-linecap="round" stroke-miterlimit="10" x1="27.038" y1="17.014" x2="27.038" y2="7.324"/>
		
			<line fill="none" stroke="#161699" stroke-width="1.3333" stroke-linecap="round" stroke-miterlimit="10" x1="26.782" y1="16.857" x2="26.782" y2="7.046"/>
	</g>
	<g>
		
			<line fill="none" stroke="#7384EA" stroke-width="1.666" stroke-linecap="round" stroke-miterlimit="10" x1="30.038" y1="17.014" x2="30.038" y2="7.324"/>
		
			<line fill="none" stroke="#161699" stroke-width="1.3333" stroke-linecap="round" stroke-miterlimit="10" x1="29.782" y1="16.857" x2="29.782" y2="7.046"/>
	</g>
	<g>
		
			<line fill="none" stroke="#7384EA" stroke-width="1.666" stroke-linecap="round" stroke-miterlimit="10" x1="33.038" y1="17.014" x2="33.038" y2="7.324"/>
		
			<line fill="none" stroke="#161699" stroke-width="1.3333" stroke-linecap="round" stroke-miterlimit="10" x1="32.782" y1="16.857" x2="32.782" y2="7.046"/>
	</g>
	<g>
		
			<line fill="none" stroke="#7384EA" stroke-width="1.666" stroke-linecap="round" stroke-miterlimit="10" x1="36.038" y1="17.014" x2="36.038" y2="7.324"/>
		
			<line fill="none" stroke="#161699" stroke-width="1.3333" stroke-linecap="round" stroke-miterlimit="10" x1="35.782" y1="16.857" x2="35.782" y2="7.046"/>
	</g>
	<g>
		
			<line fill="none" stroke="#7384EA" stroke-width="1.666" stroke-linecap="round" stroke-miterlimit="10" x1="39.038" y1="17.014" x2="39.038" y2="7.324"/>
		
			<line fill="none" stroke="#161699" stroke-width="1.3333" stroke-linecap="round" stroke-miterlimit="10" x1="38.782" y1="16.857" x2="38.782" y2="7.046"/>
	</g>
	<g>
		
			<line fill="none" stroke="#7384EA" stroke-width="1.666" stroke-linecap="round" stroke-miterlimit="10" x1="42.037" y1="17.014" x2="42.037" y2="7.324"/>
		
			<line fill="none" stroke="#161699" stroke-width="1.3333" stroke-linecap="round" stroke-miterlimit="10" x1="41.781" y1="16.857" x2="41.781" y2="7.046"/>
	</g>
	<g>
		
			<line fill="none" stroke="#7384EA" stroke-width="1.666" stroke-linecap="round" stroke-miterlimit="10" x1="45.037" y1="17.014" x2="45.037" y2="7.324"/>
		
			<line fill="none" stroke="#161699" stroke-width="1.3333" stroke-linecap="round" stroke-miterlimit="10" x1="44.781" y1="16.857" x2="44.781" y2="7.046"/>
	</g>
	<g>
		
			<line fill="none" stroke="#7384EA" stroke-width="1.666" stroke-linecap="round" stroke-miterlimit="10" x1="48.037" y1="17.014" x2="48.037" y2="7.324"/>
		
			<line fill="none" stroke="#161699" stroke-width="1.3333" stroke-linecap="round" stroke-miterlimit="10" x1="47.781" y1="16.857" x2="47.781" y2="7.046"/>
	</g>
	<g>
		
			<line fill="none" stroke="#7384EA" stroke-width="1.666" stroke-linecap="round" stroke-miterlimit="10" x1="51.037" y1="17.014" x2="51.037" y2="7.324"/>
		
			<line fill="none" stroke="#161699" stroke-width="1.3333" stroke-linecap="round" stroke-miterlimit="10" x1="50.781" y1="16.857" x2="50.781" y2="7.046"/>
	</g>
	<g>
		
			<line fill="none" stroke="#7384EA" stroke-width="1.666" stroke-linecap="round" stroke-miterlimit="10" x1="54.037" y1="17.014" x2="54.037" y2="7.324"/>
		
			<line fill="none" stroke="#161699" stroke-width="1.3333" stroke-linecap="round" stroke-miterlimit="10" x1="53.781" y1="16.857" x2="53.781" y2="7.046"/>
	</g>
	<g>
		
			<line fill="none" stroke="#7384EA" stroke-width="1.666" stroke-linecap="round" stroke-miterlimit="10" x1="57.037" y1="17.014" x2="57.037" y2="7.324"/>
		
			<line fill="none" stroke="#161699" stroke-width="1.3333" stroke-linecap="round" stroke-miterlimit="10" x1="56.781" y1="16.857" x2="56.781" y2="7.046"/>
	</g>
	<g>
		
			<line fill="none" stroke="#7384EA" stroke-width="1.666" stroke-linecap="round" stroke-miterlimit="10" x1="60.037" y1="17.014" x2="60.037" y2="7.324"/>
		
			<line fill="none" stroke="#161699" stroke-width="1.3333" stroke-linecap="round" stroke-miterlimit="10" x1="59.781" y1="16.857" x2="59.781" y2="7.046"/>
	</g>
	<g>
		
			<line fill="none" stroke="#7384EA" stroke-width="1.666" stroke-linecap="round" stroke-miterlimit="10" x1="63.037" y1="17.014" x2="63.037" y2="7.324"/>
		
			<line fill="none" stroke="#161699" stroke-width="1.3333" stroke-linecap="round" stroke-miterlimit="10" x1="62.781" y1="16.857" x2="62.781" y2="7.046"/>
	</g>
	<g>
		
			<line fill="none" stroke="#7384EA" stroke-width="1.666" stroke-linecap="round" stroke-miterlimit="10" x1="66.037" y1="17.014" x2="66.037" y2="7.324"/>
		
			<line fill="none" stroke="#161699" stroke-width="1.3333" stroke-linecap="round" stroke-miterlimit="10" x1="65.781" y1="16.857" x2="65.781" y2="7.046"/>
	</g>
	<g>
		
			<line fill="none" stroke="#7384EA" stroke-width="1.666" stroke-linecap="round" stroke-miterlimit="10" x1="69.037" y1="17.014" x2="69.037" y2="7.324"/>
		
			<line fill="none" stroke="#161699" stroke-width="1.3333" stroke-linecap="round" stroke-miterlimit="10" x1="68.781" y1="16.857" x2="68.781" y2="7.046"/>
	</g>
	<g>
		
			<line fill="none" stroke="#7384EA" stroke-width="1.666" stroke-linecap="round" stroke-miterlimit="10" x1="72.037" y1="17.014" x2="72.037" y2="7.324"/>
		
			<line fill="none" stroke="#161699" stroke-width="1.3333" stroke-linecap="round" stroke-miterlimit="10" x1="71.781" y1="16.857" x2="71.781" y2="7.046"/>
	</g>
	<g>
		
			<line fill="none" stroke="#7384EA" stroke-width="1.666" stroke-linecap="round" stroke-miterlimit="10" x1="75.037" y1="15.264" x2="75.037" y2="9.574"/>
		
			<line fill="none" stroke="#161699" stroke-width="1.3333" stroke-linecap="round" stroke-miterlimit="10" x1="74.781" y1="15.107" x2="74.781" y2="9.296"/>
	</g>
	<g>
	</g>
	<g>
	</g>
	<g>
	</g>
	<g>
	</g>
	<g>
	</g>
</g>
</svg>
