<?xml version="1.0" encoding="utf-8"?>
<!-- Generator: Adobe Illustrator 16.0.4, SVG Export Plug-In . SVG Version: 6.00 Build 0)  -->
<!DOCTYPE svg PUBLIC "-//W3C//DTD SVG 1.1//EN" "http://www.w3.org/Graphics/SVG/1.1/DTD/svg11.dtd">
<svg version="1.1" id="Layer_1" xmlns="http://www.w3.org/2000/svg" xmlns:xlink="http://www.w3.org/1999/xlink" x="0px" y="0px"
	 width="170.98px" height="18.61px" viewBox="0 0 170.98 18.61" enable-background="new 0 0 170.98 18.61" xml:space="preserve">
<g>
	<path d="M9.2,8.95c-0.3,1.1-0.8,1.92-1.5,2.44c-0.7,0.53-1.59,0.79-2.66,0.79c-0.73,0-1.38-0.13-1.95-0.39
		c-0.57-0.26-1.05-0.62-1.44-1.08c-0.39-0.46-0.68-1-0.89-1.62C0.56,8.47,0.46,7.8,0.46,7.08c0-0.76,0.1-1.46,0.3-2.1
		c0.2-0.64,0.5-1.2,0.9-1.67c0.4-0.47,0.89-0.83,1.47-1.1s1.26-0.4,2.02-0.4c1.23,0,2.23,0.36,3,1.09c0.46,0.43,0.8,1.04,1.02,1.83
		l-2,0.49C7.07,4.7,6.82,4.29,6.43,4C6.05,3.7,5.59,3.56,5.05,3.56c-0.47,0-0.86,0.09-1.18,0.26C3.55,3.99,3.29,4.23,3.09,4.54
		C2.9,4.84,2.76,5.2,2.67,5.61S2.55,6.47,2.55,6.94c0,0.49,0.04,0.94,0.12,1.36c0.08,0.42,0.21,0.8,0.4,1.11s0.44,0.57,0.76,0.76
		c0.32,0.19,0.71,0.28,1.19,0.28c0.54,0,1.01-0.17,1.39-0.51s0.67-0.88,0.83-1.62L9.2,8.95z"/>
	<path d="M10.22,6.65c0.12-0.39,0.27-0.72,0.45-0.98c0.18-0.26,0.4-0.47,0.65-0.64c0.25-0.16,0.55-0.28,0.88-0.34
		c0.34-0.07,0.72-0.1,1.15-0.1c0.31,0,0.6,0.01,0.88,0.04c0.28,0.02,0.54,0.07,0.79,0.15c0.25,0.07,0.47,0.18,0.67,0.32
		c0.2,0.14,0.35,0.33,0.48,0.57c0.04,0.07,0.07,0.15,0.1,0.27c0.03,0.11,0.05,0.28,0.07,0.5c0.02,0.22,0.03,0.51,0.04,0.87
		s0.01,0.82,0.01,1.38c0,0.16,0,0.35,0,0.57c0,0.22,0,0.45,0.01,0.67c0.01,0.22,0.02,0.44,0.03,0.64s0.03,0.36,0.06,0.48
		c0.06,0.29,0.17,0.61,0.34,0.97h-1.89c-0.05-0.11-0.11-0.3-0.18-0.57c-0.02-0.06-0.03-0.1-0.04-0.14s-0.02-0.07-0.03-0.08
		c-0.65,0.64-1.4,0.97-2.25,0.97c-0.75,0-1.33-0.21-1.76-0.62c-0.43-0.4-0.64-0.91-0.64-1.54c0-0.41,0.1-0.78,0.29-1.1
		c0.19-0.32,0.46-0.56,0.82-0.72c0.19-0.09,0.41-0.17,0.66-0.25c0.25-0.07,0.55-0.14,0.88-0.22c0.89-0.17,1.51-0.32,1.86-0.46v-0.2
		c0-0.42-0.11-0.69-0.32-0.83s-0.54-0.2-0.98-0.2c-0.35,0-0.61,0.07-0.81,0.2s-0.35,0.37-0.47,0.71L10.22,6.65z M14.05,8.67
		c-0.19,0.05-0.42,0.1-0.69,0.15c-0.2,0.04-0.38,0.08-0.55,0.13s-0.32,0.1-0.45,0.17c-0.13,0.07-0.23,0.16-0.31,0.27
		c-0.08,0.11-0.11,0.26-0.11,0.43c0,0.3,0.1,0.54,0.31,0.72s0.46,0.27,0.75,0.27c0.29,0,0.53-0.05,0.73-0.15
		c0.2-0.1,0.35-0.24,0.47-0.41s0.2-0.38,0.25-0.62c0.05-0.23,0.08-0.48,0.08-0.74V8.53C14.4,8.57,14.24,8.62,14.05,8.67z"/>
	<path d="M18.04,1.99h1.92v10.02h-1.92V1.99z"/>
	<path d="M26,7.24c-0.14-0.76-0.58-1.13-1.32-1.13c-0.31,0-0.56,0.05-0.76,0.16c-0.2,0.11-0.36,0.26-0.48,0.45
		c-0.12,0.19-0.2,0.42-0.25,0.68c-0.05,0.26-0.08,0.55-0.08,0.85c0,0.33,0.02,0.63,0.06,0.92c0.04,0.29,0.12,0.54,0.25,0.76
		c0.12,0.21,0.28,0.38,0.49,0.5c0.21,0.12,0.47,0.18,0.8,0.18c0.36,0,0.66-0.1,0.89-0.31c0.23-0.21,0.39-0.56,0.5-1.08l1.89,0.32
		c-0.39,1.75-1.51,2.63-3.36,2.63c-0.56,0-1.06-0.09-1.49-0.28c-0.43-0.19-0.8-0.45-1.09-0.78c-0.29-0.33-0.52-0.73-0.67-1.2
		c-0.15-0.47-0.23-0.98-0.23-1.54s0.08-1.07,0.23-1.54c0.15-0.47,0.38-0.87,0.68-1.2c0.3-0.34,0.67-0.59,1.1-0.78
		c0.43-0.18,0.94-0.27,1.5-0.27c0.89,0,1.59,0.19,2.11,0.56c0.52,0.37,0.89,0.96,1.13,1.75L26,7.24z"/>
	<path d="M33.84,10.92c-0.26,0.39-0.61,0.7-1.04,0.92s-0.89,0.34-1.37,0.34c-0.43,0-0.8-0.07-1.1-0.21
		c-0.3-0.14-0.55-0.34-0.75-0.59c-0.2-0.25-0.34-0.55-0.43-0.9s-0.13-0.72-0.13-1.13V4.75h1.9v4.24c0,0.25,0.01,0.48,0.04,0.69
		c0.02,0.21,0.08,0.39,0.16,0.55c0.08,0.15,0.21,0.27,0.37,0.36c0.16,0.08,0.38,0.13,0.65,0.13c0.31,0,0.59-0.08,0.86-0.25
		s0.45-0.4,0.55-0.69c0.09-0.25,0.14-0.9,0.14-1.96V4.75h1.93v7.27h-1.79V10.92z"/>
	<path d="M37.06,1.99h1.92v10.02h-1.92V1.99z"/>
	<path d="M40.34,6.65c0.12-0.39,0.27-0.72,0.45-0.98c0.18-0.26,0.4-0.47,0.65-0.64c0.25-0.16,0.55-0.28,0.88-0.34
		c0.34-0.07,0.72-0.1,1.15-0.1c0.31,0,0.6,0.01,0.88,0.04c0.28,0.02,0.54,0.07,0.79,0.15c0.25,0.07,0.47,0.18,0.67,0.32
		c0.2,0.14,0.35,0.33,0.48,0.57c0.04,0.07,0.07,0.15,0.1,0.27c0.03,0.11,0.05,0.28,0.07,0.5c0.02,0.22,0.03,0.51,0.04,0.87
		s0.01,0.82,0.01,1.38c0,0.16,0,0.35,0,0.57c0,0.22,0,0.45,0.01,0.67c0.01,0.22,0.02,0.44,0.03,0.64s0.03,0.36,0.06,0.48
		c0.06,0.29,0.17,0.61,0.34,0.97h-1.89c-0.05-0.11-0.11-0.3-0.18-0.57c-0.02-0.06-0.03-0.1-0.04-0.14s-0.02-0.07-0.03-0.08
		c-0.65,0.64-1.4,0.97-2.25,0.97c-0.75,0-1.33-0.21-1.76-0.62c-0.43-0.4-0.64-0.91-0.64-1.54c0-0.41,0.1-0.78,0.29-1.1
		c0.19-0.32,0.46-0.56,0.82-0.72c0.19-0.09,0.41-0.17,0.66-0.25c0.25-0.07,0.55-0.14,0.88-0.22c0.89-0.17,1.51-0.32,1.86-0.46v-0.2
		c0-0.42-0.11-0.69-0.32-0.83s-0.54-0.2-0.98-0.2c-0.35,0-0.61,0.07-0.81,0.2s-0.35,0.37-0.47,0.71L40.34,6.65z M44.17,8.67
		c-0.19,0.05-0.42,0.1-0.69,0.15c-0.2,0.04-0.38,0.08-0.55,0.13s-0.32,0.1-0.45,0.17c-0.13,0.07-0.23,0.16-0.31,0.27
		c-0.08,0.11-0.11,0.26-0.11,0.43c0,0.3,0.1,0.54,0.31,0.72s0.46,0.27,0.75,0.27c0.29,0,0.53-0.05,0.73-0.15
		c0.2-0.1,0.35-0.24,0.47-0.41s0.2-0.38,0.25-0.62c0.05-0.23,0.08-0.48,0.08-0.74V8.53C44.52,8.57,44.36,8.62,44.17,8.67z"/>
	<path d="M51.72,6.29h-1.32v2.93c0,0.3,0,0.53,0.01,0.71c0,0.17,0.01,0.28,0.02,0.33c0.03,0.11,0.09,0.2,0.19,0.25
		c0.1,0.06,0.2,0.08,0.31,0.08c0.19,0,0.44-0.06,0.77-0.18l0.17,1.48c-0.45,0.2-0.96,0.29-1.53,0.29c-1.07,0-1.68-0.46-1.81-1.37
		c-0.02-0.12-0.03-0.29-0.05-0.52c-0.01-0.22-0.02-0.5-0.02-0.84V6.29h-0.88V4.75h0.88V3.3l1.93-1.12v2.56h1.32V6.29z"/>
	<path d="M52.54,8.27c0-0.53,0.1-1.02,0.29-1.47c0.19-0.45,0.46-0.83,0.79-1.16c0.34-0.33,0.73-0.58,1.19-0.77
		c0.46-0.19,0.95-0.28,1.47-0.28c0.55,0,1.05,0.09,1.51,0.28c0.46,0.19,0.85,0.45,1.18,0.78c0.33,0.34,0.59,0.73,0.78,1.2
		c0.19,0.46,0.28,0.96,0.28,1.51c0,0.54-0.09,1.04-0.28,1.5s-0.44,0.87-0.77,1.21s-0.72,0.62-1.18,0.81
		c-0.46,0.2-0.96,0.29-1.51,0.29c-0.58,0-1.1-0.1-1.56-0.29c-0.46-0.2-0.86-0.47-1.18-0.81c-0.33-0.35-0.58-0.76-0.75-1.23
		C52.63,9.37,52.54,8.84,52.54,8.27z M54.52,8.39c0,0.3,0.04,0.58,0.1,0.85c0.07,0.27,0.18,0.51,0.33,0.71
		c0.15,0.2,0.33,0.36,0.55,0.48c0.22,0.12,0.48,0.18,0.79,0.18c0.3,0,0.56-0.06,0.78-0.18c0.22-0.12,0.41-0.28,0.55-0.49
		c0.15-0.21,0.25-0.44,0.32-0.71c0.07-0.27,0.1-0.56,0.1-0.85c0-0.3-0.04-0.58-0.1-0.85c-0.07-0.27-0.18-0.5-0.33-0.7
		s-0.33-0.36-0.55-0.48c-0.22-0.12-0.48-0.18-0.78-0.18s-0.56,0.06-0.78,0.18c-0.22,0.12-0.41,0.28-0.55,0.48
		c-0.14,0.21-0.25,0.44-0.33,0.71C54.55,7.8,54.52,8.09,54.52,8.39z"/>
	<path d="M61.21,12.01V4.75h1.78v1.04c0.31-0.47,0.58-0.79,0.83-0.97c0.24-0.15,0.52-0.22,0.84-0.22c0.43,0,0.85,0.12,1.26,0.36
		l-0.6,1.67c-0.32-0.21-0.62-0.31-0.9-0.31c-0.29,0-0.52,0.08-0.69,0.24c-0.17,0.16-0.3,0.4-0.39,0.72C63.24,7.6,63.18,8,63.16,8.48
		c-0.02,0.48-0.04,1.04-0.04,1.69v1.85H61.21z"/>
	<path d="M70.57,1.99h4.26c0.53,0,1.04,0.04,1.52,0.1c0.48,0.07,0.9,0.21,1.26,0.41c0.36,0.2,0.64,0.49,0.85,0.85
		c0.21,0.37,0.31,0.85,0.31,1.45c0,0.76-0.22,1.38-0.67,1.86c-0.44,0.49-1.1,0.79-1.98,0.92c0.45,0.26,0.81,0.54,1.08,0.84
		c0.07,0.07,0.16,0.17,0.25,0.3c0.09,0.13,0.23,0.32,0.4,0.58c0.17,0.26,0.4,0.61,0.67,1.04s0.63,0.98,1.06,1.67h-2.42
		c-0.49-0.74-0.9-1.33-1.2-1.79c-0.31-0.46-0.55-0.81-0.74-1.07c-0.18-0.26-0.31-0.44-0.4-0.55s-0.15-0.19-0.2-0.24
		c-0.12-0.13-0.24-0.23-0.34-0.3c-0.11-0.07-0.22-0.12-0.35-0.15c-0.13-0.03-0.26-0.05-0.41-0.06c-0.15-0.01-0.32-0.01-0.52-0.01
		H72.6v4.19h-2.03V1.99z M74.1,6.23c0.98,0,1.59-0.04,1.82-0.13c0.26-0.09,0.45-0.24,0.58-0.45c0.13-0.21,0.19-0.45,0.19-0.73
		c0-0.34-0.09-0.61-0.27-0.81c-0.18-0.21-0.44-0.34-0.76-0.39C75.49,3.7,75,3.68,74.19,3.68H72.6v2.55H74.1z"/>
	<path d="M86.77,10.02c-0.24,0.7-0.63,1.23-1.16,1.6c-0.53,0.37-1.2,0.55-2,0.55c-0.58,0-1.09-0.09-1.53-0.27
		c-0.44-0.18-0.81-0.44-1.1-0.77c-0.29-0.33-0.52-0.73-0.67-1.18c-0.15-0.46-0.22-0.96-0.22-1.51c0-0.53,0.07-1.03,0.22-1.51
		c0.14-0.47,0.36-0.88,0.64-1.22c0.28-0.35,0.63-0.62,1.04-0.82c0.42-0.2,0.89-0.3,1.44-0.3c0.61,0,1.13,0.1,1.56,0.31
		s0.79,0.5,1.07,0.88c0.28,0.38,0.49,0.83,0.62,1.37c0.13,0.53,0.2,1.12,0.2,1.78h-4.82c0,0.25,0.04,0.49,0.11,0.71
		c0.07,0.22,0.18,0.41,0.31,0.57c0.14,0.16,0.3,0.29,0.5,0.38c0.2,0.09,0.42,0.14,0.66,0.14c0.3,0,0.55-0.08,0.76-0.25
		c0.21-0.16,0.36-0.43,0.46-0.79L86.77,10.02z M84.96,7.71c0-0.47-0.13-0.86-0.38-1.18c-0.25-0.32-0.6-0.48-1.05-0.48
		c-0.45,0-0.8,0.16-1.06,0.47c-0.26,0.31-0.39,0.72-0.39,1.23h2.87V7.71z"/>
	<path d="M88.51,4.75V4.2c0-0.3,0.01-0.56,0.04-0.79c0.03-0.23,0.08-0.42,0.15-0.57c0.12-0.3,0.36-0.55,0.71-0.74
		c0.35-0.19,0.8-0.28,1.33-0.28c0.55,0,1.08,0.08,1.6,0.25L92.09,3.4c-0.33-0.07-0.62-0.11-0.88-0.11c-0.28,0-0.48,0.07-0.6,0.2
		c-0.12,0.13-0.18,0.38-0.18,0.76v0.5h1.44v1.51h-1.44v5.75h-1.92V6.26h-1.06V4.75H88.51z"/>
	<path d="M99.36,10.02c-0.24,0.7-0.63,1.23-1.16,1.6c-0.53,0.37-1.2,0.55-2,0.55c-0.58,0-1.09-0.09-1.53-0.27s-0.81-0.44-1.1-0.77
		c-0.29-0.33-0.52-0.73-0.67-1.18c-0.15-0.46-0.22-0.96-0.22-1.51c0-0.53,0.07-1.03,0.22-1.51c0.15-0.47,0.36-0.88,0.64-1.22
		c0.28-0.35,0.63-0.62,1.04-0.82c0.42-0.2,0.89-0.3,1.43-0.3c0.61,0,1.13,0.1,1.56,0.31c0.43,0.21,0.79,0.5,1.07,0.88
		c0.28,0.38,0.49,0.83,0.62,1.37c0.13,0.53,0.2,1.12,0.2,1.78h-4.82c0,0.25,0.04,0.49,0.11,0.71c0.07,0.22,0.18,0.41,0.32,0.57
		c0.13,0.16,0.3,0.29,0.5,0.38c0.2,0.09,0.42,0.14,0.66,0.14c0.3,0,0.55-0.08,0.76-0.25c0.21-0.16,0.36-0.43,0.46-0.79L99.36,10.02z
		 M97.55,7.71c0-0.47-0.13-0.86-0.38-1.18c-0.25-0.32-0.6-0.48-1.05-0.48c-0.45,0-0.8,0.16-1.06,0.47
		c-0.26,0.31-0.39,0.72-0.39,1.23h2.87V7.71z"/>
	<path d="M100.67,12.01V4.75h1.78v1.04c0.31-0.47,0.58-0.79,0.83-0.97c0.24-0.15,0.52-0.22,0.84-0.22c0.43,0,0.85,0.12,1.26,0.36
		l-0.6,1.67c-0.32-0.21-0.62-0.31-0.9-0.31c-0.29,0-0.52,0.08-0.69,0.24c-0.17,0.16-0.3,0.4-0.39,0.72
		c-0.09,0.32-0.14,0.72-0.17,1.2c-0.02,0.48-0.04,1.04-0.04,1.69v1.85H100.67z"/>
	<path d="M112.38,10.02c-0.24,0.7-0.63,1.23-1.16,1.6c-0.53,0.37-1.2,0.55-2,0.55c-0.58,0-1.09-0.09-1.53-0.27
		c-0.44-0.18-0.81-0.44-1.1-0.77c-0.29-0.33-0.52-0.73-0.67-1.18c-0.15-0.46-0.22-0.96-0.22-1.51c0-0.53,0.07-1.03,0.22-1.51
		c0.14-0.47,0.36-0.88,0.64-1.22c0.28-0.35,0.63-0.62,1.04-0.82c0.42-0.2,0.89-0.3,1.44-0.3c0.61,0,1.13,0.1,1.56,0.31
		s0.79,0.5,1.07,0.88c0.28,0.38,0.49,0.83,0.62,1.37c0.13,0.53,0.2,1.12,0.2,1.78h-4.82c0,0.25,0.04,0.49,0.11,0.71
		c0.07,0.22,0.18,0.41,0.31,0.57c0.13,0.16,0.3,0.29,0.5,0.38s0.42,0.14,0.66,0.14c0.3,0,0.55-0.08,0.76-0.25
		c0.21-0.16,0.36-0.43,0.46-0.79L112.38,10.02z M110.57,7.71c0-0.47-0.12-0.86-0.38-1.18c-0.25-0.32-0.6-0.48-1.05-0.48
		c-0.45,0-0.8,0.16-1.06,0.47c-0.26,0.31-0.38,0.72-0.38,1.23h2.87V7.71z"/>
	<path d="M118.38,12.01V8.3c0-0.78-0.04-1.29-0.13-1.51c-0.07-0.24-0.21-0.42-0.41-0.55c-0.2-0.12-0.42-0.18-0.66-0.18
		c-0.38,0-0.68,0.08-0.9,0.22c-0.21,0.15-0.37,0.35-0.48,0.6c-0.1,0.25-0.16,0.53-0.18,0.85c-0.02,0.32-0.03,0.65-0.03,0.99v3.29
		h-1.92V4.75h1.78v1.08c0.64-0.82,1.44-1.23,2.39-1.23c0.5,0,0.9,0.07,1.21,0.22s0.56,0.35,0.74,0.62C120,5.69,120.13,6,120.2,6.36
		c0.07,0.35,0.1,0.74,0.1,1.15v4.51H118.38z"/>
	<path d="M126.31,7.24c-0.14-0.76-0.58-1.13-1.32-1.13c-0.31,0-0.56,0.05-0.76,0.16c-0.2,0.11-0.36,0.26-0.48,0.45
		c-0.12,0.19-0.2,0.42-0.25,0.68c-0.05,0.26-0.08,0.55-0.08,0.85c0,0.33,0.02,0.63,0.06,0.92c0.04,0.29,0.12,0.54,0.25,0.76
		c0.12,0.21,0.28,0.38,0.49,0.5c0.21,0.12,0.47,0.18,0.8,0.18c0.36,0,0.66-0.1,0.89-0.31c0.23-0.21,0.39-0.56,0.5-1.08l1.89,0.32
		c-0.39,1.75-1.51,2.63-3.36,2.63c-0.56,0-1.06-0.09-1.49-0.28c-0.43-0.19-0.8-0.45-1.09-0.78c-0.29-0.33-0.52-0.73-0.67-1.2
		c-0.15-0.47-0.23-0.98-0.23-1.54s0.08-1.07,0.23-1.54c0.15-0.47,0.38-0.87,0.68-1.2s0.67-0.59,1.1-0.78s0.94-0.27,1.5-0.27
		c0.89,0,1.59,0.19,2.11,0.56c0.52,0.37,0.89,0.96,1.13,1.75L126.31,7.24z"/>
	<path d="M135.81,10.02c-0.24,0.7-0.63,1.23-1.16,1.6c-0.53,0.37-1.2,0.55-2,0.55c-0.58,0-1.09-0.09-1.53-0.27s-0.81-0.44-1.1-0.77
		c-0.29-0.33-0.52-0.73-0.67-1.18c-0.15-0.46-0.22-0.96-0.22-1.51c0-0.53,0.07-1.03,0.22-1.51c0.14-0.47,0.36-0.88,0.64-1.22
		c0.28-0.35,0.63-0.62,1.04-0.82c0.42-0.2,0.89-0.3,1.43-0.3c0.61,0,1.13,0.1,1.56,0.31c0.43,0.21,0.79,0.5,1.07,0.88
		c0.28,0.38,0.49,0.83,0.62,1.37c0.13,0.53,0.2,1.12,0.2,1.78h-4.82c0,0.25,0.04,0.49,0.11,0.71c0.07,0.22,0.18,0.41,0.32,0.57
		c0.13,0.16,0.3,0.29,0.5,0.38c0.2,0.09,0.42,0.14,0.66,0.14c0.3,0,0.55-0.08,0.76-0.25c0.21-0.16,0.36-0.43,0.46-0.79L135.81,10.02
		z M134,7.71c0-0.47-0.13-0.86-0.38-1.18c-0.25-0.32-0.6-0.48-1.05-0.48c-0.45,0-0.8,0.16-1.06,0.47c-0.26,0.31-0.39,0.72-0.39,1.23
		H134V7.71z"/>
	<path d="M149.46,8.95c-0.3,1.1-0.8,1.92-1.5,2.44c-0.7,0.53-1.59,0.79-2.66,0.79c-0.73,0-1.38-0.13-1.95-0.39
		c-0.57-0.26-1.05-0.62-1.44-1.08c-0.39-0.46-0.68-1-0.89-1.62s-0.31-1.29-0.31-2.01c0-0.76,0.1-1.46,0.3-2.1
		c0.2-0.64,0.5-1.2,0.9-1.67s0.89-0.83,1.47-1.1c0.58-0.27,1.26-0.4,2.02-0.4c1.23,0,2.23,0.36,3,1.09c0.46,0.43,0.8,1.04,1.02,1.83
		l-2,0.49c-0.1-0.53-0.35-0.95-0.74-1.24c-0.39-0.29-0.85-0.44-1.38-0.44c-0.47,0-0.86,0.09-1.18,0.26
		c-0.32,0.17-0.58,0.41-0.78,0.72s-0.34,0.67-0.42,1.08s-0.13,0.85-0.13,1.33c0,0.49,0.04,0.94,0.12,1.36
		c0.08,0.42,0.21,0.8,0.4,1.11c0.19,0.32,0.44,0.57,0.76,0.76c0.32,0.19,0.71,0.28,1.19,0.28c0.54,0,1.01-0.17,1.39-0.51
		s0.67-0.88,0.83-1.62L149.46,8.95z"/>
	<path d="M150.48,6.65c0.12-0.39,0.27-0.72,0.46-0.98c0.18-0.26,0.4-0.47,0.65-0.64c0.25-0.16,0.54-0.28,0.88-0.34
		c0.34-0.07,0.72-0.1,1.15-0.1c0.31,0,0.6,0.01,0.88,0.04c0.28,0.02,0.54,0.07,0.79,0.15c0.25,0.07,0.47,0.18,0.66,0.32
		c0.2,0.14,0.36,0.33,0.48,0.57c0.04,0.07,0.07,0.15,0.1,0.27c0.03,0.11,0.05,0.28,0.07,0.5c0.02,0.22,0.03,0.51,0.04,0.87
		c0.01,0.36,0.01,0.82,0.01,1.38c0,0.16,0,0.35,0,0.57c0,0.22,0,0.45,0.01,0.67s0.02,0.44,0.03,0.64s0.03,0.36,0.06,0.48
		c0.06,0.29,0.17,0.61,0.34,0.97h-1.89c-0.05-0.11-0.11-0.3-0.18-0.57c-0.02-0.06-0.03-0.1-0.04-0.14
		c-0.01-0.04-0.02-0.07-0.03-0.08c-0.65,0.64-1.4,0.97-2.25,0.97c-0.75,0-1.33-0.21-1.76-0.62c-0.43-0.4-0.64-0.91-0.64-1.54
		c0-0.41,0.1-0.78,0.29-1.1c0.19-0.32,0.46-0.56,0.82-0.72c0.19-0.09,0.4-0.17,0.66-0.25c0.25-0.07,0.55-0.14,0.88-0.22
		c0.89-0.17,1.51-0.32,1.86-0.46v-0.2c0-0.42-0.11-0.69-0.32-0.83c-0.21-0.13-0.54-0.2-0.98-0.2c-0.35,0-0.62,0.07-0.8,0.2
		c-0.19,0.13-0.35,0.37-0.47,0.71L150.48,6.65z M154.31,8.67c-0.19,0.05-0.42,0.1-0.69,0.15c-0.2,0.04-0.38,0.08-0.54,0.13
		s-0.32,0.1-0.45,0.17c-0.13,0.07-0.23,0.16-0.31,0.27c-0.08,0.11-0.11,0.26-0.11,0.43c0,0.3,0.11,0.54,0.32,0.72
		c0.21,0.18,0.46,0.27,0.75,0.27s0.53-0.05,0.73-0.15c0.2-0.1,0.35-0.24,0.47-0.41s0.2-0.38,0.25-0.62
		c0.05-0.23,0.08-0.48,0.08-0.74V8.53C154.66,8.57,154.5,8.62,154.31,8.67z"/>
	<path d="M158.31,12.01V4.75h1.78v1.04c0.31-0.47,0.58-0.79,0.83-0.97c0.24-0.15,0.52-0.22,0.84-0.22c0.43,0,0.85,0.12,1.26,0.36
		l-0.6,1.67c-0.32-0.21-0.62-0.31-0.9-0.31c-0.29,0-0.52,0.08-0.69,0.24c-0.17,0.16-0.3,0.4-0.39,0.72
		c-0.09,0.32-0.14,0.72-0.17,1.2c-0.02,0.48-0.04,1.04-0.04,1.69v1.85H158.31z"/>
	<path d="M168.56,12.01v-1.06c-0.3,0.42-0.65,0.73-1.05,0.93c-0.4,0.2-0.81,0.3-1.22,0.3c-0.5,0-0.95-0.1-1.33-0.31
		s-0.7-0.49-0.95-0.85c-0.25-0.35-0.44-0.76-0.57-1.23c-0.12-0.46-0.19-0.94-0.19-1.43c0-0.52,0.06-1.01,0.19-1.47
		c0.13-0.46,0.32-0.86,0.57-1.2s0.57-0.61,0.95-0.81s0.84-0.29,1.36-0.29c0.81,0,1.51,0.34,2.1,1.01V1.99h1.92v10.02H168.56z
		 M165.21,8.22c0,0.32,0.02,0.62,0.07,0.92s0.13,0.55,0.25,0.78s0.29,0.4,0.5,0.54c0.21,0.14,0.48,0.2,0.81,0.2
		c0.29,0,0.53-0.06,0.73-0.19s0.36-0.29,0.49-0.5c0.12-0.21,0.22-0.45,0.28-0.72c0.06-0.27,0.09-0.55,0.09-0.83
		c0-0.32-0.03-0.62-0.08-0.9c-0.05-0.28-0.14-0.53-0.26-0.75c-0.12-0.21-0.29-0.38-0.5-0.51c-0.21-0.13-0.47-0.19-0.78-0.19
		c-0.29,0-0.53,0.06-0.73,0.18s-0.37,0.28-0.5,0.48s-0.23,0.43-0.29,0.69S165.21,7.94,165.21,8.22z"/>
</g>
<g>
</g>
<g>
</g>
<g>
</g>
<g>
</g>
<g>
</g>
</svg>
