<?xml version="1.0" encoding="utf-8"?>
<!-- Generator: Adobe Illustrator 16.0.4, SVG Export Plug-In . SVG Version: 6.00 Build 0)  -->
<!DOCTYPE svg PUBLIC "-//W3C//DTD SVG 1.1//EN" "http://www.w3.org/Graphics/SVG/1.1/DTD/svg11.dtd">
<svg version="1.1" id="Layer_1" xmlns="http://www.w3.org/2000/svg" xmlns:xlink="http://www.w3.org/1999/xlink" x="0px" y="0px"
	 width="8.65px" height="13.2px" viewBox="0 0 8.65 13.2" enable-background="new 0 0 8.65 13.2" xml:space="preserve">
<g>
	<path d="M8.4,3.25L5.95,3.5C5.917,3,5.767,2.633,5.5,2.4C5.267,2.167,4.95,2.05,4.55,2.05c-0.5,0-0.933,0.233-1.3,0.7
		c-0.367,0.5-0.6,1.483-0.7,2.95c0.633-0.7,1.4-1.05,2.3-1.05C5.883,4.617,6.767,5,7.5,5.8c0.767,0.767,1.15,1.784,1.15,3.05
		c-0.033,1.3-0.433,2.35-1.2,3.15c-0.767,0.8-1.75,1.2-2.95,1.2c-1.333,0-2.417-0.517-3.25-1.55C0.417,10.65,0,9,0,6.7
		c0-2.367,0.433-4.083,1.3-5.15C2.167,0.517,3.3,0,4.7,0c1,0,1.816,0.283,2.45,0.85C7.783,1.383,8.2,2.184,8.4,3.25 M2.8,8.65
		c0,0.767,0.184,1.367,0.55,1.8c0.367,0.466,0.783,0.7,1.25,0.7c0.467-0.033,0.85-0.216,1.15-0.55c0.3-0.367,0.45-0.95,0.45-1.75
		C6.2,8.017,6.033,7.4,5.7,7C5.4,6.633,5,6.45,4.5,6.45S3.6,6.633,3.3,7C2.933,7.367,2.767,7.917,2.8,8.65"/>
</g>
</svg>
