<?xml version="1.0" encoding="utf-8"?>
<!-- Generator: Adobe Illustrator 16.0.4, SVG Export Plug-In . SVG Version: 6.00 Build 0)  -->
<!DOCTYPE svg PUBLIC "-//W3C//DTD SVG 1.1//EN" "http://www.w3.org/Graphics/SVG/1.1/DTD/svg11.dtd">
<svg version="1.1" id="Layer_1" xmlns="http://www.w3.org/2000/svg" xmlns:xlink="http://www.w3.org/1999/xlink" x="0px" y="0px"
	 width="35.5px" height="37px" viewBox="0 0 35.5 37" enable-background="new 0 0 35.5 37" xml:space="preserve">
<g>
	
		<linearGradient id="SVGID_1_" gradientUnits="userSpaceOnUse" x1="10222.1758" y1="7109.7812" x2="11860.5762" y2="7109.7812" gradientTransform="matrix(0 0.0211 0.0211 0 -132.6129 -213.6603)">
		<stop  offset="0.0039" style="stop-color:#AED2FF"/>
		<stop  offset="0.3059" style="stop-color:#7BAFD7"/>
		<stop  offset="0.7333" style="stop-color:#719AC5"/>
		<stop  offset="0.9882" style="stop-color:#86B6FF"/>
	</linearGradient>
	<path fill="url(#SVGID_1_)" d="M35,2.65v31.7c-0.033,0.6-0.25,1.1-0.65,1.5c-0.4,0.433-0.9,0.65-1.5,0.65H2.65
		c-0.6,0-1.1-0.217-1.5-0.65c-0.433-0.4-0.65-0.9-0.65-1.5V2.65c0-0.6,0.217-1.1,0.65-1.5c0.4-0.433,0.9-0.65,1.5-0.65h30.2
		c0.6,0,1.1,0.217,1.5,0.65C34.75,1.55,34.967,2.05,35,2.65"/>
	<path fill="none" stroke="#0066CC" stroke-linecap="round" stroke-linejoin="round" d="M35,2.65v31.7c-0.033,0.6-0.25,1.1-0.65,1.5
		c-0.4,0.433-0.9,0.65-1.5,0.65H2.65c-0.6,0-1.1-0.217-1.5-0.65c-0.433-0.4-0.65-0.9-0.65-1.5V2.65c0-0.6,0.217-1.1,0.65-1.5
		c0.4-0.433,0.9-0.65,1.5-0.65h30.2c0.6,0,1.1,0.217,1.5,0.65C34.75,1.55,34.967,2.05,35,2.65"/>
</g>
</svg>
