<?xml version="1.0" encoding="utf-8"?>
<!-- Generator: Adobe Illustrator 16.0.4, SVG Export Plug-In . SVG Version: 6.00 Build 0)  -->
<!DOCTYPE svg PUBLIC "-//W3C//DTD SVG 1.1//EN" "http://www.w3.org/Graphics/SVG/1.1/DTD/svg11.dtd">
<svg version="1.1" id="Layer_1" xmlns="http://www.w3.org/2000/svg" xmlns:xlink="http://www.w3.org/1999/xlink" x="0px" y="0px"
	 width="249.28px" height="18.606px" viewBox="0 0 249.28 18.606" enable-background="new 0 0 249.28 18.606" xml:space="preserve">
<g>
	<path d="M0.644,12.012l0.35-1.694h1.274l1.414-6.622H2.408l0.35-1.694h4.564l-0.35,1.694H5.684L4.27,10.318h1.288l-0.35,1.694
		H0.644z"/>
	<path d="M8.932,8.554V8.68c0,0.616,0.147,1.071,0.441,1.365c0.294,0.294,0.74,0.441,1.337,0.441c0.243,0,0.488-0.026,0.735-0.077
		c0.248-0.051,0.476-0.133,0.686-0.245c0.21-0.112,0.39-0.256,0.539-0.434c0.149-0.177,0.252-0.387,0.308-0.63
		c0.009-0.046,0.016-0.086,0.021-0.119c0.004-0.033,0.007-0.068,0.007-0.105c0-0.177-0.058-0.331-0.175-0.462
		c-0.117-0.13-0.311-0.247-0.581-0.35c-0.42-0.158-0.873-0.301-1.358-0.427s-0.936-0.28-1.351-0.462
		C9.125,6.993,8.78,6.755,8.505,6.461C8.229,6.167,8.092,5.768,8.092,5.264c0-0.103,0.004-0.205,0.014-0.308
		C8.115,4.854,8.134,4.742,8.162,4.62C8.265,4.116,8.46,3.687,8.75,3.332c0.289-0.354,0.63-0.644,1.022-0.868
		c0.392-0.224,0.817-0.387,1.274-0.49c0.458-0.103,0.91-0.154,1.358-0.154c0.999,0,1.79,0.196,2.373,0.588
		c0.583,0.392,0.875,1.018,0.875,1.876c0,0.168-0.014,0.359-0.042,0.574l-2.044,0.084V4.774c0-0.458-0.119-0.784-0.357-0.98
		C12.971,3.598,12.581,3.5,12.04,3.5c-0.187,0-0.383,0.014-0.588,0.042c-0.206,0.028-0.399,0.077-0.581,0.147
		c-0.182,0.07-0.341,0.17-0.476,0.301s-0.227,0.294-0.273,0.49c-0.009,0.038-0.017,0.07-0.021,0.098
		c-0.005,0.028-0.007,0.061-0.007,0.098c0,0.28,0.124,0.504,0.371,0.672c0.248,0.168,0.553,0.315,0.917,0.441
		c0.364,0.126,0.763,0.25,1.197,0.371c0.434,0.122,0.833,0.275,1.197,0.462c0.364,0.187,0.67,0.427,0.917,0.721
		c0.248,0.294,0.371,0.679,0.371,1.155c0,0.094-0.007,0.189-0.021,0.287c-0.014,0.098-0.03,0.203-0.049,0.315
		c-0.122,0.56-0.336,1.036-0.644,1.428s-0.677,0.712-1.106,0.959c-0.43,0.247-0.896,0.427-1.4,0.539
		c-0.504,0.112-1.008,0.168-1.512,0.168c-1.176,0-2.044-0.248-2.604-0.742s-0.84-1.223-0.84-2.184c0-0.056,0.002-0.119,0.007-0.189
		c0.004-0.07,0.012-0.18,0.021-0.329L8.932,8.554z"/>
	<path d="M19.866,3.682h-2.982l0.364-1.694h7.966L24.85,3.682h-2.968l-1.764,8.33h-2.016L19.866,3.682z"/>
	<path d="M26.11,1.988h7.434L33.18,3.682h-5.418l-0.476,2.226h5.04l-0.364,1.694h-5.04l-0.574,2.716h5.6l-0.35,1.694h-7.616
		L26.11,1.988z"/>
	<path d="M34.986,1.988h3.248c0.569,0,1.089,0.021,1.561,0.063c0.471,0.042,0.877,0.135,1.218,0.28
		c0.341,0.145,0.604,0.364,0.791,0.658s0.28,0.693,0.28,1.197c0,0.262-0.028,0.556-0.084,0.882c-0.224,0.747-0.504,1.33-0.84,1.75
		c-0.336,0.42-0.716,0.735-1.141,0.945c-0.425,0.21-0.889,0.341-1.393,0.392s-1.045,0.077-1.624,0.077h-1.33l-0.798,3.78h-2.016
		L34.986,1.988z M36.036,6.524h1.106c0.326,0,0.642-0.007,0.945-0.021c0.303-0.014,0.576-0.068,0.819-0.161s0.453-0.236,0.63-0.427
		c0.177-0.191,0.303-0.464,0.378-0.819c0.019-0.056,0.028-0.109,0.028-0.161c0-0.051,0-0.1,0-0.147c0-0.28-0.08-0.511-0.238-0.693
		c-0.159-0.182-0.374-0.296-0.644-0.343c-0.112-0.019-0.29-0.035-0.532-0.049s-0.546-0.021-0.91-0.021h-0.98L36.036,6.524z"/>
	<path d="M47.124,7.966h-2.618V6.174h2.618V3.556h1.75v2.618h2.632v1.792h-2.632v2.604h-1.75V7.966z"/>
	<path d="M56.209,1.988h3.024l1.82,6.832l1.792-6.832h3.038v10.024h-1.876V4.13l-1.988,7.882h-1.946L58.085,4.13v7.882h-1.876V1.988
		z"/>
	<path d="M67.186,6.65c0.121-0.392,0.273-0.719,0.455-0.98c0.182-0.261,0.399-0.474,0.651-0.637
		c0.252-0.163,0.546-0.278,0.882-0.343c0.336-0.065,0.719-0.098,1.148-0.098c0.308,0,0.602,0.012,0.882,0.035
		c0.28,0.023,0.544,0.072,0.791,0.147c0.248,0.075,0.469,0.182,0.665,0.322c0.196,0.14,0.355,0.332,0.476,0.574
		c0.037,0.065,0.07,0.154,0.098,0.266c0.028,0.112,0.051,0.278,0.07,0.497c0.019,0.22,0.033,0.509,0.042,0.868
		s0.014,0.819,0.014,1.379c0,0.159,0,0.35,0,0.574c0,0.224,0.004,0.448,0.014,0.672c0.009,0.224,0.019,0.439,0.028,0.644
		s0.028,0.364,0.056,0.476c0.056,0.289,0.168,0.611,0.336,0.966h-1.89c-0.047-0.112-0.107-0.303-0.182-0.574
		c-0.019-0.056-0.033-0.103-0.042-0.14s-0.019-0.065-0.028-0.084c-0.653,0.644-1.405,0.966-2.254,0.966
		c-0.747,0-1.335-0.205-1.764-0.616c-0.429-0.401-0.644-0.915-0.644-1.54c0-0.411,0.096-0.777,0.287-1.099
		c0.191-0.322,0.464-0.562,0.819-0.721c0.187-0.093,0.406-0.175,0.658-0.245c0.252-0.07,0.546-0.142,0.882-0.217
		c0.887-0.168,1.507-0.322,1.862-0.462V7.084c0-0.42-0.107-0.695-0.322-0.826s-0.542-0.196-0.98-0.196
		c-0.345,0-0.614,0.065-0.805,0.196s-0.348,0.369-0.469,0.714L67.186,6.65z M71.014,8.666c-0.191,0.047-0.422,0.098-0.693,0.154
		c-0.196,0.037-0.378,0.079-0.546,0.126s-0.317,0.105-0.448,0.175c-0.131,0.07-0.233,0.161-0.308,0.273
		c-0.075,0.112-0.112,0.257-0.112,0.434c0,0.299,0.105,0.539,0.315,0.721s0.46,0.273,0.749,0.273c0.29,0,0.532-0.049,0.728-0.147
		c0.196-0.098,0.353-0.236,0.469-0.413s0.201-0.383,0.252-0.616c0.051-0.233,0.077-0.48,0.077-0.742V8.526
		C71.367,8.573,71.206,8.62,71.014,8.666z"/>
	<path d="M78.693,6.286h-1.316v2.926c0,0.299,0.002,0.534,0.007,0.707c0.005,0.172,0.012,0.282,0.021,0.329
		c0.028,0.112,0.091,0.196,0.189,0.252c0.098,0.056,0.203,0.084,0.315,0.084c0.187,0,0.443-0.061,0.77-0.182l0.168,1.484
		c-0.448,0.196-0.957,0.294-1.526,0.294c-1.073,0-1.675-0.457-1.806-1.372c-0.019-0.121-0.035-0.294-0.049-0.518
		c-0.014-0.224-0.021-0.504-0.021-0.84V6.286h-0.882v-1.54h0.882V3.304l1.932-1.12v2.562h1.316V6.286z"/>
	<path d="M81.759,5.67c0.635-0.719,1.376-1.078,2.226-1.078c0.504,0,0.915,0.082,1.232,0.245C85.535,5,85.784,5.225,85.966,5.509
		s0.308,0.621,0.378,1.008c0.07,0.388,0.105,0.8,0.105,1.239v4.256h-1.918V8.176c0-0.327-0.007-0.621-0.021-0.882
		s-0.059-0.483-0.133-0.665c-0.075-0.182-0.191-0.322-0.35-0.42c-0.159-0.098-0.388-0.147-0.686-0.147
		c-0.327,0-0.593,0.065-0.798,0.196c-0.206,0.131-0.367,0.303-0.483,0.518s-0.196,0.459-0.238,0.735s-0.063,0.562-0.063,0.861v3.64
		h-1.918V1.988h1.918V5.67z"/>
	<path d="M93.841,10.024c-0.243,0.7-0.63,1.234-1.162,1.603c-0.532,0.369-1.199,0.553-2.002,0.553c-0.579,0-1.087-0.091-1.526-0.273
		c-0.439-0.182-0.805-0.438-1.099-0.77c-0.294-0.331-0.516-0.726-0.665-1.183c-0.149-0.457-0.224-0.961-0.224-1.512
		c0-0.532,0.072-1.034,0.217-1.505c0.145-0.471,0.357-0.879,0.637-1.225c0.28-0.345,0.627-0.618,1.043-0.819
		c0.416-0.201,0.894-0.301,1.435-0.301c0.606,0,1.127,0.105,1.561,0.315s0.791,0.504,1.071,0.882
		c0.28,0.378,0.485,0.833,0.616,1.365c0.13,0.532,0.196,1.125,0.196,1.778h-4.816c0,0.252,0.037,0.488,0.112,0.707
		c0.074,0.219,0.179,0.411,0.315,0.574c0.135,0.163,0.301,0.292,0.497,0.385c0.196,0.093,0.415,0.14,0.658,0.14
		c0.299,0,0.551-0.082,0.756-0.245c0.206-0.163,0.359-0.427,0.462-0.791L93.841,10.024z M92.035,7.714
		c0-0.467-0.126-0.859-0.378-1.176c-0.252-0.317-0.602-0.476-1.05-0.476c-0.448,0-0.8,0.157-1.057,0.469
		c-0.257,0.313-0.385,0.721-0.385,1.225h2.87V7.714z"/>
	<path d="M96.809,4.746V5.74c0.625-0.765,1.381-1.148,2.268-1.148c0.934,0,1.615,0.383,2.044,1.148
		c0.644-0.765,1.381-1.148,2.212-1.148c0.457,0,0.837,0.068,1.141,0.203c0.303,0.135,0.546,0.324,0.728,0.567
		c0.182,0.243,0.313,0.534,0.392,0.875s0.119,0.716,0.119,1.127v4.648h-1.918V7.868c0-0.271-0.007-0.516-0.021-0.735
		s-0.054-0.408-0.119-0.567s-0.166-0.282-0.301-0.371c-0.136-0.089-0.329-0.133-0.581-0.133c-0.317,0-0.569,0.075-0.756,0.224
		c-0.187,0.149-0.329,0.343-0.427,0.581s-0.164,0.502-0.196,0.791c-0.033,0.29-0.049,0.579-0.049,0.868v3.486h-1.918V8.036
		c0-0.719-0.033-1.176-0.098-1.372C99.254,6.45,99.145,6.295,99,6.202c-0.145-0.093-0.338-0.14-0.581-0.14
		c-0.336,0-0.6,0.07-0.791,0.21c-0.191,0.14-0.336,0.325-0.434,0.553c-0.098,0.229-0.161,0.488-0.189,0.777
		c-0.028,0.29-0.042,0.583-0.042,0.882v3.528h-1.918V4.746H96.809z"/>
	<path d="M107.001,6.65c0.121-0.392,0.273-0.719,0.455-0.98c0.182-0.261,0.399-0.474,0.651-0.637
		c0.252-0.163,0.546-0.278,0.882-0.343c0.336-0.065,0.719-0.098,1.148-0.098c0.308,0,0.602,0.012,0.882,0.035
		c0.28,0.023,0.544,0.072,0.791,0.147c0.248,0.075,0.469,0.182,0.665,0.322c0.196,0.14,0.355,0.332,0.476,0.574
		c0.037,0.065,0.07,0.154,0.098,0.266c0.028,0.112,0.051,0.278,0.07,0.497c0.019,0.22,0.033,0.509,0.042,0.868
		s0.014,0.819,0.014,1.379c0,0.159,0,0.35,0,0.574c0,0.224,0.004,0.448,0.014,0.672c0.009,0.224,0.019,0.439,0.028,0.644
		s0.028,0.364,0.056,0.476c0.056,0.289,0.168,0.611,0.336,0.966h-1.89c-0.047-0.112-0.107-0.303-0.182-0.574
		c-0.019-0.056-0.033-0.103-0.042-0.14s-0.019-0.065-0.028-0.084c-0.653,0.644-1.405,0.966-2.254,0.966
		c-0.747,0-1.335-0.205-1.764-0.616c-0.429-0.401-0.644-0.915-0.644-1.54c0-0.411,0.096-0.777,0.287-1.099
		c0.191-0.322,0.464-0.562,0.819-0.721c0.187-0.093,0.406-0.175,0.658-0.245c0.252-0.07,0.546-0.142,0.882-0.217
		c0.887-0.168,1.507-0.322,1.862-0.462V7.084c0-0.42-0.107-0.695-0.322-0.826s-0.542-0.196-0.98-0.196
		c-0.345,0-0.614,0.065-0.805,0.196s-0.348,0.369-0.469,0.714L107.001,6.65z M110.83,8.666c-0.191,0.047-0.422,0.098-0.693,0.154
		c-0.196,0.037-0.378,0.079-0.546,0.126s-0.317,0.105-0.448,0.175c-0.131,0.07-0.233,0.161-0.308,0.273
		c-0.075,0.112-0.112,0.257-0.112,0.434c0,0.299,0.105,0.539,0.315,0.721s0.46,0.273,0.749,0.273c0.29,0,0.532-0.049,0.728-0.147
		c0.196-0.098,0.353-0.236,0.469-0.413s0.201-0.383,0.252-0.616c0.051-0.233,0.077-0.48,0.077-0.742V8.526
		C111.182,8.573,111.021,8.62,110.83,8.666z"/>
	<path d="M118.509,6.286h-1.316v2.926c0,0.299,0.002,0.534,0.007,0.707c0.005,0.172,0.012,0.282,0.021,0.329
		c0.028,0.112,0.091,0.196,0.189,0.252c0.098,0.056,0.203,0.084,0.315,0.084c0.187,0,0.443-0.061,0.77-0.182l0.168,1.484
		c-0.448,0.196-0.957,0.294-1.526,0.294c-1.073,0-1.675-0.457-1.806-1.372c-0.019-0.121-0.035-0.294-0.049-0.518
		c-0.014-0.224-0.021-0.504-0.021-0.84V6.286h-0.882v-1.54h0.882V3.304l1.932-1.12v2.562h1.316V6.286z"/>
	<path d="M119.657,1.988h1.918v1.778h-1.918V1.988z M119.657,4.746h1.918v7.266h-1.918V4.746z"/>
	<path d="M127.398,7.238c-0.14-0.756-0.579-1.134-1.316-1.134c-0.308,0-0.562,0.054-0.763,0.161
		c-0.201,0.107-0.359,0.257-0.476,0.448c-0.117,0.191-0.201,0.417-0.252,0.679c-0.052,0.262-0.077,0.546-0.077,0.854
		c0,0.327,0.021,0.635,0.063,0.924c0.042,0.289,0.124,0.541,0.245,0.756c0.121,0.215,0.285,0.383,0.49,0.504
		c0.205,0.122,0.471,0.182,0.798,0.182c0.364,0,0.66-0.103,0.889-0.308c0.229-0.205,0.395-0.564,0.497-1.078l1.89,0.322
		c-0.392,1.755-1.512,2.632-3.36,2.632c-0.56,0-1.057-0.093-1.491-0.28c-0.434-0.187-0.798-0.446-1.092-0.777
		c-0.294-0.331-0.518-0.73-0.672-1.197c-0.154-0.467-0.231-0.98-0.231-1.54s0.077-1.073,0.231-1.54
		c0.154-0.467,0.38-0.868,0.679-1.204c0.298-0.336,0.665-0.595,1.099-0.777c0.434-0.182,0.936-0.273,1.505-0.273
		c0.887,0,1.589,0.187,2.107,0.56c0.518,0.373,0.894,0.957,1.127,1.75L127.398,7.238z"/>
	<path d="M132.13,9.646c0.084,0.374,0.252,0.658,0.504,0.854c0.252,0.196,0.602,0.294,1.05,0.294c0.159,0,0.32-0.012,0.483-0.035
		c0.163-0.023,0.31-0.063,0.441-0.119c0.13-0.056,0.238-0.135,0.322-0.238s0.126-0.238,0.126-0.406c0-0.252-0.114-0.45-0.343-0.595
		c-0.229-0.145-0.511-0.271-0.847-0.378c-0.336-0.107-0.705-0.21-1.106-0.308c-0.401-0.098-0.77-0.224-1.106-0.378
		c-0.336-0.154-0.618-0.35-0.847-0.588c-0.229-0.238-0.343-0.548-0.343-0.931c0-0.411,0.084-0.756,0.252-1.036
		s0.392-0.509,0.672-0.686c0.28-0.177,0.607-0.306,0.98-0.385c0.374-0.08,0.761-0.119,1.162-0.119c0.429,0,0.814,0.028,1.155,0.084
		c0.34,0.056,0.642,0.156,0.903,0.301c0.261,0.145,0.487,0.341,0.679,0.588c0.191,0.247,0.348,0.562,0.469,0.945l-1.806,0.336
		c-0.075-0.289-0.222-0.509-0.441-0.658c-0.219-0.149-0.53-0.224-0.931-0.224c-0.149,0-0.301,0.005-0.455,0.014
		c-0.154,0.01-0.294,0.035-0.42,0.077s-0.229,0.103-0.308,0.182c-0.08,0.079-0.119,0.189-0.119,0.329c0,0.196,0.117,0.359,0.35,0.49
		c0.233,0.131,0.525,0.252,0.875,0.364c0.35,0.112,0.73,0.226,1.141,0.343c0.41,0.117,0.791,0.259,1.141,0.427
		c0.35,0.168,0.642,0.375,0.875,0.623c0.233,0.248,0.35,0.558,0.35,0.931c0,0.43-0.093,0.798-0.28,1.106
		c-0.187,0.308-0.434,0.56-0.742,0.756c-0.308,0.196-0.66,0.34-1.057,0.434c-0.396,0.093-0.805,0.14-1.225,0.14
		c-0.989,0-1.771-0.201-2.345-0.602c-0.574-0.401-0.955-0.947-1.141-1.638L132.13,9.646z"/>
	<path d="M141.973,1.988h4.256c0.532,0,1.038,0.035,1.519,0.105c0.48,0.07,0.901,0.206,1.26,0.406
		c0.359,0.201,0.644,0.485,0.854,0.854c0.21,0.369,0.315,0.852,0.315,1.449c0,0.756-0.222,1.377-0.665,1.862
		c-0.443,0.485-1.104,0.793-1.981,0.924c0.448,0.261,0.807,0.541,1.078,0.84c0.075,0.075,0.159,0.175,0.252,0.301
		c0.093,0.126,0.226,0.32,0.399,0.581c0.172,0.262,0.396,0.607,0.672,1.036s0.627,0.985,1.057,1.666h-2.422
		c-0.495-0.737-0.896-1.334-1.204-1.792c-0.308-0.457-0.553-0.814-0.735-1.071c-0.182-0.257-0.315-0.441-0.399-0.553
		s-0.149-0.191-0.196-0.238c-0.122-0.131-0.236-0.231-0.343-0.301c-0.107-0.07-0.224-0.121-0.35-0.154
		c-0.126-0.033-0.264-0.054-0.413-0.063c-0.149-0.009-0.322-0.014-0.518-0.014h-0.406v4.186h-2.03V1.988z M145.5,6.23
		c0.98,0,1.587-0.042,1.82-0.126c0.261-0.093,0.455-0.242,0.581-0.448c0.126-0.205,0.189-0.448,0.189-0.728
		c0-0.336-0.091-0.606-0.273-0.812c-0.182-0.205-0.436-0.336-0.763-0.392c-0.168-0.028-0.658-0.042-1.47-0.042h-1.582V6.23H145.5z"
		/>
	<path d="M158.562,10.024c-0.243,0.7-0.63,1.234-1.162,1.603c-0.532,0.369-1.199,0.553-2.002,0.553
		c-0.579,0-1.087-0.091-1.526-0.273c-0.439-0.182-0.805-0.438-1.099-0.77c-0.294-0.331-0.516-0.726-0.665-1.183
		c-0.149-0.457-0.224-0.961-0.224-1.512c0-0.532,0.072-1.034,0.217-1.505c0.145-0.471,0.357-0.879,0.637-1.225
		c0.28-0.345,0.627-0.618,1.043-0.819c0.416-0.201,0.894-0.301,1.435-0.301c0.606,0,1.127,0.105,1.561,0.315
		s0.791,0.504,1.071,0.882c0.28,0.378,0.485,0.833,0.616,1.365c0.13,0.532,0.196,1.125,0.196,1.778h-4.816
		c0,0.252,0.037,0.488,0.112,0.707c0.074,0.219,0.179,0.411,0.315,0.574c0.135,0.163,0.301,0.292,0.497,0.385
		c0.196,0.093,0.415,0.14,0.658,0.14c0.299,0,0.551-0.082,0.756-0.245c0.206-0.163,0.359-0.427,0.462-0.791L158.562,10.024z
		 M156.756,7.714c0-0.467-0.126-0.859-0.378-1.176c-0.252-0.317-0.602-0.476-1.05-0.476c-0.448,0-0.8,0.157-1.057,0.469
		c-0.257,0.313-0.385,0.721-0.385,1.225h2.87V7.714z"/>
	<path d="M160.452,4.746V4.2c0-0.298,0.014-0.562,0.042-0.791c0.028-0.229,0.079-0.417,0.154-0.567
		c0.121-0.299,0.359-0.546,0.714-0.742c0.354-0.187,0.798-0.28,1.33-0.28c0.551,0,1.083,0.084,1.596,0.252l-0.252,1.33
		c-0.327-0.075-0.621-0.112-0.882-0.112c-0.28,0-0.481,0.065-0.602,0.196c-0.122,0.131-0.182,0.383-0.182,0.756v0.504h1.442v1.512
		h-1.442v5.754h-1.918V6.258h-1.064V4.746H160.452z"/>
	<path d="M171.652,10.024c-0.243,0.7-0.63,1.234-1.162,1.603c-0.532,0.369-1.199,0.553-2.002,0.553
		c-0.579,0-1.087-0.091-1.526-0.273c-0.439-0.182-0.805-0.438-1.099-0.77c-0.294-0.331-0.516-0.726-0.665-1.183
		c-0.149-0.457-0.224-0.961-0.224-1.512c0-0.532,0.072-1.034,0.217-1.505c0.145-0.471,0.357-0.879,0.637-1.225
		c0.28-0.345,0.627-0.618,1.043-0.819c0.416-0.201,0.894-0.301,1.435-0.301c0.606,0,1.127,0.105,1.561,0.315
		s0.791,0.504,1.071,0.882c0.28,0.378,0.485,0.833,0.616,1.365c0.13,0.532,0.196,1.125,0.196,1.778h-4.816
		c0,0.252,0.037,0.488,0.112,0.707c0.074,0.219,0.179,0.411,0.315,0.574c0.135,0.163,0.301,0.292,0.497,0.385
		c0.196,0.093,0.415,0.14,0.658,0.14c0.299,0,0.551-0.082,0.756-0.245c0.206-0.163,0.359-0.427,0.462-0.791L171.652,10.024z
		 M169.846,7.714c0-0.467-0.126-0.859-0.378-1.176c-0.252-0.317-0.602-0.476-1.05-0.476c-0.448,0-0.8,0.157-1.057,0.469
		c-0.257,0.313-0.385,0.721-0.385,1.225h2.87V7.714z"/>
	<path d="M172.856,12.012V4.746h1.778v1.036c0.308-0.467,0.583-0.789,0.826-0.966c0.243-0.149,0.522-0.224,0.84-0.224
		c0.429,0,0.849,0.121,1.26,0.364l-0.602,1.666c-0.317-0.205-0.616-0.308-0.896-0.308c-0.29,0-0.521,0.08-0.693,0.238
		c-0.173,0.159-0.304,0.399-0.392,0.721c-0.089,0.322-0.145,0.723-0.168,1.204c-0.023,0.481-0.035,1.043-0.035,1.687v1.848H172.856z
		"/>
	<path d="M184.826,10.024c-0.243,0.7-0.63,1.234-1.162,1.603c-0.532,0.369-1.199,0.553-2.002,0.553
		c-0.579,0-1.087-0.091-1.526-0.273c-0.439-0.182-0.805-0.438-1.099-0.77c-0.294-0.331-0.516-0.726-0.665-1.183
		c-0.149-0.457-0.224-0.961-0.224-1.512c0-0.532,0.072-1.034,0.217-1.505c0.145-0.471,0.357-0.879,0.637-1.225
		c0.28-0.345,0.627-0.618,1.043-0.819c0.416-0.201,0.894-0.301,1.435-0.301c0.606,0,1.127,0.105,1.561,0.315
		s0.791,0.504,1.071,0.882c0.28,0.378,0.485,0.833,0.616,1.365c0.13,0.532,0.196,1.125,0.196,1.778h-4.816
		c0,0.252,0.037,0.488,0.112,0.707c0.074,0.219,0.179,0.411,0.315,0.574c0.135,0.163,0.301,0.292,0.497,0.385
		c0.196,0.093,0.415,0.14,0.658,0.14c0.299,0,0.551-0.082,0.756-0.245c0.206-0.163,0.359-0.427,0.462-0.791L184.826,10.024z
		 M183.02,7.714c0-0.467-0.126-0.859-0.378-1.176c-0.252-0.317-0.602-0.476-1.05-0.476c-0.448,0-0.8,0.157-1.057,0.469
		c-0.257,0.313-0.385,0.721-0.385,1.225h2.87V7.714z"/>
	<path d="M190.719,12.012v-3.71c0-0.784-0.042-1.288-0.126-1.512c-0.075-0.242-0.21-0.424-0.406-0.546
		c-0.196-0.121-0.415-0.182-0.658-0.182c-0.383,0-0.682,0.075-0.896,0.224c-0.215,0.149-0.374,0.348-0.476,0.595
		c-0.103,0.247-0.164,0.532-0.182,0.854c-0.019,0.322-0.028,0.651-0.028,0.987v3.29h-1.918V4.746h1.778v1.078
		c0.644-0.821,1.442-1.232,2.394-1.232c0.495,0,0.898,0.075,1.211,0.224s0.56,0.354,0.742,0.616
		c0.182,0.262,0.308,0.569,0.378,0.924c0.07,0.354,0.105,0.737,0.105,1.148v4.508H190.719z"/>
	<path d="M198.475,7.238c-0.14-0.756-0.579-1.134-1.316-1.134c-0.308,0-0.562,0.054-0.763,0.161
		c-0.201,0.107-0.359,0.257-0.476,0.448c-0.117,0.191-0.201,0.417-0.252,0.679c-0.052,0.262-0.077,0.546-0.077,0.854
		c0,0.327,0.021,0.635,0.063,0.924c0.042,0.289,0.124,0.541,0.245,0.756c0.121,0.215,0.285,0.383,0.49,0.504
		c0.205,0.122,0.471,0.182,0.798,0.182c0.364,0,0.66-0.103,0.889-0.308c0.229-0.205,0.395-0.564,0.497-1.078l1.89,0.322
		c-0.392,1.755-1.512,2.632-3.36,2.632c-0.56,0-1.057-0.093-1.491-0.28c-0.434-0.187-0.798-0.446-1.092-0.777
		c-0.294-0.331-0.518-0.73-0.672-1.197c-0.154-0.467-0.231-0.98-0.231-1.54s0.077-1.073,0.231-1.54
		c0.154-0.467,0.38-0.868,0.679-1.204c0.298-0.336,0.665-0.595,1.099-0.777c0.434-0.182,0.936-0.273,1.505-0.273
		c0.887,0,1.589,0.187,2.107,0.56c0.518,0.373,0.894,0.957,1.127,1.75L198.475,7.238z"/>
	<path d="M207.995,10.024c-0.243,0.7-0.63,1.234-1.162,1.603c-0.532,0.369-1.199,0.553-2.002,0.553
		c-0.579,0-1.087-0.091-1.526-0.273c-0.439-0.182-0.805-0.438-1.099-0.77c-0.294-0.331-0.516-0.726-0.665-1.183
		c-0.149-0.457-0.224-0.961-0.224-1.512c0-0.532,0.072-1.034,0.217-1.505c0.145-0.471,0.357-0.879,0.637-1.225
		c0.28-0.345,0.627-0.618,1.043-0.819c0.416-0.201,0.894-0.301,1.435-0.301c0.606,0,1.127,0.105,1.561,0.315
		s0.791,0.504,1.071,0.882c0.28,0.378,0.485,0.833,0.616,1.365c0.13,0.532,0.196,1.125,0.196,1.778h-4.816
		c0,0.252,0.037,0.488,0.112,0.707c0.074,0.219,0.179,0.411,0.315,0.574c0.135,0.163,0.301,0.292,0.497,0.385
		c0.196,0.093,0.415,0.14,0.658,0.14c0.299,0,0.551-0.082,0.756-0.245c0.206-0.163,0.359-0.427,0.462-0.791L207.995,10.024z
		 M206.189,7.714c0-0.467-0.126-0.859-0.378-1.176c-0.252-0.317-0.602-0.476-1.05-0.476c-0.448,0-0.8,0.157-1.057,0.469
		c-0.257,0.313-0.385,0.721-0.385,1.225h2.87V7.714z"/>
	<path d="M214.841,8.554c0.121,0.672,0.361,1.162,0.721,1.47c0.359,0.308,0.847,0.462,1.463,0.462c0.242,0,0.48-0.026,0.713-0.077
		c0.234-0.051,0.443-0.133,0.631-0.245c0.186-0.112,0.338-0.256,0.455-0.434c0.115-0.177,0.174-0.387,0.174-0.63
		c0-0.243-0.068-0.445-0.209-0.609c-0.141-0.163-0.383-0.306-0.729-0.427c-0.336-0.112-0.688-0.217-1.057-0.315
		c-0.369-0.098-0.73-0.2-1.085-0.308c-0.355-0.107-0.696-0.233-1.022-0.378c-0.327-0.145-0.614-0.324-0.861-0.539
		c-0.247-0.215-0.443-0.476-0.588-0.784c-0.145-0.308-0.217-0.681-0.217-1.12c0-0.504,0.107-0.933,0.322-1.288
		c0.215-0.354,0.495-0.644,0.84-0.868c0.345-0.224,0.735-0.387,1.169-0.49c0.434-0.103,0.875-0.154,1.323-0.154
		c0.551,0,1.055,0.058,1.512,0.175s0.852,0.296,1.184,0.539c0.33,0.243,0.598,0.558,0.797,0.945c0.201,0.388,0.32,0.847,0.357,1.379
		l-2.029,0.084c-0.084-0.523-0.27-0.894-0.553-1.113c-0.285-0.219-0.713-0.329-1.281-0.329c-0.187,0-0.381,0.014-0.582,0.042
		c-0.201,0.028-0.385,0.077-0.553,0.147c-0.168,0.07-0.306,0.17-0.413,0.301s-0.161,0.294-0.161,0.49
		c0,0.262,0.084,0.476,0.252,0.644c0.168,0.168,0.39,0.313,0.665,0.434c0.275,0.122,0.588,0.229,0.938,0.322s0.707,0.196,1.07,0.308
		c0.365,0.112,0.723,0.241,1.072,0.385c0.35,0.145,0.662,0.327,0.938,0.546s0.498,0.49,0.666,0.812
		c0.168,0.322,0.252,0.712,0.252,1.169c0,0.56-0.115,1.036-0.344,1.428s-0.529,0.712-0.902,0.959
		c-0.375,0.247-0.801,0.427-1.281,0.539c-0.48,0.112-0.973,0.168-1.478,0.168c-1.279,0-2.256-0.292-2.933-0.875
		s-1.08-1.44-1.211-2.569L214.841,8.554z"/>
	<path d="M224.038,5.67c0.635-0.719,1.377-1.078,2.227-1.078c0.504,0,0.914,0.082,1.231,0.245c0.317,0.163,0.567,0.387,0.749,0.672
		c0.183,0.285,0.309,0.621,0.379,1.008c0.069,0.388,0.104,0.8,0.104,1.239v4.256h-1.918V8.176c0-0.327-0.007-0.621-0.021-0.882
		c-0.015-0.261-0.059-0.483-0.134-0.665c-0.074-0.182-0.191-0.322-0.35-0.42c-0.159-0.098-0.388-0.147-0.687-0.147
		c-0.326,0-0.593,0.065-0.798,0.196s-0.366,0.303-0.482,0.518c-0.117,0.215-0.196,0.459-0.238,0.735s-0.063,0.562-0.063,0.861v3.64
		h-1.918V1.988h1.918V5.67z"/>
	<path d="M236.12,10.024c-0.242,0.7-0.63,1.234-1.162,1.603c-0.531,0.369-1.199,0.553-2.002,0.553c-0.578,0-1.087-0.091-1.525-0.273
		c-0.439-0.182-0.806-0.438-1.1-0.77c-0.294-0.331-0.516-0.726-0.665-1.183c-0.149-0.457-0.224-0.961-0.224-1.512
		c0-0.532,0.072-1.034,0.217-1.505c0.145-0.471,0.357-0.879,0.638-1.225c0.279-0.345,0.627-0.618,1.043-0.819
		c0.415-0.201,0.894-0.301,1.435-0.301c0.606,0,1.127,0.105,1.562,0.315c0.434,0.21,0.791,0.504,1.07,0.882
		c0.28,0.378,0.485,0.833,0.616,1.365c0.131,0.532,0.196,1.125,0.196,1.778h-4.816c0,0.252,0.037,0.488,0.112,0.707
		c0.074,0.219,0.18,0.411,0.314,0.574c0.136,0.163,0.302,0.292,0.497,0.385c0.196,0.093,0.415,0.14,0.658,0.14
		c0.299,0,0.551-0.082,0.756-0.245c0.205-0.163,0.359-0.427,0.462-0.791L236.12,10.024z M234.314,7.714
		c0-0.467-0.126-0.859-0.378-1.176c-0.252-0.317-0.603-0.476-1.05-0.476c-0.448,0-0.801,0.157-1.058,0.469
		c-0.257,0.313-0.385,0.721-0.385,1.225h2.87V7.714z"/>
	<path d="M243.82,10.024c-0.242,0.7-0.63,1.234-1.162,1.603c-0.531,0.369-1.199,0.553-2.002,0.553c-0.578,0-1.087-0.091-1.525-0.273
		c-0.439-0.182-0.806-0.438-1.1-0.77c-0.294-0.331-0.516-0.726-0.665-1.183c-0.149-0.457-0.224-0.961-0.224-1.512
		c0-0.532,0.072-1.034,0.217-1.505c0.145-0.471,0.357-0.879,0.638-1.225c0.279-0.345,0.627-0.618,1.043-0.819
		c0.415-0.201,0.894-0.301,1.435-0.301c0.606,0,1.127,0.105,1.562,0.315c0.434,0.21,0.791,0.504,1.07,0.882
		c0.28,0.378,0.485,0.833,0.616,1.365c0.131,0.532,0.196,1.125,0.196,1.778h-4.816c0,0.252,0.037,0.488,0.112,0.707
		c0.074,0.219,0.18,0.411,0.314,0.574c0.136,0.163,0.302,0.292,0.497,0.385c0.196,0.093,0.415,0.14,0.658,0.14
		c0.299,0,0.551-0.082,0.756-0.245c0.205-0.163,0.359-0.427,0.462-0.791L243.82,10.024z M242.015,7.714
		c0-0.467-0.126-0.859-0.378-1.176c-0.252-0.317-0.603-0.476-1.05-0.476c-0.448,0-0.801,0.157-1.058,0.469
		c-0.257,0.313-0.385,0.721-0.385,1.225h2.87V7.714z"/>
	<path d="M248.777,6.286h-1.316v2.926c0,0.299,0.002,0.534,0.007,0.707c0.005,0.172,0.012,0.282,0.021,0.329
		c0.027,0.112,0.091,0.196,0.188,0.252c0.098,0.056,0.203,0.084,0.315,0.084c0.187,0,0.443-0.061,0.77-0.182l0.168,1.484
		c-0.448,0.196-0.957,0.294-1.525,0.294c-1.074,0-1.676-0.457-1.807-1.372c-0.019-0.121-0.035-0.294-0.049-0.518
		c-0.014-0.224-0.021-0.504-0.021-0.84V6.286h-0.883v-1.54h0.883V3.304l1.932-1.12v2.562h1.316V6.286z"/>
</g>
<g>
</g>
<g>
</g>
<g>
</g>
<g>
</g>
<g>
</g>
<g>
</g>
</svg>
