<?xml version="1.0" encoding="utf-8"?>
<!-- Generator: Adobe Illustrator 16.0.4, SVG Export Plug-In . SVG Version: 6.00 Build 0)  -->
<!DOCTYPE svg PUBLIC "-//W3C//DTD SVG 1.1//EN" "http://www.w3.org/Graphics/SVG/1.1/DTD/svg11.dtd">
<svg version="1.1" id="Layer_1" xmlns="http://www.w3.org/2000/svg" xmlns:xlink="http://www.w3.org/1999/xlink" x="0px" y="0px"
	 width="8.65px" height="13px" viewBox="0 0 8.65 13" enable-background="new 0 0 8.65 13" xml:space="preserve">
<g>
	<path d="M0,9.45L2.45,9.2c0.1,0.565,0.316,1.017,0.65,1.35c0.333,0.333,0.732,0.5,1.199,0.5c0.5,0,0.935-0.216,1.301-0.649
		c0.333-0.434,0.517-1.084,0.55-1.95c-0.033-0.8-0.217-1.4-0.55-1.8c-0.367-0.4-0.833-0.6-1.4-0.6C3.467,6.05,2.817,6.367,2.25,7
		l-2-0.3L1.55,0H8.1v2.3H3.4L3,4.5C3.533,4.233,4.1,4.1,4.7,4.1c1.1,0,2.033,0.4,2.8,1.2C8.267,6.1,8.65,7.133,8.65,8.4
		c0,1.1-0.3,2.066-0.9,2.899C6.883,12.434,5.717,13,4.25,13c-1.2,0-2.167-0.316-2.899-0.95C0.583,11.417,0.133,10.55,0,9.45"/>
</g>
</svg>
