<?xml version="1.0" encoding="utf-8"?>
<!-- Generator: Adobe Illustrator 16.0.4, SVG Export Plug-In . SVG Version: 6.00 Build 0)  -->
<!DOCTYPE svg PUBLIC "-//W3C//DTD SVG 1.1//EN" "http://www.w3.org/Graphics/SVG/1.1/DTD/svg11.dtd">
<svg version="1.1" id="Layer_1" xmlns="http://www.w3.org/2000/svg" xmlns:xlink="http://www.w3.org/1999/xlink" x="0px" y="0px"
	 width="8.45px" height="13.2px" viewBox="0 0 8.45 13.2" enable-background="new 0 0 8.45 13.2" xml:space="preserve">
<g>
	<path d="M2.15,6c-0.633-0.267-1.1-0.633-1.4-1.1C0.45,4.434,0.3,3.917,0.3,3.35c0-0.967,0.333-1.767,1-2.4
		C1.967,0.316,2.917,0,4.15,0S6.333,0.316,7,0.95c0.7,0.633,1.05,1.433,1.05,2.4c0,0.6-0.167,1.133-0.5,1.6
		C7.25,5.417,6.817,5.767,6.25,6C6.983,6.3,7.533,6.717,7.9,7.25c0.367,0.566,0.55,1.2,0.55,1.9c0,1.2-0.383,2.167-1.15,2.9
		c-0.767,0.767-1.767,1.15-3,1.15c-1.167,0-2.15-0.317-2.95-0.95C0.45,11.55,0,10.566,0,9.3c0-0.7,0.167-1.35,0.5-1.95
		C0.867,6.783,1.417,6.333,2.15,6 M2.45,9.05c0,0.667,0.167,1.2,0.5,1.6c0.367,0.367,0.8,0.55,1.3,0.55s0.917-0.184,1.25-0.55
		S6,9.75,6,9.05c0-0.6-0.167-1.083-0.5-1.45S4.733,7.05,4.2,7.05c-0.6,0-1.034,0.217-1.3,0.65C2.6,8.1,2.45,8.55,2.45,9.05
		 M2.65,3.5c0,0.5,0.133,0.9,0.4,1.2c0.3,0.267,0.684,0.4,1.15,0.4c0.433,0,0.8-0.15,1.1-0.45C5.567,4.383,5.7,4,5.7,3.5
		c0-0.467-0.133-0.833-0.4-1.1C5.033,2.1,4.667,1.95,4.2,1.95c-0.467,0-0.833,0.15-1.1,0.45C2.8,2.667,2.65,3.033,2.65,3.5"/>
</g>
</svg>
