<?xml version="1.0" encoding="utf-8"?>
<!-- Generator: Adobe Illustrator 16.0.4, SVG Export Plug-In . SVG Version: 6.00 Build 0)  -->
<!DOCTYPE svg PUBLIC "-//W3C//DTD SVG 1.1//EN" "http://www.w3.org/Graphics/SVG/1.1/DTD/svg11.dtd">
<svg version="1.1" id="Layer_1" xmlns="http://www.w3.org/2000/svg" xmlns:xlink="http://www.w3.org/1999/xlink" x="0px" y="0px"
	 width="12.6px" height="10.4px" viewBox="0 0 12.6 10.4" enable-background="new 0 0 12.6 10.4" xml:space="preserve">
<g>
	<path d="M12.6,6H0V4.4h12.6V6 M7.35,2.65L6.3,3.1c-0.433,0-0.8-0.15-1.1-0.45C4.9,2.35,4.75,1.967,4.75,1.5
		c0-0.4,0.15-0.75,0.45-1.05C5.5,0.15,5.867,0,6.3,0c0.4,0,0.75,0.15,1.05,0.45C7.65,0.75,7.8,1.1,7.8,1.5L7.35,2.65 M7.8,8.9
		c0,0.434-0.15,0.8-0.45,1.1c-0.3,0.267-0.65,0.4-1.05,0.4c-0.433,0-0.8-0.133-1.1-0.4C4.933,9.7,4.8,9.333,4.8,8.9
		c0-0.4,0.133-0.75,0.4-1.05C5.5,7.55,5.867,7.4,6.3,7.4c0.4,0,0.75,0.15,1.05,0.45C7.65,8.15,7.8,8.5,7.8,8.9"/>
</g>
</svg>
