<?xml version="1.0" encoding="utf-8"?>
<!-- Generator: Adobe Illustrator 16.0.4, SVG Export Plug-In . SVG Version: 6.00 Build 0)  -->
<!DOCTYPE svg PUBLIC "-//W3C//DTD SVG 1.1//EN" "http://www.w3.org/Graphics/SVG/1.1/DTD/svg11.dtd">
<svg version="1.1" id="Layer_1" xmlns="http://www.w3.org/2000/svg" xmlns:xlink="http://www.w3.org/1999/xlink" x="0px" y="0px"
	 width="23.3px" height="11.45px" viewBox="0 0 23.3 11.45" enable-background="new 0 0 23.3 11.45" xml:space="preserve">
<g>
	<path d="M11.05,0v11.45H8.9v-9l-2.3,9H4.4l-2.25-9v9H0V0h3.45L5.5,7.8L7.6,0H11.05 M13,0h4.9l2.65,0.3
		c0.567,0.2,1.017,0.567,1.35,1.1c0.333,0.534,0.5,1.133,0.5,1.8c0,0.866-0.25,1.583-0.75,2.15c-0.533,0.566-1.3,0.917-2.3,1.05
		l1.25,0.95l1.3,1.85l1.4,2.25h-2.75l-1.65-2.5L17.65,7.3l-0.7-0.5L15.8,6.65h-0.45v4.8H13V0 M17.15,1.95h-1.8v2.9h1.7L19.1,4.7
		l0.65-0.5L20,3.35l-0.3-0.9c-0.2-0.267-0.483-0.434-0.85-0.5H17.15"/>
</g>
</svg>
