<?xml version="1.0" encoding="utf-8"?>
<!-- Generator: Adobe Illustrator 16.0.4, SVG Export Plug-In . SVG Version: 6.00 Build 0)  -->
<!DOCTYPE svg PUBLIC "-//W3C//DTD SVG 1.1//EN" "http://www.w3.org/Graphics/SVG/1.1/DTD/svg11.dtd">
<svg version="1.1" id="Layer_1" xmlns="http://www.w3.org/2000/svg" xmlns:xlink="http://www.w3.org/1999/xlink" x="0px" y="0px"
	 width="14.35px" height="13.6px" viewBox="0 0 14.35 13.6" enable-background="new 0 0 14.35 13.6" xml:space="preserve">
<g>
	<path fill="#FFFFFF" d="M12.3,8.85l-0.25-0.5L11.5,8.2c-0.2,0-0.367,0.05-0.5,0.15l-0.25,0.5l-0.1,0.6L10.6,10.2l0.05,0.75l0.1,0.6
		l0.25,0.5l0.5,0.15l0.55-0.15l0.25-0.5l0.1-0.6V10.2V9.45L12.3,8.85 M13.6,12.8c-0.5,0.534-1.184,0.8-2.05,0.8
		c-0.9,0-1.6-0.267-2.1-0.8c-0.5-0.566-0.75-1.433-0.75-2.6c0-1.167,0.25-2.034,0.75-2.6c0.5-0.534,1.2-0.8,2.1-0.8
		c0.867,0,1.55,0.267,2.05,0.8c0.5,0.566,0.75,1.433,0.75,2.6C14.35,11.367,14.1,12.233,13.6,12.8 M2.85,1.4l-0.5,0.15L2.05,2
		l-0.1,0.65V3.4v0.7l0.1,0.65l0.3,0.45l0.5,0.15l0.5-0.15L3.6,4.75L3.7,4.1l0.05-0.7L3.7,2.65L3.6,2L3.35,1.55L2.85,1.4 M2.9,6.8
		C2,6.8,1.3,6.517,0.8,5.95C0.267,5.417,0,4.566,0,3.4s0.267-2.033,0.8-2.6C1.3,0.267,1.983,0,2.85,0c0.9,0,1.6,0.267,2.1,0.8
		C5.45,1.367,5.7,2.233,5.7,3.4S5.45,5.417,4.95,5.95C4.45,6.517,3.767,6.8,2.9,6.8 M2.9,13.6L9.75,0h1.75L4.75,13.6H2.9"/>
</g>
</svg>
